<?xml version="1.0" encoding="UTF-8" standalone="no"?>
<!-- Created with Inkscape (http://www.inkscape.org/) -->
<svg
   xmlns:dc="http://purl.org/dc/elements/1.1/"
   xmlns:cc="http://web.resource.org/cc/"
   xmlns:rdf="http://www.w3.org/1999/02/22-rdf-syntax-ns#"
   xmlns:svg="http://www.w3.org/2000/svg"
   xmlns="http://www.w3.org/2000/svg"
   xmlns:sodipodi="http://sodipodi.sourceforge.net/DTD/sodipodi-0.dtd"
   xmlns:inkscape="http://www.inkscape.org/namespaces/inkscape"
   width="601"
   height="1201"
   id="svg2"
   sodipodi:version="0.32"
   inkscape:version="0.44"
   version="1.0"
   sodipodi:docbase="C:\Documents and Settings\ltljltlj\Desktop\Signs\Speed Limit Signs"
   sodipodi:docname="Speed Limit 60 Minimum 40 sign (Outline).svg">
  <defs
     id="defs4" />
  <sodipodi:namedview
     id="base"
     pagecolor="#ffffff"
     bordercolor="#666666"
     borderopacity="1.0"
     gridtolerance="10000"
     guidetolerance="10"
     objecttolerance="10"
     inkscape:pageopacity="0.0"
     inkscape:pageshadow="2"
     inkscape:zoom="0.64333333"
     inkscape:cx="300"
     inkscape:cy="600"
     inkscape:document-units="px"
     inkscape:current-layer="layer1"
     width="601px"
     height="1201px"
     inkscape:window-width="1280"
     inkscape:window-height="968"
     inkscape:window-x="-4"
     inkscape:window-y="-4" />
  <metadata
     id="metadata7">
    <rdf:RDF>
      <cc:Work
         rdf:about="">
        <dc:format>image/svg+xml</dc:format>
        <dc:type
           rdf:resource="http://purl.org/dc/dcmitype/StillImage" />
      </cc:Work>
    </rdf:RDF>
  </metadata>
  <g
     inkscape:label="Layer 1"
     inkscape:groupmode="layer"
     id="layer1">
    <path
       style="color:black;fill:white;fill-opacity:1;fill-rule:nonzero;stroke:black;stroke-width:1;stroke-linecap:butt;stroke-linejoin:miter;marker:none;marker-start:none;marker-mid:none;marker-end:none;stroke-miterlimit:4;stroke-dashoffset:0;stroke-opacity:1;visibility:visible;display:inline;overflow:visible"
       d="M 38,0.5 L 563,0.5 C 583.775,0.5 600.5,17.225 600.5,38 L 600.5,1163 C 600.5,1183.775 583.775,1200.5 563,1200.5 L 38,1200.5 C 17.225,1200.5 0.5,1183.775 0.5,1163 L 0.5,38 C 0.5,17.225 17.225,0.5 38,0.5 z "
       id="rect1872" />
    <path
       style="color:black;fill:black;fill-opacity:1;fill-rule:nonzero;stroke:none;stroke-width:0.8735441;stroke-linecap:butt;stroke-linejoin:miter;marker:none;marker-start:none;marker-mid:none;marker-end:none;stroke-miterlimit:4;stroke-dashoffset:0;stroke-opacity:1;visibility:visible;display:inline;overflow:visible"
       d="M 38,9.875 L 563,9.875 C 578.58125,9.875 591.125,22.41875 591.125,38 L 591.125,1163 C 591.125,1178.5813 578.58125,1191.125 563,1191.125 L 38,1191.125 C 22.41875,1191.125 9.875,1178.5813 9.875,1163 L 9.875,38 C 9.875,22.41875 22.41875,9.875 38,9.875 z "
       id="rect2760" />
    <path
       style="color:black;fill:white;fill-opacity:1;fill-rule:nonzero;stroke:none;stroke-width:0.8735441;stroke-linecap:butt;stroke-linejoin:miter;marker:none;marker-start:none;marker-mid:none;marker-end:none;stroke-miterlimit:4;stroke-dashoffset:0;stroke-opacity:1;visibility:visible;display:inline;overflow:visible"
       d="M 38,25.5 L 563,25.5 C 569.925,25.5 575.5,31.075 575.5,38 L 575.5,1163 C 575.5,1169.925 569.925,1175.5 563,1175.5 L 38,1175.5 C 31.075,1175.5 25.5,1169.925 25.5,1163 L 25.5,38 C 25.5,31.075 31.075,25.5 38,25.5 z "
       id="rect2762" />
    <path
       style="font-size:151.5161438px;font-style:normal;font-variant:normal;font-weight:normal;font-stretch:normal;text-align:center;line-height:125%;writing-mode:lr-tb;text-anchor:middle;font-family:Roadgeek 2005 Series E"
       d="M 143.09229,171.39508 C 143.0922,181.54611 138.27134,189.35749 128.62972,194.82925 C 125.04334,197.01857 120.99388,198.68484 116.48135,199.82808 C 111.96868,200.97132 107.30274,201.54294 102.4835,201.54294 C 93.561507,201.54294 85.69105,199.97611 78.872097,196.84244 C 72.053093,193.70879 65.720739,188.85799 59.875014,182.29003 L 74.6427,171.09903 C 78.538789,175.47464 82.640659,178.65764 86.948322,180.64804 C 91.255917,182.63849 96.331033,183.6337 102.17368,183.63368 C 108.736,183.6337 114.11936,182.41531 118.32379,179.9785 C 122.52808,177.54173 124.63026,174.4316 124.63033,170.6481 C 124.63026,166.67032 122.47723,163.63686 118.17123,161.54772 C 116.32481,160.84937 114.4018,160.15173 112.40216,159.45481 C 110.40241,158.75798 108.22434,158.16207 105.86796,157.66708 L 101.09873,156.32343 L 96.329512,155.27584 L 91.410079,153.78643 C 86.077531,152.5901 81.898207,151.27074 78.872097,149.82836 C 75.845935,148.38607 73.25635,146.47156 71.103337,144.08482 C 68.950287,141.79537 67.335513,139.20751 66.259011,136.32126 C 65.18248,133.43514 64.644222,130.40092 64.644235,127.2186 C 64.644222,123.04045 65.515762,119.25927 67.258856,115.875 C 69.001922,112.49092 71.411565,109.58044 74.487794,107.14355 C 77.563979,104.70686 81.280932,102.81664 85.638664,101.4729 C 89.996331,100.12935 94.791365,99.457528 100.02378,99.45742 C 107.71269,99.457528 114.71082,100.70097 121.01821,103.18776 C 127.32547,105.67475 133.09374,109.55538 138.32307,114.82969 L 124.63033,126.77224 C 118.17117,120.20437 109.96899,116.9204 100.02378,116.92032 C 94.791365,116.9204 90.714529,117.84046 87.793263,119.68049 C 84.871927,121.52069 83.411276,124.03339 83.411307,127.2186 C 83.411276,128.61243 83.667105,129.83158 84.178795,130.87606 C 84.690421,131.92068 85.561961,132.86579 86.793417,133.71139 C 88.024804,134.55712 89.691214,135.32839 91.79265,136.0252 C 93.894007,136.72214 96.534444,137.41826 99.713969,138.11355 C 106.58297,139.50737 112.32543,140.90036 116.94137,142.29253 C 121.55718,143.68483 125.29995,145.07781 128.16969,146.47151 C 132.78549,148.76108 136.42656,152.11944 139.0929,156.54661 C 141.75907,160.97386 143.0922,165.92334 143.09229,171.39508 L 143.09229,171.39508 z M 246.10933,131.09925 C 246.10924,133.6864 245.75092,136.2735 245.03439,138.86053 C 244.31765,141.44769 243.26696,143.88523 241.88229,146.17317 C 240.49744,148.46123 238.83102,150.57539 236.88306,152.51566 C 234.93491,154.45602 232.72946,156.07296 230.2667,157.36646 C 227.29368,158.95763 224.44827,160.00218 221.73045,160.50013 C 219.01249,160.99815 215.70549,161.24715 211.80943,161.24711 L 182.43366,161.24711 L 182.43366,200.49991 L 163.6666,200.49991 L 163.6666,100.50046 L 211.80943,100.50046 C 215.70549,100.50056 219.01249,100.79965 221.73045,101.39775 C 224.44827,101.99603 227.29368,103.09069 230.2667,104.68171 C 235.18917,107.26891 239.06025,110.90056 241.87993,115.57667 C 244.69945,120.25296 246.10924,125.42714 246.10933,131.09925 L 246.10933,131.09925 z M 227.65208,131.09925 C 227.652,127.21867 226.26802,124.13435 223.50013,121.84627 C 220.7321,119.55835 217.04018,118.41436 212.42437,118.41428 L 182.43366,118.41428 L 182.43366,143.33784 L 212.42437,143.33784 C 217.04018,143.3379 220.7321,142.2182 223.50013,139.97872 C 226.26802,137.73936 227.652,134.77954 227.65208,131.09925 L 227.65208,131.09925 z M 263.40715,200.49991 L 263.40715,100.50046 L 338.62096,100.50046 L 338.62096,118.41428 L 282.17423,118.41428 L 282.17423,136.92021 L 312.93476,136.92021 L 312.93476,155.27584 L 282.17423,155.27584 L 282.17423,182.59065 L 340.47044,182.59065 L 340.47044,200.49991 L 263.40715,200.49991 z M 361.04473,200.49991 L 361.04473,100.50046 L 436.25853,100.50046 L 436.25853,118.41428 L 379.8118,118.41428 L 379.8118,136.92021 L 410.57234,136.92021 L 410.57234,155.27584 L 379.8118,155.27584 L 379.8118,182.59065 L 438.10802,182.59065 L 438.10802,200.49991 L 361.04473,200.49991 z M 541.12507,150.35216 C 541.12498,160.403 539.0228,169.15949 534.81853,176.62165 C 530.61408,184.08386 524.41082,190.05285 516.20871,194.52864 C 512.61921,196.52058 508.72232,198.01378 504.51801,199.00823 C 500.3136,200.00268 496.11003,200.49991 491.90728,200.49991 L 458.68232,200.49991 L 458.68232,100.50046 L 491.90728,100.50046 C 500.7259,100.50056 508.92964,102.59119 516.51852,106.77235 C 524.51408,111.24823 530.61408,117.14282 534.81853,124.45615 C 539.0228,131.76962 541.12498,140.40161 541.12507,150.35216 L 541.12507,150.35216 z M 522.66781,150.35216 C 522.66774,143.58689 521.41206,137.91548 518.90079,133.3379 C 516.38936,128.76045 512.56914,125.07946 507.4401,122.29492 C 502.72402,119.7079 497.54642,118.41436 491.90728,118.41428 L 477.4494,118.41428 L 477.4494,182.59065 L 491.90728,182.59065 C 497.33988,182.59067 502.31251,181.29712 506.82517,178.71 C 517.38686,173.33543 522.66774,163.88283 522.66781,150.35216 L 522.66781,150.35216 z "
       id="text2778" />
    <path
       style="font-size:149.25358582px;font-style:normal;font-variant:normal;font-weight:normal;font-stretch:normal;text-align:center;line-height:125%;writing-mode:lr-tb;text-anchor:middle;font-family:Roadgeek 2005 Series E"
       d="M 117.675,363 L 117.675,263.00049 L 135.58513,263.00049 L 135.58513,347.62772 L 192.45391,347.62772 L 192.45391,363 L 117.675,363 z M 209.50315,363 L 209.50315,263.00049 L 227.41328,263.00049 L 227.41328,363 L 209.50315,363 z M 329.64041,363 L 329.64041,301.95725 L 300.23809,363 L 271.13186,301.95725 L 271.13186,363 L 253.52235,363 L 253.52235,263.00049 L 271.13186,263.00049 L 300.23809,322.25322 L 329.64041,263.00049 L 347.25447,263.00049 L 347.25447,363 L 329.64041,363 z M 373.3362,363 L 373.3362,263.00049 L 391.24633,263.00049 L 391.24633,363 L 373.3362,363 z M 454.5194,280.61371 L 454.5194,363 L 437.05565,363 L 437.05565,280.61371 L 408.25004,280.61371 L 408.25004,263.00049 L 483.32501,263.00049 L 483.32501,280.61371 L 454.5194,280.61371 z "
       id="text2784" />
    <path
       style="font-size:147.64976501px;font-style:normal;font-variant:normal;font-weight:normal;font-stretch:normal;text-align:center;line-height:125%;writing-mode:lr-tb;text-anchor:middle;font-family:Roadgeek 2005 Series C"
       d="M 121.1932,838.00072 L 121.1932,781.88161 L 103.08197,838.00072 L 84.823634,781.88161 L 84.823634,838.00072 L 70.800022,838.00072 L 70.800022,738.00112 L 84.823634,738.00112 L 103.08197,794.12023 L 121.1932,738.00112 L 135.36392,738.00112 L 135.36392,838.00072 L 121.1932,838.00072 z M 156.67124,838.00072 L 156.67124,738.00112 L 170.40065,738.00112 L 170.40065,838.00072 L 156.67124,838.00072 z M 236.30628,838.00072 L 206.07038,770.98664 L 206.07038,838.00072 L 192.04676,838.00072 L 192.04676,738.00112 L 206.07038,738.00112 L 232.94525,798.00088 L 232.94525,738.00112 L 246.96886,738.00112 L 246.96886,838.00072 L 236.30628,838.00072 z M 268.21825,838.00072 L 268.21825,738.00112 L 281.94766,738.00112 L 281.94766,838.00072 L 268.21825,838.00072 z M 353.98694,838.00072 L 353.98694,781.88161 L 335.8757,838.00072 L 317.61737,781.88161 L 317.61737,838.00072 L 303.59376,838.00072 L 303.59376,738.00112 L 317.61737,738.00112 L 335.8757,794.12023 L 353.98694,738.00112 L 368.15765,738.00112 L 368.15765,838.00072 L 353.98694,838.00072 z M 444.38708,808.14887 C 444.38701,810.14084 444.31421,811.93238 444.16866,813.52348 C 444.02298,815.11463 443.80381,816.58201 443.51116,817.92564 C 443.21838,819.26932 442.82834,820.58792 442.34104,821.88145 C 441.85361,823.17501 441.26967,824.46856 440.5892,825.7621 C 438.15529,829.84316 434.82027,833.20153 430.58412,835.83721 C 426.34786,838.4729 421.89249,839.79074 417.218,839.79074 C 412.35027,839.79074 407.74929,838.49719 403.41504,835.91009 C 399.08075,833.32299 395.69669,829.94033 393.26285,825.7621 C 392.58231,824.46856 391.99837,823.17501 391.51102,821.88145 C 391.02364,820.58792 390.6336,819.26932 390.34089,817.92564 C 390.04817,816.58201 389.829,815.11463 389.6834,813.52348 C 389.53778,811.93238 389.46497,810.14084 389.46498,808.14887 L 389.46498,738.00112 L 403.48859,738.00112 L 403.48859,809.94344 C 403.48857,814.71684 404.75453,818.54663 407.28646,821.43281 C 409.81835,824.31902 413.12886,825.76211 417.218,825.7621 C 421.01583,825.76211 424.15622,824.31902 426.63914,821.43281 C 429.12198,818.54663 430.36341,814.71684 430.36347,809.94344 L 430.36347,738.00112 L 444.38708,738.00112 L 444.38708,808.14887 L 444.38708,808.14887 z M 516.02966,838.00072 L 516.02966,781.88161 L 497.91844,838.00072 L 479.66009,781.88161 L 479.66009,838.00072 L 465.63648,838.00072 L 465.63648,738.00112 L 479.66009,738.00112 L 497.91844,794.12023 L 516.02966,738.00112 L 530.20038,738.00112 L 530.20038,838.00072 L 516.02966,838.00072 z "
       id="text2790" />
    <path
       style="font-size:373.12701416px;font-style:normal;font-variant:normal;font-weight:normal;font-stretch:normal;text-align:center;line-height:125%;writing-mode:lr-tb;text-anchor:middle;font-family:Roadgeek 2005 Series E"
       d="M 264.14715,602.7375 C 264.14692,613.93471 261.78413,624.25885 257.05878,633.70996 C 252.33298,643.16114 245.74185,651.30659 237.28538,658.14631 C 228.82848,664.98608 218.75485,670.33413 207.06446,674.1905 C 195.37371,678.04687 182.43816,679.97506 168.25779,679.97506 C 153.33319,679.97506 139.46582,677.61227 126.65563,672.8867 C 113.84525,668.16113 102.33876,661.44474 92.136143,652.73752 C 81.94099,644.03034 74.418031,633.39686 69.567242,620.83703 C 64.716374,608.27731 62.29096,593.41548 62.290992,576.25149 C 62.29096,549.87948 67.95026,525.7487 79.268909,503.85907 C 90.587459,481.96978 106.81762,463.68808 127.95943,449.01391 C 135.17105,444.03425 142.50803,439.74138 149.97037,436.13529 C 157.43248,432.52967 165.20596,429.60702 173.29081,427.36735 C 181.37538,425.12817 189.95733,423.51122 199.03667,422.51651 C 208.11567,421.52231 218.12857,421.02508 229.0754,421.02483 L 229.0754,465.79825 L 224.60033,465.79825 C 211.16357,465.79846 199.59636,466.9808 189.89865,469.34528 C 180.20063,471.71017 170.9981,475.50391 162.29104,480.72651 C 150.84325,487.19448 141.51357,494.59598 134.30196,502.93103 C 127.09013,511.26643 120.37565,522.02328 114.15847,535.2016 C 119.62411,533.71385 124.65903,532.41005 129.26324,531.29019 C 133.86725,530.17062 138.34611,529.36215 142.69982,528.86477 C 147.0533,528.36769 151.46763,527.99382 155.94282,527.74316 C 160.41775,527.4928 165.14523,527.36754 170.12525,527.36739 C 183.80459,527.36754 196.36627,529.2331 207.8103,532.96407 C 219.25398,536.69533 229.14162,541.92002 237.47326,548.63818 C 245.80448,555.35659 252.33298,563.31605 257.05878,572.51658 C 261.78413,581.71732 264.14692,591.79095 264.14715,602.7375 L 264.14715,602.7375 z M 219.37373,603.48904 C 219.37354,594.03796 214.52271,586.45048 204.82123,580.72656 C 195.1194,575.00283 182.43437,572.14091 166.7661,572.14081 C 151.08997,572.14091 138.5264,574.9402 129.07535,580.53867 C 119.62411,586.13734 114.89854,593.53694 114.89862,602.7375 C 114.89854,612.43923 119.62411,620.15197 129.07535,625.87575 C 138.5264,631.59962 151.08997,634.46154 166.7661,634.46149 C 182.43437,634.46154 195.1194,631.66225 204.82123,626.06363 C 214.52271,620.46511 219.37354,612.94025 219.37373,603.48904 L 219.37373,603.48904 z M 538.70887,549.01395 C 538.70863,565.18351 536.78234,581.04169 532.93,596.58856 C 529.07719,612.13558 522.98329,626.12631 514.64828,638.56079 C 506.31283,650.99535 495.55409,661.00635 482.37202,668.59383 C 469.18957,676.18132 453.1435,679.97506 434.23376,679.97506 C 415.58184,679.97506 399.6022,676.30657 386.29477,668.96959 C 372.98717,661.63263 362.10317,651.87024 353.64274,639.6824 C 345.1822,627.49464 338.96305,613.62726 334.98525,598.08024 C 331.00738,582.53338 329.01847,566.54994 329.0185,550.12987 C 329.01847,533.71005 331.07001,517.72661 335.17314,502.1795 C 339.27619,486.63273 345.6187,472.89061 354.2007,460.95311 C 362.78259,449.01603 373.66659,439.377 386.85273,432.03599 C 400.0387,424.69546 415.83236,421.02508 434.23376,421.02483 C 452.89299,421.02508 468.8138,424.75619 481.99625,432.21818 C 495.17832,439.68065 505.99969,449.44494 514.46039,461.51107 C 522.92066,473.57762 529.07719,487.25901 532.93,502.55526 C 536.78234,517.85187 538.70863,533.33808 538.70887,549.01395 L 538.70887,549.01395 z M 493.93545,550.12987 C 493.93525,523.76548 488.71245,503.11909 478.26703,488.19065 C 467.82124,473.26258 453.1435,465.79846 434.23376,465.79825 C 423.04407,465.79846 413.59293,468.41175 405.8803,473.63815 C 398.16745,478.86495 391.94829,485.5206 387.22281,493.60514 C 382.49714,501.69003 379.07727,510.64395 376.96318,520.46691 C 374.84893,530.29018 373.79184,539.80585 373.79192,549.01395 C 373.79184,576.87408 379.1399,598.20368 389.83611,613.00282 C 400.53213,627.80208 415.33133,635.20169 434.23376,635.20164 C 443.44185,635.20169 451.71444,633.15014 459.05158,629.04701 C 466.38839,624.94397 472.66828,619.09868 477.89126,611.51113 C 483.11388,603.92371 487.09361,594.84454 489.83046,584.27359 C 492.56692,573.70282 493.93525,561.94962 493.93545,549.01395 L 493.93545,550.12987 z "
       id="text2796" />
    <path
       style="font-size:298.50100708px;font-style:normal;font-variant:normal;font-weight:normal;font-stretch:normal;text-align:center;line-height:125%;writing-mode:lr-tb;text-anchor:middle;font-family:Roadgeek 2005 Series D"
       d="M 263.37881,1050.6527 L 263.37881,1100.5 L 232.04204,1100.5 L 232.04204,1050.6527 L 132.93949,1050.6527 L 132.93949,1031.8415 L 232.04204,900.50032 L 263.37881,900.50032 L 263.37881,1021.9941 L 282.4906,1021.9941 L 282.4906,1050.6527 L 263.37881,1050.6527 z M 232.04204,946.76761 L 175.0255,1021.9941 L 232.04204,1021.9941 L 232.04204,946.76761 z M 468.06079,1000.7962 C 468.06063,1016.7198 466.1704,1031.9448 462.39011,1046.4714 C 458.6095,1060.9981 453.23641,1072.7403 446.2708,1081.6979 C 435.12668,1096.6193 419.00891,1104.08 397.91743,1104.08 C 383.78543,1104.08 372.14347,1101.1954 362.9915,1095.426 C 353.83941,1089.6566 346.27851,1080.6018 340.30877,1068.2614 C 336.13051,1059.7045 332.74784,1049.3075 330.16076,1037.0704 C 327.57363,1024.8333 326.28008,1012.7419 326.2801,1000.7962 C 326.28008,984.2838 328.22041,968.9631 332.10109,954.8341 C 335.98172,940.70538 341.30471,928.86452 348.07009,919.31149 C 354.03982,911.75077 361.15435,906.12868 369.41371,902.4452 C 377.67295,898.76212 387.57196,896.92048 399.11077,896.92027 C 411.84579,896.92048 422.69067,899.80668 431.64545,905.57888 C 440.59998,911.35147 448.26261,920.40482 454.63335,932.73894 C 458.81143,941.6968 462.09389,952.14542 464.48075,964.08482 C 466.86728,976.0245 468.06063,988.26162 468.06079,1000.7962 L 468.06079,1000.7962 z M 436.4234,1000.7962 C 436.42327,989.458 435.42881,978.96232 433.44003,969.30914 C 431.45099,959.65621 428.46459,951.44702 424.48081,944.68153 C 421.29843,939.50748 417.66829,935.72703 413.59037,933.34016 C 409.51223,930.95364 404.48833,929.55988 398.51865,929.15889 C 390.75725,928.76432 384.28949,930.55586 379.11536,934.53351 C 373.94108,938.5115 369.66264,944.97926 366.28004,953.93681 C 363.69287,959.90672 361.75255,967.11995 360.45905,975.57649 C 359.16544,984.03329 358.51867,992.43985 358.51872,1000.7962 C 358.51867,1011.5455 359.51312,1021.8955 361.50209,1031.846 C 363.49095,1041.7967 366.47431,1049.9543 370.4522,1056.3188 C 373.64047,1061.493 377.42244,1065.3737 381.79812,1067.9608 C 386.17365,1070.5479 391.54674,1071.8415 397.91743,1071.8414 C 405.27783,1071.8415 411.39639,1069.8525 416.27312,1065.8747 C 421.14964,1061.8969 425.27929,1055.4291 428.66208,1046.4714 C 429.65793,1043.8843 430.65391,1040.7507 431.65001,1037.0704 C 432.64586,1033.3902 433.49152,1029.5095 434.18701,1025.4284 C 434.88224,1021.3474 435.42881,1017.2177 435.82673,1013.0394 C 436.22438,1008.8613 436.42327,1004.7802 436.4234,1000.7962 L 436.4234,1000.7962 z "
       id="text2802" />
  </g>
</svg>
