<?xml version="1.0" encoding="UTF-8" standalone="no"?> <svg xmlns:inkscape="http://www.inkscape.org/namespaces/inkscape" xmlns:sodipodi="http://sodipodi.sourceforge.net/DTD/sodipodi-0.dtd" xmlns="http://www.w3.org/2000/svg" xmlns:svg="http://www.w3.org/2000/svg" width="121.62002mm" height="102.12122mm" viewBox="0 0 121.62002 102.12122" version="1.1" id="svg3321" inkscape:version="1.2.1 (9c6d41e410, 2022-07-14)" sodipodi:docname="cfs-logos-final.svg"><defs id="defs3318"></defs><g inkscape:label="Layer 1" inkscape:groupmode="layer" id="layer1" transform="translate(-21.583676,-18.00946)"><g id="g534"><circle style="fill:#51a2da;fill-opacity:1;stroke:none;stroke-width:0.673709;stroke-linecap:round;stroke-linejoin:round;stroke-dasharray:none" id="circle1146" cx="46.296066" cy="62.369926" r="16.082895"></circle><g id="g1154" transform="matrix(0.83130716,-0.45997787,0.48414667,0.87498686,-334.79608,30.617467)"><path id="path1148" style="fill:#294172;stroke:none;stroke-width:0.262003px;stroke-linecap:butt;stroke-linejoin:miter;stroke-opacity:1" d="m 332.96013,189.14316 c -2.4157,1.65623 -7.05079,9.46379 -7.05079,9.46379 9.25871,1.35523 21.21118,6.91141 25.79211,13.57464 0,0 4.57204,-7.84045 4.70596,-10.69761 -7.31432,-0.47655 -18.12976,-6.16911 -23.44728,-12.34082 z"></path><path style="fill:#f3ca94;fill-opacity:1;stroke:none;stroke-width:0.251604px;stroke-linecap:butt;stroke-linejoin:miter;stroke-opacity:1" d="m 332.95983,189.14335 c 0.75815,6.47861 16.78699,14.90492 23.44795,12.33977 l 1.00753,-28.00037 z" id="path1150" sodipodi:nodetypes="cccc"></path><path style="fill:#db3279;stroke:none;stroke-width:0.251604px;stroke-linecap:butt;stroke-linejoin:miter;stroke-opacity:1" d="m 357.41531,173.48275 -12.20827,7.79691 c 1.38098,2.8866 8.41537,6.58853 11.72397,6.16989 z" id="path1152" sodipodi:nodetypes="cccc"></path></g><path id="path1156" style="fill:#294172;stroke:none;stroke-width:0.987484;stroke-linecap:round;stroke-linejoin:round;stroke-dasharray:none;stroke-opacity:1" d="m 104.57813,74.721037 c -1.66264,1.62551 -2.55147,3.19906 -3.83885,5.4481 6.54197,7.53752 8.93503,19.72871 10.09997,35.124103 h 32.36444 c -0.25885,-18.092943 -3.83977,-32.409283 -10.85258,-40.071463 -3.5448,3.77059 -8.48957,5.90965 -13.6648,5.91127 -5.40692,-0.005 -10.54897,-2.34177 -14.10818,-6.41201 z" sodipodi:nodetypes="ccccccc"></path><circle style="fill:#294172;fill-opacity:1;stroke:none;stroke-width:0.673709;stroke-linecap:round;stroke-linejoin:round;stroke-dasharray:none" id="circle1158" cx="118.68645" cy="62.369926" r="16.082895"></circle><g id="g1164" transform="matrix(0.96252123,0,0,1.0130954,-2.442524,14.218617)"><path style="opacity:1;fill:#f3ca94;fill-opacity:1;stroke:none;stroke-width:0.281085px;stroke-linecap:butt;stroke-linejoin:miter;stroke-opacity:1" d="m 140.7651,40.381004 c 0,0 1.35231,-3.037801 0.56081,-6.769317 -1.30534,-6.140422 -2.36856,-18.79851 -23.39221,-29.7309977 16.86509,11.2433957 -4.21627,19.6759447 -7.02712,29.5139147 -1.40543,4.918985 -0.0691,7.155598 -0.0691,7.155598 7.87121,-4.435907 23.34922,-3.483695 29.92766,-0.169198 z" id="path1160" sodipodi:nodetypes="cccsccc"></path><path style="fill:#a07cbc;stroke:#a07cbc;stroke-width:0.281085px;stroke-linecap:butt;stroke-linejoin:miter;stroke-opacity:1" d="m 117.9337,3.8806893 c 16.58401,10.1190567 -2.95242,19.7194607 -4.63893,25.0600747 -1.12435,2.529764 -0.21165,4.711364 2.5992,5.835704 2.81084,1.12434 4.55072,-3.047396 6.7994,-1.641971 2.24868,1.405424 -2.33294,7.166559 3.15212,8.385459 5.48505,1.2189 6.42354,-3.909079 6.98571,-7.001013 0.61171,-3.364386 -0.8015,-5.269727 1.40543,-6.183867 1.56053,-0.646395 3.09192,3.373018 4.77843,2.248678 1.68651,-1.12434 1.00551,-3.112489 1.00551,-3.112489 C 138.89623,24.379331 132.26903,6.1293689 117.9337,3.8806893 Z" id="path1162" sodipodi:nodetypes="cczzzsszcc"></path></g><path id="path1166" style="fill:#3c6eb4;stroke:none;stroke-width:0.987484;stroke-linecap:round;stroke-linejoin:round;stroke-dasharray:none;stroke-opacity:1" d="m 69.041336,79.558557 c -7.70081,7.52881 -11.33455,22.077603 -11.28945,40.572123 H 107.66645 C 107.4076,102.03772 103.82698,87.721757 96.814166,80.059577 a 18.763365,18.763365 0 0 1 -13.66472,5.9112 18.763365,18.763365 0 0 1 -14.10811,-6.41222 z"></path><circle style="fill:#3c6eb4;fill-opacity:1;stroke:none;stroke-width:0.673709;stroke-linecap:round;stroke-linejoin:round;stroke-dasharray:none" id="circle1168" cx="83.14946" cy="67.207512" r="16.082895"></circle><path style="fill:#51a2da;fill-opacity:1;stroke:none;stroke-width:0.346859px;stroke-linecap:butt;stroke-linejoin:miter;stroke-opacity:1" d="m 74.120346,52.196697 1.25404,-9.32728 c 0.0415,-0.30869 0.25081,-0.66623 0.50162,-0.66623 h 14.29609 c 0.25081,0 0.45041,0.34887 0.50161,0.66623 0.0512,0.31736 1.50485,9.32728 1.50485,9.32728 z" id="path1170" sodipodi:nodetypes="czzczcc"></path><path style="fill:#79db32;stroke:#79db32;stroke-width:0.325641px;stroke-linecap:round;stroke-linejoin:round;stroke-opacity:1" d="m 76.667026,42.203177 v -8.32792 l 12.73335,-9.9935 v 18.32142 z" id="path1172" sodipodi:nodetypes="ccccc"></path><path id="path1174" style="fill:#51a2da;fill-opacity:1;stroke-width:1.70697;stroke-linecap:round;stroke-linejoin:round" d="m 73.181556,50.856437 h 19.70431 c 3.71247,0 6.74972,2.70979 6.70121,6.70122 0,0 0.538314,4.13832 -0.98945,6.2482 -7.27068,-6.18079 -24.16955,-6.36081 -30.93824,0.14745 -1.37949,-2.17708 -1.17904,-6.39565 -1.17904,-6.39565 0.0939,-3.69975 2.98874,-6.70122 6.70121,-6.70122 z" sodipodi:nodetypes="sssccss"></path><path id="path527" style="fill:#51a2da;fill-opacity:1;stroke:none;stroke-width:0.987484;stroke-linecap:round;stroke-linejoin:round;stroke-dasharray:none;stroke-opacity:1" d="m 60.209236,74.721037 c 1.66264,1.62551 2.55147,3.19906 3.83885,5.4481 -6.54197,7.53752 -8.93503,19.72871 -10.09997,35.124103 h -32.36444 c 0.25885,-18.092943 3.83977,-32.409283 10.85258,-40.071463 3.5448,3.77059 8.48957,5.90965 13.6648,5.91127 5.40692,-0.005 10.54897,-2.34177 14.10818,-6.41201 z" sodipodi:nodetypes="ccccccc"></path></g></g></svg> 