<?xml version="1.0" encoding="UTF-8" standalone="no"?>
<!-- Created with Inkscape (http://www.inkscape.org/) -->

<svg
   xmlns:dc="http://purl.org/dc/elements/1.1/"
   xmlns:cc="http://creativecommons.org/ns#"
   xmlns:rdf="http://www.w3.org/1999/02/22-rdf-syntax-ns#"
   xmlns:svg="http://www.w3.org/2000/svg"
   xmlns="http://www.w3.org/2000/svg"
   xmlns:sodipodi="http://sodipodi.sourceforge.net/DTD/sodipodi-0.dtd"
   xmlns:inkscape="http://www.inkscape.org/namespaces/inkscape"
   width="107.05617mm"
   height="22.17374mm"
   viewBox="0 0 107.05617 22.17374"
   version="1.1"
   id="svg1027"
   inkscape:version="0.92.4 (5da689c313, 2019-01-14)"
   sodipodi:docname="desmos logo.svg">
  <defs
     id="defs1021" />
  <sodipodi:namedview
     id="base"
     pagecolor="#ffffff"
     bordercolor="#666666"
     borderopacity="1.0"
     inkscape:pageopacity="0.0"
     inkscape:pageshadow="2"
     inkscape:zoom="1.4"
     inkscape:cx="15.279322"
     inkscape:cy="44.258537"
     inkscape:document-units="mm"
     inkscape:current-layer="layer1"
     showgrid="false"
     inkscape:window-width="1920"
     inkscape:window-height="1017"
     inkscape:window-x="-8"
     inkscape:window-y="176"
     inkscape:window-maximized="1" />
  <metadata
     id="metadata1024">
    <rdf:RDF>
      <cc:Work
         rdf:about="">
        <dc:format>image/svg+xml</dc:format>
        <dc:type
           rdf:resource="http://purl.org/dc/dcmitype/StillImage" />
        <dc:title></dc:title>
      </cc:Work>
    </rdf:RDF>
  </metadata>
  <g
     inkscape:label="Layer 1"
     inkscape:groupmode="layer"
     id="layer1"
     transform="translate(-82.543344,-130.18694)">
    <g
       transform="translate(-216.95842,-188.01684)"
       id="layer1-6"
       inkscape:label="Layer 1">
      <g
         id="g823"
         inkscape:label="Desmos_User_Guide"
         transform="matrix(0.35277777,0,0,-0.35277777,245.07976,556.90204)">
        <g
           id="g825">
          <g
             id="g827">
            <g
               id="g833"
               transform="translate(409.1375,655.3421)">
              <path
                 d="m 0,0 c -4.614,4.753 -10.331,7.183 -16.95,7.183 -6.645,0 -12.367,-2.43 -16.998,-7.183 -4.618,-4.769 -6.952,-10.583 -6.952,-17.295 0,-6.584 2.323,-12.315 6.907,-17.068 4.603,-4.712 10.347,-7.128 17.074,-7.128 6.725,0 12.448,2.416 17.012,7.128 4.564,4.772 6.891,10.516 6.891,17.15 C 6.984,-10.542 4.646,-4.769 0,0 m -16.95,-1.18 c 4.183,0 7.732,-1.59 10.814,-4.784 3.077,-3.241 4.568,-6.987 4.568,-11.386 0,-4.482 -1.477,-8.168 -4.506,-11.296 -3.001,-3.122 -6.596,-4.64 -10.979,-4.64 -4.357,0 -7.911,1.506 -10.829,4.577 -2.973,3.119 -4.42,6.805 -4.42,11.26 0,4.485 1.507,8.244 4.574,11.485 3.041,3.221 6.578,4.784 10.778,4.784"
                 style="fill:#187a3d;fill-opacity:1;fill-rule:nonzero;stroke:none"
                 id="path835"
                 inkscape:connector-curvature="0" />
            </g>
            <g
               id="g837"
               transform="translate(197.5151,676.625)">
              <path
                 d="m 0,0 c -2.056,0 -3.82,-1.534 -4.106,-3.569 l -0.017,-16.407 c -3.614,3.189 -7.813,5.071 -12.535,5.589 h -0.128 c -0.303,0.046 -0.621,0.046 -0.907,0.082 -0.319,0.035 -0.632,0.035 -0.934,0.092 -0.677,0.015 -1.359,0.015 -2.174,-0.025 l -0.19,-0.032 c -0.317,0 -0.651,-0.025 -0.969,-0.071 -0.369,-0.02 -0.789,-0.067 -1.23,-0.118 l -0.262,-0.061 c -0.293,-0.031 -0.585,-0.072 -0.815,-0.123 -0.395,-0.052 -0.759,-0.17 -1.17,-0.236 -3.717,-0.954 -7.122,-2.804 -10.064,-5.615 l -0.118,-0.056 c -0.257,-0.282 -0.493,-0.513 -0.789,-0.816 l -0.277,-0.287 c -0.159,-0.195 -0.35,-0.4 -0.524,-0.6 -0.492,-0.548 -0.99,-1.158 -1.486,-1.855 -0.169,-0.2 -0.308,-0.395 -0.441,-0.605 l -0.123,-0.169 c -2.672,-3.959 -3.989,-8.558 -3.989,-13.552 0,-0.441 0.004,-0.815 0.004,-1.251 0.062,-0.815 0.109,-1.518 0.201,-2.226 l 0.139,-0.938 c 0.055,-0.282 0.127,-0.584 0.22,-0.942 l 0.144,-0.745 c 1.025,-4.008 3.081,-7.629 6.111,-10.787 1.22,-1.251 2.543,-2.4 3.933,-3.313 l 0.672,-0.449 c 0.096,-0.059 0.193,-0.099 0.265,-0.154 l 0.093,-0.044 c 0.548,-0.362 1.107,-0.645 1.62,-0.91 0.385,-0.155 0.754,-0.355 1.082,-0.483 2.826,-1.17 5.943,-1.772 9.265,-1.772 h 0.133 c 0.39,0 0.769,0 1.128,0.029 0.175,0 0.375,0.009 0.554,0.036 h 0.154 l 0.528,0.051 c 0.123,0.031 0.266,0.035 0.344,0.046 4.758,0.512 8.977,2.358 12.535,5.476 v -1.897 l 0.017,-0.216 c 0.265,-1.84 1.742,-3.287 3.578,-3.521 h 0.881 0.195 c 2.082,0.287 3.61,2.086 3.61,4.161 V -4.169 C 4.158,-1.871 2.317,0 0,0 m -4.296,-38.537 c 0,-4.45 -1.457,-8.08 -4.467,-11.173 -3.004,-3.095 -6.527,-4.609 -10.844,-4.609 -1.902,0 -3.609,0.309 -5.307,0.924 -0.066,0.004 -0.112,0.014 -0.153,0.047 l -0.21,0.081 c -1.836,0.712 -3.57,1.908 -5.082,3.492 -2.004,2.127 -3.322,4.58 -3.937,7.331 -0.282,1.241 -0.405,2.493 -0.405,3.815 0,4.451 1.455,8.153 4.486,11.382 3.035,3.19 6.527,4.728 10.675,4.728 4.169,0 7.64,-1.538 10.685,-4.747 3.087,-3.222 4.559,-6.892 4.559,-11.271"
                 style="fill:#187a3d;fill-opacity:1;fill-rule:nonzero;stroke:none"
                 id="path839"
                 inkscape:connector-curvature="0" />
            </g>
            <g
               id="g841"
               transform="translate(255.2737,639.1149)">
              <path
                 d="m 0,0 c 0,0.594 -0.056,1.218 -0.098,1.845 -0.389,3.558 -1.476,6.855 -3.271,9.783 -0.969,1.625 -2.143,3.152 -3.548,4.599 -3.43,3.538 -7.501,5.82 -12.084,6.722 l -0.38,0.046 c -0.334,0.082 -0.682,0.128 -0.995,0.174 -0.502,0.072 -1.01,0.144 -1.482,0.159 -0.312,0.031 -0.631,0.056 -0.953,0.056 -0.739,0.026 -1.523,0.026 -2.338,0 -4.261,-0.215 -8.167,-1.434 -11.588,-3.706 -0.492,-0.308 -0.964,-0.667 -1.441,-1.026 -0.723,-0.564 -1.287,-1.051 -1.789,-1.528 -0.292,-0.272 -0.56,-0.564 -0.913,-0.897 -4.614,-4.769 -6.957,-10.583 -6.957,-17.295 0,-3.148 0.548,-6.148 1.625,-8.91 1.113,-2.927 2.897,-5.67 5.276,-8.113 0.544,-0.547 1.108,-1.085 1.774,-1.682 0.943,-0.793 1.902,-1.501 2.861,-2.107 0.6,-0.357 1.195,-0.691 2.062,-1.126 1.764,-0.81 3.624,-1.441 5.563,-1.822 0.393,-0.081 0.793,-0.137 1.229,-0.199 0.38,-0.052 0.811,-0.103 1.19,-0.137 0.38,-0.044 0.759,-0.053 1.144,-0.068 l 0.169,-0.004 c 0.354,-0.028 0.728,-0.028 1.072,-0.028 h 0.133 c 0.369,0 0.738,0 1.117,0.028 0.252,0.004 0.519,0.019 0.796,0.028 l 0.353,0.044 c 5.706,0.517 10.644,2.894 14.613,7.028 0.918,0.953 1.753,1.943 2.461,2.959 0.277,0.359 0.543,0.747 0.784,1.142 l 0.113,0.236 c 0.205,0.518 0.298,1.022 0.298,1.524 0,2.369 -1.922,4.249 -4.266,4.249 -1.385,0 -2.692,-0.691 -3.523,-1.866 -0.574,-0.891 -1.251,-1.757 -2.015,-2.527 -3,-3.122 -6.593,-4.64 -10.977,-4.64 -4.348,0 -7.886,1.506 -10.854,4.578 -0.488,0.514 -0.981,1.117 -1.426,1.702 l -0.164,0.267 c -0.359,0.508 -0.677,1.042 -1.031,1.723 -0.692,1.292 -1.178,2.733 -1.441,4.226 h 35.312 l 0.323,0.056 c 1.759,0.385 3.087,1.844 3.296,3.696 v 0.112 c 0,0.262 0,0.518 -0.03,0.699 m -38.664,3.154 c 0.414,1.587 1.035,3.07 1.927,4.453 l 0.123,0.201 c 0.569,0.861 1.221,1.656 1.953,2.462 3.041,3.214 6.563,4.778 10.748,4.778 4.198,0 7.741,-1.591 10.818,-4.785 1.426,-1.501 2.533,-3.152 3.322,-4.942 0.298,-0.703 0.539,-1.415 0.734,-2.167 z"
                 style="fill:#187a3d;fill-opacity:1;fill-rule:nonzero;stroke:none"
                 id="path843"
                 inkscape:connector-curvature="0" />
            </g>
            <g
               id="g845"
               transform="translate(362.4901,645.5022)">
              <path
                 d="m 0,0 v -27.148 c 0,-2.302 -1.877,-4.177 -4.199,-4.177 -2.143,0 -3.963,1.582 -4.185,3.756 v 0.154 25.646 1.662 c 0,2.578 -0.85,4.696 -2.589,6.536 -1.61,1.636 -3.388,2.523 -5.486,2.667 -0.178,0.036 -0.4,0.036 -0.625,0.036 -2.379,0 -4.357,-0.898 -6.051,-2.703 -1.655,-1.753 -2.491,-3.717 -2.594,-6.076 V 0.072 -0.02 l 0.011,-0.262 -0.011,-0.071 v -26.795 c 0,-2.302 -1.856,-4.177 -4.168,-4.177 -2.179,0 -3.973,1.582 -4.2,3.756 l -0.004,0.154 0.03,27.323 c -0.026,0.205 -0.026,0.359 -0.026,0.498 -0.066,1.317 -1.168,3.906 -1.168,3.906 0,0 -0.862,1.518 -1.44,2.117 -1.724,1.805 -3.723,2.703 -6.093,2.703 -2.352,0 -4.332,-0.898 -6.05,-2.703 -1.759,-1.84 -2.609,-3.994 -2.609,-6.521 v -27.589 c -0.277,-2.095 -2.062,-3.644 -4.181,-3.644 -2.295,0 -4.187,1.875 -4.187,4.177 v 40.33 c 0,2.323 1.892,4.205 4.187,4.205 1.719,0 3.248,-1.077 3.899,-2.584 0.282,0.194 0.602,0.379 0.931,0.6 2.401,1.297 5.099,1.984 8.021,1.984 4.282,0 8.009,-1.415 11.121,-4.159 0.364,-0.306 0.686,-0.65 0.99,-0.983 0.282,-0.267 0.533,-0.544 0.779,-0.805 0.21,0.235 0.477,0.522 0.753,0.805 0.319,0.333 0.657,0.677 0.99,0.983 3.128,2.744 6.84,4.159 11.08,4.159 0.514,0 0.969,-0.026 1.436,-0.057 3.66,-0.286 6.947,-1.661 9.701,-4.148 0.317,-0.282 0.64,-0.609 0.984,-0.937 C -1.661,8.86 0,4.747 0,0"
                 style="fill:#187a3d;fill-opacity:1;fill-rule:nonzero;stroke:none"
                 id="path847"
                 inkscape:connector-curvature="0" />
            </g>
            <g
               id="g849"
               transform="translate(296.9275,628.0443)">
              <path
                 d="m 0,0 c 0,-7.763 -6.278,-14.137 -14.02,-14.255 h -16.974 c -2.272,0 -4.106,1.852 -4.106,4.113 0,2.267 1.834,4.096 4.106,4.096 h 16.764 c 3.28,0.026 5.981,2.723 5.981,6.046 0,3.322 -2.701,6.025 -6.023,6.025 h -7.47 -0.636 c -7.858,0 -14.272,6.367 -14.272,14.238 0,7.891 6.414,14.28 14.272,14.28 h 16.764 c 2.272,0 4.13,-1.852 4.13,-4.143 0,-2.246 -1.858,-4.108 -4.13,-4.108 h -16.764 c -3.324,0 -6.022,-2.701 -6.022,-6.029 0,-3.281 2.676,-5.984 5.956,-6.024 h 0.153 c 0.031,0 0.131,0 0.26,0.014 h 7.759 c 1.995,0 3.954,-0.394 5.767,-1.219 C -3.342,10.742 0,5.631 0,0"
                 style="fill:#187a3d;fill-opacity:1;fill-rule:nonzero;stroke:none"
                 id="path851"
                 inkscape:connector-curvature="0" />
            </g>
            <g
               id="g853"
               transform="translate(457.7334,628.0443)">
              <path
                 d="m 0,0 c 0,-7.768 -6.296,-14.146 -14.028,-14.274 h -16.95 c -2.271,0 -4.117,1.871 -4.117,4.132 0,2.267 1.846,4.096 4.117,4.096 h 16.756 c 3.282,0.026 5.969,2.723 5.969,6.046 0,3.322 -2.704,6.025 -6.011,6.025 h -7.474 C -21.945,6 -22.149,6 -22.365,6 c -7.87,0 -14.274,6.371 -14.274,14.263 0,7.891 6.404,14.28 14.274,14.28 h 16.736 c 2.266,0 4.132,-1.872 4.132,-4.143 0,-2.246 -1.866,-4.118 -4.132,-4.118 h -16.736 c -3.332,0 -6.044,-2.691 -6.044,-6.019 0,-3.281 2.681,-5.984 5.963,-6.024 h 0.158 c 0.026,0 0.139,0 0.241,0.014 h 7.783 c 2,0 3.948,-0.394 5.759,-1.219 C -3.337,10.742 0,5.631 0,0"
                 style="fill:#187a3d;fill-opacity:1;fill-rule:nonzero;stroke:none"
                 id="path855"
                 inkscape:connector-curvature="0" />
            </g>
          </g>
        </g>
      </g>
    </g>
  </g>
</svg>
