<svg version="1.1" viewBox="0.0 0.0 449.40419947506564 212.69028871391077" fill="none" stroke="none" stroke-linecap="square" stroke-miterlimit="10" xmlns:xlink="http://www.w3.org/1999/xlink" xmlns="http://www.w3.org/2000/svg"><clipPath id="p.0"><path d="m0 0l449.4042 0l0 212.69029l-449.4042 0l0 -212.69029z" clip-rule="nonzero"/></clipPath><g clip-path="url(#p.0)"><path fill="#000000" fill-opacity="0.0" d="m0 0l449.4042 0l0 212.69029l-449.4042 0z" fill-rule="evenodd"/><path fill="#000000" d="m5.7165356 147.08136l249.85826 0l0 21.732285l-249.85826 0z" fill-rule="evenodd"/><path stroke="#000000" stroke-width="3.0" stroke-linejoin="round" stroke-linecap="butt" d="m5.7165356 147.08136l249.85826 0l0 21.732285l-249.85826 0z" fill-rule="evenodd"/><path fill="#000000" d="m244.0157 149.71143l109.6693 -59.685028l10.393707 19.086609l-109.6693 59.685043z" fill-rule="evenodd"/><path stroke="#000000" stroke-width="3.0" stroke-linejoin="round" stroke-linecap="butt" d="m244.0157 149.71143l109.6693 -59.685028l10.393707 19.086609l-109.6693 59.685043z" fill-rule="evenodd"/><path fill="#000000" fill-opacity="0.0" d="m375.53955 127.60581l40.37793 70.07874l18.834656 -78.645676z" fill-rule="evenodd"/><path stroke="#000000" stroke-width="4.0" stroke-linejoin="round" stroke-linecap="butt" d="m375.53955 127.60581l40.37793 70.07874l18.834656 -78.645676z" fill-rule="evenodd"/><path fill="#000000" d="m349.52493 92.12861l0 0c0 -24.709305 21.490326 -44.740158 48.0 -44.740158l0 0c26.509674 0 48.0 20.030853 48.0 44.740158l0 0c0 24.709305 -21.490326 44.74015 -48.0 44.74015l0 0c-26.509674 0 -48.0 -20.030846 -48.0 -44.74015z" fill-rule="evenodd"/><path stroke="#000000" stroke-width="3.0" stroke-linejoin="round" stroke-linecap="butt" d="m349.52493 92.12861l0 0c0 -24.709305 21.490326 -44.740158 48.0 -44.740158l0 0c26.509674 0 48.0 20.030853 48.0 44.740158l0 0c0 24.709305 -21.490326 44.74015 -48.0 44.74015l0 0c-26.509674 0 -48.0 -20.030846 -48.0 -44.74015z" fill-rule="evenodd"/><path fill="#000000" fill-opacity="0.0" d="m26.17323 168.81364l-8.629923 39.622055l-8.629921 -39.622055z" fill-rule="evenodd"/><path stroke="#000000" stroke-width="4.0" stroke-linejoin="round" stroke-linecap="butt" d="m26.17323 168.81364l-8.629923 39.622055l-8.629921 -39.622055z" fill-rule="evenodd"/><path fill="#000000" d="m251.75066 96.91076l0 0c0 -1.9395142 1.290268 -3.5118103 2.881897 -3.5118103l0 0c0.76431274 0 1.4973297 0.36999512 2.037796 1.0285873c0.5404663 0.6585922 0.8440857 1.5518341 0.8440857 2.483223l0 0c0 1.9395218 -1.2902527 3.5118103 -2.8818817 3.5118103l0 0c-1.591629 0 -2.881897 -1.5722885 -2.881897 -3.5118103z" fill-rule="evenodd"/><path stroke="#000000" stroke-width="4.0" stroke-linejoin="round" stroke-linecap="butt" d="m251.75066 96.91076l0 0c0 -1.9395142 1.290268 -3.5118103 2.881897 -3.5118103l0 0c0.76431274 0 1.4973297 0.36999512 2.037796 1.0285873c0.5404663 0.6585922 0.8440857 1.5518341 0.8440857 2.483223l0 0c0 1.9395218 -1.2902527 3.5118103 -2.8818817 3.5118103l0 0c-1.591629 0 -2.881897 -1.5722885 -2.881897 -3.5118103z" fill-rule="evenodd"/><path fill="#000000" fill-opacity="0.0" d="m257.51443 96.91076l83.055115 1.6063004" fill-rule="evenodd"/><path stroke="#000000" stroke-width="4.0" stroke-linejoin="round" stroke-linecap="butt" d="m257.51443 96.91076l83.055115 1.6063004" fill-rule="evenodd"/><path fill="#000000" fill-opacity="0.0" d="m311.5092 26.304462l32.881897 44.7559" fill-rule="evenodd"/><path stroke="#000000" stroke-width="8.0" stroke-linejoin="round" stroke-linecap="butt" d="m311.5092 26.304462l32.881897 44.7559" fill-rule="evenodd"/><path fill="#000000" d="m308.6273 4.5721784l5.763794 0l0 21.732285l-5.763794 0z" fill-rule="evenodd"/><path stroke="#000000" stroke-width="4.0" stroke-linejoin="round" stroke-linecap="butt" d="m308.6273 4.5721784l5.763794 0l0 21.732285l-5.763794 0z" fill-rule="evenodd"/><path fill="#000000" fill-opacity="0.0" d="m343.7743 69.115486l0 38.33071" fill-rule="evenodd"/><path stroke="#000000" stroke-width="8.0" stroke-linejoin="round" stroke-linecap="butt" d="m343.7743 69.115486l0 38.33071" fill-rule="evenodd"/><path fill="#000000" d="m28.409449 202.67192l0 5.7637787l-21.732283 0l0 -5.7637787z" fill-rule="evenodd"/><path stroke="#000000" stroke-width="4.0" stroke-linejoin="round" stroke-linecap="butt" d="m28.409449 202.67192l0 5.7637787l-21.732283 0l0 -5.7637787z" fill-rule="evenodd"/><path fill="#000000" d="m426.28873 196.20473l0 5.7637787l-21.7323 0l0 -5.7637787z" fill-rule="evenodd"/><path stroke="#000000" stroke-width="4.0" stroke-linejoin="round" stroke-linecap="butt" d="m426.28873 196.20473l0 5.7637787l-21.7323 0l0 -5.7637787z" fill-rule="evenodd"/></g></svg>
