<svg version="1.1" viewBox="0.0 0.0 396.496062992126 263.257217847769" fill="none" stroke="none" stroke-linecap="square" stroke-miterlimit="10" xmlns:xlink="http://www.w3.org/1999/xlink" xmlns="http://www.w3.org/2000/svg"><clipPath id="p.0"><path d="m0 0l396.49606 0l0 263.25723l-396.49606 0l0 -263.25723z" clip-rule="nonzero"/></clipPath><g clip-path="url(#p.0)"><path fill="#000000" fill-opacity="0.0" d="m0 0l396.49606 0l0 263.25723l-396.49606 0z" fill-rule="evenodd"/><path fill="#687e62" d="m337.83408 14.55927c-3.8613586 -0.3963251 -15.791779 -2.7742777 -16.039398 -2.0813646c-0.24758911 0.692914 15.544189 5.594925 14.553833 6.238846c-0.99038696 0.643919 -19.803162 -3.1675425 -20.496063 -2.375328c-0.6929321 0.79221344 17.57611 6.4851265 16.338562 7.1286087c-1.2375183 0.6434822 -22.823273 -4.1587925 -23.763763 -3.2677174c-0.94052124 0.89107704 19.01181 7.7725296 18.120728 8.614174c-0.89108276 0.8416443 -23.219604 -4.5048122 -23.467194 -3.5643044c-0.24758911 0.9405079 22.526245 8.069117 21.981628 9.20735c-0.5446167 1.1382332 -24.506561 -3.2195988 -25.24936 -2.3779526c-0.74276733 0.8416443 21.287415 6.536743 20.792664 7.427822c-0.49475098 0.89107513 -23.711731 -3.0713043 -23.761139 -2.0813675c-0.049438477 0.98994064 23.66272 7.2287865 23.464539 8.021c-0.19815063 0.79221344 -24.01004 -4.2082253 -24.653534 -3.2677193c-0.64346313 0.9405098 21.33728 8.267281 20.792664 8.910763c-0.5446167 0.6434822 -23.565186 -5.7432213 -24.060364 -5.0498695c-0.49520874 0.69335175 21.732697 8.566055 21.089233 9.209972c-0.64349365 0.6439209 -24.950134 -6.1382294 -24.950134 -5.3464546c0 0.79177475 25.74234 9.453629 24.950134 10.097111c-0.7922058 0.6434822 -28.96106 -6.8796997 -29.70343 -6.2362175c-0.7423401 0.6434822 22.922577 8.611984 25.24936 10.097111c2.3267822 1.4851303 -6.783478 0.19947815 -11.288727 -1.1863518c-4.505249 -1.3858261 -15.990356 -8.415573 -15.742767 -7.1286087c0.24758911 1.2869644 17.77295 14.305775 17.228333 14.850391c-0.5446167 0.5446243 -19.15921 -11.731407 -20.496063 -11.582676c-1.3368225 0.14873505 13.069122 12.079182 12.475067 12.475071c-0.5940552 0.39588165 -15.148285 -10.69379 -16.039368 -10.099743c-0.89108276 0.59405136 9.999573 11.584866 10.692932 13.664043c0.69332886 2.0791779 -4.354767 0.79133606 -6.532837 -1.1889725c-2.1780396 -1.9803162 -6.2878113 -11.435699 -6.535431 -10.692917c-0.24758911 0.7427826 4.3070984 11.634735 5.0498962 15.149605c0.74276733 3.5148773 0.8424988 8.1675415 -0.5932007 5.939636c-1.4356995 -2.227913 -7.4763794 -19.55468 -8.020996 -19.30709c-0.5446167 0.24759674 5.248474 20.495628 4.753296 20.792656c-0.49520874 0.29701996 -7.031067 -19.406387 -7.7244263 -19.010498c-0.69332886 0.39588165 4.306671 20.989937 3.5643005 21.385826c-0.7423401 0.39588165 -7.1767273 -19.208664 -8.018372 -19.010498c-0.8416443 0.19815826 3.909027 19.853012 2.9685059 20.19947c-0.9404907 0.34645844 -7.819763 -18.269028 -8.611542 -18.120735c-0.79177856 0.14829254 4.7519836 18.515312 3.8609009 19.010498c-0.89108276 0.49519348 -8.563873 -16.682854 -9.207352 -16.039368c-0.6434784 0.6434784 6.1386566 19.553802 5.346451 19.90026c-0.7922058 0.34645844 -9.307526 -18.316711 -10.099731 -17.821518c-0.79222107 0.49518585 6.3363953 20.346893 5.346451 20.792648c-0.9899292 0.445755 -10.246277 -18.46457 -11.286087 -18.11811c-1.0398102 0.34645844 5.790024 19.70166 5.047241 20.196854c-0.7427826 0.49518585 -8.66272 -17.47332 -9.503937 -17.225723c-0.8412018 0.24758911 5.29834 18.3154 4.4566956 18.71128c-0.8416443 0.39588928 -8.71434 -16.732277 -9.506561 -16.335953c-0.7922058 0.39632416 5.6937866 18.169289 4.7532806 18.713905c-0.940506 0.5446243 -9.752838 -16.139107 -10.396317 -15.44619c-0.64349365 0.69290924 7.2283325 19.108925 6.535431 19.603676c-0.69291687 0.49475098 -9.900711 -16.932198 -10.692917 -16.63517c-0.79222107 0.29701996 7.0288696 18.268585 5.939636 18.41732c-1.0892487 0.14872742 -11.584 -17.82196 -12.475067 -17.524933c-0.89108276 0.29701996 8.019684 19.108925 7.128601 19.307083c-0.8910675 0.1981659 -11.633423 -18.46457 -12.475067 -18.11811c-0.8416443 0.34645844 8.266846 19.800964 7.4252014 20.196854c-0.8416443 0.39588928 -11.682846 -18.019684 -12.475067 -17.821526c-0.7922058 0.1981659 8.711731 18.713478 7.7217865 19.010498c-0.98994446 0.2970276 -12.62204 -17.22834 -13.661423 -17.22834c-1.0393677 0 8.266846 16.733154 7.4252014 17.22834c-0.8416443 0.49519348 -11.633423 -14.257217 -12.475067 -14.257217c-0.8416443 0 8.06868 14.059494 7.4252014 14.257217c-0.6434784 0.19773102 -10.196854 -12.823273 -11.286087 -13.070862c-1.0892487 -0.24759674 5.5923004 11.238403 4.750656 11.585297c-0.8416443 0.34690094 -9.454071 -9.999123 -9.800522 -9.503937c-0.34646606 0.49519348 8.513992 12.277344 7.7217712 12.475067c-0.7922058 0.19772339 -11.583984 -11.189415 -12.475052 -11.288712c-0.89108276 -0.0993042 7.9702454 10.44532 7.128601 10.692909c-0.8416443 0.24759674 -11.733154 -9.504372 -12.178482 -9.207344c-0.4453125 0.2970276 10.150055 10.741905 9.506561 10.989502c-0.6434784 0.24758911 -12.575241 -9.503937 -13.367447 -9.503937c-0.79222107 0 9.25766 9.25634 8.614166 9.503937c-0.6434784 0.24758911 -11.781708 -7.9689407 -12.475052 -8.018372c-0.6933594 -0.049430847 8.908997 7.424759 8.314957 7.721779c-0.5940552 0.2970276 -11.582245 -6.4348145 -11.879272 -5.9396286c-0.2970276 0.49518585 10.889328 8.613731 10.097122 8.910759c-0.79222107 0.2970276 -14.1080475 -7.3762054 -14.850403 -7.1286087c-0.7423401 0.24759674 11.03981 8.366577 10.396332 8.614174c-0.6434784 0.24759674 -13.415573 -7.2769012 -14.257217 -7.1286087c-0.8416443 0.14829254 9.9995575 7.820648 9.207352 8.018372c-0.79222107 0.19772339 -13.267715 -7.030182 -13.960632 -6.8320236c-0.69291687 0.1981659 10.297897 7.6745453 9.803146 8.021004c-0.49475098 0.3464508 -12.524063 -6.387581 -12.771652 -5.9422607c-0.24758911 0.44532013 11.63298 8.267281 11.286087 8.614174c-0.3468933 0.3468933 -13.2187195 -7.1762924 -13.367447 -6.5328064c-0.14874268 0.6434784 12.969803 10.195976 12.475052 10.3937c-0.49473572 0.19772339 -14.651779 -9.40551 -15.443558 -9.207352c-0.79177856 0.1981659 10.989929 10.247589 10.692902 10.396332c-0.29701233 0.14872742 -12.227463 -10.345589 -12.475052 -9.503944c-0.24760437 0.8416443 8.167969 11.237099 10.989502 14.55381c2.821518 3.3167114 -0.14961243 5.5446167 5.939621 5.346451c6.0892487 -0.1981659 19.853027 -2.8223877 30.59581 -6.535431c10.742783 -3.713028 18.613724 -10.396324 33.860886 -15.742783c15.247162 -5.346451 39.453644 -7.227028 57.62204 -16.335953c18.168427 -9.108925 40.596252 -24.902016 51.38846 -38.31759c10.792206 -13.415573 10.8897705 -34.007874 13.364838 -42.17585c2.4750671 -8.167979 2.426056 -5.643919 1.4855652 -6.8320217c-0.94052124 -1.1881008 -3.267273 0.09973812 -7.128601 -0.29658794z" fill-rule="evenodd"/><path stroke="#000000" stroke-width="1.0" stroke-linejoin="round" stroke-linecap="butt" d="m337.83408 14.55927c-3.8613586 -0.3963251 -15.791779 -2.7742777 -16.039398 -2.0813646c-0.24758911 0.692914 15.544189 5.594925 14.553833 6.238846c-0.99038696 0.643919 -19.803162 -3.1675425 -20.496063 -2.375328c-0.6929321 0.79221344 17.57611 6.4851265 16.338562 7.1286087c-1.2375183 0.6434822 -22.823273 -4.1587925 -23.763763 -3.2677174c-0.94052124 0.89107704 19.01181 7.7725296 18.120728 8.614174c-0.89108276 0.8416443 -23.219604 -4.5048122 -23.467194 -3.5643044c-0.24758911 0.9405079 22.526245 8.069117 21.981628 9.20735c-0.5446167 1.1382332 -24.506561 -3.2195988 -25.24936 -2.3779526c-0.74276733 0.8416443 21.287415 6.536743 20.792664 7.427822c-0.49475098 0.89107513 -23.711731 -3.0713043 -23.761139 -2.0813675c-0.049438477 0.98994064 23.66272 7.2287865 23.464539 8.021c-0.19815063 0.79221344 -24.01004 -4.2082253 -24.653534 -3.2677193c-0.64346313 0.9405098 21.33728 8.267281 20.792664 8.910763c-0.5446167 0.6434822 -23.565186 -5.7432213 -24.060364 -5.0498695c-0.49520874 0.69335175 21.732697 8.566055 21.089233 9.209972c-0.64349365 0.6439209 -24.950134 -6.1382294 -24.950134 -5.3464546c0 0.79177475 25.74234 9.453629 24.950134 10.097111c-0.7922058 0.6434822 -28.96106 -6.8796997 -29.70343 -6.2362175c-0.7423401 0.6434822 22.922577 8.611984 25.24936 10.097111c2.3267822 1.4851303 -6.783478 0.19947815 -11.288727 -1.1863518c-4.505249 -1.3858261 -15.990356 -8.415573 -15.742767 -7.1286087c0.24758911 1.2869644 17.77295 14.305775 17.228333 14.850391c-0.5446167 0.5446243 -19.15921 -11.731407 -20.496063 -11.582676c-1.3368225 0.14873505 13.069122 12.079182 12.475067 12.475071c-0.5940552 0.39588165 -15.148285 -10.69379 -16.039368 -10.099743c-0.89108276 0.59405136 9.999573 11.584866 10.692932 13.664043c0.69332886 2.0791779 -4.354767 0.79133606 -6.532837 -1.1889725c-2.1780396 -1.9803162 -6.2878113 -11.435699 -6.535431 -10.692917c-0.24758911 0.7427826 4.3070984 11.634735 5.0498962 15.149605c0.74276733 3.5148773 0.8424988 8.1675415 -0.5932007 5.939636c-1.4356995 -2.227913 -7.4763794 -19.55468 -8.020996 -19.30709c-0.5446167 0.24759674 5.248474 20.495628 4.753296 20.792656c-0.49520874 0.29701996 -7.031067 -19.406387 -7.7244263 -19.010498c-0.69332886 0.39588165 4.306671 20.989937 3.5643005 21.385826c-0.7423401 0.39588165 -7.1767273 -19.208664 -8.018372 -19.010498c-0.8416443 0.19815826 3.909027 19.853012 2.9685059 20.19947c-0.9404907 0.34645844 -7.819763 -18.269028 -8.611542 -18.120735c-0.79177856 0.14829254 4.7519836 18.515312 3.8609009 19.010498c-0.89108276 0.49519348 -8.563873 -16.682854 -9.207352 -16.039368c-0.6434784 0.6434784 6.1386566 19.553802 5.346451 19.90026c-0.7922058 0.34645844 -9.307526 -18.316711 -10.099731 -17.821518c-0.79222107 0.49518585 6.3363953 20.346893 5.346451 20.792648c-0.9899292 0.445755 -10.246277 -18.46457 -11.286087 -18.11811c-1.0398102 0.34645844 5.790024 19.70166 5.047241 20.196854c-0.7427826 0.49518585 -8.66272 -17.47332 -9.503937 -17.225723c-0.8412018 0.24758911 5.29834 18.3154 4.4566956 18.71128c-0.8416443 0.39588928 -8.71434 -16.732277 -9.506561 -16.335953c-0.7922058 0.39632416 5.6937866 18.169289 4.7532806 18.713905c-0.940506 0.5446243 -9.752838 -16.139107 -10.396317 -15.44619c-0.64349365 0.69290924 7.2283325 19.108925 6.535431 19.603676c-0.69291687 0.49475098 -9.900711 -16.932198 -10.692917 -16.63517c-0.79222107 0.29701996 7.0288696 18.268585 5.939636 18.41732c-1.0892487 0.14872742 -11.584 -17.82196 -12.475067 -17.524933c-0.89108276 0.29701996 8.019684 19.108925 7.128601 19.307083c-0.8910675 0.1981659 -11.633423 -18.46457 -12.475067 -18.11811c-0.8416443 0.34645844 8.266846 19.800964 7.4252014 20.196854c-0.8416443 0.39588928 -11.682846 -18.019684 -12.475067 -17.821526c-0.7922058 0.1981659 8.711731 18.713478 7.7217865 19.010498c-0.98994446 0.2970276 -12.62204 -17.22834 -13.661423 -17.22834c-1.0393677 0 8.266846 16.733154 7.4252014 17.22834c-0.8416443 0.49519348 -11.633423 -14.257217 -12.475067 -14.257217c-0.8416443 0 8.06868 14.059494 7.4252014 14.257217c-0.6434784 0.19773102 -10.196854 -12.823273 -11.286087 -13.070862c-1.0892487 -0.24759674 5.5923004 11.238403 4.750656 11.585297c-0.8416443 0.34690094 -9.454071 -9.999123 -9.800522 -9.503937c-0.34646606 0.49519348 8.513992 12.277344 7.7217712 12.475067c-0.7922058 0.19772339 -11.583984 -11.189415 -12.475052 -11.288712c-0.89108276 -0.0993042 7.9702454 10.44532 7.128601 10.692909c-0.8416443 0.24759674 -11.733154 -9.504372 -12.178482 -9.207344c-0.4453125 0.2970276 10.150055 10.741905 9.506561 10.989502c-0.6434784 0.24758911 -12.575241 -9.503937 -13.367447 -9.503937c-0.79222107 0 9.25766 9.25634 8.614166 9.503937c-0.6434784 0.24758911 -11.781708 -7.9689407 -12.475052 -8.018372c-0.6933594 -0.049430847 8.908997 7.424759 8.314957 7.721779c-0.5940552 0.2970276 -11.582245 -6.4348145 -11.879272 -5.9396286c-0.2970276 0.49518585 10.889328 8.613731 10.097122 8.910759c-0.79222107 0.2970276 -14.1080475 -7.3762054 -14.850403 -7.1286087c-0.7423401 0.24759674 11.03981 8.366577 10.396332 8.614174c-0.6434784 0.24759674 -13.415573 -7.2769012 -14.257217 -7.1286087c-0.8416443 0.14829254 9.9995575 7.820648 9.207352 8.018372c-0.79222107 0.19772339 -13.267715 -7.030182 -13.960632 -6.8320236c-0.69291687 0.1981659 10.297897 7.6745453 9.803146 8.021004c-0.49475098 0.3464508 -12.524063 -6.387581 -12.771652 -5.9422607c-0.24758911 0.44532013 11.63298 8.267281 11.286087 8.614174c-0.3468933 0.3468933 -13.2187195 -7.1762924 -13.367447 -6.5328064c-0.14874268 0.6434784 12.969803 10.195976 12.475052 10.3937c-0.49473572 0.19772339 -14.651779 -9.40551 -15.443558 -9.207352c-0.79177856 0.1981659 10.989929 10.247589 10.692902 10.396332c-0.29701233 0.14872742 -12.227463 -10.345589 -12.475052 -9.503944c-0.24760437 0.8416443 8.167969 11.237099 10.989502 14.55381c2.821518 3.3167114 -0.14961243 5.5446167 5.939621 5.346451c6.0892487 -0.1981659 19.853027 -2.8223877 30.59581 -6.535431c10.742783 -3.713028 18.613724 -10.396324 33.860886 -15.742783c15.247162 -5.346451 39.453644 -7.227028 57.62204 -16.335953c18.168427 -9.108925 40.596252 -24.902016 51.38846 -38.31759c10.792206 -13.415573 10.8897705 -34.007874 13.364838 -42.17585c2.4750671 -8.167979 2.426056 -5.643919 1.4855652 -6.8320217c-0.94052124 -1.1881008 -3.267273 0.09973812 -7.128601 -0.29658794z" fill-rule="evenodd"/><path fill="#97b18f" d="m328.0295 111.98346c1.7077942 2.9453201 4.8276367 11.855209 7.2781982 15.889763c2.450592 4.0345535 3.1924744 4.7532883 7.4252014 8.317589c4.232727 3.5643005 12.9461975 9.479004 17.97113 13.068237c5.024933 3.5892487 9.629059 5.9422607 12.178497 8.467194c2.549408 2.5249329 3.464569 6.2865295 3.118103 6.682419c-0.34646606 0.39588928 -3.3897705 -3.3416443 -5.196869 -4.307083c-1.8070679 -0.9654541 -5.571289 -2.1045532 -5.6456604 -1.4855652c-0.07437134 0.6189728 4.0358887 3.5161743 5.1994934 5.199463c1.1636047 1.6833038 2.3018188 4.7270355 1.782135 4.9002686c-0.51968384 0.17323303 -2.9943237 -3.0441742 -4.9002686 -3.8608856c-1.9059448 -0.8167114 -6.1885376 -1.7073517 -6.535431 -1.0393829c-0.3468933 0.667984 3.3153992 3.1412964 4.454071 5.0472565c1.1386719 1.9059448 3.1203003 6.2646484 2.3779602 6.388443c-0.7423401 0.123794556 -3.9606323 -3.7642212 -6.8320312 -5.6456604c-2.871399 -1.8814545 -6.63385 -3.2174225 -10.396332 -5.643051c-3.7624512 -2.4256287 -7.8468933 -5.792206 -12.178467 -8.910767c-4.3315735 -3.1185455 -10.568665 -6.16185 -13.811035 -9.800522c-3.24234 -3.6386719 -4.231842 -8.566055 -5.643036 -12.031494c-1.4111938 -3.4654388 -1.8832092 -6.310585 -2.8241272 -8.761154c-0.9409485 -2.4505692 -2.3762207 -4.3083954 -2.8215332 -5.9422607c-0.4453125 -1.6338577 -1.0385132 -2.772087 0.14959717 -3.8608856c1.1881104 -1.0888062 4.9986877 -1.929573 6.979004 -2.6719208c1.9803162 -0.7423401 3.5910034 -1.7821503 4.902893 -1.7821503c1.3118896 0 1.2607117 -1.1631699 2.9685059 1.7821503z" fill-rule="evenodd"/><path fill="#687e62" d="m325.95175 145.84407c2.4011536 0.940506 15.545502 8.04332 22.278229 12.32547c6.732727 4.2821503 15.024048 10.594925 18.118103 13.367447c3.0940552 2.7725372 1.0651855 3.4164429 0.4461975 3.2677155c-0.61898804 -0.14872742 -2.4768066 -2.9470673 -4.160095 -4.160095c-1.6832886 -1.2130432 -3.7615967 -1.9300079 -5.939636 -3.1181183c-2.1780396 -1.1880951 -4.6780396 -2.451004 -7.1286316 -4.010498c-2.4505615 -1.559494 -4.950989 -3.5148773 -7.5747986 -5.346451c-2.6237793 -1.8315887 -5.494751 -3.5888062 -8.167969 -5.643051c-2.6732178 -2.054245 -10.272522 -7.622925 -7.871399 -6.682419z" fill-rule="evenodd"/><path fill="#000000" fill-opacity="0.0" d="m328.0295 111.98346c1.7077942 2.9453201 4.8276367 11.855209 7.2781982 15.889763c2.450592 4.0345535 3.1924744 4.7532883 7.4252014 8.317589c4.232727 3.5643005 12.9461975 9.479004 17.97113 13.068237c5.024933 3.5892487 9.629059 5.9422607 12.178497 8.467194c2.549408 2.5249329 3.464569 6.2865295 3.118103 6.682419c-0.34646606 0.39588928 -3.3897705 -3.3416443 -5.196869 -4.307083c-1.8070679 -0.9654541 -5.571289 -2.1045532 -5.6456604 -1.4855652c-0.07437134 0.6189728 4.0358887 3.5161743 5.1994934 5.199463c1.1636047 1.6833038 2.3018188 4.7270355 1.782135 4.9002686c-0.51968384 0.17323303 -2.9943237 -3.0441742 -4.9002686 -3.8608856c-1.9059448 -0.8167114 -6.1885376 -1.7073517 -6.535431 -1.0393829c-0.3468933 0.667984 3.3153992 3.1412964 4.454071 5.0472565c1.1386719 1.9059448 3.1203003 6.2646484 2.3779602 6.388443c-0.7423401 0.123794556 -3.9606323 -3.7642212 -6.8320312 -5.6456604c-2.871399 -1.8814545 -6.63385 -3.2174225 -10.396332 -5.643051c-3.7624512 -2.4256287 -7.8468933 -5.792206 -12.178467 -8.910767c-4.3315735 -3.1185455 -10.568665 -6.16185 -13.811035 -9.800522c-3.24234 -3.6386719 -4.231842 -8.566055 -5.643036 -12.031494c-1.4111938 -3.4654388 -1.8832092 -6.310585 -2.8241272 -8.761154c-0.9409485 -2.4505692 -2.3762207 -4.3083954 -2.8215332 -5.9422607c-0.4453125 -1.6338577 -1.0385132 -2.772087 0.14959717 -3.8608856c1.1881104 -1.0888062 4.9986877 -1.929573 6.979004 -2.6719208c1.9803162 -0.7423401 3.5910034 -1.7821503 4.902893 -1.7821503c1.3118896 0 1.2607117 -1.1631699 2.9685059 1.7821503z" fill-rule="evenodd"/><path stroke="#000000" stroke-width="2.0" stroke-linejoin="round" stroke-linecap="butt" d="m328.0295 111.98346c1.7077942 2.9453201 4.8276367 11.855209 7.2781982 15.889763c2.450592 4.0345535 3.1924744 4.7532883 7.4252014 8.317589c4.232727 3.5643005 12.9461975 9.479004 17.97113 13.068237c5.024933 3.5892487 9.629059 5.9422607 12.178497 8.467194c2.549408 2.5249329 3.464569 6.2865295 3.118103 6.682419c-0.34646606 0.39588928 -3.3897705 -3.3416443 -5.196869 -4.307083c-1.8070679 -0.9654541 -5.571289 -2.1045532 -5.6456604 -1.4855652c-0.07437134 0.6189728 4.0358887 3.5161743 5.1994934 5.199463c1.1636047 1.6833038 2.3018188 4.7270355 1.782135 4.9002686c-0.51968384 0.17323303 -2.9943237 -3.0441742 -4.9002686 -3.8608856c-1.9059448 -0.8167114 -6.1885376 -1.7073517 -6.535431 -1.0393829c-0.3468933 0.667984 3.3153992 3.1412964 4.454071 5.0472565c1.1386719 1.9059448 3.1203003 6.2646484 2.3779602 6.388443c-0.7423401 0.123794556 -3.9606323 -3.7642212 -6.8320312 -5.6456604c-2.871399 -1.8814545 -6.63385 -3.2174225 -10.396332 -5.643051c-3.7624512 -2.4256287 -7.8468933 -5.792206 -12.178467 -8.910767c-4.3315735 -3.1185455 -10.568665 -6.16185 -13.811035 -9.800522c-3.24234 -3.6386719 -4.231842 -8.566055 -5.643036 -12.031494c-1.4111938 -3.4654388 -1.8832092 -6.310585 -2.8241272 -8.761154c-0.9409485 -2.4505692 -2.3762207 -4.3083954 -2.8215332 -5.9422607c-0.4453125 -1.6338577 -1.0385132 -2.772087 0.14959717 -3.8608856c1.1881104 -1.0888062 4.9986877 -1.929573 6.979004 -2.6719208c1.9803162 -0.7423401 3.5910034 -1.7821503 4.902893 -1.7821503c1.3118896 0 1.2607117 -1.1631699 2.9685059 1.7821503z" fill-rule="evenodd"/><path fill="#97b18f" d="m175.20766 176.43832c-3.4155731 0.8538971 -6.3105774 1.7077789 -13.364822 3.5643005c-7.054245 1.8565216 -19.579178 5.2230988 -28.960632 7.5747986c-9.381447 2.351715 -18.788277 4.43132 -27.32808 6.535431c-8.53981 2.104126 -16.48513 4.158798 -23.910767 6.0892487c-7.4256287 1.9304504 -15.519241 3.6867828 -20.64304 5.4934387c-5.1237984 1.8066406 -8.36702 3.5643005 -10.099739 5.346451c-1.7327194 1.7821503 -1.8066483 3.167984 -0.2965889 5.346466c1.5100632 2.1784668 3.7629051 4.5310516 9.3569565 7.7243958c5.5940475 3.1933594 16.410324 8.143921 24.207352 11.435699c7.79702 3.2917786 15.594482 5.9636993 22.574799 8.314957c6.980316 2.3512726 13.663605 4.455826 19.30709 5.7926636c5.6434784 1.3368225 13.514435 1.5349884 14.5538025 2.2283478c1.0393677 0.6933441 -4.035431 1.3626404 -8.317581 1.9317474c-4.2821503 0.5691223 -11.880577 1.1364899 -17.375328 1.4829407c-5.494751 0.34646606 -9.850838 0.8429718 -15.593178 0.59580994c-5.7423477 -0.24716187 -12.6972885 -1.2121735 -18.860893 -2.0787506c-6.1636047 -0.86657715 -11.363083 -1.4619446 -18.120735 -3.1207275c-6.757656 -1.6587982 -15.34602 -4.3075256 -22.425198 -6.8320312c-7.079178 -2.5244904 -15.223097 -5.456253 -20.049868 -8.314957c-4.8267717 -2.8587036 -6.6832895 -4.790024 -8.910762 -8.837265c-2.2274714 -4.047241 -4.231408 -10.4461975 -4.4540677 -15.4461975c-0.22266006 -5.0 0.6181102 -9.974625 3.1181102 -14.5538025c2.5 -4.579178 5.9658794 -8.36702 11.881889 -12.921265c5.91601 -4.554245 12.846895 -8.290466 23.614172 -14.40419c10.767281 -6.113739 28.514435 -15.916458 40.989502 -22.278229c12.475067 -6.3617554 23.217415 -11.474182 33.860893 -15.89238c10.643486 -4.4181976 18.786964 -7.31234 30.000008 -10.616798c11.213028 -3.3044662 26.090103 -6.0660553 37.278214 -9.209976c11.188095 -3.143921 18.909882 -5.631233 29.850388 -9.653542c10.940506 -4.0223083 22.921265 -7.884079 35.79265 -14.480316c12.871399 -6.596237 31.683289 -17.844704 41.4357 -25.09711c9.752411 -7.252407 13.291779 -13.219162 17.078735 -18.417324c3.7869568 -5.198162 3.3162842 -9.034122 5.643036 -12.771654c2.3267822 -3.7375336 5.2979126 -6.757656 8.317596 -9.653543c3.0196838 -2.8958874 5.840332 -5.29615 9.800537 -7.7217846c3.9601746 -2.4256344 9.801819 -5.396325 13.960632 -6.832021c4.158783 -1.4356952 8.095795 -1.7821522 10.992126 -1.7821522c2.8963013 0 3.4404907 1.5100613 6.385803 1.7821522c2.945343 0.2720914 8.1675415 -0.5454941 11.286102 -0.14960623c3.1185303 0.39588833 5.9151306 1.0643048 7.4252014 2.5249348c1.5100403 1.4606295 1.6846008 4.0853014 1.6351624 6.238845c-0.049438477 2.1535435 -0.5949402 4.20735 -1.9317627 6.682415c-1.3368225 2.4750652 -3.5643005 5.0988617 -6.0892334 8.167978c-2.5249329 3.0691166 -7.154419 6.93001 -9.060364 10.246721c-1.9059448 3.3167076 -1.6824341 5.470253 -2.3753357 9.653542c-0.6929016 4.1832886 -0.64349365 10.37183 -1.782135 15.4461975c-1.1386719 5.0743637 -2.5004578 9.306648 -5.0498962 15.0c-2.549408 5.693344 -5.419922 12.427383 -10.246704 19.160103c-4.826782 6.7327194 -12.624664 15.271217 -18.713898 21.236221c-6.089264 5.965004 -12.400726 10.321075 -17.821533 14.5538025c-5.4208374 4.232727 -9.3324585 7.5008698 -14.70343 10.842514c-5.370941 3.3416443 -10.715637 6.6329956 -17.522308 9.207352c-6.8066406 2.5743713 -14.926056 4.307968 -23.317566 6.238846c-8.391525 1.930893 -17.996948 3.786972 -27.03151 5.346466c-9.034546 1.559494 -19.032364 2.723526 -27.175842 4.010498c-8.143478 1.2869568 -16.882767 2.8328857 -21.685043 3.7112885c-4.8022766 0.87838745 -3.7130432 0.7051544 -7.1286163 1.5590515z" fill-rule="evenodd"/><path fill="#687e62" d="m122.18907 254.63225c0.11154938 -0.23490906 -6.0516205 0.16053772 -11.212601 -0.22309875c-5.1609726 -0.38363647 -12.7729645 -0.9650116 -19.75328 -2.0787354c-6.9803085 -1.113739 -14.232719 -2.6850433 -22.128609 -4.6036835c-7.8958855 -1.9186249 -17.771214 -4.308838 -25.246716 -6.908127c-7.475502 -2.5993042 -14.717411 -5.8784027 -19.6063 -8.687668c-4.8888874 -2.8092804 -7.078739 -5.247162 -9.727034 -8.167984c-2.6482935 -2.9208221 -4.9129486 -6.2257233 -6.1627293 -9.356949c-1.2497816 -3.1312408 -1.0638671 -8.21785 -1.335958 -9.43045c-0.2720914 -1.2126007 -0.4076991 -0.1224823 -0.29658794 2.1548615c0.111111164 2.2773285 0.14654398 8.043732 0.96325445 11.509186c0.8167105 3.4654388 1.4986877 6.2510834 3.937008 9.283463c2.4383202 3.032364 4.789588 5.8416443 10.692914 8.910751c5.903324 3.0691223 16.422571 6.855652 24.727034 9.503937c8.304462 2.6483002 17.636917 4.98732 25.09974 6.3858337c7.4628143 1.3985138 13.315834 1.5227509 19.677162 2.005249c6.361328 0.48249817 13.428696 0.9391937 18.490814 0.8897705c5.0621185 -0.049438477 11.77034 -0.95144653 11.881889 -1.1863556z" fill-rule="evenodd"/><path fill="#b3cfab" d="m277.84055 73.44663c1.2082214 0.27077484 4.0109253 0.92694855 5.750641 1.6876602c1.7397156 0.7607193 3.947937 1.9492569 4.687683 2.8766403c0.7397156 0.92739105 0.9277954 1.86483 -0.24935913 2.6876678c-1.1771545 0.8228378 -4.032379 1.6246719 -6.813629 2.2493439c-2.7812805 0.62467194 -6.269928 1.2904663 -9.874023 1.4986877c-3.604126 0.20822144 -9.875763 -0.14523315 -11.750671 -0.24934387c-1.8748779 -0.10411072 -0.27996826 0.124671936 0.50131226 -0.37532806c0.7812805 -0.5 1.603241 -1.1141739 4.186371 -2.624672c2.5830994 -1.510498 8.583099 -4.771652 11.312317 -6.438324c2.7292175 -1.6666641 4.9378967 -3.3534546 5.0629883 -3.561676c0.12512207 -0.20822144 -3.8433838 1.9374466 -4.312317 2.3123322c-0.46896362 0.3748932 0.2904663 -0.33377075 1.4986877 -0.06298828z" fill-rule="evenodd"/><path fill="#b3cfab" d="m258.06168 84.54014c1.8543091 -0.08836365 4.2077637 1.1045456 6.2493286 2.0629883c2.041565 0.9584427 4.8749084 2.5625534 6.0 3.6876678c1.1251221 1.1251068 1.438324 2.2922134 0.7506714 3.0629883c-0.6876831 0.7707825 -2.5743713 1.2598419 -4.876648 1.5616837c-2.3022766 0.3018341 -5.853882 0.23884583 -8.937012 0.24934387c-3.0831146 0.010498047 -7.5411224 -0.123802185 -9.561676 -0.18635559c-2.0205688 -0.062553406 -2.4991302 -0.43875885 -2.561676 -0.18897247c-0.062561035 0.24977875 0.94706726 0.5936127 2.1863403 1.6876602c1.2392883 1.0940552 4.4470825 3.824585 5.249344 4.8766403c0.8022766 1.0520554 0.9081421 1.2589722 -0.4356842 1.4356995c-1.3438416 0.1767273 -4.7104187 -0.18810272 -7.627304 -0.37532806c-2.9168854 -0.18723297 -6.7803955 -0.5608063 -9.874008 -0.7480316c-3.0936127 -0.18722534 -7.604553 -0.55205536 -8.687668 -0.37532806c-1.0831146 0.1767273 0.94924927 0.44618988 2.18898 1.4356918c1.2397156 0.98950195 4.145233 3.1885376 5.249344 4.5013123c1.1041107 1.3127747 2.2922058 2.7502213 1.3753204 3.375328c-0.9168854 0.62511444 -3.8871307 0.5004425 -6.8766327 0.37532806c-2.989502 -0.12510681 -6.674988 -0.47987366 -11.060379 -1.1259842c-4.385376 -0.6461029 -12.980743 -2.8547668 -15.251968 -2.7506561c-2.2712097 0.10411072 0.40596008 1.8958893 1.6246796 3.375328c1.2187195 1.4794388 4.874893 4.2720947 5.687668 5.5013123c0.81277466 1.2292252 1.6264191 1.5096283 -0.81103516 1.8740158c-2.437439 0.36439514 -8.78215 0.55205536 -13.813644 0.31233978c-5.031494 -0.2397232 -12.469376 -1.4173279 -16.37532 -1.7506561c-3.90596 -0.33333588 -6.21698 -0.6347351 -7.060379 -0.24934387c-0.8433838 0.3853836 1.0420074 1.207344 2.0 2.561676c0.9580078 1.354332 3.1233673 4.209976 3.7480316 5.564308c0.62467957 1.354332 1.1977386 2.259842 0 2.561676c-1.1977234 0.30184174 -4.384506 -0.29221344 -7.1863403 -0.7506561c-2.8018494 -0.4584427 -6.853897 -1.4063873 -9.62468 -2.0c-2.7707825 -0.5936127 -4.979004 -1.1972885 -7.0 -1.561676c-2.020996 -0.36439514 -4.761154 -0.8954544 -5.1259766 -0.62467194c-0.36483765 0.27077484 1.6662292 1.0721741 2.9369965 2.2493439c1.2707825 1.1771622 4.3333435 3.6885376 4.687668 4.8136444c0.3543396 1.1251068 0.8442688 1.7497864 -2.561676 1.9370117c-3.4059448 0.18722534 -13.655289 -0.55337524 -17.874023 -0.8136444c-4.2187195 -0.26028442 -5.698593 -0.664917 -7.4383163 -0.7480316c-1.7397156 -0.083114624 -2.2292175 0.16622925 -3.0 0.24934387c-0.77077484 0.083114624 -1.780838 0.093170166 -1.6246719 0.24934387c0.1561737 0.15615845 0.968071 -0.10412598 2.5616837 0.6876526c1.5936127 0.79177856 7.197731 2.8337708 6.9999924 4.0630035c-0.19772339 1.2292175 -4.5717316 2.1146088 -8.186348 3.3123322c-3.6146088 1.1977234 -9.589676 2.7335968 -13.501312 3.8740082c-3.9116364 1.1404266 -5.5988617 1.4632568 -9.968498 2.9685059c-4.369644 1.505249 -11.093178 4.22966 -16.249344 6.0629883c-5.1561737 1.8333435 -13.36483 4.718292 -14.687668 4.9370117c-1.3228378 0.21871948 -0.17629242 -0.1666565 6.750656 -3.6246643c6.9269485 -3.4580078 22.712158 -11.89415 34.811028 -17.123367c12.098862 -5.2292175 24.995628 -10.209969 37.782143 -14.251968c12.78653 -4.041992 28.135178 -6.979439 38.93701 -10.0c10.801834 -3.0205536 17.290909 -5.2379684 25.874023 -8.12336c8.583115 -2.8853836 19.072617 -6.605423 25.624664 -9.188972c6.552063 -2.5835495 10.593613 -4.828087 13.687668 -6.31234c3.0940552 -1.4842453 3.0223083 -2.5048065 4.876648 -2.5931702z" fill-rule="evenodd"/><path fill="#687e62" d="m363.07953 72.33104c-0.4890442 0.39632416 -4.443115 10.409012 -7.128601 14.703407c-2.6854858 4.294403 -4.417328 6.3355255 -8.984253 11.062996c-4.566925 4.7274704 -10.842957 11.416885 -18.417328 17.301834c-7.5743713 5.8849564 -17.833344 13.323273 -27.02887 18.007874c-9.195526 4.684601 -17.377075 6.8447113 -28.144348 10.099747c-10.767273 3.2550201 -25.605438 6.794388 -36.45932 9.430435c-10.853897 2.6360474 -18.886703 4.04068 -28.664047 6.3858337c-9.777344 2.3451385 -18.193344 4.176285 -30.0 7.6850433c-11.806656 3.5087433 -30.048126 9.790451 -40.83989 13.367447c-10.791779 3.5769958 -13.8919525 4.716095 -23.910767 8.094482c-10.018806 3.3784027 -27.235344 9.181107 -36.202103 12.175858c-8.966751 2.994751 -18.14304 5.7926483 -17.598423 5.7926483c0.5446205 0 10.977688 -3.156601 20.866146 -5.7926483c9.888451 -2.6360474 26.038933 -6.917328 38.46456 -10.023621c12.425644 -3.1062927 23.292221 -5.551178 36.089233 -8.614166c12.797028 -3.0630035 28.848648 -7.41864 40.692917 -9.763794c11.844269 -2.3451385 20.038498 -2.5988617 30.372711 -4.307083c10.334198 -1.7082214 23.32808 -4.2467194 31.632553 -5.9422607c8.304443 -1.6955261 11.374878 -1.7436523 18.194214 -4.230957c6.819336 -2.48732 15.791351 -6.596237 22.721771 -10.692917c6.9304504 -4.0966797 11.174988 -7.241043 18.8609 -13.887146c7.685913 -6.646103 21.202545 -19.423882 27.254608 -25.989494c6.0520325 -6.5656204 6.7187195 -9.647858 9.057739 -13.404205c2.3390198 -3.75634 3.447937 -5.5573044 4.9763794 -9.133858c1.5284424 -3.5765533 4.6832886 -12.7217865 4.194214 -12.325455z" fill-rule="evenodd"/><path fill="#000000" fill-opacity="0.0" d="m385.9407 11.437586c-0.54241943 -0.63823223 -1.5953674 -3.031496 -3.2545776 -3.8293962c-1.6592407 -0.7979002 -4.052063 -0.83027124 -6.7008057 -0.95800495c-2.6487122 -0.12773418 -6.1154785 0.41294813 -9.191589 0.1916008c-3.0761108 -0.22134733 -5.731415 -1.7244091 -9.265106 -1.5196848c-3.533661 0.20472431 -7.06604 0.48425198 -11.936981 2.7480316c-4.8709717 2.2637796 -12.7778015 7.2782154 -17.288727 10.834645c-4.5109253 3.5564308 -6.202545 5.269903 -9.7769165 10.503937c-3.5743408 5.2340355 -6.086151 14.384953 -11.669281 20.900265c-5.5830994 6.5153084 -10.978119 11.138229 -21.829407 18.1916c-10.851257 7.0533676 -27.57611 17.202972 -43.2782 24.128609c-15.702103 6.9256363 -33.365265 12.031494 -50.934387 17.425194c-17.569122 5.3936996 -35.857834 8.187225 -54.480316 14.937012c-18.622482 6.7497864 -41.169724 17.567368 -57.254593 25.561676c-16.084862 7.9943085 -29.105858 16.340332 -39.25459 22.404205c-10.148733 6.063858 -16.27603 9.095795 -21.637796 13.979004c-5.361768 4.883194 -8.873141 9.734909 -10.532809 15.320206c-1.6596675 5.5852966 -1.2445316 12.797897 0.57480335 18.191605c1.819335 5.393692 3.4269466 9.674103 10.3412075 14.170593c6.914261 4.4965057 21.39939 9.658798 31.144358 12.808411c9.744968 3.1495972 17.474194 4.6780396 27.325459 6.0892334c9.851265 1.4111938 19.263344 2.7230835 31.78215 2.377945c12.518814 -0.34513855 36.108932 -3.7073364 43.330704 -4.448807" fill-rule="evenodd"/><path stroke="#000000" stroke-width="2.0" stroke-linejoin="round" stroke-linecap="butt" d="m385.9407 11.437586c-0.54241943 -0.63823223 -1.5953674 -3.031496 -3.2545776 -3.8293962c-1.6592407 -0.7979002 -4.052063 -0.83027124 -6.7008057 -0.95800495c-2.6487122 -0.12773418 -6.1154785 0.41294813 -9.191589 0.1916008c-3.0761108 -0.22134733 -5.731415 -1.7244091 -9.265106 -1.5196848c-3.533661 0.20472431 -7.06604 0.48425198 -11.936981 2.7480316c-4.8709717 2.2637796 -12.7778015 7.2782154 -17.288727 10.834645c-4.5109253 3.5564308 -6.202545 5.269903 -9.7769165 10.503937c-3.5743408 5.2340355 -6.086151 14.384953 -11.669281 20.900265c-5.5830994 6.5153084 -10.978119 11.138229 -21.829407 18.1916c-10.851257 7.0533676 -27.57611 17.202972 -43.2782 24.128609c-15.702103 6.9256363 -33.365265 12.031494 -50.934387 17.425194c-17.569122 5.3936996 -35.857834 8.187225 -54.480316 14.937012c-18.622482 6.7497864 -41.169724 17.567368 -57.254593 25.561676c-16.084862 7.9943085 -29.105858 16.340332 -39.25459 22.404205c-10.148733 6.063858 -16.27603 9.095795 -21.637796 13.979004c-5.361768 4.883194 -8.873141 9.734909 -10.532809 15.320206c-1.6596675 5.5852966 -1.2445316 12.797897 0.57480335 18.191605c1.819335 5.393692 3.4269466 9.674103 10.3412075 14.170593c6.914261 4.4965057 21.39939 9.658798 31.144358 12.808411c9.744968 3.1495972 17.474194 4.6780396 27.325459 6.0892334c9.851265 1.4111938 19.263344 2.7230835 31.78215 2.377945c12.518814 -0.34513855 36.108932 -3.7073364 43.330704 -4.448807" fill-rule="evenodd"/><path fill="#000000" fill-opacity="0.0" d="m385.21732 10.385827c0.28125 0.6872263 1.7742615 2.033245 1.6876526 4.1233597c-0.08660889 2.0901136 0.011383057 4.780402 -2.207367 8.417323c-2.2187195 3.636919 -8.294373 9.675415 -11.10498 13.404198c-2.8105774 3.7287865 -4.303589 3.624672 -5.7585144 8.968506c-1.454956 5.34383 -0.45187378 14.53587 -2.9711304 23.094486c-2.5192566 8.558617 -6.674103 19.630798 -12.144348 28.257217c-5.470276 8.626427 -14.582703 17.25766 -20.677185 23.501312c-6.0944824 6.24366 -8.038055 8.271217 -15.8897705 13.960625c-7.8516846 5.6894226 -19.219147 15.0577545 -31.220459 20.175858c-12.001312 5.1181183 -24.830261 7.3092804 -40.7874 10.532806c-15.957138 3.2235413 -37.56212 5.2978973 -54.955383 8.808411c-17.393265 3.510498 -36.82939 9.19072 -49.404205 12.254593c-12.574799 3.063858 -14.61898 3.2563324 -26.044617 6.128601c-11.425629 2.8722687 -35.424316 9.25415 -42.509186 11.10498" fill-rule="evenodd"/><path stroke="#000000" stroke-width="2.0" stroke-linejoin="round" stroke-linecap="butt" d="m385.21732 10.385827c0.28125 0.6872263 1.7742615 2.033245 1.6876526 4.1233597c-0.08660889 2.0901136 0.011383057 4.780402 -2.207367 8.417323c-2.2187195 3.636919 -8.294373 9.675415 -11.10498 13.404198c-2.8105774 3.7287865 -4.303589 3.624672 -5.7585144 8.968506c-1.454956 5.34383 -0.45187378 14.53587 -2.9711304 23.094486c-2.5192566 8.558617 -6.674103 19.630798 -12.144348 28.257217c-5.470276 8.626427 -14.582703 17.25766 -20.677185 23.501312c-6.0944824 6.24366 -8.038055 8.271217 -15.8897705 13.960625c-7.8516846 5.6894226 -19.219147 15.0577545 -31.220459 20.175858c-12.001312 5.1181183 -24.830261 7.3092804 -40.7874 10.532806c-15.957138 3.2235413 -37.56212 5.2978973 -54.955383 8.808411c-17.393265 3.510498 -36.82939 9.19072 -49.404205 12.254593c-12.574799 3.063858 -14.61898 3.2563324 -26.044617 6.128601c-11.425629 2.8722687 -35.424316 9.25415 -42.509186 11.10498" fill-rule="evenodd"/><path fill="#000000" fill-opacity="0.0" d="m71.342285 203.07086c-2.8272095 0.9015808 -13.34864 3.41951 -16.963253 5.4094543c-3.6146088 1.9899445 -6.25634 3.5940552 -4.724407 6.530182c1.5319328 2.9361267 7.064739 7.196411 13.916008 11.086609c6.8512726 3.890213 16.506126 8.253723 27.191605 12.254593c10.685478 4.000885 26.633858 9.569565 36.921257 11.750656c10.287407 2.1811066 20.669289 1.1133118 24.803154 1.335968" fill-rule="evenodd"/><path stroke="#000000" stroke-width="2.0" stroke-linejoin="round" stroke-linecap="butt" d="m71.342285 203.07086c-2.8272095 0.9015808 -13.34864 3.41951 -16.963253 5.4094543c-3.6146088 1.9899445 -6.25634 3.5940552 -4.724407 6.530182c1.5319328 2.9361267 7.064739 7.196411 13.916008 11.086609c6.8512726 3.890213 16.506126 8.253723 27.191605 12.254593c10.685478 4.000885 26.633858 9.569565 36.921257 11.750656c10.287407 2.1811066 20.669289 1.1133118 24.803154 1.335968" fill-rule="evenodd"/><path fill="#000000" d="m352.21655 16.195711c1.4899292 0.09361458 3.9912415 0.75021935 5.2519836 1.687664c1.2607117 0.9374466 2.1250916 2.6662292 2.312317 3.937008c0.18722534 1.2707787 -0.35565186 2.7397213 -1.1889648 3.687664c-0.8333435 0.94794464 -2.5192566 1.8748913 -3.8110352 2.0c-1.2917786 0.12511063 -3.0643005 -0.46806526 -3.9396362 -1.2493439c-0.8753052 -0.7812767 -1.2502136 -2.2821522 -1.3123169 -3.4383202c-0.06213379 -1.156168 0.38757324 -2.706911 0.93963623 -3.4986877c0.5520325 -0.79177475 2.2685852 -0.9601917 2.3726807 -1.2519684c0.10412598 -0.29177475 -1.0192261 -0.7178478 -1.7480164 -0.49868774c-0.7287903 0.21916008 -1.9890747 0.8447075 -2.6246643 1.8136482c-0.6356201 0.96894264 -1.0013123 2.3232727 -1.1889954 4.0c-0.18765259 1.6767292 0.2922058 5.5813656 0.06298828 6.0603676c-0.22921753 0.4790039 -1.2301025 -1.7178478 -1.438324 -3.1863518c-0.20822144 -1.468504 -0.2484436 -4.13517 0.18899536 -5.624672c0.43743896 -1.4895 1.4151306 -2.5726147 2.4356995 -3.312336c1.0205383 -0.7397194 2.1977234 -1.2195969 3.6876526 -1.1259842z" fill-rule="evenodd"/><path fill="#000000" fill-opacity="0.0" d="m384.96695 22.63517c-1.1937866 0.59099007 -4.4370117 2.6036758 -7.1627197 3.5459328c-2.725708 0.9422569 -6.3989563 1.7720909 -9.191589 2.1076107c-2.7926636 0.3355217 -6.303589 -0.078739166 -7.5643005 -0.094488144" fill-rule="evenodd"/><path stroke="#000000" stroke-width="2.0" stroke-linejoin="round" stroke-linecap="butt" d="m384.96695 22.63517c-1.1937866 0.59099007 -4.4370117 2.6036758 -7.1627197 3.5459328c-2.725708 0.9422569 -6.3989563 1.7720909 -9.191589 2.1076107c-2.7926636 0.3355217 -6.303589 -0.078739166 -7.5643005 -0.094488144" fill-rule="evenodd"/><path fill="#97b18f" d="m210.40765 147.17989c-1.3363953 -1.5100708 -1.9803162 -2.0043793 -5.0498657 -3.1181183c-3.0695496 -1.1137238 -9.852585 -2.7720795 -13.367462 -3.5643005c-3.514862 -0.7922058 -5.419937 -1.4116364 -7.7217865 -1.1889801c-2.301834 0.22267151 -1.8565063 -0.8167114 -6.0892334 2.5249329c-4.232712 3.3416443 -13.168411 11.485138 -19.307083 17.524948c-6.138672 6.039795 -14.653549 14.332886 -17.524933 18.713898c-2.871399 4.381027 -1.1640472 5.3197784 0.29658508 7.5721893c1.4606323 2.2523956 3.6154785 2.5756683 8.467194 5.9422455c4.8517 3.3665924 15.667984 10.71785 20.643036 14.257217c4.975067 3.539383 7.722229 6.632553 9.207352 6.979004c1.4851379 0.34646606 0.22309875 -3.0441742 -0.29658508 -4.9002533c-0.51968384 -1.8560791 -3.2668457 -5.3700867 -2.821518 -6.2362213c0.4453125 -0.8661499 3.66185 0.32196045 5.4934387 1.0393677c1.8315735 0.7174072 4.8276367 3.537613 5.496063 3.265091c0.66841125 -0.27252197 -0.32196045 -3.0936127 -1.4855652 -4.9002686c-1.1636047 -1.8066406 -5.9912567 -5.370514 -5.496063 -5.939621c0.49517822 -0.5691223 6.338135 1.559494 8.467194 2.5249329c2.1290436 0.96543884 3.9356842 3.664032 4.307083 3.2677155c0.37138367 -0.3963318 -0.09841919 -3.368332 -2.0787354 -5.6456757c-1.9803162 -2.2773438 -6.7585297 -5.7908936 -9.803162 -8.018372c-3.0446167 -2.2274628 -7.300949 -3.613739 -8.464554 -5.346451c-1.1636047 -1.732727 -2.22966 -3.0450592 1.4829254 -5.0498657c3.7126007 -2.0048218 14.827209 -4.6027985 20.792664 -6.979004c5.965439 -2.3762054 12.029739 -4.481201 15.0 -7.2782135c2.9702454 -2.7970276 2.8460083 -6.9295807 2.821518 -9.503937c-0.024505615 -2.5743713 -1.6321106 -4.432205 -2.9685059 -5.9422607z" fill-rule="evenodd"/><path fill="#687e62" d="m208.62671 145.54826c-0.43307495 -0.08705139 1.4116364 1.7926483 1.4855652 3.4881897c0.07392883 1.6955414 0.40638733 4.457138 -1.0419922 6.6850433c-1.4483795 2.2279053 -4.6657867 4.603241 -7.6483 6.682419c-2.9824982 2.0791779 -6.410324 3.6390991 -10.246719 5.7926483c-3.8363953 2.153534 -11.942261 6.3490753 -12.771652 7.128601c-0.8293915 0.77952576 4.3425293 -1.3127747 7.795273 -2.4514313c3.4527588 -1.1386719 9.158798 -2.8582764 12.921265 -4.3805847c3.7624664 -1.5223083 7.413391 -3.2309723 9.653549 -4.7532806c2.240158 -1.5223083 2.9829407 -2.7593994 3.7873993 -4.3805847c0.8044586 -1.62117 1.0144348 -3.713028 1.0393677 -5.346451c0.024932861 -1.6334229 -0.060806274 -3.0433044 -0.8897705 -4.454071c-0.828949 -1.4107513 -3.6509094 -3.9234467 -4.0839844 -4.010498z" fill-rule="evenodd"/><path fill="#687e62" d="m143.72237 187.05692c1.3985138 0.5196991 2.1058502 -0.1360321 6.165344 2.005249c4.059494 2.1412964 13.464127 7.587494 18.191605 10.842529c4.727478 3.2550354 8.069122 6.881012 10.173233 8.687668c2.1041107 1.8066406 2.129486 1.5581818 2.4514465 2.1522217c0.3219452 0.5940552 0.18591309 1.5109406 -0.5196991 1.4120789c-0.7055969 -0.098861694 -1.3748779 -0.42082214 -3.7138977 -2.005249c-2.3390198 -1.5844269 -6.273407 -4.642166 -10.320221 -7.5013123c-4.0467987 -2.859146 -9.8517 -6.8692017 -13.960632 -9.653549c-4.108917 -2.7843323 -9.281708 -6.062546 -10.692902 -7.05249c-1.4112091 -0.98994446 0.8272095 0.59317017 2.2257233 1.112854z" fill-rule="evenodd"/><path fill="#000000" fill-opacity="0.0" d="m210.40765 147.17989c-1.3363953 -1.5100708 -1.9803162 -2.0043793 -5.0498657 -3.1181183c-3.0695496 -1.1137238 -9.852585 -2.7720795 -13.367462 -3.5643005c-3.514862 -0.7922058 -5.419937 -1.4116364 -7.7217865 -1.1889801c-2.301834 0.22267151 -1.8565063 -0.8167114 -6.0892334 2.5249329c-4.232712 3.3416443 -13.168411 11.485138 -19.307083 17.524948c-6.138672 6.039795 -14.653549 14.332886 -17.524933 18.713898c-2.871399 4.381027 -1.1640472 5.3197784 0.29658508 7.5721893c1.4606323 2.2523956 3.6154785 2.5756683 8.467194 5.9422455c4.8517 3.3665924 15.667984 10.71785 20.643036 14.257217c4.975067 3.539383 7.722229 6.632553 9.207352 6.979004c1.4851379 0.34646606 0.22309875 -3.0441742 -0.29658508 -4.9002533c-0.51968384 -1.8560791 -3.2668457 -5.3700867 -2.821518 -6.2362213c0.4453125 -0.8661499 3.66185 0.32196045 5.4934387 1.0393677c1.8315735 0.7174072 4.8276367 3.537613 5.496063 3.265091c0.66841125 -0.27252197 -0.32196045 -3.0936127 -1.4855652 -4.9002686c-1.1636047 -1.8066406 -5.9912567 -5.370514 -5.496063 -5.939621c0.49517822 -0.5691223 6.338135 1.559494 8.467194 2.5249329c2.1290436 0.96543884 3.9356842 3.664032 4.307083 3.2677155c0.37138367 -0.3963318 -0.09841919 -3.368332 -2.0787354 -5.6456757c-1.9803162 -2.2773438 -6.7585297 -5.7908936 -9.803162 -8.018372c-3.0446167 -2.2274628 -7.300949 -3.613739 -8.464554 -5.346451c-1.1636047 -1.732727 -2.22966 -3.0450592 1.4829254 -5.0498657c3.7126007 -2.0048218 14.827209 -4.6027985 20.792664 -6.979004c5.965439 -2.3762054 12.029739 -4.481201 15.0 -7.2782135c2.9702454 -2.7970276 2.8460083 -6.9295807 2.821518 -9.503937c-0.024505615 -2.5743713 -1.6321106 -4.432205 -2.9685059 -5.9422607z" fill-rule="evenodd"/><path stroke="#000000" stroke-width="2.0" stroke-linejoin="round" stroke-linecap="butt" d="m210.40765 147.17989c-1.3363953 -1.5100708 -1.9803162 -2.0043793 -5.0498657 -3.1181183c-3.0695496 -1.1137238 -9.852585 -2.7720795 -13.367462 -3.5643005c-3.514862 -0.7922058 -5.419937 -1.4116364 -7.7217865 -1.1889801c-2.301834 0.22267151 -1.8565063 -0.8167114 -6.0892334 2.5249329c-4.232712 3.3416443 -13.168411 11.485138 -19.307083 17.524948c-6.138672 6.039795 -14.653549 14.332886 -17.524933 18.713898c-2.871399 4.381027 -1.1640472 5.3197784 0.29658508 7.5721893c1.4606323 2.2523956 3.6154785 2.5756683 8.467194 5.9422455c4.8517 3.3665924 15.667984 10.71785 20.643036 14.257217c4.975067 3.539383 7.722229 6.632553 9.207352 6.979004c1.4851379 0.34646606 0.22309875 -3.0441742 -0.29658508 -4.9002533c-0.51968384 -1.8560791 -3.2668457 -5.3700867 -2.821518 -6.2362213c0.4453125 -0.8661499 3.66185 0.32196045 5.4934387 1.0393677c1.8315735 0.7174072 4.8276367 3.537613 5.496063 3.265091c0.66841125 -0.27252197 -0.32196045 -3.0936127 -1.4855652 -4.9002686c-1.1636047 -1.8066406 -5.9912567 -5.370514 -5.496063 -5.939621c0.49517822 -0.5691223 6.338135 1.559494 8.467194 2.5249329c2.1290436 0.96543884 3.9356842 3.664032 4.307083 3.2677155c0.37138367 -0.3963318 -0.09841919 -3.368332 -2.0787354 -5.6456757c-1.9803162 -2.2773438 -6.7585297 -5.7908936 -9.803162 -8.018372c-3.0446167 -2.2274628 -7.300949 -3.613739 -8.464554 -5.346451c-1.1636047 -1.732727 -2.22966 -3.0450592 1.4829254 -5.0498657c3.7126007 -2.0048218 14.827209 -4.6027985 20.792664 -6.979004c5.965439 -2.3762054 12.029739 -4.481201 15.0 -7.2782135c2.9702454 -2.7970276 2.8460083 -6.9295807 2.821518 -9.503937c-0.024505615 -2.5743713 -1.6321106 -4.432205 -2.9685059 -5.9422607z" fill-rule="evenodd"/><path fill="#97b18f" d="m314.21982 139.90509c-0.39590454 -2.2773438 -0.048583984 -5.6692963 0.14959717 -9.803146c0.19815063 -4.1338654 0.9404907 -9.727913 1.0393677 -15.000008c0.098846436 -5.272087 0.54418945 -12.498688 -0.4461975 -16.632545c-0.99038696 -4.1338577 -2.921692 -6.8832016 -5.496063 -8.170601c-2.5743713 -1.2873993 -7.029297 -1.3114624 -9.950134 0.4461975c-2.920807 1.7576523 -5.792633 5.2974625 -7.5747986 10.099731c-1.7821655 4.8022766 -2.623352 12.872269 -3.118103 18.713913c-0.49475098 5.8416443 -0.2961731 11.979881 0.14959717 16.33596c0.44577026 4.356079 0.42126465 6.5087433 2.5249329 9.800522c2.1036682 3.2917786 6.0131226 6.262024 10.097107 9.950134c4.0839844 3.688095 8.96109 7.8713837 14.40683 12.178482c5.4457703 4.307083 14.208221 10.198593 18.26773 13.664032c4.0594788 3.4654388 5.024933 6.9304504 6.0892334 7.1286163c1.0643005 0.1981659 0.6430359 -3.9098969 0.29656982 -5.939636c-0.34643555 -2.0297394 -3.2913208 -5.9168854 -2.3753052 -6.238846c0.9159851 -0.32196045 6.9308777 4.5297394 7.8713684 4.307083c0.94052124 -0.22265625 -1.3866882 -4.0341187 -2.2283325 -5.643036c-0.8416443 -1.6089325 -3.8114624 -3.9855652 -2.8215332 -4.010498c0.9899597 -0.024932861 7.77124 4.157913 8.761169 3.8608856c0.9899292 -0.2970276 -1.3858337 -3.8608856 -2.8215332 -5.643036c-1.4356995 -1.7821655 -3.3670044 -2.8469086 -5.792633 -5.049881c-2.4256592 -2.2029724 -4.677185 -4.7523956 -8.761169 -8.167969c-4.0839844 -3.4155731 -12.698151 -9.627747 -15.742767 -12.32547c-3.0446167 -2.6977234 -2.1290588 -1.5835419 -2.5249329 -3.8608856z" fill-rule="evenodd"/><path fill="#687e62" d="m296.39655 150.4492c0.9159851 0.39588928 4.7523804 2.5730438 10.692902 6.979004c5.9404907 4.405945 19.405518 14.803146 24.950134 19.456696c5.5446167 4.653534 6.90683 6.6329803 8.317566 8.464554c1.4107666 1.8315887 0.41952515 2.4011383 0.14700317 2.5249481c-0.27252197 0.123794556 -0.89108276 -0.8167114 -1.7821655 -1.7821655c-0.89108276 -0.96543884 -1.5350037 -2.3521423 -3.5643005 -4.010498c-2.0292969 -1.6583557 -5.86438 -3.910324 -8.611542 -5.939621c-2.7471619 -2.0293121 -5.098877 -4.033249 -7.871399 -6.2362213c-2.772522 -2.2029724 -5.91687 -4.506134 -8.763763 -6.9816284c-2.8468933 -2.4755096 -6.0651855 -5.792221 -8.317596 -7.871399c-2.252411 -2.0791779 -6.112854 -4.9995575 -5.1968384 -4.603668z" fill-rule="evenodd"/><path fill="#000000" fill-opacity="0.0" d="m314.21982 139.90509c-0.39590454 -2.2773438 -0.048583984 -5.6692963 0.14959717 -9.803146c0.19815063 -4.1338654 0.9404907 -9.727913 1.0393677 -15.000008c0.098846436 -5.272087 0.54418945 -12.498688 -0.4461975 -16.632545c-0.99038696 -4.1338577 -2.921692 -6.8832016 -5.496063 -8.170601c-2.5743713 -1.2873993 -7.029297 -1.3114624 -9.950134 0.4461975c-2.920807 1.7576523 -5.792633 5.2974625 -7.5747986 10.099731c-1.7821655 4.8022766 -2.623352 12.872269 -3.118103 18.713913c-0.49475098 5.8416443 -0.2961731 11.979881 0.14959717 16.33596c0.44577026 4.356079 0.42126465 6.5087433 2.5249329 9.800522c2.1036682 3.2917786 6.0131226 6.262024 10.097107 9.950134c4.0839844 3.688095 8.96109 7.8713837 14.40683 12.178482c5.4457703 4.307083 14.208221 10.198593 18.26773 13.664032c4.0594788 3.4654388 5.024933 6.9304504 6.0892334 7.1286163c1.0643005 0.1981659 0.6430359 -3.9098969 0.29656982 -5.939636c-0.34643555 -2.0297394 -3.2913208 -5.9168854 -2.3753052 -6.238846c0.9159851 -0.32196045 6.9308777 4.5297394 7.8713684 4.307083c0.94052124 -0.22265625 -1.3866882 -4.0341187 -2.2283325 -5.643036c-0.8416443 -1.6089325 -3.8114624 -3.9855652 -2.8215332 -4.010498c0.9899597 -0.024932861 7.77124 4.157913 8.761169 3.8608856c0.9899292 -0.2970276 -1.3858337 -3.8608856 -2.8215332 -5.643036c-1.4356995 -1.7821655 -3.3670044 -2.8469086 -5.792633 -5.049881c-2.4256592 -2.2029724 -4.677185 -4.7523956 -8.761169 -8.167969c-4.0839844 -3.4155731 -12.698151 -9.627747 -15.742767 -12.32547c-3.0446167 -2.6977234 -2.1290588 -1.5835419 -2.5249329 -3.8608856z" fill-rule="evenodd"/><path stroke="#000000" stroke-width="2.0" stroke-linejoin="round" stroke-linecap="butt" d="m314.21982 139.90509c-0.39590454 -2.2773438 -0.048583984 -5.6692963 0.14959717 -9.803146c0.19815063 -4.1338654 0.9404907 -9.727913 1.0393677 -15.000008c0.098846436 -5.272087 0.54418945 -12.498688 -0.4461975 -16.632545c-0.99038696 -4.1338577 -2.921692 -6.8832016 -5.496063 -8.170601c-2.5743713 -1.2873993 -7.029297 -1.3114624 -9.950134 0.4461975c-2.920807 1.7576523 -5.792633 5.2974625 -7.5747986 10.099731c-1.7821655 4.8022766 -2.623352 12.872269 -3.118103 18.713913c-0.49475098 5.8416443 -0.2961731 11.979881 0.14959717 16.33596c0.44577026 4.356079 0.42126465 6.5087433 2.5249329 9.800522c2.1036682 3.2917786 6.0131226 6.262024 10.097107 9.950134c4.0839844 3.688095 8.96109 7.8713837 14.40683 12.178482c5.4457703 4.307083 14.208221 10.198593 18.26773 13.664032c4.0594788 3.4654388 5.024933 6.9304504 6.0892334 7.1286163c1.0643005 0.1981659 0.6430359 -3.9098969 0.29656982 -5.939636c-0.34643555 -2.0297394 -3.2913208 -5.9168854 -2.3753052 -6.238846c0.9159851 -0.32196045 6.9308777 4.5297394 7.8713684 4.307083c0.94052124 -0.22265625 -1.3866882 -4.0341187 -2.2283325 -5.643036c-0.8416443 -1.6089325 -3.8114624 -3.9855652 -2.8215332 -4.010498c0.9899597 -0.024932861 7.77124 4.157913 8.761169 3.8608856c0.9899292 -0.2970276 -1.3858337 -3.8608856 -2.8215332 -5.643036c-1.4356995 -1.7821655 -3.3670044 -2.8469086 -5.792633 -5.049881c-2.4256592 -2.2029724 -4.677185 -4.7523956 -8.761169 -8.167969c-4.0839844 -3.4155731 -12.698151 -9.627747 -15.742767 -12.32547c-3.0446167 -2.6977234 -2.1290588 -1.5835419 -2.5249329 -3.8608856z" fill-rule="evenodd"/></g></svg>