<?xml version="1.0" encoding="UTF-8" standalone="no"?>
<!-- Created with Inkscape (http://www.inkscape.org/) -->

<svg
   xmlns:dc="http://purl.org/dc/elements/1.1/"
   xmlns:cc="http://creativecommons.org/ns#"
   xmlns:rdf="http://www.w3.org/1999/02/22-rdf-syntax-ns#"
   xmlns:svg="http://www.w3.org/2000/svg"
   xmlns="http://www.w3.org/2000/svg"
   xmlns:xlink="http://www.w3.org/1999/xlink"
   xmlns:sodipodi="http://sodipodi.sourceforge.net/DTD/sodipodi-0.dtd"
   xmlns:inkscape="http://www.inkscape.org/namespaces/inkscape"
   width="70.345352mm"
   height="32.412579mm"
   viewBox="0 0 70.345352 32.412579"
   version="1.1"
   id="svg8"
   inkscape:version="0.92.1 r15371"
   sodipodi:docname="guixhpc-logo-transparent-white.svg">
  <defs
     id="defs2">
    <linearGradient
       inkscape:collect="always"
       xlink:href="#linearGradient4702-3"
       id="linearGradient3795"
       gradientUnits="userSpaceOnUse"
       gradientTransform="matrix(-0.23053967,0,0,0.23053967,51.928023,68.799809)"
       x1="142.96875"
       y1="63.65625"
       x2="177.04297"
       y2="69.791016" />
    <linearGradient
       id="linearGradient4702-3">
      <stop
         style="stop-color:#ff0000;stop-opacity:0.58431375;"
         offset="0"
         id="stop4704-1" />
      <stop
         style="stop-color:#ffcc00;stop-opacity:1;"
         offset="1"
         id="stop4706-8" />
    </linearGradient>
    <linearGradient
       inkscape:collect="always"
       xlink:href="#linearGradient4696-5"
       id="linearGradient3798"
       gradientUnits="userSpaceOnUse"
       gradientTransform="matrix(-0.12909425,0,0,0.12909425,41.476283,-30.94855)"
       x1="108.08774"
       y1="1025.709"
       x2="80.655251"
       y2="1043.709" />
    <linearGradient
       id="linearGradient4696-5">
      <stop
         style="stop-color:#ffb638;stop-opacity:1;"
         offset="0"
         id="stop4698-6" />
      <stop
         style="stop-color:#f0ae26;stop-opacity:1;"
         offset="1"
         id="stop4700-2" />
    </linearGradient>
    <linearGradient
       inkscape:collect="always"
       xlink:href="#linearGradient4702-3"
       id="linearGradient3801"
       gradientUnits="userSpaceOnUse"
       gradientTransform="matrix(0.23053967,0,0,0.23053967,5.0994208,-127.70365)"
       x1="113.5146"
       y1="1004.8033"
       x2="78.000107"
       y2="922.07178" />
    <linearGradient
       inkscape:collect="always"
       xlink:href="#linearGradient4702-3"
       id="linearGradient3805"
       gradientUnits="userSpaceOnUse"
       gradientTransform="matrix(0.23053967,0,0,0.23053967,5.1068767,68.799889)"
       x1="142.96875"
       y1="63.65625"
       x2="176.60477"
       y2="70.667412" />
    <linearGradient
       inkscape:collect="always"
       xlink:href="#linearGradient4702-3"
       id="linearGradient4755"
       gradientUnits="userSpaceOnUse"
       gradientTransform="matrix(0.23053967,0,0,0.23053967,5.0994208,-127.70365)"
       x1="113.5146"
       y1="1004.8033"
       x2="78.000107"
       y2="922.07178" />
    <linearGradient
       inkscape:collect="always"
       xlink:href="#linearGradient4696-5"
       id="linearGradient4757"
       gradientUnits="userSpaceOnUse"
       gradientTransform="matrix(-0.12909425,0,0,0.12909425,41.476283,-30.94855)"
       x1="108.08774"
       y1="1025.709"
       x2="80.655251"
       y2="1043.709" />
  </defs>
  <sodipodi:namedview
     id="base"
     pagecolor="#ffffff"
     bordercolor="#666666"
     borderopacity="1.0"
     inkscape:pageopacity="0.0"
     inkscape:pageshadow="2"
     inkscape:zoom="2.3507535"
     inkscape:cx="132.9361"
     inkscape:cy="61.252117"
     inkscape:document-units="mm"
     inkscape:current-layer="g4753"
     showgrid="false"
     fit-margin-top="0"
     fit-margin-left="0"
     fit-margin-right="0"
     fit-margin-bottom="0"
     inkscape:window-width="1198"
     inkscape:window-height="1918"
     inkscape:window-x="2560"
     inkscape:window-y="0"
     inkscape:window-maximized="0" />
  <metadata
     id="metadata5">
    <rdf:RDF>
      <cc:Work
         rdf:about="">
        <dc:format>image/svg+xml</dc:format>
        <dc:type
           rdf:resource="http://purl.org/dc/dcmitype/StillImage" />
        <dc:title></dc:title>
      </cc:Work>
    </rdf:RDF>
  </metadata>
  <g
     inkscape:label="Layer 1"
     inkscape:groupmode="layer"
     id="layer1"
     transform="translate(-24.776842,-49.72646)">
    <rect
       y="49.72646"
       x="24.776842"
       height="32.412579"
       width="70.345352"
       id="rect3204"
       style="fill:#000000;fill-opacity:0;stroke:none;stroke-width:0.21772183" />
    <g
       id="g4692"
       transform="matrix(0.60076905,0,0,0.60076905,23.375597,9.1818453)">
      <g
         id="g4753"
         transform="translate(0,16.707113)">
        <g
           transform="translate(0,-16.707113)"
           id="g4677">
          <path
             id="path3756"
             d="m 47.439751,79.750464 c -0.415774,0.759883 -0.837872,1.378505 -1.267971,1.865947 -0.415769,0.473128 -0.874249,0.851562 -1.376032,1.13829 -0.487457,0.272389 -1.040524,0.468895 -1.657003,0.583539 -0.602147,0.100383 -1.29354,0.151342 -2.082062,0.151315 -0.58166,0 -1.1044,-0.02982 -1.563349,-0.08644 -0.0016,0 -0.0054,0 -0.0072,0 -0.05818,-0.0042 -0.178358,-0.02381 -0.302583,-0.04323 -0.130844,-0.02064 -0.264588,-0.04027 -0.47549,-0.07927 -3.865793,-0.715274 -5.14789,1.968447 -5.424887,2.708831 -0.04336,0.115914 -0.06484,0.187325 -0.06484,0.187325 l -4.69725,13.097535 -2.881744,4.899004 h 5.756287 c 2.364166,-5.26389 4.637072,-16.254788 7.067484,-17.225623 0.526785,0.07366 1.179756,0.10803 1.966788,0.10803 1.032253,0 1.956483,-0.123747 2.773685,-0.38182 0.817192,-0.258101 1.552244,-0.658337 2.21174,-1.203167 0.659492,-0.559118 1.25622,-1.272276 1.786683,-2.132488 0.544793,-0.860161 1.061474,-1.89357 1.548935,-3.097848 l -1.311183,-0.489929 z"
             style="font-style:normal;font-weight:bold;font-size:144px;line-height:125%;font-family:Sans;-inkscape-font-specification:'Sans Bold';letter-spacing:0px;word-spacing:0px;fill:#ffbf2d;fill-opacity:1;stroke:none;stroke-width:0.28222224"
             inkscape:connector-curvature="0" />
          <path
             inkscape:connector-curvature="0"
             id="path3758"
             d="m 47.439603,79.751019 c -0.415775,0.759884 -0.837841,1.377633 -1.267945,1.865048 -0.415761,0.473154 -0.874424,0.851747 -1.376206,1.138502 -0.120716,0.06744 -0.245174,0.129434 -0.373909,0.187537 -0.0013,0 -0.0019,0.0029 -0.0034,0.0029 -0.162042,0.113982 -0.370465,0.211799 -0.652947,0.279003 -3.258042,0.775758 -5.477203,3.679269 -5.685645,3.960125 0.09451,-0.07771 0.189646,-0.141156 0.284618,-0.18976 0.01429,-0.0077 0.02811,-0.01455 0.04241,-0.02117 0.0024,0 0.0044,-0.0029 0.0067,-0.0034 0.01656,-0.0079 0.03366,-0.01482 0.05023,-0.02143 0.526786,0.07369 1.179613,0.108267 1.966651,0.108267 1.032248,0 1.956419,-0.124777 2.773619,-0.382799 0.817195,-0.258101 1.551588,-0.657304 2.211088,-1.202134 0.659488,-0.559118 1.256483,-1.272725 1.786949,-2.132939 0.544828,-0.86025 1.061786,-1.894162 1.549241,-3.098466 l -1.31147,-0.488844 z"
             style="font-style:normal;font-weight:bold;font-size:144px;line-height:125%;font-family:Sans;-inkscape-font-specification:'Sans Bold';letter-spacing:0px;word-spacing:0px;fill:url(#linearGradient3805);fill-opacity:1;stroke:none;stroke-width:0.28222224" />
          <path
             id="path3760"
             d="m 9.5951784,79.750464 c 0.4157746,0.759883 0.8378696,1.378505 1.2679676,1.865947 0.415769,0.473128 0.874253,0.851562 1.376035,1.13829 0.487452,0.272389 1.040521,0.468895 1.657003,0.583539 0.602147,0.100409 1.293538,0.151342 2.082062,0.151315 0.581663,0 1.1044,-0.02982 1.563346,-0.08644 0.0016,0 0.0053,0 0.0072,0 0.05818,-0.0042 0.178353,-0.02381 0.302581,-0.04323 0.130844,-0.02064 0.264591,-0.04027 0.475488,-0.07927 3.865795,-0.715274 5.147892,1.968447 5.424889,2.708831 0.04335,0.115914 0.06484,0.187325 0.06484,0.187325 l 4.697243,13.097535 2.881748,4.899004 H 25.639297 C 23.275133,98.909419 21.002225,87.918521 18.57181,86.947686 c -0.526783,0.07366 -1.179756,0.10803 -1.966791,0.10803 -1.03225,0 -1.956482,-0.123747 -2.77368,-0.38182 -0.817172,-0.258102 -1.552225,-0.658338 -2.21172,-1.203168 C 10.96013,84.911611 10.363404,84.198453 9.8329383,83.33824 9.2881427,82.47808 8.7714591,81.44467 8.2839987,80.240393 l 1.3111956,-0.489929 z"
             style="font-style:normal;font-weight:bold;font-size:144px;line-height:125%;font-family:Sans;-inkscape-font-specification:'Sans Bold';letter-spacing:0px;word-spacing:0px;fill:#ffbf2d;fill-opacity:1;stroke:none;stroke-width:0.28222224"
             inkscape:connector-curvature="0" />
          <path
             inkscape:connector-curvature="0"
             style="font-style:normal;font-weight:bold;font-size:144px;line-height:125%;font-family:Sans;-inkscape-font-specification:'Sans Bold';letter-spacing:0px;word-spacing:0px;fill:url(#linearGradient4755);fill-opacity:1;stroke:none;stroke-width:0.28222224"
             d="m 9.5949456,79.750305 c 0.4157744,0.759857 0.8378664,1.378479 1.2679684,1.865921 0.415769,0.473128 0.874252,0.851561 1.376031,1.138317 0.487453,0.272388 1.040527,0.468815 1.657004,0.583512 0.602146,0.100383 1.293537,0.151315 2.082064,0.151262 0.58166,0 1.104398,-0.02977 1.563349,-0.08641 0.0016,0 0.0053,0 0.0072,0 0.05818,-0.0042 0.178358,-0.02408 0.302586,-0.04321 0.130841,-0.02064 0.264591,-0.04024 0.475485,-0.07927 3.865798,-0.715274 5.147892,1.968421 5.42489,2.708857 0.04335,0.115861 0.06484,0.187299 0.06484,0.187299 l 4.697248,13.097536 2.420666,4.899001 h -5.295208 c -2.36416,-5.263941 -4.637071,-16.254785 -7.067483,-17.225674 -0.526783,0.07369 -1.179756,0.108056 -1.966794,0.108056 -1.032245,0 -1.95648,-0.123746 -2.773677,-0.38182 C 13.013942,86.415635 12.278887,86.015347 11.619394,85.470543 10.959907,84.911452 10.363177,84.198268 9.8327108,83.338055 9.2879152,82.477868 8.7712315,81.444485 8.2837712,80.240181 l 1.3111956,-0.489876 z"
             id="path3762"
             sodipodi:nodetypes="ccccccccsscccccccccccc" />
          <path
             sodipodi:nodetypes="ccc"
             d="m 28.51263,99.272268 -2.870433,4.901042 h 5.753408"
             style="font-style:normal;font-weight:bold;font-size:144px;line-height:125%;font-family:Sans;-inkscape-font-specification:'Sans Bold';letter-spacing:0px;word-spacing:0px;fill:url(#linearGradient4757);fill-opacity:1;stroke:none;stroke-width:0.28222224"
             id="path3764"
             inkscape:connector-curvature="0" />
          <path
             inkscape:connector-curvature="0"
             id="path3766"
             d="m 9.59557,79.751019 -1.3114734,0.488844 c 0.1523285,0.376397 0.3074299,0.736442 0.4654365,1.079342 0.031597,0.06858 0.063045,0.13589 0.094869,0.203147 1.217e-4,2.11e-4 -1.217e-4,0 0,0 0.031684,0.06691 0.064082,0.133059 0.095988,0.198649 0.010636,0.0217 0.021696,0.04305 0.032369,0.06474 0.053512,0.109035 0.1065874,0.217249 0.1607238,0.322553 2.46e-4,0 7.937e-4,0 0.00106,0 0.032269,0.06273 0.064616,0.124963 0.097107,0.186399 0.1310375,0.247783 0.2638689,0.484876 0.3984625,0.710989 0.03361,0.05646 0.066622,0.111204 0.1004543,0.166317 0.013097,0.02117 0.025903,0.04247 0.039066,0.06363 0.020902,0.03368 0.042598,0.06726 0.063619,0.100409 0.033155,0.05379 0.065664,0.107024 0.099335,0.159623 0.05365,0.08382 0.1091223,0.165788 0.1640733,0.246671 0.01386,0.02064 0.02735,0.04114 0.0413,0.06141 0.03487,0.05054 0.06953,0.100172 0.104915,0.149543 0.07043,0.09827 0.141846,0.194336 0.214302,0.287972 0.03623,0.0468 0.07265,0.09276 0.109382,0.138378 0.07348,0.09128 0.147743,0.180207 0.223231,0.266805 0.05723,0.06562 0.115734,0.130149 0.174117,0.193093 0.01847,0.02011 0.03725,0.03953 0.05581,0.05911 0.07767,0.08207 0.155837,0.161608 0.235506,0.238893 0.03974,0.03852 0.07919,0.07649 0.119428,0.11385 0.04043,0.03752 0.08074,0.07416 0.12166,0.11049 0.04073,0.03614 0.08155,0.07109 0.122775,0.106018 0.123656,0.102156 0.250481,0.199311 0.379489,0.291307 0.34403,0.245374 0.707226,0.454845 1.090475,0.628411 0.04791,0.0217 0.09545,0.04302 0.143984,0.06361 0.09737,0.04133 0.19586,0.08038 0.29578,0.117211 0.0498,0.01826 0.09913,0.03522 0.149564,0.05247 0.05044,0.0172 0.101835,0.03408 0.152911,0.05019 0.05107,0.01614 0.102116,0.0318 0.154027,0.04691 0.103822,0.03014 0.209812,0.05882 0.316987,0.0848 0.05359,0.01296 0.107415,0.02487 0.161837,0.03683 0.05442,0.01191 0.108815,0.02381 0.164076,0.03461 0.05561,0.01138 0.110959,0.02143 0.167423,0.03127 0.1122,0.02011 0.225981,0.03776 0.341538,0.05358 0.173339,0.02381 0.350379,0.04334 0.531286,0.05802 0.120605,0.0098 0.243239,0.01773 0.367212,0.02355 0.123971,0.0058 0.249912,0.0093 0.377256,0.01138 0.06367,0 0.127461,0 0.191979,0 0.09838,0 0.194877,-2.6e-5 0.289082,0 0.188412,-0.0029 0.368315,-0.0069 0.540215,-0.01349 0.08557,-0.0034 0.169609,-0.0069 0.251132,-0.01138 0.08187,-0.0045 0.162155,-0.0098 0.239972,-0.01561 0.233447,-0.01693 0.448701,-0.03821 0.646245,-0.06583 0.01656,0.0064 0.03368,0.01349 0.05023,0.02117 0.0024,0 0.0044,0.0029 0.0067,0.0034 0.01431,0.0069 0.02814,0.01376 0.04242,0.02117 0.09503,0.04866 0.190048,0.111999 0.284615,0.18976 -0.208017,-0.280278 -2.427239,-3.184292 -5.685662,-3.96005 -0.282477,-0.06726 -0.490905,-0.165073 -0.652941,-0.279082 -0.0013,0 -0.0018,-0.0029 -0.0034,-0.0029 -0.128442,-0.05792 -0.253442,-0.120201 -0.373907,-0.187511 -2.46e-4,-7.9e-5 -7.94e-4,1.33e-4 -0.0011,0 -0.03109,-0.01773 -0.06189,-0.03622 -0.09264,-0.05466 -2.46e-4,-1.59e-4 -7.93e-4,1.06e-4 -0.0011,0 -0.03102,-0.01852 -0.06084,-0.03757 -0.09152,-0.05694 -0.06162,-0.03887 -0.122783,-0.07877 -0.183047,-0.120544 -0.03001,-0.0209 -0.05962,-0.0421 -0.08929,-0.06363 -0.05976,-0.04334 -0.117951,-0.08763 -0.176352,-0.133906 -0.029,-0.02302 -0.05728,-0.04554 -0.08594,-0.06924 -0.02888,-0.02408 -0.05741,-0.04792 -0.08594,-0.07252 -0.02833,-0.02461 -0.05572,-0.04964 -0.08371,-0.0748 -0.139964,-0.125782 -0.275793,-0.2599 -0.407392,-0.404045 -0.02633,-0.02881 -0.05326,-0.05861 -0.07925,-0.08819 -0.09563,-0.108374 -0.19087,-0.223388 -0.285734,-0.344858 -0.01183,-0.01508 -0.02281,-0.03045 -0.0346,-0.04577 -0.02664,-0.03461 -0.05378,-0.06927 -0.08036,-0.104908 -0.132894,-0.178276 -0.264744,-0.370019 -0.396232,-0.574833 -0.05259,-0.08194 -0.1049942,-0.166 -0.1573765,-0.252254 -0.026194,-0.04313 -0.051991,-0.08639 -0.078126,-0.130572 C 9.7518409,80.0278 9.6733311,79.890137 9.5956176,79.748135 Z"
             style="font-style:normal;font-weight:bold;font-size:144px;line-height:125%;font-family:Sans;-inkscape-font-specification:'Sans Bold';letter-spacing:0px;word-spacing:0px;fill:url(#linearGradient3795);fill-opacity:1;stroke:none;stroke-width:0.28222224" />
        </g>
        <g
           transform="translate(0,-16.707113)"
           id="text4696"
           style="font-style:normal;font-weight:normal;font-size:17.59363174px;line-height:1.25;font-family:sans-serif;letter-spacing:0px;word-spacing:0px;fill:#232323;fill-opacity:1;stroke:none;stroke-width:0.43984082"
           aria-label="Guix">
          <path
             inkscape:connector-curvature="0"
             id="path4728"
             style="font-style:normal;font-variant:normal;font-weight:bold;font-stretch:normal;font-family:sans-serif;-inkscape-font-specification:'sans-serif Bold';letter-spacing:-1.35327613px;fill:#232323;stroke-width:0.43984082;fill-opacity:1"
             d="m 51.055259,103.07034 q -1.237052,0.60135 -2.568601,0.90202 -1.33155,0.30067 -2.749005,0.30067 -3.204309,0 -5.077069,-1.78685 -1.87276,-1.79545 -1.87276,-4.862304 0,-3.101222 1.907123,-4.879484 1.907122,-1.778263 5.223109,-1.778263 1.280006,0 2.448333,0.240538 1.176917,0.240538 2.216385,0.713023 v 2.654508 q -1.07383,-0.609935 -2.13907,-0.910608 -1.056648,-0.300672 -2.121888,-0.300672 -1.975847,0 -3.049677,1.108193 -1.06524,1.099602 -1.06524,3.152765 0,2.035982 1.030877,3.144174 1.030877,1.10819 2.929409,1.10819 0.515438,0 0.953561,-0.0601 0.446713,-0.0687 0.798929,-0.20618 v -2.491283 h -2.0188 v -2.216385 h 5.154384 z" />
          <path
             inkscape:connector-curvature="0"
             id="path4730"
             style="font-style:normal;font-variant:normal;font-weight:bold;font-stretch:normal;font-family:sans-serif;-inkscape-font-specification:'sans-serif Bold';letter-spacing:-1.35327613px;fill:#232323;stroke-width:0.43984082;fill-opacity:1"
             d="m 52.365081,100.27838 v -5.875994 h 3.092631 v 0.962151 q 0,0.781749 -0.0086,1.967257 -0.0086,1.176918 -0.0086,1.572087 0,1.159739 0.06013,1.675179 0.06013,0.50684 0.206175,0.73879 0.188994,0.30067 0.489667,0.4639 0.309263,0.16322 0.704432,0.16322 0.962152,0 1.511953,-0.7388 0.549801,-0.73879 0.549801,-2.05316 v -4.750624 h 3.075449 V 104.0239 H 58.96267 v -1.39168 q -0.695842,0.84188 -1.47759,1.24564 -0.773158,0.39517 -1.709538,0.39517 -1.666584,0 -2.542829,-1.02228 -0.867655,-1.02229 -0.867655,-2.97237 z" />
          <path
             inkscape:connector-curvature="0"
             id="path4732"
             style="font-style:normal;font-variant:normal;font-weight:bold;font-stretch:normal;font-family:sans-serif;-inkscape-font-specification:'sans-serif Bold';letter-spacing:-1.35327613px;fill:#232323;stroke-width:0.43984082;fill-opacity:1"
             d="m 63.657228,94.402386 h 3.075449 v 9.621514 h -3.075449 z m 0,-3.74552 h 3.075449 v 2.508467 h -3.075449 z" />
          <path
             inkscape:connector-curvature="0"
             id="path4734"
             style="font-style:normal;font-variant:normal;font-weight:bold;font-stretch:normal;font-family:sans-serif;-inkscape-font-specification:'sans-serif Bold';letter-spacing:-1.35327613px;fill:#232323;stroke-width:0.43984082;fill-opacity:1"
             d="m 71.228844,99.101466 -3.470619,-4.69908 h 3.255853 l 1.967256,2.852092 1.993029,-2.852092 h 3.255853 l -3.470619,4.681899 3.642431,4.939615 h -3.255852 l -2.164842,-3.04108 -2.139069,3.04108 h -3.255853 z" />
        </g>
        <g
           transform="translate(0.83535567,-16.707113)"
           id="text4706"
           style="font-style:normal;font-weight:normal;font-size:17.59363174px;line-height:1.25;font-family:sans-serif;letter-spacing:0px;word-spacing:0px;fill:#ffbf2d;fill-opacity:1;stroke:none;stroke-width:0.43984082"
           aria-label="HPC">
          <path
             inkscape:connector-curvature="0"
             id="path4721"
             style="font-style:normal;font-variant:normal;font-weight:bold;font-stretch:normal;font-family:sans-serif;-inkscape-font-specification:'sans-serif Bold';letter-spacing:0px;fill:#ffbf2d;stroke-width:0.43984082"
             d="m 78.868367,91.198077 h 3.307396 v 4.888074 h 4.879484 v -4.888074 h 3.307397 V 104.0239 h -3.307397 v -5.437873 h -4.879484 v 5.437873 h -3.307396 z" />
          <path
             inkscape:connector-curvature="0"
             id="path4723"
             style="font-style:normal;font-variant:normal;font-weight:bold;font-stretch:normal;font-family:sans-serif;-inkscape-font-specification:'sans-serif Bold';letter-spacing:0px;fill:#ffbf2d;stroke-width:0.43984082"
             d="m 87.055248,91.198077 h 5.489419 q 2.448335,0 3.754115,1.091011 1.31436,1.082421 1.31436,3.092631 0,2.0188 -1.31436,3.109811 -1.30578,1.082421 -3.754115,1.082421 h -2.182023 v 4.449949 h -3.307396 z m 3.307396,2.396788 v 3.582297 h 1.829807 q 0.962152,0 1.486181,-0.463894 0.52403,-0.472485 0.52403,-1.331549 0,-0.859065 -0.52403,-1.322959 -0.524029,-0.463895 -1.486181,-0.463895 z" />
          <path
             inkscape:connector-curvature="0"
             id="path4725"
             style="font-style:normal;font-variant:normal;font-weight:bold;font-stretch:normal;font-family:sans-serif;-inkscape-font-specification:'sans-serif Bold';letter-spacing:0px;fill:#ffbf2d;stroke-width:0.43984082"
             d="m 104.90621,103.31947 q -0.9106,0.47249 -1.89853,0.71302 -0.98792,0.24054 -2.06175,0.24054 -3.204313,0 -5.077073,-1.78685 -1.87276,-1.79545 -1.87276,-4.862304 0,-3.07545 1.87276,-4.862303 1.87276,-1.795444 5.077073,-1.795444 1.07383,0 2.06175,0.240538 0.98793,0.240538 1.89853,0.713023 v 2.654508 q -0.91919,-0.627116 -1.81262,-0.919198 -0.89343,-0.292082 -1.88135,-0.292082 -1.769673,0 -2.783373,1.133965 -1.01369,1.133964 -1.01369,3.126993 0,1.984438 1.01369,3.118404 1.0137,1.13396 2.783373,1.13396 0.98792,0 1.88135,-0.29208 0.89343,-0.29208 1.81262,-0.9192 z" />
        </g>
      </g>
    </g>
  </g>
</svg>
