<?xml version="1.0" encoding="UTF-8" standalone="no"?>
<!-- Created with Inkscape (http://www.inkscape.org/) -->

<svg
   xmlns:dc="http://purl.org/dc/elements/1.1/"
   xmlns:cc="http://creativecommons.org/ns#"
   xmlns:rdf="http://www.w3.org/1999/02/22-rdf-syntax-ns#"
   xmlns:svg="http://www.w3.org/2000/svg"
   xmlns="http://www.w3.org/2000/svg"
   xmlns:sodipodi="http://sodipodi.sourceforge.net/DTD/sodipodi-0.dtd"
   xmlns:inkscape="http://www.inkscape.org/namespaces/inkscape"
   width="122.6131mm"
   height="32.12331mm"
   viewBox="0 0 122.6131 32.12331"
   version="1.1"
   id="svg1512"
   inkscape:version="0.92.0 r15299"
   sodipodi:docname="mclean hospital.svg">
  <defs
     id="defs1506" />
  <sodipodi:namedview
     id="base"
     pagecolor="#ffffff"
     bordercolor="#666666"
     borderopacity="1.0"
     inkscape:pageopacity="0.0"
     inkscape:pageshadow="2"
     inkscape:zoom="0.35"
     inkscape:cx="229.82005"
     inkscape:cy="58.81571"
     inkscape:document-units="mm"
     inkscape:current-layer="layer1"
     showgrid="false"
     fit-margin-top="0"
     fit-margin-left="0"
     fit-margin-right="0"
     fit-margin-bottom="0"
     inkscape:window-width="1280"
     inkscape:window-height="744"
     inkscape:window-x="-4"
     inkscape:window-y="-4"
     inkscape:window-maximized="1" />
  <metadata
     id="metadata1509">
    <rdf:RDF>
      <cc:Work
         rdf:about="">
        <dc:format>image/svg+xml</dc:format>
        <dc:type
           rdf:resource="http://purl.org/dc/dcmitype/StillImage" />
        <dc:title></dc:title>
      </cc:Work>
    </rdf:RDF>
  </metadata>
  <g
     inkscape:label="Layer 1"
     inkscape:groupmode="layer"
     id="layer1"
     transform="translate(48.33334,-132.27168)">
    <g
       id="g1448"
       transform="translate(-341.73722,-294.3316)">
      <path
         style="fill:#0095c8;stroke-width:0.26458332"
         inkscape:connector-curvature="0"
         d="m 305.09842,429.09563 1.73302,7.15169 1.47373,-7.15433 h 4.75456 l 1.143,3.73856 c 1.01336,-1.66688 2.7649,-2.77283 4.7625,-2.77283 0.26723,0 0.52652,0.0291 0.78317,0.0661 v -2.96862 h -0.0212 -25.79952 -0.0238 v 2.96862 2.83898 2.64583 1.09538 0.82814 c 0,0.61648 0.037,1.21709 0.0926,1.80975 0.0952,0.9869 0.26459,1.94205 0.49742,2.8628 0.29369,1.16152 0.68792,2.26748 1.15358,3.32052 l 4.79161,-16.43063 z"
         id="path1129" />
      <path
         style="fill:#0095c8;stroke-width:0.26458332"
         inkscape:connector-curvature="0"
         d="m 305.31009,451.46351 c -0.0979,0.0688 -0.36248,0.27252 -0.36248,0.59531 0,0.34396 0.29898,0.56621 0.61648,0.56621 0.31485,0 0.59531,-0.20373 0.59531,-0.51594 0,-0.32279 -0.44715,-0.45244 -0.84931,-0.64558 z"
         id="path1131" />
      <path
         style="fill:#0095c8;stroke-width:0.26458332"
         inkscape:connector-curvature="0"
         d="m 305.86571,451.31799 c 0.0476,-0.0476 0.26459,-0.27517 0.26459,-0.59267 0,-0.27781 -0.22225,-0.45244 -0.53711,-0.45244 -0.33073,0 -0.51594,0.18786 -0.51594,0.41804 0.003,0.33338 0.40217,0.46038 0.78846,0.62707 z"
         id="path1133" />
      <path
         style="fill:#0095c8;stroke-width:0.26458332"
         inkscape:connector-curvature="0"
         d="m 311.82942,445.72999 3.25438,0.003 -4.28096,-14.67379 -3.97404,13.31383 -3.98728,-13.31383 -4.34975,14.67644 h 3.3364 v 2.73844 h -4.62492 c 0.005,0.008 0.0106,0.0159 0.0132,0.0238 3.34434,5.38427 8.20738,8.81327 9.58057,9.71021 l 0.0291,0.0185 0.0291,-0.0185 c 1.37319,-0.89959 6.23623,-4.32594 9.58057,-9.71021 0.005,-0.008 0.008,-0.0159 0.0132,-0.0238 h -4.61963 z m -7.67027,7.22048 h -1.72773 v -0.36513 h 0.6641 v -1.9394 c 0,-0.0926 0.005,-0.18785 0.005,-0.18785 h -0.008 c 0,0 -0.0344,0.0688 -0.14552,0.17463 l -0.28046,0.27516 -0.254,-0.26458 0.71967,-0.6985 h 0.3757 v 2.63789 h 0.65617 v 0.36778 z m 1.40494,0.0529 c -0.60061,0 -1.04775,-0.37571 -1.04775,-0.9181 0,-0.46038 0.39952,-0.74348 0.48154,-0.79904 -0.19579,-0.14023 -0.33602,-0.3228 -0.33602,-0.60061 0,-0.39952 0.30162,-0.78846 0.93662,-0.78846 0.55827,0 0.94457,0.30957 0.94457,0.80434 0,0.39952 -0.32015,0.74083 -0.35719,0.78316 0.23019,0.14023 0.40746,0.32809 0.40746,0.63765 0,0.46831 -0.40217,0.88106 -1.02923,0.88106 z m -1.81769,-4.52966 v -2.74373 h 6.16479 v 2.74373 z m 5.08,4.47675 h -1.72773 v -0.36513 h 0.6641 v -1.9394 c 0,-0.0926 0.005,-0.18785 0.005,-0.18785 h -0.008 c 0,0 -0.0344,0.0688 -0.14552,0.17463 l -0.28046,0.27516 -0.254,-0.26458 0.71967,-0.6985 h 0.3757 v 2.63789 h 0.65617 v 0.36778 z m 2.08227,0 h -1.72773 v -0.36513 h 0.66411 v -1.9394 c 0,-0.0926 0.005,-0.18785 0.005,-0.18785 h -0.008 c 0,0 -0.0344,0.0688 -0.14552,0.17463 l -0.28046,0.27516 -0.254,-0.26458 0.71967,-0.6985 h 0.37571 v 2.63789 h 0.65616 v 0.36778 z"
         id="path1135" />
      <path
         style="fill:#0095c8;stroke-width:0.26458332"
         inkscape:connector-curvature="0"
         d="m 319.75105,432.96649 v 0 c -0.25136,-0.0741 -0.51065,-0.12436 -0.78317,-0.12436 -1.69863,0 -3.07975,1.47902 -3.07975,3.29671 0,1.81769 1.38112,3.29671 3.07975,3.29671 0.23812,0 0.46831,-0.037 0.69056,-0.0926 0,0 0,0 0,0 0.0582,-0.59266 0.0926,-1.19327 0.0926,-1.80975 v -0.82814 l -0.003,-1.09538 z"
         id="path1137" />
      <path
         style="fill:#0095c8;stroke-width:0.26458332"
         inkscape:connector-curvature="0"
         d="m 316.4808,441.59984 1.31233,4.4106 c 0.56092,-1.19327 1.02923,-2.46327 1.36789,-3.8047 -0.0635,0.003 -0.127,0.0132 -0.19314,0.0132 -0.89429,0.003 -1.73567,-0.2249 -2.48708,-0.61913 z"
         id="path1139" />
      <path
         style="fill:#ffffff;stroke-width:0.26458332"
         inkscape:connector-curvature="0"
         d="m 303.50298,449.94744 h -0.37571 l -0.71966,0.6985 0.254,0.26459 0.28046,-0.27517 c 0.11112,-0.10583 0.14552,-0.17462 0.14552,-0.17462 h 0.008 c 0,0 -0.005,0.0926 -0.005,0.18785 v 1.9394 h -0.6641 v 0.36512 h 1.72773 v -0.36512 h -0.65617 v -2.64055 z"
         id="path1141" />
      <path
         style="fill:#ffffff;stroke-width:0.26458332"
         inkscape:connector-curvature="0"
         d="m 306.18586,451.48467 c 0.0397,-0.0423 0.35719,-0.38364 0.35719,-0.78316 0,-0.49477 -0.3863,-0.80434 -0.94457,-0.80434 -0.635,0 -0.93662,0.3863 -0.93662,0.78846 0,0.27781 0.14023,0.46038 0.33602,0.60061 -0.082,0.0556 -0.48154,0.34131 -0.48154,0.79904 0,0.54504 0.44714,0.9181 1.04775,0.9181 0.62441,0 1.02923,-0.41275 1.02923,-0.88106 0,-0.31221 -0.17727,-0.49742 -0.40746,-0.63765 z m -0.59267,-1.20914 c 0.31486,0 0.53711,0.17462 0.53711,0.45244 0,0.31485 -0.21696,0.54504 -0.26459,0.59266 -0.38629,-0.16669 -0.78581,-0.29369 -0.78581,-0.62441 0,-0.23284 0.18256,-0.42069 0.51329,-0.42069 z m -0.0291,2.3495 c -0.32015,0 -0.61648,-0.22225 -0.61648,-0.56621 0,-0.32279 0.26458,-0.52917 0.36248,-0.59531 0.40481,0.19579 0.85196,0.32279 0.85196,0.64558 -0.003,0.30956 -0.28311,0.51594 -0.59796,0.51594 z"
         id="path1143" />
      <path
         style="fill:#ffffff;stroke-width:0.26458332"
         inkscape:connector-curvature="0"
         d="m 308.17023,449.94744 h -0.37571 l -0.71966,0.6985 0.254,0.26459 0.28046,-0.27517 c 0.11112,-0.10583 0.14552,-0.17462 0.14552,-0.17462 h 0.008 c 0,0 -0.005,0.0926 -0.005,0.18785 v 1.9394 h -0.6641 v 0.36512 h 1.72773 v -0.36512 h -0.65617 v -2.64055 z"
         id="path1145" />
      <path
         style="fill:#ffffff;stroke-width:0.26458332"
         inkscape:connector-curvature="0"
         d="m 310.2525,449.94744 h -0.3757 l -0.71967,0.6985 0.254,0.26459 0.28046,-0.27517 c 0.11112,-0.10583 0.14552,-0.17462 0.14552,-0.17462 h 0.008 c 0,0 -0.005,0.0926 -0.005,0.18785 v 1.9394 h -0.6641 v 0.36512 h 1.72773 v -0.36512 h -0.65617 v -2.64055 z"
         id="path1147" />
      <rect
         style="fill:#ffffff;stroke-width:0.26458332"
         x="303.7464"
         y="445.72998"
         width="6.1647916"
         height="2.7437291"
         id="rect1149" />
      <path
         style="fill:#ffffff;stroke-width:0.26458332"
         inkscape:connector-curvature="0"
         d="m 318.96788,430.05872 c -1.99761,0 -3.74915,1.10595 -4.7625,2.77283 l -1.14565,-3.73856 h -4.75456 l -1.47373,7.15433 -1.73302,-7.15169 h -4.65931 l -4.79161,16.43063 c 0.0714,0.16139 0.14023,0.32543 0.21432,0.48683 0.39687,0.84402 0.83873,1.64835 1.30968,2.41565 0.008,0.0106 0.0265,0.0423 0.0265,0.0476 h 4.62492 v -2.74108 h -3.33111 l 4.34975,-14.67644 3.98463,13.31383 3.97669,-13.31383 4.28096,14.67644 -3.25438,-0.003 v 2.74373 h 4.62492 c 0.48418,-0.78052 0.93398,-1.60073 1.33879,-2.46327 0,0 0,0 0,-0.003 l -1.31233,-4.4106 c 0.75141,0.39423 1.59279,0.61913 2.48708,0.61913 0.0661,0 0.127,-0.0106 0.19314,-0.0132 0,0 0,0 0,0 0.23284,-0.92075 0.40217,-1.8759 0.49742,-2.8628 -0.22225,0.0556 -0.45244,0.0926 -0.69056,0.0926 -1.69863,0 -3.07975,-1.47902 -3.07975,-3.29671 0,-1.81769 1.38112,-3.29671 3.07975,-3.29671 0.27252,0 0.53181,0.0503 0.78317,0.12171 v -2.83898 0 c -0.25665,-0.037 -0.51594,-0.0661 -0.78317,-0.0661 z"
         id="path1151" />
      <path
         style="fill:#7e868d;stroke-width:0.26458332"
         inkscape:connector-curvature="0"
         d="m 326.48734,451.4344 h 0.44185 v 1.38642 h 1.63777 v -1.38642 h 0.44186 v 3.15913 h -0.44186 v -1.38642 h -1.63777 v 1.38642 h -0.44185 z"
         id="path1155" />
      <path
         style="fill:#7e868d;stroke-width:0.26458332"
         inkscape:connector-curvature="0"
         d="m 331.65994,453.68336 h -1.19062 l -0.31221,0.90752 h -0.45509 l 1.13507,-3.15912 h 0.46566 l 1.13507,3.15912 h -0.46038 z m -0.59267,-1.81504 c 0,0 -0.0714,0.28575 -0.12435,0.44715 l -0.35454,1.00277 h 0.95779 l -0.34925,-1.00277 c -0.0529,-0.1614 -0.12171,-0.44715 -0.12171,-0.44715 z"
         id="path1157" />
      <path
         style="fill:#7e868d;stroke-width:0.26458332"
         inkscape:connector-curvature="0"
         d="m 333.13102,451.4344 h 0.96573 c 0.33073,0 0.47096,0.0265 0.59002,0.0714 0.3228,0.12171 0.53182,0.43921 0.53182,0.8546 0,0.40217 -0.2249,0.74348 -0.56886,0.85461 v 0.008 c 0,0 0.037,0.0397 0.0953,0.14287 l 0.67204,1.22502 h -0.5027 l -0.66675,-1.25677 h -0.67469 v 1.25677 h -0.44186 z m 1.07686,1.51607 c 0.34396,0 0.55827,-0.21961 0.55827,-0.5715 0,-0.23284 -0.09,-0.39688 -0.25135,-0.48684 -0.0847,-0.045 -0.18786,-0.0714 -0.43392,-0.0714 h -0.51065 v 1.13242 h 0.63765 z"
         id="path1159" />
      <path
         style="fill:#7e868d;stroke-width:0.26458332"
         inkscape:connector-curvature="0"
         d="m 335.82184,451.4344 h 0.47889 l 0.78317,2.23309 c 0.0582,0.16933 0.12171,0.43391 0.12171,0.43391 h 0.008 c 0,0 0.0635,-0.26458 0.1217,-0.43391 l 0.79111,-2.23309 h 0.47096 l -1.16417,3.15913 h -0.44185 z"
         id="path1161" />
      <path
         style="fill:#7e868d;stroke-width:0.26458332"
         inkscape:connector-curvature="0"
         d="m 340.71398,453.68336 h -1.19062 l -0.31221,0.90752 h -0.45508 l 1.13506,-3.15912 h 0.46567 l 1.13506,3.15912 h -0.46038 z m -0.59531,-1.81504 c 0,0 -0.0714,0.28575 -0.12435,0.44715 l -0.35455,1.00277 h 0.9578 l -0.34925,-1.00277 c -0.0529,-0.1614 -0.12171,-0.44715 -0.12171,-0.44715 z"
         id="path1163" />
      <path
         style="fill:#7e868d;stroke-width:0.26458332"
         inkscape:connector-curvature="0"
         d="m 342.18242,451.4344 h 0.96573 c 0.33073,0 0.46831,0.0265 0.59002,0.0714 0.32279,0.12171 0.53181,0.43921 0.53181,0.8546 0,0.40217 -0.22489,0.74348 -0.56885,0.85461 v 0.008 c 0,0 0.037,0.0397 0.0953,0.14287 l 0.67204,1.22502 h -0.50006 l -0.66675,-1.25677 h -0.67469 v 1.25677 h -0.44185 v -3.15648 z m 1.07685,1.51607 c 0.34396,0 0.55828,-0.21961 0.55828,-0.5715 0,-0.23284 -0.09,-0.39688 -0.25136,-0.48684 -0.0847,-0.045 -0.18785,-0.0714 -0.43392,-0.0714 h -0.51064 v 1.13242 h 0.63764 z"
         id="path1165" />
      <path
         style="fill:#7e868d;stroke-width:0.26458332"
         inkscape:connector-curvature="0"
         d="m 345.2754,451.4344 h 1.04775 c 0.96573,0 1.60073,0.57679 1.60073,1.57427 0,1.00277 -0.635,1.58486 -1.60073,1.58486 h -1.04775 z m 1.016,2.77284 c 0.71173,0 1.1774,-0.42069 1.1774,-1.19857 0,-0.77258 -0.47096,-1.19062 -1.1774,-1.19062 h -0.5715 v 2.38919 z"
         id="path1167" />
      <path
         style="fill:#7e868d;stroke-width:0.26458332"
         inkscape:connector-curvature="0"
         d="m 350.34217,451.4344 h 0.46567 l 0.72496,1.70921 c 0.0714,0.17463 0.1561,0.42598 0.1561,0.42598 h 0.008 c 0,0 0.0847,-0.25135 0.1561,-0.42598 l 0.72496,-1.70921 h 0.46567 l 0.254,3.15913 h -0.43921 l -0.15611,-1.98967 c -0.0132,-0.19314 -0.005,-0.46567 -0.005,-0.46567 h -0.008 c 0,0 -0.0953,0.29105 -0.16933,0.46567 l -0.62971,1.42346 h -0.39423 l -0.62706,-1.42346 c -0.0714,-0.16933 -0.16933,-0.4736 -0.16933,-0.4736 h -0.008 c 0,0 0.005,0.2831 -0.008,0.4736 l -0.15346,1.98967 h -0.44185 z"
         id="path1169" />
      <path
         style="fill:#7e868d;stroke-width:0.26458332"
         inkscape:connector-curvature="0"
         d="m 354.28711,451.4344 h 1.83356 v 0.38365 h -1.39171 v 0.98954 h 1.13242 v 0.38365 h -1.13242 v 1.016 h 1.46579 v 0.38364 h -1.91029 v -3.15648 z"
         id="path1171" />
      <path
         style="fill:#7e868d;stroke-width:0.26458332"
         inkscape:connector-curvature="0"
         d="m 357.07582,451.4344 h 1.04775 c 0.96573,0 1.60073,0.57679 1.60073,1.57427 0,1.00277 -0.635,1.58486 -1.60073,1.58486 h -1.04775 z m 1.016,2.77284 c 0.71173,0 1.17739,-0.42069 1.17739,-1.19857 0,-0.77258 -0.47096,-1.19062 -1.17739,-1.19062 h -0.5715 v 2.38919 z"
         id="path1173" />
      <path
         style="fill:#7e868d;stroke-width:0.26458332"
         inkscape:connector-curvature="0"
         d="m 360.61329,451.4344 h 0.44186 v 3.15913 h -0.44186 z"
         id="path1175" />
      <path
         style="fill:#7e868d;stroke-width:0.26458332"
         inkscape:connector-curvature="0"
         d="m 363.53165,451.38149 c 0.75935,0 1.15094,0.41539 1.15094,0.41539 l -0.21961,0.33073 c 0,0 -0.36777,-0.34396 -0.91281,-0.34396 -0.70644,0 -1.16681,0.53711 -1.16681,1.2065 0,0.67469 0.47096,1.24884 1.1721,1.24884 0.59531,0 0.97631,-0.41011 0.97631,-0.41011 l 0.23813,0.3175 c 0,0 -0.43392,0.50006 -1.22502,0.50006 -0.94721,0 -1.61396,-0.72495 -1.61396,-1.651 -0.005,-0.9181 0.68262,-1.61395 1.60073,-1.61395 z"
         id="path1177" />
      <path
         style="fill:#7e868d;stroke-width:0.26458332"
         inkscape:connector-curvature="0"
         d="m 367.16173,453.68336 h -1.19062 l -0.31221,0.90752 h -0.45508 l 1.13506,-3.15912 h 0.46566 l 1.13507,3.15912 h -0.46038 z m -0.59531,-1.81504 c 0,0 -0.0714,0.28575 -0.12435,0.44715 l -0.35455,1.00277 h 0.9578 l -0.34925,-1.00277 c -0.0529,-0.1614 -0.12171,-0.44715 -0.12171,-0.44715 z"
         id="path1179" />
      <path
         style="fill:#7e868d;stroke-width:0.26458332"
         inkscape:connector-curvature="0"
         d="m 368.63017,451.4344 h 0.44185 v 2.77284 h 1.41288 v 0.38364 h -1.85738 v -3.15648 z"
         id="path1181" />
      <path
         style="fill:#7e868d;stroke-width:0.26458332"
         inkscape:connector-curvature="0"
         d="m 372.60686,453.89503 c 0,0 0.33602,0.34131 0.80433,0.34131 0.29633,0 0.54504,-0.16669 0.54504,-0.46567 0,-0.68527 -1.52929,-0.5371 -1.52929,-1.50812 0,-0.49213 0.42598,-0.88106 1.01865,-0.88106 0.58473,0 0.89429,0.3175 0.89429,0.3175 l -0.20109,0.36777 c 0,0 -0.29104,-0.27252 -0.6932,-0.27252 -0.33602,0 -0.5715,0.20902 -0.5715,0.46037 0,0.65352 1.52929,0.4789 1.52929,1.50283 0,0.48684 -0.37571,0.889 -1.00277,0.889 -0.67204,0 -1.04775,-0.41539 -1.04775,-0.41539 z"
         id="path1183" />
      <path
         style="fill:#7e868d;stroke-width:0.26458332"
         inkscape:connector-curvature="0"
         d="m 376.65498,451.38149 c 0.75936,0 1.14829,0.41539 1.14829,0.41539 l -0.2196,0.33073 c 0,0 -0.36777,-0.34396 -0.91281,-0.34396 -0.70644,0 -1.16682,0.53711 -1.16682,1.2065 0,0.67469 0.47096,1.24884 1.17211,1.24884 0.59531,0 0.97631,-0.41011 0.97631,-0.41011 l 0.23813,0.3175 c 0,0 -0.43392,0.50006 -1.22502,0.50006 -0.94721,0 -1.61396,-0.72495 -1.61396,-1.651 -0.003,-0.9181 0.68791,-1.61395 1.60337,-1.61395 z"
         id="path1185" />
      <path
         style="fill:#7e868d;stroke-width:0.26458332"
         inkscape:connector-curvature="0"
         d="m 378.72138,451.4344 h 0.44185 v 1.38642 h 1.63777 v -1.38642 h 0.44186 v 3.15913 H 380.801 v -1.38642 h -1.63777 v 1.38642 h -0.44185 z"
         id="path1187" />
      <path
         style="fill:#7e868d;stroke-width:0.26458332"
         inkscape:connector-curvature="0"
         d="m 383.73788,451.38149 c 0.91281,0 1.61925,0.70114 1.61925,1.61131 0,0.93133 -0.70644,1.65629 -1.61925,1.65629 -0.91281,0 -1.62454,-0.72496 -1.62454,-1.65629 0.003,-0.91017 0.71173,-1.61131 1.62454,-1.61131 z m 0,2.8575 c 0.64294,0 1.16416,-0.53711 1.16416,-1.24884 0,-0.68791 -0.51858,-1.2065 -1.16416,-1.2065 -0.64559,0 -1.16681,0.51859 -1.16681,1.2065 0,0.71173 0.52387,1.24884 1.16681,1.24884 z"
         id="path1189" />
      <path
         style="fill:#7e868d;stroke-width:0.26458332"
         inkscape:connector-curvature="0"
         d="m 387.63784,451.38149 c 0.91281,0 1.61925,0.70114 1.61925,1.61131 0,0.93133 -0.70644,1.65629 -1.61925,1.65629 -0.91282,0 -1.62455,-0.72496 -1.62455,-1.65629 0,-0.91017 0.71173,-1.61131 1.62455,-1.61131 z m 0,2.8575 c 0.64293,0 1.16416,-0.53711 1.16416,-1.24884 0,-0.68791 -0.51858,-1.2065 -1.16416,-1.2065 -0.64559,0 -1.16682,0.51859 -1.16682,1.2065 0,0.71173 0.52123,1.24884 1.16682,1.24884 z"
         id="path1191" />
      <path
         style="fill:#7e868d;stroke-width:0.26458332"
         inkscape:connector-curvature="0"
         d="m 390.12757,451.4344 h 0.44185 v 2.77284 h 1.41287 v 0.38364 h -1.85737 v -3.15648 z"
         id="path1193" />
      <path
         style="fill:#7e868d;stroke-width:0.26458332"
         inkscape:connector-curvature="0"
         d="m 395.66,453.68336 h -1.19062 l -0.31221,0.90752 h -0.45508 l 1.13506,-3.15912 h 0.46567 l 1.13506,3.15912 h -0.46038 z m -0.59531,-1.81504 c 0,0 -0.0714,0.28575 -0.12435,0.44715 l -0.35455,1.00277 h 0.9578 l -0.34925,-1.00277 c -0.0529,-0.1614 -0.12171,-0.44715 -0.12171,-0.44715 z"
         id="path1195" />
      <path
         style="fill:#7e868d;stroke-width:0.26458332"
         inkscape:connector-curvature="0"
         d="m 397.12844,451.4344 h 1.74096 v 0.38365 h -1.29646 v 1.03717 h 1.10596 v 0.38364 h -1.10596 v 1.35202 h -0.44185 v -3.15648 z"
         id="path1197" />
      <path
         style="fill:#7e868d;stroke-width:0.26458332"
         inkscape:connector-curvature="0"
         d="m 399.68432,451.4344 h 1.74095 v 0.38365 h -1.29645 v 1.03717 h 1.10595 v 0.38364 h -1.10595 v 1.35202 h -0.44186 v -3.15648 z"
         id="path1199" />
      <path
         style="fill:#7e868d;stroke-width:0.26458332"
         inkscape:connector-curvature="0"
         d="m 402.24284,451.4344 h 0.44185 v 3.15913 h -0.44185 z"
         id="path1201" />
      <path
         style="fill:#7e868d;stroke-width:0.26458332"
         inkscape:connector-curvature="0"
         d="m 403.76684,451.4344 h 0.44185 v 2.77284 h 1.41288 v 0.38364 h -1.85738 v -3.15648 z"
         id="path1203" />
      <path
         style="fill:#7e868d;stroke-width:0.26458332"
         inkscape:connector-curvature="0"
         d="m 406.35975,451.4344 h 0.44186 v 3.15913 h -0.44186 z"
         id="path1205" />
      <path
         style="fill:#7e868d;stroke-width:0.26458332"
         inkscape:connector-curvature="0"
         d="m 409.45273,453.68336 h -1.19062 l -0.31221,0.90752 h -0.45508 l 1.13506,-3.15912 h 0.46566 l 1.13507,3.15912 h -0.46038 z m -0.59531,-1.81504 c 0,0 -0.0714,0.28575 -0.12435,0.44715 l -0.35455,1.00277 h 0.9578 l -0.34925,-1.00277 c -0.0529,-0.1614 -0.12171,-0.44715 -0.12171,-0.44715 z"
         id="path1207" />
      <path
         style="fill:#7e868d;stroke-width:0.26458332"
         inkscape:connector-curvature="0"
         d="m 411.40536,451.81805 h -1.08215 v -0.38365 h 2.60879 v 0.38365 h -1.08214 v 2.77283 H 411.408 v -2.77283 z"
         id="path1209" />
      <path
         style="fill:#7e868d;stroke-width:0.26458332"
         inkscape:connector-curvature="0"
         d="m 413.60669,451.4344 h 1.83356 v 0.38365 h -1.39171 v 0.98954 h 1.13242 v 0.38365 h -1.13242 v 1.016 h 1.4658 v 0.38364 h -1.9103 v -3.15648 z"
         id="path1211" />
      <path
         id="path1215"
         d="m 347.80746,447.18519 c -0.30956,0 -0.61912,-0.1561 -3.16177,-0.1561 h -0.40217 c -2.51089,0 -2.82045,0.1561 -3.13002,0.1561 -0.2487,0 -0.46566,-0.18785 -0.46566,-0.52652 0,-0.34131 0.21696,-0.55827 0.46566,-0.55827 0.30957,0 0.61913,0.0318 2.10609,0.0318 v -14.78227 l -6.07484,15.99142 c -0.0926,0.21696 -0.1852,0.30956 -0.52652,0.30956 -0.34131,0 -0.43391,-0.12435 -0.52652,-0.30956 l -5.88698,-16.08402 v 14.87487 c 1.48696,0 1.79652,-0.0318 2.10609,-0.0318 0.2487,0 0.46566,0.21696 0.46566,0.55827 0,0.34132 -0.21696,0.52652 -0.46566,0.52652 -0.27782,0 -0.55827,-0.12435 -2.66436,-0.1561 -2.13783,0.0317 -2.41829,0.1561 -2.6961,0.1561 -0.21696,0 -0.46567,-0.18785 -0.46567,-0.52652 0,-0.34131 0.24871,-0.55827 0.46567,-0.55827 0.30956,0 0.61912,0.0318 2.10873,0.0318 v -17.97579 c -1.48696,0 -1.79652,0.0317 -2.10873,0.0317 -0.21696,0 -0.46567,-0.21696 -0.46567,-0.55827 0,-0.30956 0.24871,-0.52652 0.46567,-0.52652 0.28046,0 0.55827,0.12435 2.6961,0.1561 h 1.3335 c 0.68263,0 0.55827,0.43392 0.71173,0.89959 l 5.60917,15.56014 5.91873,-15.56014 c 0.1561,-0.40217 0.12435,-0.86784 0.65087,-0.89959 0.27781,0 0.77523,0 0.77523,0 2.54265,0 2.85221,-0.1561 3.16177,-0.1561 0.21696,0 0.46567,0.21696 0.46567,0.52652 0,0.34131 -0.24871,0.55827 -0.46567,0.55827 -0.30956,0 -0.61912,-0.0317 -2.13783,-0.0317 v 17.97579 c 1.51871,0 1.82827,-0.0318 2.13783,-0.0318 0.21696,0 0.46567,0.21696 0.46567,0.55827 -0.003,0.34132 -0.24871,0.52652 -0.46567,0.52652 z"
         inkscape:connector-curvature="0"
         style="fill:#1c2b39;stroke-width:0.26458332" />
      <path
         id="path1217"
         d="m 354.65223,435.44034 c -2.29393,0 -3.50308,1.48696 -3.50308,5.57742 0,4.09046 1.4261,5.51656 3.53219,5.51656 1.64306,0 2.66435,-0.89958 3.25437,-2.5744 0.0609,-0.21695 0.18521,-0.49477 0.49477,-0.49477 0.30957,0 0.46567,0.24871 0.46567,0.46567 0,0.1561 -0.0608,0.43392 -0.12435,0.58737 -1.0213,2.38655 -2.66436,3.09828 -4.49263,3.09828 -3.34698,0 -5.60917,-2.66436 -5.60917,-6.60136 0,-3.937 2.26219,-6.5696 5.60917,-6.5696 2.38654,0 4.46352,1.48696 4.46352,3.43958 0,0.89958 -0.55827,1.61131 -1.4261,1.61131 -0.74348,0 -1.36261,-0.61912 -1.36261,-1.3626 0,-0.68263 0.46567,-1.27265 1.11654,-1.36261 -0.34131,-0.67997 -1.14564,-1.33085 -2.41829,-1.33085 z"
         inkscape:connector-curvature="0"
         style="fill:#1c2b39;stroke-width:0.26458332" />
      <path
         id="path1221"
         d="m 370.39759,445.94694 c 1.76741,0 2.54264,-1.48695 2.54264,-3.9661 0,-0.24606 0.18521,-0.46567 0.52652,-0.46567 0.34132,0 0.49477,0.21961 0.49477,0.46567 0,0.30956 -0.15345,2.47915 -0.15345,3.74915 v 0.96308 c 0,0.30956 -0.24871,0.52652 -0.46567,0.52652 -0.30956,0 -1.08479,-0.12435 -1.73567,-0.12435 -2.72785,0 -7.09612,-0.0609 -8.21266,-0.0609 -2.54265,0 -2.85221,0.15611 -3.16178,0.15611 -0.21695,0 -0.46566,-0.18786 -0.46566,-0.52652 0,-0.34132 0.24871,-0.55828 0.46566,-0.55828 0.30957,0 0.61913,0.0318 2.10873,0.0318 v -17.98108 c -1.48695,0 -1.79652,0.0317 -2.10873,0.0317 -0.21695,0 -0.46566,-0.21696 -0.46566,-0.55827 0,-0.30956 0.24871,-0.52652 0.46566,-0.52652 0.30957,0 0.61913,0.1561 3.16178,0.1561 h 0.37041 c 2.54265,0 2.85221,-0.1561 3.16177,-0.1561 0.21696,0 0.46567,0.21696 0.46567,0.52652 0,0.34131 -0.24871,0.55827 -0.46567,0.55827 -0.30956,0 -0.61912,-0.0317 -2.10608,-0.0317 v 17.79058 z"
         inkscape:connector-curvature="0"
         style="fill:#1c2b39;stroke-width:0.26458332" />
      <path
         id="path1223"
         d="m 385.79898,443.4678 c -0.28046,0 -0.40216,0.27781 -0.49477,0.49477 -0.58737,1.67217 -1.82827,2.6035 -3.72004,2.6035 -2.23044,0 -3.56394,-1.82827 -3.56394,-5.54831 0,-0.40217 0,-0.80698 0.0317,-1.14565 h 8.12006 c 0.30957,-2.97392 -1.64306,-5.42396 -4.92918,-5.42396 -2.94482,0 -5.70177,2.63261 -5.70177,6.56961 0,4.15131 2.97391,6.60135 5.67266,6.60135 1.79652,0 3.937,-0.71173 4.95829,-3.09827 0.0609,-0.1561 0.12436,-0.43392 0.12436,-0.58737 0,-0.21696 -0.15611,-0.46567 -0.49742,-0.46567 z m -4.27566,-8.02746 c 1.30175,0 2.35479,0.74348 2.35479,2.29394 0,0.34131 -0.0926,0.77523 -0.18786,1.05304 h -5.48481 c 0.46567,-2.72785 1.83092,-3.34698 3.31788,-3.34698 z"
         inkscape:connector-curvature="0"
         style="fill:#1c2b39;stroke-width:0.26458332" />
      <path
         id="path1225"
         d="m 398.9964,445.94694 c -0.24871,-0.21695 -0.49477,-0.24606 -0.71438,-0.0608 -0.34131,0.27781 -0.37041,0.65088 -0.77258,0.65088 -0.40217,0 -0.59002,-0.24871 -0.59002,-1.11655 v -6.7892 c 0,-2.94482 -1.57956,-4.18307 -4.21481,-4.18307 -1.86002,0 -3.96611,1.2409 -3.96611,2.72786 0,0.71437 0.52652,1.30175 1.27,1.30175 0.71173,0 1.27,-0.58738 1.27,-1.30175 0,-0.46567 -0.21696,-0.83609 -0.55827,-1.05304 0.24871,-0.34132 0.86784,-0.74348 1.98438,-0.74348 1.27,0 2.01348,0.58737 2.01348,2.07698 v 3.03741 c -3.56394,0 -7.00352,1.20915 -7.00352,4.15131 0,1.86003 1.3626,2.85221 3.00566,2.85221 1.20915,0 2.57175,-0.49741 4.05871,-1.86002 0.18785,1.05569 0.89958,1.79917 1.95263,1.79917 0.65087,0 1.27,-0.0609 2.10608,-0.71438 0.1905,-0.1561 0.3466,-0.55827 0.15875,-0.77523 z m -4.27567,-1.30175 c -1.4261,1.27265 -2.35479,1.48961 -3.00566,1.48961 -0.89959,0 -1.67482,-0.74348 -1.67482,-1.88913 0,-1.82827 1.30175,-2.8522 4.68048,-2.8522 z"
         inkscape:connector-curvature="0"
         style="fill:#1c2b39;stroke-width:0.26458332" />
      <path
         id="path1227"
         d="m 409.22254,434.44815 c 2.75961,0 3.8444,1.95263 3.8444,4.58788 v 7.09612 c 1.48696,0 1.67217,-0.0318 1.98438,-0.0318 0.21695,0 0.46566,0.21696 0.46566,0.55827 0,0.34132 -0.24871,0.52652 -0.46566,0.52652 -0.30957,0 -0.49742,-0.1561 -3.03742,-0.1561 h -0.12436 c -2.51089,0 -2.6961,0.1561 -3.00566,0.1561 -0.24871,0 -0.46567,-0.18785 -0.46567,-0.52652 0,-0.34131 0.21696,-0.55827 0.46567,-0.55827 0.30956,0 0.49477,0.0318 1.98437,0.0318 v -8.14916 c 0,-1.67217 -0.49741,-2.3548 -1.86002,-2.3548 -2.10608,0 -4.27566,2.72786 -4.27566,5.85788 v 4.64873 c 1.4896,0 1.67481,-0.0317 1.98437,-0.0317 0.21696,0 0.46567,0.21696 0.46567,0.55827 0,0.34131 -0.24871,0.52652 -0.46567,0.52652 -0.30956,0 -0.49477,-0.1561 -3.03742,-0.1561 h -0.12435 c -2.54265,0 -2.6961,0.1561 -3.00567,0.1561 -0.24871,0 -0.46566,-0.18785 -0.46566,-0.52652 0,-0.34131 0.21695,-0.55827 0.46566,-0.55827 0.30957,0 0.46567,0.0317 1.98438,0.0317 v -10.22879 c -1.51871,0 -1.67217,0.0926 -1.98438,0.0926 -0.24871,0 -0.46566,-0.21696 -0.46566,-0.55827 0,-0.34131 0.21695,-0.52652 0.46566,-0.52652 0.30957,0 0.46567,0.0291 1.98438,0.0291 0.49741,0 1.4261,-0.12435 1.73566,-0.12435 0.21696,0 0.46567,0.21696 0.46567,0.55827 0,0.12435 0,2.57175 0,2.57175 0.61383,-1.64042 2.413,-3.50044 4.48733,-3.50044 z"
         inkscape:connector-curvature="0"
         style="fill:#1c2b39;stroke-width:0.26458332" />
    </g>
  </g>
</svg>
