<?xml version="1.0" encoding="UTF-8" standalone="no"?>
<!-- Created with Inkscape (http://www.inkscape.org/) -->

<svg
   width="65.034637mm"
   height="67.298462mm"
   viewBox="0 0 65.034637 67.298462"
   version="1.1"
   id="svg1"
   inkscape:version="1.3 (0e150ed, 2023-07-21)"
   sodipodi:docname="midnight-sketch.svg"
   xmlns:inkscape="http://www.inkscape.org/namespaces/inkscape"
   xmlns:sodipodi="http://sodipodi.sourceforge.net/DTD/sodipodi-0.dtd"
   xmlns="http://www.w3.org/2000/svg"
   xmlns:svg="http://www.w3.org/2000/svg">
  <sodipodi:namedview
     id="namedview1"
     pagecolor="#ffffff"
     bordercolor="#000000"
     borderopacity="0.25"
     inkscape:showpageshadow="2"
     inkscape:pageopacity="0.0"
     inkscape:pagecheckerboard="0"
     inkscape:deskcolor="#d1d1d1"
     inkscape:document-units="mm"
     inkscape:zoom="1.1893044"
     inkscape:cx="102.58097"
     inkscape:cy="171.10842"
     inkscape:current-layer="layer1" />
  <defs
     id="defs1" />
  <g
     inkscape:label="Layer 1"
     inkscape:groupmode="layer"
     id="layer1"
     transform="translate(-71.966659,-114.29999)">
    <path
       style="display:inline;fill:#000000;stroke-width:0.264583"
       id="path17"
       d="m 94.65831,130.05094 c 0.04807,0.98681 0.231405,1.96126 0.411771,2.93084 0.156766,0.81054 0.387668,1.60292 0.602218,2.39916 0.109617,0.5033 0.214763,1.00133 0.361845,1.49569 0.453787,1.40076 0.781843,2.83558 1.008168,4.28938 0.01852,0.13749 0.03675,0.27498 0.05511,0.41248 0,0 3.479038,1.69957 3.479038,1.69957 v 0 c -0.0295,-0.14465 -0.0591,-0.2893 -0.0886,-0.43395 -0.29943,-1.44306 -0.627411,-2.87913 -0.982455,-4.3096 -0.10885,-0.48937 -0.1601,-0.98783 -0.291995,-1.47102 -0.23868,-0.80179 -0.531865,-1.58742 -0.702521,-2.40887 -0.177562,-0.92179 -0.382244,-1.86354 -0.32557,-2.80658 z" />
    <path
       style="display:inline;fill:#000000;stroke-width:0.264583"
       id="path18"
       d="m 106.89248,128.74185 c 0.0615,1.01378 0.0534,2.03059 0.0479,3.04579 -0.0378,1.00573 0.0902,2.00458 0.20712,3.00079 0.0706,0.59428 0.10898,1.19215 0.11956,1.79043 -0.0292,0.26868 0.0718,0.48632 0.19193,0.72001 0.25151,0.57243 0.47734,1.15938 0.70093,1.74427 0.0796,0.21903 0.14783,0.44187 0.20963,0.66649 0,0 3.58786,1.69423 3.58786,1.69423 v 0 c -0.0817,-0.239 -0.16719,-0.47668 -0.25482,-0.71357 -0.21852,-0.58837 -0.50543,-1.15301 -0.64318,-1.76906 -0.0602,-0.11467 -0.10988,-0.21547 -0.15975,-0.33142 -0.0188,-0.0437 -0.078,-0.0625 -0.0942,-0.1073 -0.0146,-0.0402 -0.007,-0.0853 -0.0101,-0.12799 -0.0498,-0.61949 -0.12086,-1.23698 -0.18618,-1.855 -0.12542,-0.98612 -0.27575,-1.9722 -0.25001,-2.96989 -0.005,-0.9989 -0.0148,-1.9996 0.0479,-2.99697 z" />
    <path
       style="display:inline;fill:#000000;stroke-width:0.264583"
       id="path19"
       d="m 120.12125,142.49347 c 1.53755,0.28602 2.93222,1.04723 4.26646,1.82957 -4.52898,-2.69628 -1.90307,-1.06486 -0.96123,-0.32238 0.35171,0.27725 0.67435,0.57039 0.98211,0.89428 0.11861,0.0516 0.13266,0.20794 0.22958,0.27977 0.0193,0.0143 0.15227,-0.0871 0.0412,-0.11069 -0.0718,-0.0153 -0.1433,0.0315 -0.21469,0.0483 -0.14721,0.0348 -0.29408,0.0712 -0.44111,0.10678 -1.0519,0.22853 -2.1476,0.23892 -3.19053,0.50695 -0.0618,0.0687 -0.15835,0.11777 -0.18537,0.20614 -0.17039,0.55727 0.50713,0.96407 0.8472,1.25996 0.51636,0.44928 1.03994,0.89019 1.55855,1.33685 1.51432,1.30132 2.89081,2.7519 4.0994,4.34003 0.0848,0.1227 0.341,0.44722 0.38521,0.63972 0.0209,0.0915 -0.16311,0.0771 -0.36539,0.10248 -1.09865,0.13803 -0.44468,0.0786 -1.79618,0.14255 -1.22832,0.004 -2.45562,-0.0449 -3.67821,-0.16412 -0.5398,-0.0526 -1.07444,-0.16703 -1.61647,-0.18566 -0.13367,-0.005 -0.26614,0.0268 -0.39923,0.0402 -0.053,0.14709 -0.19164,0.2883 -0.15917,0.44126 0.0853,0.40149 0.87926,0.89407 1.09847,1.04921 1.094,0.77434 2.23192,1.49083 3.35349,2.22404 0.94125,0.64068 1.88851,1.27265 2.80971,1.94217 0.25541,0.18563 0.74414,0.4764 0.91594,0.78795 -0.0382,-0.01 -0.0751,-0.0315 -0.11454,-0.0297 -0.2889,0.0128 -0.57346,0.0785 -0.86196,0.0984 -0.48519,0.0336 -0.97044,0.0253 -1.45579,0.0551 -0.83794,0.0978 -0.86474,0.54363 -0.74861,1.26162 0.0284,0.16451 0.0977,0.45552 0.055,0.62859 -0.20079,0.81515 -1.88764,0.99637 -2.47068,1.12127 -2.47409,0.30943 -4.97414,2.7e-4 -7.2984,-0.90414 -0.34946,-0.136 -0.68413,-0.30738 -1.02621,-0.46107 -2.99103,-1.67701 3.48819,2.16637 1.48198,0.82144 0,0 -3.59074,-1.40665 -3.59074,-1.40665 v 0 c 1.59018,1.07261 3.24681,2.05937 4.99026,2.86081 0.33366,0.13301 0.66138,0.28202 1.001,0.39902 2.38326,0.82111 4.91265,1.03459 7.41222,0.7622 0.96398,-0.17183 2.55407,-0.26209 2.9609,-1.4006 0.0916,-0.25635 0.0359,-0.44927 -1.3e-4,-0.70049 -0.013,-0.0794 -0.0594,-0.3785 -0.0832,-0.47703 -0.008,-0.0319 -0.0353,-0.0599 -0.033,-0.0926 0.0101,-0.14658 0.46845,-0.11497 0.50313,-0.15344 0.61116,-0.0451 1.9807,-0.0152 2.46616,-0.30172 0.13599,-0.0803 0.22362,-0.22301 0.33544,-0.33452 0,-0.12142 0.0533,-0.25565 0,-0.36426 -0.11639,-0.2329 -0.86173,-0.72167 -0.98203,-0.80699 -0.96764,-0.68627 -1.96104,-1.33383 -2.93815,-2.00639 -0.73316,-0.48229 -1.55151,-1.01716 -2.28081,-1.50994 -0.30906,-0.20881 -0.61743,-0.41864 -0.9225,-0.63325 -0.1955,-0.13755 -0.72392,-0.58982 -1.05037,-0.66611 -0.0635,-0.0149 -0.12573,0.0352 -0.18859,0.0527 0.58954,-0.0701 1.1939,0.0235 1.78332,0.06 1.23325,0.0764 2.46798,0.12081 3.70353,0.13685 0.51355,-0.009 2.66964,0.17746 2.73299,-0.75246 0.0159,-0.23322 -0.33163,-0.64222 -0.42715,-0.77674 -1.27987,-1.59178 -2.67065,-3.0911 -4.19317,-4.4551 -0.48278,-0.43005 -0.9694,-0.85581 -1.45105,-1.28712 -0.0249,-0.0223 -0.64352,-0.61053 -0.77708,-0.66879 -0.15706,-0.0685 -0.24503,0.0875 -0.17823,-0.0167 1.02447,-0.28007 2.09302,-0.34408 3.1364,-0.52474 0.2772,-0.056 1.18295,-0.15616 1.07521,-0.67113 -0.0295,-0.141 -0.2345,-0.2088 -0.25984,-0.34533 -1.768,-1.93414 -4.32949,-3.03513 -6.48108,-4.3941 -1.43626,-0.80474 -2.92917,-1.57222 -4.56485,-1.87013 z" />
    <path
       style="display:inline;fill:#000000;stroke-width:0.264583"
       id="path20"
       d="m 84.735456,142.3935 c -0.370707,1.17891 -0.573193,2.4031 -0.795998,3.61625 -0.394124,2.50408 -1.138555,4.92785 -1.966516,7.31711 -0.486119,1.29163 -0.934217,2.60036 -1.492382,3.8634 -0.434446,0.9072 -1.038411,1.71598 -1.535854,2.58646 -0.44532,1.52019 -0.231325,0.50954 3.387831,2.39474 0.113665,0.0592 0.225372,-0.12207 0.338508,-0.18229 0.415184,-0.22103 0.834708,-0.42461 1.263094,-0.61866 1.558343,-0.69558 2.098384,0.39805 -2.685547,-1.95694 -0.03977,-0.0196 0.05514,0.0813 0.04622,0.12466 -0.04286,0.20864 -0.404707,1.01567 -0.451273,1.12413 -0.317791,0.75419 -0.677466,1.48958 -0.994358,2.24416 -0.136948,0.32612 -0.347477,0.75257 -0.331205,1.13024 0.0063,0.14645 0.08448,0.28073 0.126735,0.42109 1.319927,0.62983 2.559024,1.46904 3.959755,1.88951 0.347477,0.1043 0.678815,-0.25666 1.013486,-0.39667 1.593718,-0.66674 3.143964,-1.43977 4.705773,-2.17675 0.01191,-0.005 1.046586,-0.48994 1.276456,-0.43347 0.08435,0.0207 0.171662,0.28229 0.09422,0.24294 -1.142471,-0.58061 -2.16707,-1.39063 -3.34518,-1.89508 -0.131233,-0.0562 -0.138377,0.24985 -0.213333,0.37134 -0.09552,0.1548 -0.198596,0.3048 -0.297895,0.45719 -1.149429,1.73218 -0.198464,1.49948 3.071786,3.01003 0.215927,0.0998 0.427541,-0.20865 0.639736,-0.31613 2.077932,-1.05253 -0.280961,0.11603 2.116905,-1.0627 1.134534,-0.56863 2.292641,-1.08863 3.468026,-1.56677 0.207804,-0.0845 1.192742,-0.48503 1.491351,-0.54485 0.140361,-0.0281 0.286279,-0.002 0.429392,-0.003 0.08096,0.0547 0.328586,0.21115 0.242861,0.16424 -1.069419,-0.58523 -2.114841,-1.21459 -3.194976,-1.77977 -0.07541,-0.0395 0.111072,0.12897 0.165338,0.19453 0.08067,0.0975 0.12999,0.23103 0.239448,0.29446 1.25439,0.72696 2.490708,1.5054 3.828891,2.06329 0.263922,0.11002 0.566923,-0.075 0.850369,-0.1125 2.03129,-0.36444 3.98926,-1.06811 6.02107,-1.42074 0.12393,0.0171 0.25728,0.001 0.37177,0.0514 0.0686,0.0302 0.20693,0.2111 0.14158,0.1745 -1.10911,-0.62125 -2.18086,-1.30739 -3.28592,-1.93577 -0.0212,-0.0121 0.0114,0.0484 0.01,0.0728 -0.003,0.0537 -0.0689,0.12899 -0.0246,0.1595 1.11045,0.76497 2.27446,1.44917 3.41169,2.17375 0.41408,-0.25448 0.86974,-0.44263 1.31369,-0.64378 0,0 -3.27295,-2.1643 -3.27295,-2.1643 v 0 c -0.26694,0.13101 -0.72687,0.40408 -1.02397,0.40545 -0.0473,2.1e-4 -0.083,-0.0456 -0.12446,-0.0684 1.07712,0.69669 2.14458,1.40854 3.23136,2.09007 0.0246,0.0154 -0.0337,-0.0533 -0.0292,-0.082 0.013,-0.0835 0.14648,-0.19011 0.0789,-0.24084 -2.23324,-1.67682 -2.24168,-2.46438 -3.93356,-2.16459 -1.94905,0.5655 -3.892897,1.20614 -5.924103,1.40354 -0.285009,-0.0147 -1.069313,-0.23238 -0.855001,-0.0439 0.832432,0.73205 1.8728,1.18667 2.816278,1.76868 0.0916,0.0565 -0.192749,-0.10757 -0.2599,-0.19169 -0.06305,-0.0789 -0.03217,-0.22432 -0.116602,-0.2798 -3.29729,-2.16602 -2.183712,-2.10053 -3.841194,-2.12073 -0.640239,0.17458 -1.211051,0.46811 -1.811735,0.75021 -1.139983,0.53535 -2.276924,1.0772 -3.420507,1.60484 -0.48887,0.21128 -1.687274,0.75715 -2.254488,0.90538 -1.356571,0.35451 -3.540442,-1.36911 2.443163,2.10268 0.220609,0.12801 -0.32348,-1.22821 0.297683,-0.70492 0.106997,-0.15114 0.213809,-0.30241 0.320992,-0.45341 0.101732,-0.14332 0.428837,-0.30407 0.305779,-0.42957 -2.797148,-2.85247 -2.368285,-2.95092 -4.511013,-1.81765 -1.123845,0.59088 -2.252028,1.17392 -3.429053,1.65437 -0.412062,0.1682 -0.825368,0.3367 -1.251321,0.46578 -0.347451,0.10531 -1.281827,-0.0543 -1.063387,0.23572 0.661274,0.87791 1.789192,1.27702 2.683775,1.91553 -0.0879,-0.0715 -0.221298,-0.10952 -0.26371,-0.21463 -0.121523,-0.30119 0.109775,-0.83197 0.196876,-1.06545 0.284004,-0.76133 0.648071,-1.48986 1.00039,-2.22076 0.04932,-0.0931 0.86188,-1.56618 0.775441,-1.62801 -2.920418,-2.08904 -2.519707,-2.48144 -4.19526,-1.66309 -0.149966,0.0703 -0.711015,0.33571 -0.860055,0.39594 -0.133429,0.0539 -0.265774,0.11695 -0.40722,0.1435 -0.08223,0.0154 -0.318558,-0.0683 -0.250137,-0.0201 3.269324,2.29963 3.521551,3.28941 3.141504,1.95401 0.402061,-0.92221 1.015814,-1.7352 1.487884,-2.62102 0.08186,-0.156 0.176477,-0.30596 0.245613,-0.46801 0.06601,-0.15476 0.226007,-0.78761 0.259239,-0.9068 0.24757,-0.88769 0.523769,-1.7671 0.80428,-2.64482 0.789834,-2.40634 1.581732,-4.81852 2.088541,-7.30417 0.250428,-1.15282 0.481648,-2.32681 0.94615,-3.41672 z" />
    <path
       style="display:inline;fill:#000000;stroke-width:0.264583"
       id="path21"
       d="m 105.44746,121.40581 c 2.24208,-0.57518 4.52253,-0.91998 6.82019,-1.17432 2.05037,-0.17216 4.10864,-0.006 6.03486,0.75572 0.38621,0.15275 1.47201,0.76353 1.12546,0.53462 -0.68848,-0.45478 -1.43754,-0.81037 -2.15633,-1.21555 0.96102,0.59978 1.79303,1.36261 2.53426,2.21294 0,0 3.56716,1.50912 3.56716,1.50912 v 0 c -0.78081,-0.91965 -1.68344,-1.72927 -2.6824,-2.40762 -1.13612,-0.6515 -3.51311,-2.23242 -5.2339,-2.8327 -1.94268,-0.67768 -3.99609,-0.76234 -6.0293,-0.5744 -1.15851,0.11837 -2.22867,0.21756 -3.3813,0.37438 -1.27651,0.17367 -2.541,0.43306 -3.82259,0.57138 z" />
    <path
       style="display:inline;fill:#000000;stroke-width:0.264583"
       id="path22"
       d="m 97.753062,120.1964 c -0.770916,-0.63062 -1.571122,-1.22227 -2.395193,-1.78129 -1.561333,-0.98996 -3.181641,-1.89799 -4.79179,-2.79822 -0.452093,-0.25277 -0.985414,-0.41751 -1.469099,-0.59864 -0.845634,-0.30427 -1.713917,-0.50887 -2.602732,-0.63206 -0.407723,-0.003 -0.869527,-0.16783 -1.272646,-0.0337 -0.08562,0.0285 -0.161952,0.0796 -0.242914,0.11937 -0.376608,0.24228 -0.736626,0.51737 -1.005972,0.87742 -0.08263,0.12476 -0.04575,0.0655 -0.111893,0.17713 0,0 3.45231,1.97439 3.45231,1.97439 v 0 c 0.03762,-0.0866 0.01535,-0.0402 0.06885,-0.13822 0.208042,-0.30725 0.517472,-0.54245 0.855398,-0.6908 0.452966,-0.0854 0.919109,0.006 1.373108,0.0489 0.859763,0.13464 1.698016,0.3617 2.512113,0.67125 0.350281,0.13995 0.606769,0.23662 0.948504,0.39628 0.160841,0.0751 0.629285,0.32823 0.476859,0.23721 -5.257033,-3.13949 -2.905707,-1.67576 -1.740562,-0.99835 0.793698,0.51332 1.570647,1.06357 2.274597,1.6961 z" />
    <path
       style="display:inline;fill:#000000;stroke-width:0.264583"
       id="path23"
       d="m 104.22022,148.2502 c 0.65098,-0.83399 1.47778,-1.48025 2.36598,-2.04115 0.96266,-0.56034 2.02825,-0.90749 3.11248,-1.14102 0.54499,-0.11913 1.09757,-0.0247 1.60539,0.18972 0.41579,0.18285 0.86431,0.24976 1.30259,0.35612 0.29501,0.0448 0.57603,0.18071 0.81434,0.35962 -1.11345,-0.66154 -2.22957,-1.31865 -3.34037,-1.98464 -0.0238,-0.0142 0.0633,0.005 0.078,0.0286 0.057,0.0913 0.0372,0.27287 0.0406,0.37055 0.003,0.66318 -0.1728,1.30455 -0.38687,1.92634 -0.19413,0.63002 -0.4622,1.21239 -0.81301,1.76796 -0.42268,0.66012 -0.99531,1.19787 -1.57544,1.71684 -0.28461,0.22424 -0.54552,0.46859 -0.76351,0.75757 -0.32485,0.45655 -0.53287,0.97727 -0.74909,1.49068 -0.0988,0.2342 -0.21031,0.46275 -0.32874,0.68757 -0.013,0.0247 -0.1029,0.28153 -0.14602,0.20042 1.1617,0.58115 2.32685,1.15542 3.48509,1.74344 0.0323,0.0164 -0.0773,-0.004 -0.10517,-0.0275 -0.0562,-0.0468 -0.0932,-0.11294 -0.13531,-0.17275 -0.20452,-0.29054 -0.375,-0.60819 -0.55515,-0.91378 -0.38013,-0.67136 -0.7248,-1.36172 -1.07453,-2.04914 -0.22209,-0.40636 -0.44077,-0.81316 -0.68969,-1.20344 -0.0776,-0.11946 -0.16459,-0.25143 -0.19902,-0.3916 -0.0319,-0.24418 -0.0251,-0.49287 -0.0301,-0.73887 -0.003,-0.32684 0.0119,-0.65355 0.0101,-0.98033 -0.19513,-1.48343 -1.69484,-1.0528 -3.63281,-1.99869 0,0 3.42178,2.03072 3.42178,2.03072 v 0 c -1.1661,-0.62039 -2.33222,-1.24078 -3.49832,-1.86117 0.0552,0.024 0.1,0.054 0.13695,0.10348 0.13941,0.21726 0.007,0.66001 0.0514,0.91518 -0.008,0.25352 -0.014,0.50704 -0.0257,0.76035 0.003,0.20395 0.0514,0.38578 0.14226,0.57208 0.26377,0.39248 0.53467,0.77419 0.75859,1.19339 0.37412,0.68395 0.71435,1.38635 1.08852,2.07051 0.19021,0.34096 0.45117,0.7306 0.58918,1.0959 0.0191,0.0505 -0.0124,0.13249 0.035,0.15825 1.17938,0.63987 2.39657,1.20743 3.59487,1.81115 0.24995,-0.31758 0.32102,-0.7457 0.51501,-1.09727 0.19566,-0.48486 0.40185,-0.96731 0.74136,-1.37171 0.21106,-0.26049 0.43842,-0.50639 0.68096,-0.73812 0.5725,-0.56986 1.16697,-1.12613 1.62507,-1.79681 0.0973,-0.1477 0.27874,-0.41531 0.36229,-0.57338 0.21461,-0.40598 0.30936,-0.86035 0.47684,-1.28497 0.23391,-0.65416 0.43494,-1.31659 0.51265,-2.00972 0.0587,-1.84909 0.32314,-0.69343 -3.3923,-2.70927 -0.27366,-0.10824 -0.55383,-0.18833 -0.84317,-0.24423 -0.43265,-0.10801 -0.86432,-0.21139 -1.28109,-0.37408 -0.57116,-0.13105 -1.12998,-0.17868 -1.69791,0.0124 -1.08209,0.31378 -2.1517,0.70053 -3.1201,1.28492 -0.91443,0.59346 -1.74056,1.2914 -2.54079,2.03037 z" />
    <path
       style="display:inline;fill:#000000;stroke-width:0.264583"
       id="path24"
       d="m 123.8051,128.80856 c 0.61436,0.35703 1.22791,0.7156 1.81801,1.11168 0.88362,0.6624 1.65422,1.46051 2.34854,2.31551 0.84974,1.05706 1.36509,2.31653 1.78917,3.59152 0.43177,1.44083 0.74806,2.91253 1.10119,4.37371 0.50623,2.06964 0.91999,4.15947 1.31229,6.25311 0.40433,2.20021 0.56213,4.43586 0.70948,6.66511 0.13152,2.18487 0.29286,4.36799 0.39642,6.55446 0.0542,1.61786 0.15748,3.23339 0.22423,4.85073 0.0478,1.40694 0.048,2.81508 0.0377,4.22264 -0.007,1.14384 -0.007,2.2877 -0.007,3.43156 -0.0116,0.63899 -0.0233,1.27825 -0.0552,1.91662 0.003,0.2903 -0.12499,0.5633 -0.21019,0.8369 -0.21796,0.76712 -0.55901,1.48954 -0.84904,2.23006 -0.30594,0.66233 -0.56058,1.35739 -0.91856,1.99447 -0.0289,0.0423 -0.0438,0.0987 -0.0866,0.12688 -0.0169,0.0112 -0.0647,-0.0485 -0.0465,-0.0393 1.13612,0.57328 2.26068,1.16956 3.40199,1.73243 0.0739,0.0365 -0.14542,-0.0858 -0.19572,-0.15116 -0.22899,-0.29753 -0.48376,-0.87377 -0.63428,-1.18243 -0.6504,-1.43577 -1.2083,-2.91214 -1.69574,-4.41062 -0.62418,-1.79772 -0.67988,-1.21272 -3.90441,-2.47743 -0.0405,-0.0159 -0.35004,0.50927 -0.35591,0.51885 -0.16899,0.17998 -0.21305,0.55897 -0.44165,0.69003 -0.19801,0.11353 -0.72448,-0.32056 -0.81777,-0.37895 0.8782,0.48707 1.72723,1.031 2.63464,1.4612 0.28318,0.13425 -0.50464,-0.37198 -0.74956,-0.5675 -0.99664,-0.7956 -1.90947,-1.68905 -2.82636,-2.57333 -1.32321,-1.29284 -2.59877,-1.84244 -4.50572,-2.73969 -0.10954,-0.0516 -0.24178,0.0507 -0.3447,0.11439 -0.23284,0.14416 -0.35237,0.38398 -0.49366,0.6031 -0.17957,0.31417 -0.25265,0.67117 -0.38203,1.00449 -0.0206,0.0532 -0.0465,0.19935 -0.0787,0.15218 -0.0424,-0.0621 -0.0381,-0.25516 0.03,-0.22352 1.12244,0.52083 2.18067,1.17016 3.27102,1.75524 -0.0626,-0.14673 -0.1297,-0.29161 -0.18772,-0.4402 -0.27482,-0.70379 -0.5175,-1.41575 -0.83492,-2.10305 -0.30795,-0.66684 -0.41749,-0.83342 -0.77327,-1.46752 -0.5097,-0.90483 -1.1742,-1.70068 -1.81055,-2.51535 -0.0863,-0.1133 -0.16454,-0.23217 -0.2409,-0.35223 0,0 -3.63,-1.60726 -3.63,-1.60726 v 0 c 0.0833,0.14347 0.17317,0.28271 0.2736,0.415 0.64858,0.85083 1.44653,1.58793 1.97438,2.53154 0.72993,1.22378 1.35765,2.50744 1.66288,3.90949 1.16324,0.74553 2.27811,1.57256 3.48972,2.23658 0.0867,0.0475 0.15533,-0.12674 0.21153,-0.20814 0.20278,-0.29369 0.13473,-0.82803 0.38698,-1.11269 0.0838,-0.1143 0.171,-0.29573 0.33578,-0.32927 0.0729,-0.0148 0.28485,0.0604 0.2222,0.0203 -0.98136,-0.62757 -1.99631,-1.20105 -2.99807,-1.79548 -0.1474,-0.0874 0.29853,0.17043 0.43471,0.27446 0.18071,0.13806 0.3421,0.29976 0.51316,0.44964 0.69561,0.64706 1.37914,1.30925 2.08182,1.94849 0.12695,0.11548 1.26521,1.12073 1.45534,1.24073 1.27489,0.80465 2.5895,1.54458 3.88427,2.31687 0.36372,0.13682 0.53464,0.2866 0.91247,0.16587 0.39547,-0.12637 0.51064,-0.60008 0.72242,-0.90082 0.0475,-0.0692 0.0875,-0.14416 0.14253,-0.2075 0.0373,-0.0429 0.1801,-0.0783 0.13179,-0.10823 -1.08943,-0.67489 -2.24645,-1.23483 -3.3504,-1.88568 -0.0457,-0.027 0.11602,-0.0265 0.15931,0.004 0.0895,0.0637 0.2889,0.51542 0.30715,0.55302 0.58677,1.48828 1.17404,2.97634 1.75218,4.468 0.2313,0.56943 0.27279,0.65902 0.47075,1.18633 0.0347,0.0923 0.0148,0.22901 0.10017,0.2784 1.40914,0.81528 3.05443,3.04401 3.83905,1.56875 0.31554,-0.67376 0.53938,-1.39159 0.86849,-2.06075 0.31232,-0.73569 0.64612,-1.46262 0.92052,-2.21392 0.11625,-0.30279 0.29337,-0.61329 0.29345,-0.94166 -0.0309,-0.65685 -0.0425,-1.3145 -0.0535,-1.97192 0,-1.14639 0.004,-2.2928 -0.006,-3.43916 -0.018,-1.41806 -0.0315,-2.83623 -0.071,-4.25393 -0.0523,-1.63146 -0.19741,-3.25604 -0.28009,-4.88585 -0.13002,-2.19419 -0.32599,-4.3836 -0.4399,-6.57885 -0.11874,-2.24133 -0.29704,-4.48728 -0.67601,-6.70105 -0.40179,-2.08299 -0.77747,-4.17108 -1.25187,-6.23934 -0.31708,-1.46199 -0.61151,-2.93052 -1.01883,-4.371 -0.41111,-1.30568 -0.91956,-2.60697 -1.73972,-3.71459 -0.65712,-0.8812 -1.40062,-1.6858 -2.24324,-2.39479 -0.55007,-0.40674 -1.13424,-0.75729 -1.7226,-1.10528 z" />
    <path
       style="display:inline;fill:#000000;stroke-width:0.264583"
       id="path25"
       d="m 86.900648,164.84362 c 0.08382,1.34713 0.08091,2.69793 0.09144,4.04711 -0.0026,1.1489 0.03151,2.3005 -0.07911,3.44606 -0.0458,0.47406 -0.122475,0.93026 -0.194945,1.40013 -0.141261,0.98063 -0.449156,1.89804 -0.969089,2.73882 -0.247994,0.44087 -0.629179,0.73971 -1.01174,1.05078 -0.408596,0.35012 -0.810101,0.70938 -1.245473,1.02611 -0.404495,0.23222 -0.898181,0.58359 -1.396603,0.43994 -0.08263,-0.0238 -0.154067,-0.0764 -0.231088,-0.11461 -1.361731,-0.8026 0.923555,0.5461 2.811622,1.59325 0.114141,0.0633 -0.217514,-0.14454 -0.322871,-0.22158 -0.409972,-0.29968 -0.781712,-0.63756 -1.153346,-0.98245 -0.565917,-0.55716 -1.143026,-1.1076 -1.65309,-1.71757 -0.114697,-0.15361 -0.242755,-0.2985 -0.343217,-0.46203 0,0 -3.611404,-1.64238 -3.611404,-1.64238 v 0 c 0.08117,0.21452 0.18759,0.39762 0.346445,0.56718 0.51734,0.64767 1.131121,1.20421 1.711749,1.79436 1.516168,1.48648 3.24477,2.80792 5.323972,3.45551 0.728266,0.06 1.214596,-0.22393 1.803347,-0.62359 0.447252,-0.32175 0.877676,-0.66666 1.302306,-1.0177 0.412935,-0.3395 0.754671,-0.7366 1.02444,-1.20144 0.522658,-0.90339 0.858493,-1.86825 0.973772,-2.91161 0.204867,-1.63417 0.298159,-3.27146 0.246116,-4.91955 0.01032,-1.31809 0.0058,-2.63803 0.09144,-3.95393 z" />
    <path
       style="display:inline;fill:#000000;stroke-width:0.264583"
       id="path26"
       d="m 79.743139,176.5748 c -0.04194,-0.84106 -0.03111,-1.68339 -0.06802,-2.52463 -0.06591,-1.0541 -0.279426,-2.08788 -0.515223,-3.11463 -0.170048,-0.78919 -0.361685,-1.57511 -0.486595,-2.37311 -0.111998,-0.7869 -0.12446,-1.58313 -0.139224,-2.37643 -0.04347,-1.27508 -0.206296,-2.54111 -0.352928,-3.80718 -0.205872,-1.76415 -0.456935,-3.52208 -0.719269,-5.27858 -0.324882,-2.20074 -0.702575,-4.39295 -1.088893,-6.58357 -0.376026,-1.98223 -0.672624,-3.97802 -0.908288,-5.98146 -0.123667,-1.21288 -0.225399,-2.43205 -0.16047,-3.65205 0.03471,-0.65208 0.08501,-0.93822 0.169836,-1.58124 0.253577,-1.71872 0.816822,-3.36843 1.438222,-4.98372 0.558668,-1.31631 1.195626,-2.60676 2.044806,-3.76323 0.484611,-0.65999 0.699082,-0.85268 1.251849,-1.43911 0.836454,-0.75155 1.76964,-1.38471 2.820961,-1.79422 0.545386,-0.21244 0.80944,-0.26256 1.363504,-0.40325 0.614389,-0.12162 1.24378,-0.24839 1.873859,-0.21138 0,0 -3.217598,-2.31922 -3.217598,-2.31922 v 0 c -0.605235,0.0842 -1.20523,0.20715 -1.790912,0.38291 -0.530093,0.16622 -0.842221,0.2498 -1.362816,0.47654 -1.069419,0.46578 -2.026285,1.13239 -2.867527,1.93799 -0.554779,0.61871 -0.764011,0.818 -1.253305,1.50673 -0.844338,1.1885 -1.494896,2.4993 -2.079863,3.83019 -0.670984,1.62525 -1.314794,3.27292 -1.551755,5.02757 -0.232833,1.77937 -0.24048,3.56188 0.0053,5.34353 0.227621,2.01605 0.515091,4.02539 0.922575,6.0138 0.39333,2.18318 0.782797,4.36832 1.082702,6.56661 0.23876,1.73813 0.433017,3.48105 0.635476,5.22361 0.130096,1.24454 0.280829,2.48885 0.308769,3.74123 -0.0032,0.8032 -0.02487,1.61069 0.07668,2.40934 0.127979,0.8162 0.329512,1.61558 0.512313,2.42072 0.254635,1.00387 0.470297,2.01828 0.556762,3.05227 0.03609,0.81953 0.01561,1.64068 -0.02169,2.46002 z" />
  </g>
</svg>
