<?xml version="1.0" encoding="utf-8"?>
<!-- Generator: Adobe Illustrator 23.0.3, SVG Export Plug-In . SVG Version: 6.00 Build 0)  -->
<svg version="1.1" id="Layer_1" xmlns="http://www.w3.org/2000/svg" xmlns:xlink="http://www.w3.org/1999/xlink" x="0px" y="0px"
	 viewBox="0 0 1280 800" style="enable-background:new 0 0 1280 800;" xml:space="preserve">
<style type="text/css">
	.st0{fill:#FFFFFF;}
	.st1{fill:#4695EB;}
	.st2{fill:#FF004A;}
</style>
<rect x="0" width="1280" height="800"/>
<g>
	<path class="st0" d="M189.8,641.5c0,20.7-4.2,38-12.6,51.7c-8.4,13.7-20.2,23-35.5,27.9l38.8,40.1H153l-31.8-36.5l-6.1,0.2
		c-24,0-42.5-7.3-55.5-21.9c-13-14.6-19.6-35.1-19.6-61.7c0-26.3,6.5-46.8,19.6-61.3c13.1-14.5,31.6-21.8,55.7-21.8
		c23.4,0,41.7,7.4,54.8,22.1C183.3,595.1,189.8,615.5,189.8,641.5z M60.1,641.5c0,21.9,4.7,38.5,14.1,49.9c9.4,11.3,23,17,40.9,17
		c18,0,31.7-5.6,40.9-16.9c9.2-11.3,13.8-27.9,13.8-49.9c0-21.8-4.6-38.3-13.8-49.5s-22.7-16.9-40.7-16.9c-18,0-31.8,5.7-41.2,17
		C64.8,603.4,60.1,619.8,60.1,641.5z"/>
	<path class="st0" d="M376.5,560.8v104.7c0,18.5-5.6,33-16.8,43.5c-11.2,10.6-26.6,15.8-46.2,15.8c-19.6,0-34.8-5.3-45.5-15.9
		c-10.7-10.6-16.1-25.2-16.1-43.8V560.8h18.9v105.6c0,13.5,3.7,23.9,11.1,31.1c7.4,7.2,18.3,10.8,32.8,10.8
		c13.7,0,24.3-3.6,31.8-10.9c7.4-7.3,11.1-17.7,11.1-31.3V560.8H376.5z"/>
	<path class="st0" d="M549.4,722.6l-20.3-51.5h-65.3l-20.1,51.5h-19.2L489,560.1h15.9L569,722.6H549.4z M523.2,654.2l-18.9-50.1
		c-2.5-6.3-5-14.1-7.6-23.4c-1.6,7.1-4,14.9-7,23.4l-19.2,50.1H523.2z"/>
	<path class="st0" d="M637.7,655.3v67.3h-18.9V560.8h44.7c20,0,34.7,3.8,44.3,11.4c9.5,7.6,14.3,19,14.3,34.3
		c0,21.4-10.9,35.9-32.8,43.4l44.2,72.7h-22.4l-39.4-67.3H637.7z M637.7,639.1h26c13.4,0,23.2-2.6,29.4-7.9
		c6.2-5.3,9.4-13.2,9.4-23.7c0-10.7-3.2-18.4-9.5-23.1c-6.3-4.7-16.5-7.1-30.6-7.1h-24.6V639.1z"/>
	<path class="st0" d="M904.8,722.6h-22.3l-59.4-78.5l-17,15.1v63.4h-18.9V560.8h18.9V641l73.9-80.3h22.4l-65.5,70.3L904.8,722.6z"/>
	<path class="st0" d="M1077.6,560.8v104.7c0,18.5-5.6,33-16.8,43.5c-11.2,10.6-26.6,15.8-46.2,15.8c-19.6,0-34.8-5.3-45.5-15.9
		s-16.1-25.2-16.1-43.8V560.8h18.9v105.6c0,13.5,3.7,23.9,11.1,31.1c7.4,7.2,18.3,10.8,32.8,10.8c13.7,0,24.3-3.6,31.8-10.9
		c7.4-7.3,11.1-17.7,11.1-31.3V560.8H1077.6z"/>
	<path class="st0" d="M1240,679.5c0,14.2-5.2,25.3-15.6,33.3c-10.4,8-24.5,12-42.3,12c-19.3,0-34.2-2.5-44.6-7.4v-18.2
		c6.7,2.8,14,5,21.8,6.6c7.9,1.6,15.7,2.4,23.4,2.4c12.6,0,22.1-2.4,28.5-7.1c6.4-4.8,9.6-11.4,9.6-19.9c0-5.6-1.1-10.2-3.4-13.8
		c-2.3-3.6-6.1-6.9-11.4-9.9c-5.3-3-13.4-6.5-24.2-10.3c-15.2-5.4-26-11.8-32.5-19.1c-6.5-7.4-9.7-17-9.7-28.9
		c0-12.5,4.7-22.4,14.2-29.8c9.4-7.4,21.9-11.1,37.4-11.1c16.2,0,31.1,3,44.7,8.9l-5.9,16.4c-13.4-5.6-26.5-8.4-39.2-8.4
		c-10,0-17.9,2.1-23.5,6.4c-5.6,4.3-8.5,10.2-8.5,17.8c0,5.6,1,10.2,3.1,13.8c2.1,3.6,5.6,6.9,10.5,9.9c4.9,3,12.5,6.3,22.7,9.9
		c17.1,6.1,28.8,12.5,35.3,19.5C1236.8,659.5,1240,668.5,1240,679.5z"/>
</g>
<polygon class="st1" points="699.9,108.3 640,142.9 699.9,177.5 "/>
<polygon class="st2" points="580.1,108.3 580.1,177.5 640,142.9 "/>
<polygon class="st0" points="699.9,177.5 640,142.9 580.1,177.5 640,212 "/>
<polygon class="st1" points="517,217.7 576.9,252.2 576.9,183.1 "/>
<polygon class="st2" points="576.9,321.4 636.7,286.8 576.9,252.2 "/>
<polygon class="st0" points="576.9,183.1 576.9,252.2 636.7,286.8 636.7,217.7 "/>
<polygon class="st1" points="703.1,321.4 703.1,252.2 643.2,286.8 "/>
<polygon class="st2" points="763,217.7 703.1,183.1 703.1,252.2 "/>
<polygon class="st0" points="643.2,286.8 703.1,252.2 703.1,183.1 643.2,217.7 "/>
<path class="st1" d="M769.9,40H510c-35.5,0-64.5,29-64.5,64.5v259.9c0,35.5,29,64.5,64.5,64.5h178l-48-116.7l-34.9,73.7H510
	c-11.7,0-21.5-9.8-21.5-21.5V104.5c0-11.7,9.8-21.5,21.5-21.5h259.9c11.7,0,21.5,9.8,21.5,21.5v259.9c0,11.7-9.8,21.5-21.5,21.5
	h-56.4l17.7,43h38.7c35.5,0,64.5-29,64.5-64.5V104.5C834.4,69,805.4,40,769.9,40z"/>
</svg>
