<?xml version="1.0" encoding="UTF-8" standalone="no"?>
<svg
   xmlns:osb="http://www.openswatchbook.org/uri/2009/osb"
   xmlns:dc="http://purl.org/dc/elements/1.1/"
   xmlns:cc="http://creativecommons.org/ns#"
   xmlns:rdf="http://www.w3.org/1999/02/22-rdf-syntax-ns#"
   xmlns:svg="http://www.w3.org/2000/svg"
   xmlns="http://www.w3.org/2000/svg"
   xmlns:xlink="http://www.w3.org/1999/xlink"
   xmlns:sodipodi="http://sodipodi.sourceforge.net/DTD/sodipodi-0.dtd"
   xmlns:inkscape="http://www.inkscape.org/namespaces/inkscape"
   width="297mm"
   height="210mm"
   viewBox="0 0 297 210"
   version="1.1"
   id="svg8"
   inkscape:version="1.0alpha2 (863a58d, 2019-08-17)"
   sodipodi:docname="tbio.svg">
  <defs
     id="defs2">
    <linearGradient
       osb:paint="solid"
       id="linearGradient1888">
      <stop
         id="stop1886"
         offset="0"
         style="stop-color:#000000;stop-opacity:0.81568629;" />
    </linearGradient>
    <linearGradient
       y2="540.68918"
       x2="623.25586"
       y1="540.68918"
       x1="145.59961"
       gradientUnits="userSpaceOnUse"
       id="linearGradient1942"
       xlink:href="#linearGradient1888"
       inkscape:collect="always" />
    <linearGradient
       y2="540.68918"
       x2="623.25586"
       y1="540.68918"
       x1="145.59961"
       gradientUnits="userSpaceOnUse"
       id="linearGradient1944"
       xlink:href="#linearGradient1888"
       inkscape:collect="always" />
    <linearGradient
       y2="540.68918"
       x2="623.25586"
       y1="540.68918"
       x1="145.59961"
       gradientUnits="userSpaceOnUse"
       id="linearGradient1948"
       xlink:href="#linearGradient1888"
       inkscape:collect="always" />
    <linearGradient
       y2="540.68918"
       x2="623.25586"
       y1="540.68918"
       x1="145.59961"
       gradientUnits="userSpaceOnUse"
       id="linearGradient1990"
       xlink:href="#linearGradient1888"
       inkscape:collect="always" />
    <linearGradient
       y2="540.68918"
       x2="623.25586"
       y1="540.68918"
       x1="145.59961"
       gradientUnits="userSpaceOnUse"
       id="linearGradient1992"
       xlink:href="#linearGradient1888"
       inkscape:collect="always" />
  </defs>
  <sodipodi:namedview
     id="base"
     pagecolor="#ffffff"
     bordercolor="#666666"
     borderopacity="1.0"
     inkscape:pageopacity="0.0"
     inkscape:pageshadow="2"
     inkscape:zoom="0.84"
     inkscape:cx="407.79666"
     inkscape:cy="555.34005"
     inkscape:document-units="mm"
     inkscape:current-layer="layer2"
     showgrid="false"
     inkscape:window-width="2560"
     inkscape:window-height="1395"
     inkscape:window-x="0"
     inkscape:window-y="23"
     inkscape:window-maximized="1"
     inkscape:document-rotation="0" />
  <metadata
     id="metadata5">
    <rdf:RDF>
      <cc:Work
         rdf:about="">
        <dc:format>image/svg+xml</dc:format>
        <dc:type
           rdf:resource="http://purl.org/dc/dcmitype/StillImage" />
        <dc:title />
      </cc:Work>
    </rdf:RDF>
  </metadata>
  <g
     inkscape:label="Layer 1"
     inkscape:groupmode="layer"
     id="layer1"
     transform="translate(0,-87)"
     style="display:none">
    <path
       style="fill:none;fill-rule:evenodd;stroke:#000000;stroke-width:0.26458332px;stroke-linecap:butt;stroke-linejoin:miter;stroke-opacity:1"
       d="m 17.489407,113.13701 c 0.149482,0.74741 0.298964,1.49482 0.448446,2.24223 0,0.44845 -0.07372,0.903 0,1.34534 0.20884,1.25304 1.136498,2.78297 1.345339,4.03602 0.03808,0.22847 -0.115854,2.45897 0,2.69067 0.09454,0.18909 0.353905,0.25937 0.448446,0.44845 0.06685,0.1337 -0.1057,0.34275 0,0.44845 0.1057,0.1057 0.342747,-0.1057 0.448446,0 0.05539,0.0554 0,1.51257 0,1.79378 0,3.73706 0,7.47411 0,11.21116 0,1.04638 0,2.09275 0,3.13913 0,0.14948 0,0.29896 0,0.44844 0,0.14948 -0.105699,0.34275 0,0.44845 0.1057,0.1057 0.298965,0 0.448447,0 0.149482,0 0.298964,0 0.448446,0 7.673415,0 -0.996547,0 2.690678,0 0.149482,0 0.381596,0.1337 0.448446,0 0.133701,-0.2674 -0.1337,-0.62949 0,-0.89689 0.133701,-0.26741 0.685494,0.21139 0.896893,0 0.1057,-0.1057 -0.1057,-0.34275 0,-0.44845 0.1057,-0.1057 0.342747,0.1057 0.448446,0 0.236352,-0.23635 0.170332,-0.71148 0.448447,-0.89689 0.248753,-0.16584 0.597928,0 0.896894,0 0.896892,0 1.793785,0 2.690677,0 0.149482,0 0.314746,0.0669 0.448445,0 0.189082,-0.0945 0.243358,-0.39718 0.448448,-0.44845 0.165142,-0.0413 3.412434,-0.035 3.58757,0 0.32776,0.0656 0.579792,0.34275 0.896892,0.44845 0.141812,0.0473 0.298963,0 0.448448,0 0.597926,0 1.195856,0 1.793785,0 0.298963,0 0.61327,-0.0945 0.896892,0 1.793785,0.59792 -1.494099,0.49126 1.345338,0.89689 0.739899,0.1057 1.509336,-0.14658 2.242232,0 0.146579,0.0293 0,0.29896 0,0.44845 0.448445,0 0.896893,0 1.345338,0 0.597929,0 1.195858,0 1.793787,0 0.149482,0 0.298964,0 0.448445,0 0.149482,0 0.342747,-0.1057 0.448448,0 0.105698,0.1057 -0.105701,0.34274 0,0.44844 0.105698,0.1057 0.381595,-0.1337 0.448445,0 0.133702,0.2674 -0.248753,0.73106 0,0.8969 0.373131,0.24875 0.896892,0 1.34534,0 1.046374,0 2.092748,0 3.139122,0 0.108763,0 1.330918,-0.0144 1.34534,0 0.105699,0.10569 -0.105701,0.34274 0,0.44844 0.105699,0.1057 0.342747,-0.1057 0.448445,0 0.105701,0.1057 -0.06685,0.31475 0,0.44845 0.09454,0.18908 0.353907,0.25936 0.448448,0.44844 0.06685,0.1337 -0.105701,0.34275 0,0.44845 0.105701,0.1057 0.381595,-0.1337 0.448448,0 0.200548,0.4011 0,0.89689 0,1.34534 0,1.34534 0,2.69068 0,4.03602 0,2.54119 0,5.08239 0,7.62358 0,0.80766 0.110638,3.03437 0,3.58757 -0.04146,0.2073 -0.353907,0.25937 -0.448448,0.44845 -0.06685,0.1337 0.04727,0.30663 0,0.44845 -0.105701,0.3171 -0.367379,0.57262 -0.448448,0.89689 -0.108762,0.43506 0,0.89689 0,1.34534 0,1.04637 0,2.09275 0,3.13912 0,1.04638 0,2.09275 0,3.13913 0,0.29896 -0.07251,0.60685 0,0.89689 0.08107,0.32427 0.382895,0.56913 0.448448,0.89689 0.08795,0.43974 -0.176652,0.93315 0,1.34534 0.29442,0.68698 0.9608,1.15289 1.34534,1.79379 0.07691,0.12818 0,0.29896 0,0.44844 0.149482,0.59793 0.07865,1.30072 0.448445,1.79379 0.17938,0.23917 0.78586,-0.27758 0.896893,0 0.277582,0.69395 -0.236353,1.53317 0,2.24223 0.676809,2.03043 2.127538,3.76496 2.690677,5.8298 0.353983,1.29794 -0.326292,2.73085 0,4.03602 0.184864,0.73945 0.263583,-1.50278 0.448448,-2.24223 0.03625,-0.14502 -0.03626,0.30343 0,0.44844 0.114646,0.45859 0.370734,0.87907 0.448445,1.34534 0.07373,0.44235 -0.317098,1.02824 0,1.34534 0.3171,0.3171 1.780397,-0.10876 1.34534,0 -1.621362,0.40534 -3.320537,0.45716 -4.93291,0.89689 -0.144214,0.0393 0.149481,0.44845 0,0.44845 -0.149482,0 -0.03625,-0.59346 0,-0.44845 1.162597,4.65039 -0.370822,3.68491 3.58757,5.38136 1.100444,0.47162 0.548573,-1.57755 2.242232,-0.44845 0.248753,0.16584 -0.133702,0.6295 0,0.8969 0.711534,1.42306 2.212639,1.12604 3.58757,0.89689 0.14745,-0.0246 0,-0.29896 0,-0.44845 0,-0.29896 -0.133699,-0.62949 0,-0.89689 0.06685,-0.1337 0.328861,0.0897 0.448448,0 0.983533,-0.73765 1.093351,-1.50657 2.24223,-1.79379 0.290039,-0.0725 0.613272,0.0945 0.896892,0 0.200552,-0.0668 0.259366,-0.3539 0.448448,-0.44844 1.1045,-0.55225 -0.404829,1.30172 1.345337,-0.44845 0.236353,-0.23635 0.114194,-0.89689 0.448448,-0.89689 0.422799,0 0.545102,0.66236 0.896892,0.89689 0.124378,0.0829 0.301869,-0.0293 0.448448,0 0.604361,0.12087 1.189421,0.56932 1.793785,0.44845 0.32776,-0.0656 0.263035,-0.61878 0.448445,-0.89689 0.117263,-0.1759 0.406987,-0.24116 0.448447,-0.44845 0.117264,-0.58632 -0.117263,-1.20747 0,-1.79379 0.04146,-0.20729 0.406988,-0.24115 0.448445,-0.44844 0.117264,-0.58632 0,-1.19586 0,-1.79379 0,-0.14948 0.149482,0.44845 0,0.44845 -0.149481,0 0,-0.29896 0,-0.44845 0,-0.59793 0,-1.19585 0,-1.79378 0,-1.19586 0,-2.39172 0,-3.58757 0,-0.14949 -0.149481,-0.44845 0,-0.44845 0.149482,0 0,0.59793 0,0.44845 0,-0.59793 0,-1.19586 0,-1.79379 0,-0.14948 0,-0.59793 0,-0.44845 0,0.59793 0,1.19586 0,1.79379 0,0.14948 0,-0.29896 0,-0.44845 0,-1.19585 0,-2.39171 0,-3.58757 0,-1.34534 0,-2.69067 0,-4.03601 0,-0.59793 0,1.19585 0,1.79378 0,0.14948 0,-0.29896 0,-0.44844 0,-2.5412 0,-5.0824 0,-7.62359 0,-2.69068 0.08964,-5.38285 0,-8.07204 -0.498102,-14.94304 -0.448445,-0.60306 -0.448445,-7.17514 0,-0.14948 0,0.29897 0,0.44845 -0.149481,0 -0.419131,0.14658 -0.448447,0 -0.146579,-0.7329 0,-1.49482 0,-2.24223 0,-1.34534 0,-2.69068 0,-4.03602 0,-0.44844 0,0.89689 0,1.34534 0,0.59793 0.145021,1.21371 0,1.79379 -0.03625,0.14501 -0.437796,0.1491 -0.448445,0 -0.149103,-2.08744 0,-4.1855 0,-6.27825 0,-0.14949 0,0.59792 0,0.44844 0,-0.44844 -0.08795,-0.9056 0,-1.34534 0.515297,-2.57648 0.448445,0.12871 0.448445,-1.34533 0,-1.34534 0,-2.69068 0,-4.03602 0,-0.44845 -0.141811,-0.91991 0,-1.34534 0.04727,-0.14181 0.401177,0.14181 0.448447,0 0.141812,-0.42543 0,-1.79379 0,-1.34534 0,2.23003 -0.597929,2.86151 3.139123,1.79379 0.287462,-0.0821 0,-0.59793 0,-0.8969 0,-0.59793 -0.189079,-1.22654 0,-1.79378 0.06685,-0.20055 0.298966,0.29896 0.448447,0.44844 2.0475,2.0475 0.01283,-0.40997 0.896893,2.24224 0.04727,0.14181 0.342747,-0.10571 0.448448,0 0.105698,0.1057 0,0.59792 0,0.44844 0,-0.44844 -0.317101,-1.02824 0,-1.34534 0.236349,-0.23635 0.342746,0.57979 0.448445,0.8969 0.04727,0.14181 0,0.59792 0,0.44844 0,-2.51213 -0.442344,-0.89689 2.690677,-0.89689 0.616331,0 1.221536,-0.21955 1.793785,-0.44845 0.328419,-0.13137 0.578546,-0.92596 0.896893,-0.44844 0.26221,0.39331 0.333801,0.88675 0.448447,1.34534 0.03625,0.14501 0,0.59792 0,0.44844 0,-2.98923 -0.230724,-0.22886 1.345338,0.8969 5.082391,0 0.298966,-0.59793 1.793787,0.89689 0.2114,0.2114 0.824381,0.29003 0.896893,0 0.290036,-1.16016 0,-2.39172 0,-3.58757 0,-0.14949 0,0.29896 0,0.44844 0,0.14948 -0.105701,0.34275 0,0.44845 0.105698,0.1057 0.342746,-0.1057 0.448445,0 0.105701,0.1057 -0.141812,0.40117 0,0.44845 0.425434,0.14181 0.896892,0 1.34534,0 0.149481,0 0.381595,-0.13371 0.448445,0 0.133702,0.2674 -0.1337,0.62949 0,0.89689 0.06685,0.1337 0.305268,0.043 0.448447,0 1.358305,-0.40749 2.856077,-0.55871 4.036015,-1.34534 0.373132,-0.24876 -0.141808,-0.91991 0,-1.34534 0.04727,-0.14181 0.342747,0.1057 0.448448,0 0.105701,-0.1057 -0.133702,-0.3816 0,-0.44845 0.267401,-0.1337 0.600236,0.0371 0.896892,0 0.902243,-0.11278 1.788435,-0.33566 2.690676,-0.44844 0.64026,-0.08 1.76821,0.26258 2.24223,-0.44845 0.16584,-0.24875 0,-0.59793 0,-0.89689 0.29897,-0.59793 0.49579,-1.25898 0.8969,-1.79379 0.0897,-0.11958 0.34274,-0.1057 0.44844,0 0.38111,0.38111 0.69673,0.84493 0.89689,1.34534 0.11104,0.27758 -0.13369,0.62949 0,0.8969 0.0669,0.13369 0.35876,0.11958 0.44845,0 0.40111,-0.53481 0.49579,-1.25899 0.89689,-1.79379 0.0897,-0.11959 0.42991,0.14833 0.44845,0 0.14833,-1.18662 0,-2.39171 0,-3.58757 0,-0.29897 -0.0586,-0.60373 0,-0.8969 0.12087,-0.60436 0.34712,-1.18583 0.44845,-1.79378 0.0491,-0.2949 0,-0.59793 0,-0.89689 0,-1.04638 0.0869,-2.09637 0,-3.13912 -0.0633,-0.75958 -0.35391,-1.48591 -0.44845,-2.24224 -0.0755,-0.60422 0.12588,-3.37777 0,-3.58757 -1.94327,-3.23878 -1.34534,3.86993 -1.34534,1.79379 0,-1.04638 0,-2.09275 0,-3.13913 0,-1.49482 0.14874,-2.99706 0,-4.48446 -0.0298,-0.29748 -0.68549,0.2114 -0.89689,0 -0.1057,-0.1057 0.1057,-0.34275 0,-0.44845 -0.1057,-0.1057 -0.34275,0.1057 -0.44845,0 -0.1057,-0.1057 -0.14948,-0.44844 0,-0.44844 0.14949,0 0.1057,0.34274 0,0.44844 -0.10791,0.10791 -1.68587,-0.10791 -1.79378,0 -1.12361,1.12361 -2.01552,2.46397 -3.139126,3.58757 -0.105701,0.1057 -0.365529,0.12438 -0.448447,0 -0.262208,-0.39331 -0.07028,-1.06171 -0.448445,-1.34534 -0.358759,-0.26906 -0.928968,0.16655 -1.34534,0 -0.39256,-0.15702 -0.597929,-0.59792 -0.896893,-0.89689 -0.747411,-0.29896 -1.468218,-0.67574 -2.242232,-0.89689 -0.287459,-0.0821 -0.597927,0 -0.896893,0 -0.597926,0 -1.201864,0.0846 -1.793785,0 -4.131802,-0.59026 1.367235,-0.44845 -2.690677,-0.44845 -0.59793,0 -1.221074,0.17182 -1.793785,0 -1.090412,-0.32712 -2.059123,-0.98534 -3.139125,-1.34534 -0.608936,-0.20297 -2.994843,0.4244 -3.139123,0.44845 -0.14745,0.0246 -0.298966,0 -0.448447,0 -0.59793,0 -1.201868,0.0846 -1.793786,0 -0.467952,-0.0669 -0.877384,-0.3816 -1.34534,-0.44845 -0.591917,-0.0846 -1.195855,0 -1.793785,0 -0.298963,0 -0.600236,-0.0371 -0.896892,0 -0.902243,0.11278 -1.786975,0.34804 -2.690678,0.44845 -0.445704,0.0495 -0.910283,-0.10876 -1.34534,0 -0.205086,0.0513 -0.243358,0.39717 -0.448445,0.44845 -0.435057,0.10876 -0.944237,-0.20055 -1.34534,0 -2.428951,1.21447 3.007519,1.13424 -1.793785,2.24223 -1.456539,0.33612 -2.989641,0 -4.484462,0 -0.298964,0 -0.61327,0.0945 -0.896893,0 -0.200551,-0.0669 -0.247896,-0.3816 -0.448447,-0.44845 -0.425432,-0.14181 -0.896893,0 -1.345338,0 -0.149481,0 -0.314746,-0.0669 -0.448447,0 -0.189082,0.0945 -0.259364,0.35391 -0.448445,0.44845 -0.133702,0.0669 -0.298966,0 -0.448448,0 -0.448445,0.14948 -0.952024,0.18624 -1.345337,0.44844 -0.124378,0.0829 0,0.29897 0,0.44845 -0.298966,0 -0.59793,0 -0.896893,0 -3.092434,0 -1.130562,1.92951 -1.793785,3.58757 -0.12414,0.31035 -0.569132,-0.38289 -0.896892,-0.44845 -0.439741,-0.0879 -0.919906,-0.14181 -1.345341,0 -0.141811,0.0473 0.141812,0.40118 0,0.44845 -0.425434,0.14181 -0.98658,-0.26907 -1.34534,0 -0.378161,0.28363 -0.114194,1.01109 -0.448445,1.34534 -0.168645,0.16865 -1.274968,-0.11058 -1.34534,0 -1.00557,1.58018 -1.685107,3.35273 -2.690677,4.93291 -0.08025,0.12611 -0.328861,0.0897 -0.448445,0 -1.699633,-1.27472 -3.33403,-2.637 -4.93291,-4.03602 -0.795473,-0.69603 -1.31825,-1.7289 -2.242233,-2.24223 -0.522682,-0.29038 -1.195856,0 -1.793785,0 -0.298963,0 -0.65772,-0.17938 -0.896892,0 -0.431173,0.32338 -0.378664,1.19728 -0.896893,1.34534 -0.732885,0.2094 -1.480018,-0.44845 -2.242232,-0.44845 -0.472702,0 -0.872633,0.44845 -1.345338,0.44845 -0.211399,0 -0.237048,-0.44845 -0.448447,-0.44845 -0.616331,0 -1.221537,0.67735 -1.793785,0.44845 -0.438894,-0.17556 0.02426,-1.34534 -0.448445,-1.34534 -0.634201,0 -0.778095,1.06172 -1.34534,1.34534 -0.378164,0.18908 -0.59793,-1.19586 -0.896893,-0.89689 -0.61633,0.61633 -0.49974,2.03083 -1.345339,2.24223 -0.597928,0.14948 -0.259844,-1.20702 -0.448446,-1.79379 -1.157214,-3.60022 -2.259751,-7.22186 -3.587571,-10.76271 -0.05249,-0.13996 -0.342746,-0.1057 -0.448446,0 -0.236352,0.23635 -0.181045,1.09745 -0.448447,0.8969 -0.697298,-0.52298 -0.955537,-1.46263 -1.345338,-2.24224 -0.06685,-0.1337 0,-0.29896 0,-0.44844 0,-0.29897 -0.298965,-0.8969 0,-0.8969 0.298964,0 0,0.59793 0,0.8969 0,0.14948 0,-0.29897 0,-0.44845 0,-0.44845 0,-0.89689 0,-1.34534 0,-0.14948 0,0.29897 0,0.44845 0,0.44844 0.317099,1.02824 0,1.34534 -0.236352,0.23635 -0.367379,-0.57262 -0.448447,-0.8969 -0.07251,-0.29003 0.25636,-1.0507 0,-0.89689 -3.931984,2.35919 -1.28718,2.0096 -2.242231,5.8298 -0.149483,0.59793 -0.253546,-1.20908 -0.448447,-1.79378 -0.04727,-0.14181 0,0.29896 0,0.44845 0,0.44844 0,0.89689 0,1.34533 0,0.8969 0,1.79379 0,2.69068 0,-0.84706 0,-1.29551 0,-0.44844 0,1.19585 0,2.39171 0,3.58757 0,0.29896 0.2114,0.68549 0,0.89689 -0.149482,0.14948 -0.298964,-0.59793 -0.448446,-0.44845 -0.2114,0.2114 0,1.19586 0,0.89689 0,-0.59792 0,-1.19585 0,-1.79378 0,-0.29896 0,0.59793 0,0.89689 0,0.14948 -0.149482,-0.44844 0,-0.44844 0.149482,0 0,0.29896 0,0.44844 0,-0.29896 -0.158451,-0.64337 0,-0.89689 0.449582,-0.71933 2.257668,-3.14427 3.587571,-3.58757 0.141811,-0.0473 0.05249,0.30848 0,0.44845 -0.399727,1.06593 -2.292564,2.50764 -1.345339,3.13912 0.971412,0.64761 2.131621,-1.21729 2.690677,-2.24223 0.429479,-0.78738 -0.896892,-2.69068 0,-2.69068 0.896893,0 0,1.79379 0,2.69068 0,0.44844 -0.448446,-1.34534 0,-1.34534 0.448447,0 -0.141811,0.9199 0,1.34534 0.04727,0.14181 0.401176,0.14181 0.448447,0 0.141811,-0.42544 0,-0.89689 0,-1.34534 0,-0.14948 0,-0.59793 0,-0.44845 0,3.13913 0,-2.54119 0,1.79379 0,0.29896 0,-0.59793 0,-0.89689 0,-0.29897 0,-0.59793 0,-0.8969 0,-0.14948 0,0.29897 0,0.44845 0,0.74741 0.74741,2.24223 0,2.24223 -0.747411,0 0,-1.49482 0,-2.24223 0,-0.14948 0.149482,0.44845 0,0.44845 -0.2114,0 -0.237047,-0.44845 -0.448447,-0.44845 -0.149482,0 0.1057,0.34275 0,0.44845 -0.105699,0.1057 -0.401175,-0.14182 -0.448446,0 -0.141811,0.42543 0,0.89689 0,1.34533 0,0.44845 0,0.8969 0,1.34534 0,0.29897 0,-0.59792 0,-0.89689 0,-0.44845 -0.448446,-1.34534 0,-1.34534 0.448446,0 0,0.89689 0,1.34534 0,0.29897 0.25636,0.74308 0,0.89689 -0.653591,0.39216 -2.057368,1.1879 -2.242231,0.44845 -0.476857,-1.90743 0.896892,-3.86367 0.896892,-5.8298 0,-4.74446 -1.342295,6.7206 -0.896892,5.8298 0.551262,-1.10253 0.558254,-2.40234 0.896892,-3.58757 0.04107,-0.14373 0.03626,0.30343 0,0.44845 -0.263938,1.05575 -0.896892,2.05087 -0.896892,3.13912 0,0.94541 0.691805,-1.76778 0.896892,-2.69068 0.09728,-0.43777 0,-1.79378 0,-1.34534 0,0.74741 0,1.49482 0,2.24223 0,0.44845 -0.448446,-1.34533 0,-1.34533 0.472704,0 0.298964,0.89689 0.448447,1.34533"
       id="path904"
       inkscape:connector-curvature="0" />
    <path
       style="fill:none;fill-rule:evenodd;stroke:#000000;stroke-width:0.26458332px;stroke-linecap:butt;stroke-linejoin:miter;stroke-opacity:1"
       d="m 129.21932,119.11749 c -0.17175,0.39822 -0.11701,1.3664 -0.51523,1.19466 -0.39822,-0.17174 0.51523,-1.62834 0.51523,-1.19466 0,0.86391 -0.36845,1.68865 -0.51523,2.54 -0.0254,0.14731 0,0.29896 0,0.44845 0,0.59792 0,1.19585 0,1.79378 0,0.29897 0,0.59793 0,0.8969 0,0.14948 -0.1057,0.34274 0,0.44844 0.38111,0.38111 0.96424,0.51579 1.34534,0.89689 0.0144,0.0144 0,1.23658 0,1.34534 0,3.43809 0,6.87618 0,10.31427 0,0.44845 0,0.89689 0,1.34534 0,0.14948 -0.0473,0.30663 0,0.44844 0.1057,0.3171 0.34275,0.5798 0.44845,0.8969 0.0473,0.14181 0,0.29896 0,0.44844 0,1.19586 0,2.39172 0,3.58757 0,2.5412 0,5.08239 0,7.62359 0,3.88653 0,7.77307 0,11.65961 0,1.19585 0,2.39171 0,3.58757 0,0.29896 -0.1337,0.62949 0,0.89689 0.0668,0.1337 0.34275,-0.1057 0.44844,0 0.10571,0.1057 0,0.29896 0,0.44844 0,1.79379 0,3.58757 0,5.38136 0,3.28861 0,6.57721 0,9.86582 0,2.24223 0,4.48446 0,6.72669 0,0.36705 0.0656,2.55947 0,2.69068 -0.0668,0.1337 -0.34274,-0.1057 -0.44844,0 -0.1057,0.1057 0,0.29897 0,0.44845 0,0.25525 -0.0306,1.74787 0,1.79378 0.45516,0.68274 2.14068,0.44845 2.69068,0.44845 0.35784,0 1.97319,0.0897 2.24223,0 0.3171,-0.1057 0.57979,-0.34275 0.89689,-0.44845 0.14181,-0.0473 0.30343,0.0363 0.44845,0 0.45859,-0.11465 0.88675,-0.33379 1.34534,-0.44844 0.14502,-0.0363 0.29896,0 0.44844,0 0.59793,0 1.19586,0 1.79379,0 0.29896,0 0.61327,0.0945 0.89689,0 0.3171,-0.1057 0.61878,-0.26304 0.8969,-0.44845 1.03024,-0.68683 -0.1923,-0.25615 0.89689,-1.34534 0.2114,-0.2114 0.68549,0.2114 0.89689,0 0.23635,-0.23635 0.29896,-0.59793 0.44845,-0.89689 0.44844,-0.14948 0.96717,-0.16483 1.34534,-0.44845 0.2674,-0.20055 0.143,-0.76114 0.44844,-0.89689 1.12642,-0.50063 2.38426,-0.62949 3.58757,-0.89689 0.59357,-0.13191 0.73766,0.36179 1.34534,-0.44845 0.28362,-0.37816 0.0431,-1.10213 0.44845,-1.34534 0.51272,-0.30763 1.19585,0 1.79378,0 0.29897,0 0.6855,0.2114 0.8969,0 0.21139,-0.2114 -0.13371,-0.62949 0,-0.89689 0.0669,-0.1337 0.29896,0 0.44844,0 0.59793,0 1.19952,0.066 1.79379,0 0.75755,-0.0842 1.49039,-0.32314 2.24223,-0.44845 0.14744,-0.0246 0.31474,0.0668 0.44845,0 0.48206,-0.24103 0.96423,-0.51578 1.34533,-0.89689 0.1057,-0.1057 -0.0668,-0.31474 0,-0.44845 0.0945,-0.18908 0.33119,-0.27255 0.44845,-0.44844 0.18541,-0.27812 0.26304,-0.61878 0.44845,-0.89689 0.11726,-0.1759 0.38159,-0.2479 0.44844,-0.44845 0.18908,-0.56725 -0.2674,-1.25898 0,-1.79379 0.0669,-0.1337 0.3816,0.13371 0.44845,0 0.20055,-0.4011 0,-0.89689 0,-1.34534 0,-1.49482 0,-2.98964 0,-4.48446 0,-3.28861 0,-6.57721 0,-9.86582 0,-1.75183 0.1337,-0.0473 -0.44845,-1.79378 -0.0473,-0.14181 0.1057,-0.34275 0,-0.44845 -0.5285,-0.5285 -1.26528,-0.81684 -1.79378,-1.34534 -0.2114,-0.2114 0.1337,-0.62949 0,-0.89689 -0.0945,-0.18908 -0.3816,-0.2479 -0.44845,-0.44845 -0.0945,-0.28362 0,-0.59793 0,-0.89689 0,-0.14948 0.0668,-0.31474 0,-0.44845 -0.0945,-0.18908 -0.35391,-0.25936 -0.44844,-0.44844 -0.0669,-0.1337 0.10569,-0.34275 0,-0.44845 -0.29883,-0.29882 -0.59807,0.29882 -0.8969,0 -0.1057,-0.1057 0.14181,-0.40117 0,-0.44844 -0.0164,-0.005 -2.67979,0.0109 -2.69068,0 -0.1057,-0.10571 0.1057,-0.34275 0,-0.44845 -0.22422,-0.22423 -1.12111,0.22422 -1.34533,0 -0.10571,-0.1057 0.0669,-0.31475 0,-0.44845 -0.0945,-0.18908 -0.35391,-0.25936 -0.44845,-0.44844 -0.0503,-0.10051 0,-1.68723 0,-1.79379 0,-0.10876 -0.0144,-1.33092 0,-1.34534 0.1057,-0.1057 0.30663,0.0473 0.44845,0 0.31709,-0.1057 0.57261,-0.36738 0.89689,-0.44844 0.29003,-0.0725 0.59792,0 0.89689,0 0.59793,0 1.19586,0 1.79379,0 0.89689,0 1.8663,0.3533 2.69067,0 0.43449,-0.18621 0.23705,-0.92254 0.44845,-1.34534 0.0945,-0.18909 0.36993,-0.25217 0.44845,-0.44845 0.40339,-1.00849 0.39753,-2.79774 1.34534,-3.58757 0.47347,-0.39456 1.35797,-0.0126 1.79378,-0.44845 1.55589,-1.55588 -1.36024,-1.03644 0.44845,-2.24223 0.24875,-0.16583 0.61327,0.0945 0.89689,0 0.54525,-0.18175 0.61051,-0.91317 0.44845,-1.34534 -0.3521,-0.93891 -0.95034,-1.769 -1.34534,-2.69067 -0.0965,-0.2251 0,-2.21535 0,-2.69068 0,-0.29897 -0.2114,-0.6855 0,-0.89689 0.2114,-0.21141 0.59792,0 0.89689,0 0.44845,-0.8969 1.02824,-1.73939 1.34534,-2.69068 0.14181,-0.42544 0,-0.8969 0,-1.34534 0,-0.89689 0,-1.79379 0,-2.69068 0,-0.29897 -0.0586,-0.60373 0,-0.89689 0.025,-0.12498 0.68394,-1.77124 0.44845,-2.24223 -0.0945,-0.18909 -0.3816,-0.2479 -0.44845,-0.44845 -0.0945,-0.28362 0.2114,-0.68549 0,-0.8969 -0.2114,-0.21139 -0.62949,0.13371 -0.89689,0 -0.66851,-0.33425 -1.15289,-0.96079 -1.79379,-1.34533 -0.25636,-0.15382 -0.68549,0.2114 -0.89689,0 -0.1057,-0.1057 0.14502,-0.41219 0,-0.44845 -0.58008,-0.14502 -1.20399,0.0983 -1.79379,0 -1.21589,-0.20265 -2.37479,-0.67639 -3.58757,-0.89689 -0.44121,-0.0802 -0.97221,0.24875 -1.34534,0 -0.24875,-0.16584 0.24876,-0.73106 0,-0.8969 -1.19586,-0.79723 -0.99654,0.26575 -1.79378,0 -0.3171,-0.10569 -0.66054,-0.21209 -0.89689,-0.44844 -0.43297,-0.43297 0.718,-0.6636 -0.44845,-0.89689 -0.58632,-0.11727 -1.25898,0.2674 -1.79379,0 -0.2674,-0.1337 0.2674,-0.7632 0,-0.89689 -0.5348,-0.26741 -1.20747,0.11726 -1.79378,0 -0.2073,-0.0415 -0.24336,-0.39718 -0.44845,-0.44845 -0.43505,-0.10877 -0.97221,0.24875 -1.34534,0 -0.24875,-0.16584 0.24876,-0.73106 0,-0.8969 -0.37313,-0.24875 -0.89689,0 -1.34534,0 -0.14948,0 -0.34274,0.10571 -0.44844,0 -0.23635,-0.23635 -0.2121,-0.66054 -0.44845,-0.89689 -0.1057,-0.1057 -0.3816,0.1337 -0.44844,0 -0.13371,-0.2674 0.19139,-0.66722 0,-0.89689 1.76072,-6.76771 -1.92847,-1.03157 -2.69068,-1.79379 -0.1057,-0.1057 0,-0.29896 0,-0.44844 -0.59793,-0.29897 -1.15101,-0.71324 -1.79379,-0.8969 -0.43119,-0.12319 -0.89689,0 -1.34534,0 -0.44844,0 -0.89689,0 -1.34534,0 -0.29896,0 -0.61931,-0.11103 -0.89689,0 -0.50042,0.20017 -0.86327,0.65586 -1.34534,0.8969 -0.24327,0.12164 -1.67108,-0.12271 -1.79378,0 -0.89912,0.89911 0.89911,-0.002 0,0.89689 -0.1057,0.1057 -0.34275,-0.1057 -0.44845,0 -0.89911,0.89911 0.89912,-0.002 0,0.89689 -0.2114,0.2114 -0.68549,-0.2114 -0.89689,0 -0.1057,0.1057 0.1057,0.34275 0,0.44845 -0.0917,0.0917 -1.16754,-0.0889 -1.34534,0 -0.18908,0.0945 -0.23705,0.44844 -0.44845,0.44844 -0.13931,0 0.32669,-2.12047 -0.44845,-1.34533 -0.21139,0.2114 0.22598,0.70114 0,0.89689 -0.5089,0.44084 -1.15133,0.69838 -1.727,1.04757 z"
       id="path906"
       inkscape:connector-curvature="0" />
    <path
       style="fill:none;fill-rule:evenodd;stroke:#000000;stroke-width:0.26458332px;stroke-linecap:butt;stroke-linejoin:miter;stroke-opacity:1"
       d="m 140.3637,129.28108 c 0,0.59793 0.0742,1.20047 0,1.79378 0.51903,1.16732 -0.74147,1.75814 -0.89689,2.69068 -0.0983,0.58979 0,1.19586 0,1.79379 0,1.34534 0,2.69068 0,4.03601 0,3.73706 0,7.47411 0,11.21116 0,1.19586 0,2.39171 0,3.58757 0,0.44845 0,0.8969 0,1.34534 0,0.29896 -0.1337,0.62949 0,0.89689 0.0668,0.1337 0.29896,0 0.44844,0 1.19586,0 2.39172,0 3.58757,0 0.59793,0 1.19952,-0.066 1.79379,0 0.75755,0.0842 1.49039,0.32314 2.24223,0.44845 0.14745,0.0246 0.29896,0 0.44845,0 0.59792,0 1.19585,0 1.79378,0 0.44845,0 0.903,0.0737 1.34534,0 0.46627,-0.0777 0.87907,-0.37073 1.34534,-0.44845 0.44234,-0.0737 0.97221,0.24876 1.34534,0 0.24875,-0.16583 -0.2674,-0.76319 0,-0.89689 0.5348,-0.2674 1.25898,0.2674 1.79378,0 0.26741,-0.1337 -0.2114,-0.68549 0,-0.89689 0.33426,-0.33426 0.88675,-0.3338 1.34534,-0.44845 0.14502,-0.0362 0.34275,0.1057 0.44845,0 0.3737,-0.3737 -0.74741,-1.04637 0,-1.34534 0.69395,-0.27758 1.60133,0.38454 2.24223,0 0.38454,-0.23072 0,-0.89689 0,-1.34534 0,-0.29896 0,-0.59792 0,-0.89689 0,-0.76078 -0.16774,-1.62604 0.44845,-2.24223 0.1057,-0.1057 0.34274,0.1057 0.44844,0 0.1057,-0.1057 0,-0.29897 0,-0.44845 0,-1.34533 0,-2.69067 0,-4.03601 0,-0.30304 0.0725,-2.63266 0,-2.69068 -0.59519,-0.47615 -1.64704,0.0277 -2.24223,-0.44845 -0.35018,-0.28014 0.0737,-0.90299 0,-1.34534 -0.0777,-0.46627 -0.35574,-0.88181 -0.44844,-1.34533 -0.0586,-0.29317 0.1337,-0.6295 0,-0.8969 -0.0668,-0.1337 -0.34275,0.1057 -0.44845,0 -0.1057,-0.1057 0.0473,-0.30663 0,-0.44844 -0.1057,-0.31711 -0.29897,-0.59793 -0.44845,-0.8969 -0.14948,-0.29896 -0.21209,-0.66054 -0.44844,-0.89689 -0.1057,-0.1057 -0.29897,0 -0.44845,0 -0.29897,-0.14948 -0.66054,-0.2121 -0.89689,-0.44845 -0.97931,-0.9793 -0.0932,-0.7281 -0.44845,-1.79378 -0.0668,-0.20055 -0.38159,-0.2479 -0.44844,-0.44845 -0.0945,-0.28362 0.2674,-0.76319 0,-0.89689 -0.53481,-0.2674 -1.19586,0 -1.79379,0 -0.14948,0 -0.34275,0.1057 -0.44845,0 -0.2114,-0.2114 0.2674,-0.76319 0,-0.89689 -1.69413,-0.84707 -0.57301,0.12457 -0.89689,0.44844 -0.2114,0.2114 -0.68549,-0.2114 -0.89689,0 -0.23635,0.23635 -0.18105,0.69634 -0.44845,0.8969 -1.53311,1.14983 -1.0981,-0.0824 -2.69068,0.44844 -0.35875,0.11959 0.50824,0.92679 -0.44844,0.44845 -0.7796,-0.3898 -1.49482,-0.89689 -2.24223,-1.34534 -0.74742,-0.44845 -1.56161,-0.80084 -2.24223,-1.34534 -0.0718,-0.0574 0.0574,-1.34534 0,-1.34534 -0.61634,0 -1.19586,0.29897 -1.79379,0.44845 z"
       id="path908"
       inkscape:connector-curvature="0" />
    <path
       style="fill:none;fill-rule:evenodd;stroke:#000000;stroke-width:0.26458332px;stroke-linecap:butt;stroke-linejoin:miter;stroke-opacity:1"
       d="m 138.56991,163.363 c 0.29897,0.74741 0.70166,1.46128 0.8969,2.24223 0.10876,0.43506 0,0.89689 0,1.34534 0,0.89689 0,1.79378 0,2.69068 0,1.04637 0,2.09275 0,3.13912 0,0.59793 0,1.19586 0,1.79379 0,0.14948 0,0.29896 0,0.44844 0,0.14949 0.0668,0.31475 0,0.44845 -0.0945,0.18908 -0.39718,0.24336 -0.44845,0.44845 -0.0806,0.32227 0,2.19621 0,2.69067 0,0.14949 0.0473,0.30664 0,0.44845 -0.1057,0.3171 -0.36738,0.57262 -0.44845,0.89689 -0.0725,0.29004 0,0.59793 0,0.89689 0,0.8969 0,1.79379 0,2.69068 0,0.44845 0.088,0.9056 0,1.34534 -0.0927,0.46353 -0.3338,0.88675 -0.44844,1.34534 -0.0725,0.29004 0,0.59793 0,0.89689 0,1.04638 0,2.09275 0,3.13913 0,0.14948 0,0.29896 0,0.44844 0,0.14949 -0.1057,0.34275 0,0.44845 0.5285,0.5285 1.26528,0.81684 1.79378,1.34534 0.1057,0.1057 0,0.29896 0,0.44845 0.29897,0.29896 0.50434,0.73986 0.8969,0.89689 0.41637,0.16655 0.89689,0 1.34534,0 0.59461,0 3.97311,0.0852 4.48446,0 0.3297,-0.0549 0.58654,-0.32431 0.89689,-0.44845 0.43889,-0.17556 0.90273,-0.28247 1.34534,-0.44844 0.75373,-0.28265 1.50233,-0.5798 2.24223,-0.8969 0.30723,-0.13167 0.71148,-0.17033 0.89689,-0.44844 0.16584,-0.24876 -0.17937,-0.65772 0,-0.8969 0.32338,-0.43117 0.96424,-0.51578 1.34534,-0.89689 0.23636,-0.23635 0.13135,-0.79119 0.44845,-0.89689 0.70905,-0.23635 1.60133,0.38454 2.24223,0 0.38454,-0.23073 -0.14181,-0.91991 0,-1.34534 0.0473,-0.14181 0.32407,0.0829 0.44845,0 0.35179,-0.23453 0.66236,-0.5451 0.89689,-0.89689 0.0829,-0.12438 0,-0.29897 0,-0.44845 0,-0.29896 0,-0.59793 0,-0.89689 0,-0.59793 0,-1.19586 0,-1.79379 0,-0.14948 -0.1057,-0.34274 0,-0.44844 0.1057,-0.1057 0.3816,0.1337 0.44845,0 0.1337,-0.26741 0,-0.59793 0,-0.8969 0,-0.28857 -0.0759,-2.83564 0,-3.13912 0.0811,-0.32427 0.36737,-0.57262 0.44844,-0.89689 0.0786,-0.3142 0,-2.52831 0,-2.69068 0,-0.29896 0,-0.59793 0,-0.89689 0,-0.29897 -0.1337,-0.6295 0,-0.8969 0.18908,-0.37816 0.79435,-0.48671 0.8969,-0.89689 0.0811,-0.32427 -0.3829,-0.56913 -0.44845,-0.89689 -0.088,-0.43974 0,-0.89689 0,-1.34534 0,-0.29896 0.1337,-0.62949 0,-0.89689 -0.0668,-0.1337 -0.34275,0.1057 -0.44845,0 -0.1057,-0.1057 0.0669,-0.31475 0,-0.44845 -0.0945,-0.18908 -0.33118,-0.27255 -0.44844,-0.44845 -0.18541,-0.27811 -0.2121,-0.66054 -0.44845,-0.89689 -0.1057,-0.1057 -0.34275,0.1057 -0.44845,0 -0.1057,-0.1057 0.1057,-0.34275 0,-0.44844 -0.3811,-0.38111 -0.93129,-0.55186 -1.34534,-0.8969 -0.4872,-0.406 -0.89689,-0.89689 -1.34533,-1.34534 -0.14949,-0.14948 -0.25217,-0.36993 -0.44845,-0.44844 -0.57225,-0.2289 -1.18943,-0.32758 -1.79379,-0.44845 -0.35813,-0.0716 -1.55258,0.1206 -1.79378,0 -0.18908,-0.0945 -0.25937,-0.35391 -0.44845,-0.44844 -0.1337,-0.0669 -0.29896,0 -0.44844,0 -0.44845,-0.14949 -0.96718,-0.16483 -1.34534,-0.44845 -0.85763,-0.64322 -0.005,-1.64754 -0.8969,-2.24223 -1.34533,-0.8969 -0.44844,0.44844 -1.34533,0 -0.18909,-0.0945 -0.25937,-0.35391 -0.44845,-0.44845 -0.0235,-0.0117 -1.32188,-0.0117 -1.34534,0 -0.18908,0.0945 -0.3816,0.24789 -0.44845,0.44845 -0.0945,0.28362 0.1337,0.62949 0,0.89689 -0.1337,0.2674 -0.68549,-0.2114 -0.89689,0 -0.5462,0.5462 -0.21006,1.00192 -0.89689,1.34534 -0.1337,0.0668 -0.29897,0 -0.44845,0 -0.14948,0 -0.29896,0 -0.44844,0 -0.74742,0 -1.49483,0 -2.24224,0 z"
       id="path910"
       inkscape:connector-curvature="0" />
    <path
       style="fill:none;fill-rule:evenodd;stroke:#000000;stroke-width:0.26458332px;stroke-linecap:butt;stroke-linejoin:miter;stroke-opacity:1"
       d="m 189.53787,156.04925 c -0.69577,1.09257 -1.50803,2.11917 -2.08731,3.27773 -0.1337,0.2674 0,0.59793 0,0.89689 0,0.29897 0,0.59793 0,0.8969 0,0.47551 -0.0796,3.21587 0,3.58757 0.35711,1.66652 1.03125,3.25774 1.34534,4.93291 0.13774,0.73461 0,1.49482 0,2.24223 0,1.79378 0,3.58757 0,5.38135 0,1.19586 0.41989,2.46786 0,3.58757 -1.56868,4.18315 -3.77918,2.55204 -4.03602,7.17515 -0.0846,1.52207 0.70782,2.97181 0.8969,4.48446 0.11124,0.88997 0,1.79378 0,2.69068 0,2.09275 0,4.1855 0,6.27825 0,0.89689 -0.34496,1.86277 0,2.69067 1.28712,3.08909 2.38228,1.56882 2.69068,4.03602 0.13687,1.09495 0,2.43846 0,3.58757 0,0.29896 -0.0725,0.60686 0,0.89689 0.0811,0.32427 0.21209,0.66054 0.44844,0.8969 0.1057,0.1057 0.29897,0 0.44845,0 0.14948,0 0.34275,0.1057 0.44844,0 0.1057,-0.1057 -0.10569,-0.34275 0,-0.44845 0.1057,-0.1057 0.39293,0.13879 0.44845,0 0.28308,-0.7077 0.0563,-1.58864 0.44845,-2.24223 0.15381,-0.25636 0.64814,0.16583 0.89689,0 0.27812,-0.18541 0.26304,-0.61878 0.44845,-0.89689 0.11726,-0.1759 0.29896,-0.29897 0.44844,-0.44845 0.44845,-0.44845 0.80152,-1.01905 1.34534,-1.34534 0.25636,-0.15382 0.60093,0.0423 0.89689,0 0.75456,-0.10779 1.54165,-0.1482 2.24224,-0.44845 1.41457,-0.60624 2.55315,-1.83032 4.03601,-2.24223 1.29626,-0.36007 2.69068,0 4.03602,0 1.94327,0 3.88653,0 5.8298,0 0.16469,0 1.77574,0.018 1.79379,0 0.1057,-0.1057 0,-0.29896 0,-0.44844 0,-1.10172 0.0841,-2.07404 -0.44845,-3.13913 -0.18908,-0.37816 -0.73987,-0.50433 -0.89689,-0.89689 -0.16655,-0.41637 0.3171,-1.02824 0,-1.34534 -0.99717,-0.99717 -2.47442,-1.37645 -3.58757,-2.24223 -0.26385,-0.20521 -0.27648,-0.61028 -0.44845,-0.89689 -0.2773,-0.46216 -0.69673,-0.84493 -0.89689,-1.34534 -0.11103,-0.27758 0.1337,-0.6295 0,-0.8969 -1.41119,-2.82238 -0.5619,1.28327 -1.34534,-2.24223 -0.19725,-0.88761 0.15031,-2.00638 -0.44845,-2.69068 -1.61445,-1.84508 -4.37546,-2.51071 -5.8298,-4.48446 -0.80296,-1.08974 -0.24262,-2.69814 -0.44845,-4.03602 -0.0937,-0.60916 -0.372,-1.18221 -0.44844,-1.79378 -0.0742,-0.59331 0,-1.19586 0,-1.79379 0,-0.29896 0.1337,-0.62949 0,-0.89689 -0.0668,-0.1337 -0.59793,0 -0.44845,0 0.29897,0 0.68549,0.2114 0.89689,0 0.2114,-0.2114 0,-0.59793 0,-0.89689 0,-1.04638 0,-2.09275 0,-3.13913 0,-0.44844 -0.0737,-0.90299 0,-1.34533 0.59026,-3.54155 0.44845,0.80726 0.44845,-2.69068 0,-0.0755 -0.0447,-3.04978 0,-3.13913 0.0668,-0.1337 0.34275,0.1057 0.44845,0 0.1057,-0.1057 0,-0.29896 0,-0.44844 0,-1.19586 0,-2.39172 0,-3.58757 0,-1.04638 0,-2.09275 0,-3.13913 0,-0.44844 0.24875,-0.97221 0,-1.34534 -0.70358,-1.05537 -1.9633,-1.65156 -2.69068,-2.69067 -1.4559,-5.82359 0.82177,0.82177 -1.79379,-1.79379 -0.3171,-0.3171 0.3171,-1.02824 0,-1.34534 -0.3171,-0.3171 -0.89689,0 -1.34534,0 -0.14948,0 -0.38159,-0.1337 -0.44844,0 -0.1337,0.2674 0.1337,0.62949 0,0.89689 -0.0668,0.1337 -0.29896,0 -0.44845,0 -0.29896,0 -0.61327,-0.0945 -0.89689,0 -0.20055,0.0669 -0.25936,0.35391 -0.44845,0.44845 -0.1778,0.0889 -1.25366,-0.0917 -1.34534,0 -0.10569,0.1057 0.1057,0.34275 0,0.44845 -0.10569,0.1057 -0.40117,-0.14182 -0.44844,0 -0.14181,0.42543 0,0.89689 0,1.34534 0,0.14948 -0.0207,0.30039 0,0.44844 0.0774,0.55496 0.47071,1.1236 0.29352,1.65518 -0.30467,0.91401 -1.20799,1.5191 -1.63886,2.38084 -0.52069,1.04138 0.44845,0.84165 0.44845,1.79378 0,0.14948 -0.3816,-0.1337 -0.44845,0 -0.1337,0.26741 0,0.59793 0,0.8969 0,0.14948 0,-0.29897 0,-0.44845 0,-0.29897 -0.10925,-0.61861 0,-0.89689 0.49584,-1.26305 1.09257,-2.48412 1.63886,-3.72618"
       id="path912"
       inkscape:connector-curvature="0" />
    <path
       style="fill:none;fill-rule:evenodd;stroke:#000000;stroke-width:0.26458332px;stroke-linecap:butt;stroke-linejoin:miter;stroke-opacity:1"
       d="m 187.00212,120.7606 c 0,0.59793 0,1.19585 0,1.79378 -0.14949,0 -0.34275,-0.1057 -0.44845,0 -0.1057,0.1057 0.0473,0.30664 0,0.44845 -0.1057,0.3171 -0.38289,0.56913 -0.44845,0.89689 -0.0879,0.43974 0.10877,0.91028 0,1.34534 -0.24125,0.96501 -1.31566,-0.0593 -1.79378,0.89689 -0.10188,0.20376 0,3.05739 0,3.13913 0,2.09275 -0.20824,4.19588 0,6.27825 0.15168,1.51685 0.73731,2.96841 0.89689,4.48446 0.20343,1.93259 0,3.88653 0,5.8298 0,0.29897 0,0.59793 0,0.8969 0,0.14948 -0.1057,0.34274 0,0.44844 0.1057,0.1057 0.3816,-0.1337 0.44845,0 0.1337,0.2674 -0.1337,0.62949 0,0.89689 0.0669,0.1337 0.29896,0 0.44844,0 0.44845,0 0.91991,-0.14181 1.34534,0 0.14181,0.0473 -0.14181,0.40118 0,0.44845 0.42544,0.14181 0.8969,0 1.34534,0 0.29897,0 0.60686,0.0725 0.89689,0 0.32428,-0.0811 0.5798,-0.34275 0.8969,-0.44845 0.21174,-0.0706 1.50422,-0.0414 1.79378,0 0.96453,0.13779 2.96786,0.36282 4.03602,0.8969 0.18908,0.0945 0.24789,0.38159 0.44845,0.44844 0.28362,0.0945 0.62948,-0.1337 0.89689,0 0.1337,0.0668 -0.14181,0.40118 0,0.44845 0.42543,0.14181 0.9199,-0.14181 1.34534,0 0.5113,0.17043 0.8883,0.61124 1.34534,0.89689 0.73913,0.46196 1.4261,1.03929 2.24223,1.34534 0.41989,0.15746 0.89689,0 1.34534,0 0.14948,0 0.31474,0.0669 0.44844,0 0.18908,-0.0945 0.24336,-0.39717 0.44845,-0.44845 0.43506,-0.10876 0.94424,0.20055 1.34534,0 0.29896,-0.14948 0.23964,-0.63588 0.44844,-0.89689 0.39619,-0.49523 1.01905,-0.80152 1.34534,-1.34534 0.15382,-0.25636 0,-0.59793 0,-0.89689 0,-0.44845 -0.14181,-0.91991 0,-1.34534 0.17044,-0.51131 0.65586,-0.86327 0.8969,-1.34534 0.0999,-0.19983 -0.032,-1.63389 0,-1.79378 0.0927,-0.46353 0.35574,-0.88182 0.44844,-1.34534 0.0586,-0.29316 -0.11103,-0.61931 0,-0.89689 0.20017,-0.50042 0.69673,-0.84493 0.89689,-1.34534 0.11104,-0.27758 0,-0.59793 0,-0.8969 0,-0.29896 0,-0.59793 0,-0.89689 0,-2.24223 0,-4.48446 0,-6.72669 0,-1.04638 0,-2.09275 0,-3.13913 0,-0.44844 0.24876,-0.97221 0,-1.34534 -0.16583,-0.24875 -0.59792,0 -0.89689,0 -0.14948,0 -0.31474,-0.0669 -0.44844,0 -0.18909,0.0945 -0.25937,0.35391 -0.44845,0.44845 -0.13634,0.0682 -1.48412,0 -1.79379,0 -0.10656,0 -1.69327,0.0503 -1.79378,0 -0.18908,-0.0945 -0.25937,-0.35391 -0.44845,-0.44845 -0.2674,-0.1337 -0.71751,0.23917 -0.89689,0 -3.42911,-4.57215 3.97837,1.56375 -5.38136,-2.69067 -0.43033,-0.19561 -0.27288,-0.90645 -0.44844,-1.34535 -0.14948,-0.29896 -0.29897,-0.59792 -0.44845,-0.89689 -0.14948,0 -0.34275,0.1057 -0.44844,0 -0.1057,-0.1057 0.10569,-0.34274 0,-0.44844 -0.1057,-0.1057 -0.29897,0 -0.44845,0 -0.14948,0 -0.29896,0 -0.44845,0 -4.1855,0 -0.44844,0.44844 -1.34534,-0.44845 -0.10791,-0.10791 -1.68587,0.10791 -1.79378,0 -0.1057,-0.1057 0,-0.29896 0,-0.44844 0,-0.44845 0,-0.8969 0,-1.34535 0,-0.29896 0.1337,-0.62949 0,-0.89689 -0.0668,-0.1337 -0.29896,0 -0.44845,0 -0.14948,0 -0.31474,-0.0669 -0.44844,0 -0.18909,0.0945 -0.25937,0.35391 -0.44845,0.44845 -0.24328,0.12164 -1.67108,-0.12271 -1.79379,0 -0.23635,0.23635 -0.21209,0.66054 -0.44844,0.89689 -0.1057,0.1057 -0.34275,-0.1057 -0.44845,0 -0.1057,0.1057 0.14502,0.41219 0,0.44845 -0.58007,0.14502 -1.19585,0 -1.79378,0 z"
       id="path914"
       inkscape:connector-curvature="0" />
    <path
       style="fill:none;fill-rule:evenodd;stroke:#000000;stroke-width:0.26458332px;stroke-linecap:butt;stroke-linejoin:miter;stroke-opacity:1"
       d="m 238.125,139.59534 c -0.44845,0.74741 -0.7781,1.58045 -1.34534,2.24224 -0.52188,0.60885 -3.94766,2.22663 -4.03602,2.24223 -1.61928,0.28575 -3.31098,-0.27032 -4.93291,0 -0.3297,0.0549 -0.21209,0.66054 -0.44845,0.89689 -0.3811,0.38111 -1.00865,0.47603 -1.34533,0.89689 -0.2953,0.36912 -0.0431,1.10214 -0.44845,1.34534 -3.35498,0 -0.54069,-0.49751 -2.69068,1.34534 -0.66178,0.56724 -1.44573,0.99134 -2.24223,1.34534 -0.47342,0.21041 -2.40819,0.42608 -2.69068,0.89689 -0.3171,0.5285 -0.20566,1.22729 -0.44844,1.79379 -0.21231,0.49538 -0.69673,0.84492 -0.8969,1.34534 -0.0534,0.13342 0,2.05835 0,2.24223 0,0.89689 0,1.79378 0,2.69068 0,0.14948 -0.0293,0.30186 0,0.44844 0.55721,2.78606 0.44845,0.77203 0.44845,3.13913 0,2.24223 0,4.48446 0,6.72669 0,0.59793 0,1.19586 0,1.79379 0,0.74741 -0.23635,1.53317 0,2.24223 0.23635,0.70905 1.13057,1.07789 1.34534,1.79378 0.25772,0.85907 0,1.79379 0,2.69068 0,0.59793 0,1.19586 0,1.79379 0,0.44844 -0.18557,0.93708 0,1.34533 0.74741,1.19586 1.49482,2.39172 2.24223,3.58758 0,0.29896 -0.11103,0.61931 0,0.89689 0.20017,0.50042 0.69673,0.84492 0.89689,1.34534 0.11104,0.27758 0,0.59793 0,0.89689 0,0.29896 -0.0491,0.60199 0,0.89689 0.0321,0.1924 0.4426,2.28686 0.8969,2.69068 1.11724,0.9931 2.53057,1.63368 3.58757,2.69068 0.33425,0.33425 0.3338,0.88675 0.44844,1.34534 0.18487,0.73945 0.2831,1.49817 0.44845,2.24223 0.1337,0.60165 0.29896,1.19585 0.44844,1.79378 0.14949,0.59793 0.17282,1.24253 0.44845,1.79379 0.33425,0.6685 1.08291,1.09396 1.34534,1.79378 0.20995,0.55986 -0.37863,1.33102 0,1.79379 1.07926,1.3191 2.94491,1.8298 4.03602,3.13912 0.48795,0.58555 0.10757,1.56049 0.44844,2.24224 0.42806,0.8561 1.32895,1.40552 1.79379,2.24223 0.29931,0.53877 0.0902,1.29225 0.44844,1.79378 0.43443,0.6082 1.26529,0.81684 1.79379,1.34534 0.38111,0.38111 0.51579,0.96423 0.89689,1.34534 0.1057,0.1057 0.31475,-0.0668 0.44845,0 0.48207,0.24103 0.96423,0.51579 1.34534,0.89689 0.23635,0.23635 0.17033,0.71148 0.44844,0.8969 0.26907,0.17937 0.98659,-0.0897 1.34534,0 0.45859,0.11464 0.87629,0.38981 1.34534,0.44844 1.18662,0.14833 2.39172,0 3.58757,0 0.44845,0 0.8969,0 1.34534,0 0.44845,0 0.94424,0.20055 1.34534,0 0.29897,-0.14948 0.11874,-0.84194 0.44845,-0.89689 1.62193,-0.27032 3.3933,0.57735 4.93291,0 1.09316,-0.40994 1.3636,-1.92188 2.24223,-2.69068 0.35575,-0.31128 0.95202,-0.18624 1.34534,-0.44845 3.44748,-2.29831 -1.58939,-0.88808 4.48446,-3.58757 1.55746,-0.6922 3.46071,-0.48656 4.9329,-1.34533 0.53237,-0.31056 0.29898,-1.19586 0.44845,-1.79379 0.14949,-0.59793 0.10657,-1.28097 0.44847,-1.79379 0.29895,-0.44844 1.04637,-0.44844 1.34532,-0.89689 1.8532,-1.15829 0.92573,-3.41379 1.7938,-4.93291 1.25611,-2.19822 1.46042,-0.35712 1.79377,-2.69068 0.14798,-1.03585 -0.17201,-2.10698 0,-3.13912 0.0777,-0.46627 0.37073,-0.87907 0.44844,-1.34534 0.0737,-0.44234 -0.16653,-0.92896 0,-1.34534 0.15703,-0.39256 0.70781,-0.51873 0.89691,-0.89689 0.13369,-0.2674 0,-0.59793 0,-0.89689 0,-1.49482 0,-2.98964 0,-4.48447 0,-2.54119 0,-5.08239 0,-7.62358 0,-1.64431 0,-3.28861 0,-4.93291 0,-0.59793 0,-1.19586 0,-1.79379 0,-0.59793 0.16425,-1.21886 0,-1.79378 -0.14809,-0.51823 -0.77999,-0.81921 -0.89691,-1.34534 -0.34703,-1.56169 0.19955,-3.33668 0,-4.93291 -0.0945,-0.75633 -0.35391,-1.48591 -0.44844,-2.24223 -0.11123,-0.88997 0,-1.79379 0,-2.69068 0,-0.44845 0.0737,-0.903 0,-1.34534 -0.0777,-0.46627 -0.29896,-0.89689 -0.44844,-1.34534 -0.14949,-0.44844 -0.1142,-1.01109 -0.44845,-1.34534 -0.61632,-0.61633 -1.68423,-0.67574 -2.24224,-1.34534 -0.28707,-0.3445 0.26909,-0.98658 0,-1.34534 -2.70777,-3.61036 -1.89145,-1.19346 -3.13912,-2.69067 -0.59793,-0.74742 -1.19586,-1.49483 -1.79379,-2.24223 0,-0.59793 0.29667,-1.27464 0,-1.79379 -0.37082,-0.64894 -1.26527,-0.81684 -1.79378,-1.34534 -0.1057,-0.1057 0.12438,-0.36553 0,-0.44845 -0.39331,-0.2622 -1.01108,-0.11419 -1.34534,-0.44844 -0.21139,-0.2114 0.2114,-0.6855 0,-0.89689 -0.21139,-0.2114 -0.68549,0.21139 -0.89689,0 -0.33425,-0.33426 -0.11419,-1.01109 -0.44845,-1.34534 -0.0695,-0.0695 -2.0802,0.0884 -2.24223,0 -1.31229,-0.7158 -2.58758,-1.57959 -3.58757,-2.69068 -0.4123,-0.45812 -0.25354,-1.20908 -0.44844,-1.79379 -0.14948,-0.29896 -0.29897,-0.59793 -0.44845,-0.89689 -0.14948,0 -0.3816,0.1337 -0.44845,0 -0.63455,-1.2691 0.97685,-0.72076 -0.89689,-1.34534 -0.61467,-0.20489 -2.55242,0.42541 -2.69068,0.44845 -0.13072,0.0218 -2.1468,-0.0716 -2.24223,0 -0.50736,0.38052 -0.77809,1.06172 -1.34534,1.34534 -3.42103,0 0.15321,-0.40111 -1.79378,0.89689 -0.0683,0.0455 -2.51048,0 -2.69068,0 -0.14948,0 -0.34275,-0.1057 -0.44845,0 -0.1057,0.1057 0.1057,0.34274 0,0.44845 -0.1057,0.1057 -0.34274,-0.10571 -0.44844,0 -0.1057,0.1057 0.1057,0.34274 0,0.44844 -0.1057,0.1057 -0.34275,-0.1057 -0.44845,0 -0.1057,0.1057 0.1057,0.34275 0,0.44845 -0.92785,0.92785 0.0363,-1.41788 -0.89689,0.44845 -0.0669,0.13369 0.1057,0.34274 0,0.44844 -0.1057,0.1057 -0.30966,-0.0555 -0.44845,0 -0.62069,0.24828 -1.19585,0.59793 -1.79378,0.89689 z"
       id="path916"
       inkscape:connector-curvature="0" />
    <path
       style="fill:none;fill-rule:evenodd;stroke:#000000;stroke-width:0.26458332px;stroke-linecap:butt;stroke-linejoin:miter;stroke-opacity:1"
       d="m 249.7846,153.04873 c -4.095,4.095 0.81995,0.0256 -4.48446,1.79379 -0.28362,0.0945 0.29316,0.83826 0,0.89689 -1.46579,0.29316 -3.01867,-0.29316 -4.48447,0 -0.29315,0.0586 0.0725,0.60685 0,0.89689 -0.2721,1.08842 -1.35247,1.5874 -1.79378,2.69068 -0.11103,0.27758 0.28362,0.80235 0,0.89689 -0.85087,0.28363 -1.8283,-0.24639 -2.69068,0 -0.32139,0.0918 -0.31678,0.58967 -0.44845,0.8969 -0.31709,0.73989 -0.53689,1.52223 -0.89689,2.24223 -0.0681,0.13619 -1.77626,2.62935 -1.79378,2.69068 -0.16427,0.57492 0.33167,1.29627 0,1.79378 -0.37082,0.55623 -1.49482,0.29897 -1.79379,0.89689 -0.4011,0.80221 0.19457,1.81515 0,2.69068 -0.11691,0.52613 -0.72645,0.83403 -0.89689,1.34534 -0.14181,0.42544 0,0.89689 0,1.34534 0,0.29896 0,0.59793 0,0.89689 0,0.59793 0,1.19586 0,1.79379 0,0.44844 -0.0495,0.89963 0,1.34534 0.10041,0.9037 0.34803,1.78697 0.44845,2.69067 0.0495,0.44571 0,0.8969 0,1.34534 0,1.19586 0,2.39172 0,3.58757 0,0.59793 -0.0846,1.20187 0,1.79379 0.1337,0.93591 0.71148,1.76363 0.89689,2.69068 0.0586,0.29316 -0.16584,0.64814 0,0.89689 0.46905,0.70358 1.37425,1.0596 1.79378,1.79379 0.2225,0.38936 -0.0737,0.90299 0,1.34533 0.0777,0.46628 0.29897,0.8969 0.44845,1.34534 0.14948,0.44845 0.11419,1.01109 0.44845,1.34534 0.76221,0.76222 1.88502,1.07765 2.69067,1.79379 2.0647,1.83528 0.72644,1.5665 2.24224,3.58757 0.0897,0.11958 0.30663,-0.0473 0.44844,0 0.3171,0.1057 0.59793,0.29896 0.89689,0.44844 0.8969,0.44845 1.73022,1.0572 2.69068,1.34534 0.65815,0.7251 1.51714,-0.18127 2.24223,0 0.45859,0.11465 0.87739,0.3816 1.34534,0.44845 0.64093,0.0916 2.81535,0 3.58757,0 0.8969,0 1.8283,0.24639 2.69068,0 0.32139,-0.0918 0.14948,-0.74741 0.44845,-0.89689 0.4011,-0.20056 0.92897,0.16655 1.34534,0 1.73562,-0.69425 0.19916,-1.09606 1.34534,-2.24223 0.2114,-0.2114 0.64053,0.15381 0.89689,0 4.31736,-2.59043 0.66974,-0.44259 1.34534,-1.79379 0.24103,-0.48206 0.69672,-0.84492 0.89689,-1.34534 0.0215,-0.0539 -0.0207,-1.66971 0,-1.79378 0.52096,-3.12574 0.44845,-0.67206 0.44845,-2.69068 0,-0.29897 -0.23918,-0.71752 0,-0.89689 1.0696,-0.80221 2.59378,-0.89938 3.58757,-1.79379 1.32864,-1.19576 0.75376,-3.05318 0.89689,-4.48446 0.10578,-1.05769 0.2866,-2.22368 0.89688,-3.13913 0.54703,-0.82054 0.57174,-0.0447 0.89692,-1.34534 0.0725,-0.29004 0,-0.59793 0,-0.89689 0,-1.04637 0,-2.09275 0,-3.13912 0,-0.44845 0,-0.8969 0,-1.34534 0,-0.59793 0.26738,-1.25898 0,-1.79379 -0.24104,-0.48206 -1.06805,-0.43473 -1.34536,-0.89689 -0.23071,-0.38454 0,-0.89689 0,-1.34534 -0.89689,-1.04637 -1.86378,-2.0366 -2.69067,-3.13912 -0.0897,-0.11959 0,-0.29897 0,-0.44845 0,-0.29897 0,-0.59793 0,-0.89689 0,-0.59793 0,-1.19586 0,-1.79379 0,-0.29896 0.0725,-0.60685 0,-0.89689 -0.0811,-0.32427 -0.34275,-0.57979 -0.44845,-0.89689 -0.15824,-0.47472 0.18355,-1.87514 0,-2.24223 -0.18908,-0.37817 -0.66236,-0.54511 -0.89689,-0.8969 -0.0829,-0.12437 0,-0.29896 0,-0.44844 0,-0.44845 0.0737,-0.903 0,-1.34534 -0.0777,-0.46627 -0.3338,-0.88675 -0.44845,-1.34534 -0.22422,-0.89689 0.44845,0 0,-1.34534 -0.0668,-0.20055 -0.38159,-0.2479 -0.44844,-0.44845 -0.0945,-0.28362 0.1337,-0.62949 0,-0.89689 -0.0668,-0.1337 -0.34275,0.1057 -0.44845,0 -0.1057,-0.1057 0.1057,-0.34275 0,-0.44844 -0.1057,-0.10571 -0.30663,0.0473 -0.44845,0 -0.3171,-0.10571 -0.57979,-0.34275 -0.89689,-0.44845 -0.25301,-0.0843 -1.05066,0 -1.34534,0 -0.14948,0 -0.34274,-0.1057 -0.44844,0 -0.1057,0.1057 0.14658,0.41913 0,0.44845 -0.7329,0.14657 -1.49482,0 -2.24224,0 -0.20196,0 -1.20886,0.0682 -1.34534,0 -0.48206,-0.24104 -0.86327,-0.65587 -1.34533,-0.8969 -0.1337,-0.0668 -0.29897,0 -0.44845,0 -0.44845,-0.44844 -0.89689,-0.89689 -1.34534,-1.34534 z"
       id="path918"
       inkscape:connector-curvature="0" />
  </g>
  <g
     inkscape:groupmode="layer"
     id="layer2"
     inkscape:label="Layer 2"
     style="display:inline">
    <g
       transform="matrix(0.82107735,0,0,0.9631386,29.720345,-4.2409093)"
       id="g1940">
      <g
         id="g1910"
         transform="matrix(0.97380952,0,0,0.76935578,5.3924601,24.281199)">
        <rect
           style="opacity:1;vector-effect:none;fill:#00ffff;fill-opacity:1;stroke:#000000;stroke-width:2;stroke-linecap:round;stroke-linejoin:round;stroke-miterlimit:4;stroke-dasharray:none;stroke-dashoffset:0;stroke-opacity:1;paint-order:markers stroke fill;stop-opacity:1"
           id="rect864"
           width="13.46969"
           height="51.47348"
           x="186.8472"
           y="53.802074"
           rx="0.56671107"
           ry="0.67916423" />
        <ellipse
           style="opacity:1;vector-effect:none;fill:#00ffff;fill-opacity:1;stroke:#000000;stroke-width:2;stroke-linecap:round;stroke-linejoin:round;stroke-miterlimit:4;stroke-dasharray:none;stroke-dashoffset:0;stroke-opacity:1;paint-order:markers stroke fill;stop-opacity:1"
           id="path866"
           cx="193.86743"
           cy="36.969025"
           rx="12.026515"
           ry="12.267044" />
      </g>
      <ellipse
         ry="28.644873"
         rx="28.79566"
         cy="79.999588"
         cx="244.69759"
         id="path868"
         style="opacity:1;vector-effect:none;fill:#00ffff;fill-opacity:1;stroke:#000000;stroke-width:1.70541;stroke-linecap:round;stroke-linejoin:round;stroke-miterlimit:4;stroke-dasharray:none;stroke-dashoffset:0;stroke-opacity:1;paint-order:markers stroke fill;stop-opacity:1" />
      <ellipse
         cy="80.662437"
         cx="245.44925"
         id="path870"
         style="opacity:1;vector-effect:none;fill:#ffffff;fill-opacity:1;stroke:#000000;stroke-width:1.63788;stroke-linecap:round;stroke-linejoin:round;stroke-miterlimit:4;stroke-dasharray:none;stroke-dashoffset:0;stroke-opacity:1;paint-order:markers stroke fill;stop-opacity:1"
         rx="13.367979"
         ry="12.263281" />
      <g
         id="g1906">
        <path
           inkscape:connector-curvature="0"
           id="path876"
           style="opacity:1;vector-effect:none;fill:#00ffff;fill-opacity:1;stroke:#000000;stroke-width:2.23544;stroke-linecap:round;stroke-linejoin:round;stroke-miterlimit:4;stroke-dasharray:none;stroke-dashoffset:0;stroke-opacity:1;paint-order:markers stroke fill;stop-opacity:1"
           d="m 153.04412,66.851563 c 2.89762,1.547394 5.43077,3.328464 7.49828,5.310867 7.80169,7.480546 7.78779,16.6914 -0.0365,24.162924 -7.82426,7.471526 -22.27021,12.068616 -37.89618,12.059596 l 0.0365,-24.162926 0.0365,-24.162924 c 0.22893,1.33e-4 0.4576,0.0013 0.68601,0.0034 m -0.68582,-34.607438 a 43.737691,24.162937 0.00961467 0 1 37.85969,12.10333 43.737691,24.162937 0.00961467 0 1 -0.0365,24.162924 43.737691,24.162937 0.00961467 0 1 -37.89617,12.059594 l 0.0365,-24.162924 z" />
        <path
           style="opacity:1;vector-effect:none;fill:#ffffff;fill-opacity:1;stroke:#000000;stroke-width:2.23549;stroke-linecap:round;stroke-linejoin:round;stroke-miterlimit:4;stroke-dasharray:none;stroke-dashoffset:0;stroke-opacity:1;paint-order:markers stroke fill;stop-opacity:1"
           id="path881"
           sodipodi:type="arc"
           sodipodi:cx="-47.283379"
           sodipodi:cy="136.67603"
           sodipodi:rx="13.282866"
           sodipodi:ry="20.749292"
           sodipodi:start="0"
           sodipodi:end="3.1415927"
           transform="matrix(0.01668852,-0.99986074,0.99997051,0.00767916,0,0)"
           sodipodi:arc-type="slice"
           d="m -34.000513,136.67603 a 13.282866,20.749292 0 0 1 -6.641433,17.96941 13.282866,20.749292 0 0 1 -13.282866,0 13.282866,20.749292 0 0 1 -6.641432,-17.96942 l 13.282865,1e-5 z" />
        <path
           transform="matrix(0.01668852,-0.99986074,0.99997051,0.00767916,0,0)"
           sodipodi:end="3.1415927"
           sodipodi:start="0"
           sodipodi:ry="20.749292"
           sodipodi:rx="13.282866"
           sodipodi:cy="137.27658"
           sodipodi:cx="-83.271996"
           sodipodi:type="arc"
           id="path883"
           style="opacity:1;vector-effect:none;fill:#ffffff;fill-opacity:1;stroke:#000000;stroke-width:2.23549;stroke-linecap:round;stroke-linejoin:round;stroke-miterlimit:4;stroke-dasharray:none;stroke-dashoffset:0;stroke-opacity:1;paint-order:markers stroke fill;stop-opacity:1"
           sodipodi:arc-type="slice"
           d="m -69.98913,137.27658 a 13.282866,20.749292 0 0 1 -6.641433,17.96942 13.282866,20.749292 0 0 1 -13.282866,-1e-5 13.282866,20.749292 0 0 1 -6.641432,-17.96941 l 13.282865,0 z" />
      </g>
      <flowRoot
         transform="matrix(0.41124471,0,0,0.57040317,-7.8825077,-162.57803)"
         style="font-style:normal;font-weight:normal;font-size:96px;font-family:sans-serif;letter-spacing:0px;word-spacing:-0.02px;fill:#00fffe;fill-opacity:1;stroke:url(#linearGradient1948)"
         id="flowRoot16440"
         xml:space="preserve"><flowRegion
           style="font-size:96px;letter-spacing:0px;word-spacing:-0.02px;fill:#00fffe;fill-opacity:1;stroke:url(#linearGradient1944)"
           id="flowRegion16442"><rect
             style="letter-spacing:0px;word-spacing:-0.02000000000000000px;font-size:96.00000120999999353px;fill:#00fffe;fill-opacity:1;stroke:url(#linearGradient1942)"
             y="479.66101"
             x="140.67796"
             height="137.28813"
             width="774.57629"
             id="rect16444" /></flowRegion><flowPara
           style="font-size:96px;fill:#00fffe;fill-opacity:1;stroke:url(#linearGradient1992)"
           id="flowPara16446">consulting</flowPara></flowRoot>      <g
         id="g1919">
        <g
           style="opacity:1;fill:#00ffff;fill-opacity:1;stroke-width:2;stroke-miterlimit:4;stroke-dasharray:none;stop-opacity:1"
           id="g859"
           transform="translate(-0.89689266,79.733804)">
          <path
             id="rect855"
             style="opacity:1;vector-effect:none;fill:#00ffff;fill-opacity:1;stroke:#000000;stroke-width:2;stroke-linecap:square;stroke-linejoin:miter;stroke-miterlimit:4;stroke-dasharray:none;stroke-dashoffset:0;stroke-opacity:1;paint-order:markers stroke fill"
             d="m 77.242939,-30.148719 v 1.129019 55.982845 c 0,0.377994 -0.252753,0.682287 -0.566711,0.682287 H 56.642982 c -0.313958,0 -0.566711,-0.304293 -0.566711,-0.682287 v -56.141754 -0.97011 m 0.287601,-0.654616 H 19.601324 c -0.313957,0 -0.56671,-0.302907 -0.56671,-0.679164 v -22.213642 c 0,-0.376257 0.252753,-0.679164 0.56671,-0.679164 h 90.268106 c 0.31395,0 0.56671,0.302907 0.56671,0.679164 v 22.213642 c 0,0.376257 -0.25277,0.681125 -0.56671,0.679164 -10.936198,-0.0683 -22.077444,-0.177601 -32.696821,-0.182532"
             inkscape:connector-curvature="0" />
        </g>
        <rect
           y="39.057541"
           x="55.615448"
           height="20.788691"
           width="20.609751"
           id="rect1892"
           style="fill:#00fffe;fill-opacity:1;fill-rule:evenodd;stroke:#0097d4;stroke-width:0.223257;stroke-linecap:round;stroke-opacity:0" />
      </g>
    </g>
  </g>
</svg>
