<?xml version="1.0" encoding="UTF-8" standalone="no"?>
<!-- Created with Inkscape (http://www.inkscape.org/) -->

<svg
   width="11in"
   height="8.5in"
   viewBox="0 0 1056 816"
   version="1.1"
   id="svg1"
   inkscape:version="1.3 (0e150ed, 2023-07-21)"
   sodipodi:docname="zine-template2.svg"
   xml:space="preserve"
   xmlns:inkscape="http://www.inkscape.org/namespaces/inkscape"
   xmlns:sodipodi="http://sodipodi.sourceforge.net/DTD/sodipodi-0.dtd"
   xmlns:xlink="http://www.w3.org/1999/xlink"
   xmlns="http://www.w3.org/2000/svg"
   xmlns:svg="http://www.w3.org/2000/svg"
   xmlns:rdf="http://www.w3.org/1999/02/22-rdf-syntax-ns#"
   xmlns:cc="http://creativecommons.org/ns#"
   xmlns:dc="http://purl.org/dc/elements/1.1/"><title
     id="title10">US Letter Zine Template</title><sodipodi:namedview
     id="namedview1"
     pagecolor="#ffffff"
     bordercolor="#000000"
     borderopacity="0.25"
     inkscape:showpageshadow="2"
     inkscape:pageopacity="0.0"
     inkscape:pagecheckerboard="0"
     inkscape:deskcolor="#d1d1d1"
     inkscape:document-units="in"
     inkscape:zoom="0.48195"
     inkscape:cx="1060.276"
     inkscape:cy="449.21672"
     inkscape:window-width="2560"
     inkscape:window-height="1295"
     inkscape:window-x="0"
     inkscape:window-y="32"
     inkscape:window-maximized="1"
     inkscape:current-layer="layer2"
     showgrid="false"><inkscape:page
       x="1103.5806"
       y="-15.161971"
       width="264"
       height="408"
       id="page5"
       margin="5mm"
       bleed="0"
       inkscape:label="Page 1" /><inkscape:page
       x="1377.5806"
       y="-15.161971"
       width="264"
       height="408"
       id="page6"
       margin="5mm"
       bleed="0"
       inkscape:label="Page 2" /><inkscape:page
       x="1651.5806"
       y="-15.161971"
       width="264"
       height="408"
       id="page7"
       margin="5mm"
       bleed="0"
       inkscape:label="Page 3" /><inkscape:page
       x="1925.5806"
       y="-15.161971"
       width="264"
       height="408"
       id="page8"
       margin="5mm"
       bleed="0"
       inkscape:label="Page 4" /><inkscape:page
       x="1103.5806"
       y="423.09164"
       width="264"
       height="408"
       id="page9"
       margin="5mm"
       bleed="0"
       inkscape:label="Page 5" /><inkscape:page
       x="1377.5806"
       y="423.09164"
       width="264"
       height="408"
       id="page10"
       margin="5mm"
       bleed="0"
       inkscape:label="Page 6" /><inkscape:page
       x="1651.5806"
       y="423.09164"
       width="264"
       height="408"
       id="page11"
       margin="5mm"
       bleed="0"
       inkscape:label="Page 7" /><inkscape:page
       x="1925.5806"
       y="423.09164"
       width="264"
       height="408"
       id="page12"
       margin="5mm"
       bleed="0"
       inkscape:label="Page 8" /><inkscape:page
       x="0"
       y="0"
       width="1056"
       height="816"
       id="page1"
       margin="5mm"
       bleed="0"
       inkscape:label="Print Sheet" /></sodipodi:namedview><defs
     id="defs1"><marker
       style="overflow:visible"
       id="Scissors"
       refX="0"
       refY="0"
       orient="auto"
       inkscape:stockid="Scissors"
       markerWidth="0.5"
       markerHeight="0.5"
       viewBox="0 0 1 1"
       inkscape:isstock="true"
       inkscape:collect="always"
       preserveAspectRatio="xMidYMid"><path
         style="fill:context-stroke"
         d="M 9.0898857,-3.6061018 C 8.1198849,-4.7769976 6.3697607,-4.7358294 5.0623558,-4.2327734 l -8.2124046,3.0779029 c -2.3882933,-1.3067135 -4.7482873,-0.9325372 -4.7482873,-1.5687873 0,-0.4973164 0.4566662,-0.3883222 0.3883068,-1.6831941 -0.065635,-1.2432767 -1.3635771,-2.1630796 -2.5903987,-2.0816435 -1.227271,-0.00735 -2.499439,0.9331613 -2.510341,2.2300611 -0.09143,1.3063864 1.007209,2.5196896 2.306764,2.6052316 1.5223406,0.2266616 4.218258,-0.6955566 5.482945,1.57086006 -0.9422847,1.73825774 -2.6140244,1.74307674 -4.1255107,1.65607034 -1.2548743,-0.072235 -2.7620933,0.2873979 -3.3606483,1.5208605 -0.578367,1.1820862 -0.0112,2.8646022 1.316749,3.226412 1.3401912,0.4918277 3.1806689,-0.129711 3.4993722,-1.6707242 0.2456585,-1.187823 -0.5953659,-1.7459574 -0.2725074,-2.1771537 0.2436135,-0.32536 1.7907806,-0.1368452 4.5471053,-1.3748244 L 5.6763468,4.2330688 C 6.8000164,4.5467672 8.1730685,4.5362646 9.1684433,3.4313614 l -9.22008423,-3.48508362 z m -18.3078016,-1.900504 c 1.294559,0.7227998 1.1888392,2.6835702 -0.1564272,3.0632889 -1.2165179,0.423661 -2.7710269,-0.7589694 -2.3831779,-2.0774648 0.227148,-1.0818519 1.653387,-1.480632 2.5396051,-0.9858241 z m 0.056264,8.0173649 c 1.3508301,0.4988648 1.1214429,2.7844356 -0.2522207,3.091609 -0.9110594,0.3163391 -2.2135494,-0.1387976 -2.3056964,-1.2121394 -0.177609,-1.305055 1.356085,-2.4841482 2.5579171,-1.8794696 z"
         transform="scale(0.7)"
         id="path29" /></marker><clipPath
       clipPathUnits="userSpaceOnUse"
       id="clipPath19"><rect
         style="display:inline;opacity:0.4;vector-effect:non-scaling-stroke;fill:#a51d2d;fill-rule:evenodd;stroke:#000000;stroke-width:1;stroke-linecap:round;stroke-dasharray:none;stroke-opacity:1;-inkscape-stroke:hairline;paint-order:stroke markers fill"
         id="rect20"
         width="264"
         height="408"
         x="1103.5806"
         y="-15.161971" /></clipPath><clipPath
       clipPathUnits="userSpaceOnUse"
       id="clipPath20"><rect
         style="display:inline;opacity:0.4;vector-effect:non-scaling-stroke;fill:#a51d2d;fill-rule:evenodd;stroke:#000000;stroke-width:1;stroke-linecap:round;stroke-dasharray:none;stroke-opacity:1;-inkscape-stroke:hairline;paint-order:stroke markers fill"
         id="rect21"
         width="264"
         height="408"
         x="1377.5806"
         y="-15.161971" /></clipPath><clipPath
       clipPathUnits="userSpaceOnUse"
       id="clipPath21"><rect
         style="display:inline;opacity:0.4;vector-effect:non-scaling-stroke;fill:#a51d2d;fill-rule:evenodd;stroke:#000000;stroke-width:1;stroke-linecap:round;stroke-dasharray:none;stroke-opacity:1;-inkscape-stroke:hairline;paint-order:stroke markers fill"
         id="rect22"
         width="264"
         height="408"
         x="1651.5806"
         y="-15.161971" /></clipPath><clipPath
       clipPathUnits="userSpaceOnUse"
       id="clipPath22"><rect
         style="display:inline;opacity:0.4;vector-effect:non-scaling-stroke;fill:#a51d2d;fill-rule:evenodd;stroke:#000000;stroke-width:1;stroke-linecap:round;stroke-dasharray:none;stroke-opacity:1;-inkscape-stroke:hairline;paint-order:stroke markers fill"
         id="rect23"
         width="264"
         height="408"
         x="1925.5806"
         y="-15.161971" /></clipPath><clipPath
       clipPathUnits="userSpaceOnUse"
       id="clipPath23"><rect
         style="display:inline;opacity:0.4;vector-effect:non-scaling-stroke;fill:#a51d2d;fill-rule:evenodd;stroke:#000000;stroke-width:1;stroke-linecap:round;stroke-dasharray:none;stroke-opacity:1;-inkscape-stroke:hairline;paint-order:stroke markers fill"
         id="rect24"
         width="264"
         height="408"
         x="1103.5806"
         y="423.09164" /></clipPath><clipPath
       clipPathUnits="userSpaceOnUse"
       id="clipPath24"><rect
         style="display:inline;opacity:0.4;vector-effect:non-scaling-stroke;fill:#a51d2d;fill-rule:evenodd;stroke:#000000;stroke-width:1;stroke-linecap:round;stroke-dasharray:none;stroke-opacity:1;-inkscape-stroke:hairline;paint-order:stroke markers fill"
         id="rect25"
         width="264"
         height="408"
         x="1377.5806"
         y="423.09164" /></clipPath><clipPath
       clipPathUnits="userSpaceOnUse"
       id="clipPath26"><rect
         style="display:inline;opacity:0.4;vector-effect:non-scaling-stroke;fill:#a51d2d;fill-rule:evenodd;stroke:#000000;stroke-width:1;stroke-linecap:round;stroke-dasharray:none;stroke-opacity:1;-inkscape-stroke:hairline;paint-order:stroke markers fill"
         id="rect26"
         width="264"
         height="408"
         x="1651.5806"
         y="423.09164" /></clipPath><clipPath
       clipPathUnits="userSpaceOnUse"
       id="clipPath27"><rect
         style="display:inline;opacity:0.4;vector-effect:non-scaling-stroke;fill:#a51d2d;fill-rule:evenodd;stroke:#000000;stroke-width:1;stroke-linecap:round;stroke-dasharray:none;stroke-opacity:1;-inkscape-stroke:hairline;paint-order:stroke markers fill"
         id="rect27"
         width="264"
         height="408"
         x="1925.5806"
         y="423.09164" /></clipPath></defs><g
     inkscape:label="Guides (do not print)"
     inkscape:groupmode="layer"
     id="layer1"
     style="display:inline;opacity:0.4"
     transform="translate(37.580503)"
     inkscape:highlight-color="#ff0505"
     sodipodi:insensitive="true"><path
       style="vector-effect:non-scaling-stroke;fill:#26a269;fill-rule:evenodd;stroke:#000000;stroke-width:1;stroke-linecap:round;stroke-dasharray:none;stroke-opacity:1;-inkscape-stroke:hairline;paint-order:stroke markers fill"
       d="M -37.580503,408 H 1018.4195"
       id="path1" /><path
       style="vector-effect:non-scaling-stroke;fill:#26a269;fill-rule:evenodd;stroke:#000000;stroke-width:0.879049;stroke-linecap:round;stroke-dasharray:none;stroke-opacity:1;-inkscape-stroke:hairline;paint-order:stroke markers fill"
       d="M 226.4195,0 V 816"
       id="path2" /><path
       style="vector-effect:non-scaling-stroke;fill:#26a269;fill-rule:evenodd;stroke:#000000;stroke-width:0.879049;stroke-linecap:round;stroke-dasharray:none;stroke-opacity:1;-inkscape-stroke:hairline;paint-order:stroke markers fill"
       d="M 490.4195,0 V 816"
       id="path3" /><path
       style="vector-effect:non-scaling-stroke;fill:#26a269;fill-rule:evenodd;stroke:#000000;stroke-width:0.879049;stroke-linecap:round;stroke-dasharray:none;stroke-opacity:1;-inkscape-stroke:hairline;paint-order:stroke markers fill"
       d="M 754.4195,0 V 816"
       id="path4" /><g
       id="g12" /></g><g
     inkscape:groupmode="layer"
     id="layer4"
     inkscape:label="Clones"
     style="display:inline"
     inkscape:highlight-color="#8a8a8a"
     sodipodi:insensitive="true"><use
       x="0"
       y="0"
       xlink:href="#layer2"
       id="use12"
       inkscape:label="Clone Page 8"
       transform="translate(-1397.5806,-15.091645)"
       clip-path="url(#clipPath27)"
       style="display:inline" /><use
       x="0"
       y="0"
       xlink:href="#layer2"
       id="use26"
       inkscape:label="Clone Page 7"
       transform="translate(-1387.5806,-15.091645)"
       clip-path="url(#clipPath26)" /><use
       x="0"
       y="0"
       xlink:href="#layer2"
       id="use24"
       inkscape:label="Clone Page 6"
       transform="translate(-1377.5806,-15.09164)"
       clip-path="url(#clipPath24)" /><use
       x="0"
       y="0"
       xlink:href="#layer2"
       id="use23"
       inkscape:label="Clone Page 5"
       transform="rotate(180,683.79027,416.14019)"
       clip-path="url(#clipPath23)" /><use
       x="0"
       y="0"
       xlink:href="#layer2"
       id="use22"
       inkscape:label="Clone Page 4"
       transform="rotate(180,1226.7903,196.41901)"
       clip-path="url(#clipPath22)" /><use
       x="0"
       y="0"
       xlink:href="#layer2"
       id="use21"
       inkscape:label="Clone Page 3"
       transform="rotate(180,1221.7903,196.419)"
       clip-path="url(#clipPath21)" /><use
       x="0"
       y="0"
       xlink:href="#layer2"
       id="use20"
       inkscape:label="Clone Page 2"
       transform="rotate(180,1216.7903,197.01339)"
       clip-path="url(#clipPath20)" /><use
       x="0"
       y="0"
       xlink:href="#layer2"
       id="use19"
       inkscape:label="Clone Page 1"
       transform="translate(-311.58056,423.16197)"
       clip-path="url(#clipPath19)" /></g><g
     inkscape:groupmode="layer"
     id="layer2"
     inkscape:label="Design Area"
     style="display:inline"><text
       xml:space="preserve"
       style="font-weight:bold;font-size:130.056px;line-height:1;font-family:'Liberation Sans';-inkscape-font-specification:'Liberation Sans Bold';text-decoration-color:#000000;letter-spacing:0px;word-spacing:0px;display:inline;opacity:0.2;vector-effect:non-scaling-stroke;fill:#5e5c64;fill-rule:evenodd;stroke:none;stroke-width:4.30132;stroke-linecap:round;stroke-dasharray:none;stroke-opacity:1;-inkscape-stroke:hairline;paint-order:stroke markers fill"
       x="1197.1289"
       y="233.57654"
       id="text129"
       inkscape:label="1"><tspan
         sodipodi:role="line"
         id="tspan129"
         x="1197.1289"
         y="233.57654"
         style="stroke-width:4.30132">1</tspan></text><text
       xml:space="preserve"
       style="font-weight:bold;font-size:130.056px;line-height:1;font-family:'Liberation Sans';-inkscape-font-specification:'Liberation Sans Bold';text-decoration-color:#000000;letter-spacing:0px;word-spacing:0px;display:inline;opacity:0.2;vector-effect:non-scaling-stroke;fill:#5e5c64;fill-rule:evenodd;stroke:none;stroke-width:4.30132;stroke-linecap:round;stroke-dasharray:none;stroke-opacity:1;-inkscape-stroke:hairline;paint-order:stroke markers fill"
       x="1473.7644"
       y="234.24332"
       id="text129-8"
       inkscape:label="2"><tspan
         sodipodi:role="line"
         id="tspan129-4"
         x="1473.7644"
         y="234.24332"
         style="stroke-width:4.30132">2</tspan></text><text
       xml:space="preserve"
       style="font-weight:bold;font-size:130.056px;line-height:1;font-family:'Liberation Sans';-inkscape-font-specification:'Liberation Sans Bold';text-decoration-color:#000000;letter-spacing:0px;word-spacing:0px;display:inline;vector-effect:non-scaling-stroke;fill:#5e5c64;fill-rule:evenodd;stroke:none;stroke-width:4.30132;stroke-linecap:round;stroke-dasharray:none;stroke-opacity:1;-inkscape-stroke:hairline;paint-order:stroke markers fill;opacity:0.2"
       x="1747.7644"
       y="234.24332"
       id="text129-8-3"
       inkscape:label="3"><tspan
         sodipodi:role="line"
         id="tspan129-4-0"
         x="1747.7644"
         y="234.24332"
         style="stroke-width:4.30132">3</tspan></text><text
       xml:space="preserve"
       style="font-weight:bold;font-size:130.056px;line-height:1;font-family:'Liberation Sans';-inkscape-font-specification:'Liberation Sans Bold';text-decoration-color:#000000;letter-spacing:0px;word-spacing:0px;display:inline;vector-effect:non-scaling-stroke;fill:#5e5c64;fill-rule:evenodd;stroke:none;stroke-width:4.30132;stroke-linecap:round;stroke-dasharray:none;stroke-opacity:1;-inkscape-stroke:hairline;paint-order:stroke markers fill;opacity:0.2"
       x="2022.2723"
       y="233.51303"
       id="text129-8-3-4"
       inkscape:label="4"><tspan
         sodipodi:role="line"
         id="tspan129-4-0-7"
         x="2022.2723"
         y="233.51303"
         style="stroke-width:4.30132">4</tspan></text><text
       xml:space="preserve"
       style="font-weight:bold;font-size:130.056px;line-height:1;font-family:'Liberation Sans';-inkscape-font-specification:'Liberation Sans Bold';text-decoration-color:#000000;letter-spacing:0px;word-spacing:0px;display:inline;vector-effect:non-scaling-stroke;fill:#5e5c64;fill-rule:evenodd;stroke:none;stroke-width:4.30132;stroke-linecap:round;stroke-dasharray:none;stroke-opacity:1;-inkscape-stroke:hairline;paint-order:stroke markers fill;opacity:0.2"
       x="1198.78"
       y="671.83014"
       id="text129-8-3-4-7"
       inkscape:label="5"><tspan
         sodipodi:role="line"
         id="tspan129-4-0-7-5"
         x="1198.78"
         y="671.83014"
         style="stroke-width:4.30132">5</tspan></text><text
       xml:space="preserve"
       style="font-weight:bold;font-size:130.056px;line-height:1;font-family:'Liberation Sans';-inkscape-font-specification:'Liberation Sans Bold';text-decoration-color:#000000;letter-spacing:0px;word-spacing:0px;display:inline;vector-effect:non-scaling-stroke;fill:#5e5c64;fill-rule:evenodd;stroke:none;stroke-width:4.30132;stroke-linecap:round;stroke-dasharray:none;stroke-opacity:1;-inkscape-stroke:hairline;paint-order:stroke markers fill;opacity:0.2"
       x="1473.2246"
       y="671.19513"
       id="text129-8-3-4-7-1"
       inkscape:label="6"><tspan
         sodipodi:role="line"
         id="tspan129-4-0-7-5-7"
         x="1473.2246"
         y="671.19513"
         style="stroke-width:4.30132">6</tspan></text><text
       xml:space="preserve"
       style="font-weight:bold;font-size:130.056px;line-height:1;font-family:'Liberation Sans';-inkscape-font-specification:'Liberation Sans Bold';text-decoration-color:#000000;letter-spacing:0px;word-spacing:0px;display:inline;vector-effect:non-scaling-stroke;fill:#5e5c64;fill-rule:evenodd;stroke:none;stroke-width:4.30132;stroke-linecap:round;stroke-dasharray:none;stroke-opacity:1;-inkscape-stroke:hairline;paint-order:stroke markers fill;opacity:0.2"
       x="1747.3833"
       y="671.86194"
       id="text129-8-3-4-7-1-4"
       inkscape:label="7"><tspan
         sodipodi:role="line"
         id="tspan129-4-0-7-5-7-1"
         x="1747.3833"
         y="671.86194"
         style="stroke-width:4.30132">7</tspan></text><text
       xml:space="preserve"
       style="font-weight:bold;font-size:130.056px;line-height:1;font-family:'Liberation Sans';-inkscape-font-specification:'Liberation Sans Bold';text-decoration-color:#000000;letter-spacing:0px;word-spacing:0px;display:inline;vector-effect:non-scaling-stroke;fill:#5e5c64;fill-rule:evenodd;stroke:none;stroke-width:4.30132;stroke-linecap:round;stroke-dasharray:none;stroke-opacity:1;-inkscape-stroke:hairline;paint-order:stroke markers fill;opacity:0.2"
       x="2022.4117"
       y="667.47699"
       id="text129-8-3-4-7-1-4-7"
       inkscape:label="8"><tspan
         sodipodi:role="line"
         id="tspan129-4-0-7-5-7-1-5"
         x="2022.4117"
         y="667.47699"
         style="stroke-width:4.30132">8</tspan></text><path
       style="fill:#000000"
       id="path5"
       d="m 1136.2787,69.84945 c 0.3274,6.586856 1.4332,13.078868 2.8008,19.518321 2.1464,8.825113 5.2259,17.381839 8.0884,25.990999 1.3414,3.66066 2.5306,7.36709 3.5758,11.12112 0.7625,2.41086 1.425,4.85053 2.1279,7.27931 0.7158,2.70529 1.513,5.38834 2.0898,8.12796 0.2415,0.94929 0.2738,1.93539 0.5374,2.87598 0.3554,1.44339 0.5088,2.94203 0.4734,4.42685 0,0 13.2117,6.81104 13.2117,6.81104 v 0 c 0.1066,-1.59086 -0.1048,-3.16831 -0.2181,-4.75564 -0.034,-0.18942 -0.069,-0.37883 -0.103,-0.56825 -0.051,-0.10406 -0.1261,-0.1994 -0.1522,-0.31218 -0.1539,-0.66313 -0.032,-1.41223 -0.3521,-2.04927 -0.7574,-2.76541 -1.5995,-5.5067 -2.3039,-8.28529 -0.6485,-2.4153 -1.1185,-4.87547 -1.932,-7.24001 -1.3556,-3.85579 -2.6445,-7.737 -4.27,-11.49554 -3.1131,-8.54258 -6.3049,-17.09861 -8.4298,-25.950958 -1.2297,-6.145979 -2.3338,-12.419548 -1.837,-18.714151 z" /><path
       style="fill:#000000"
       id="path6"
       d="m 1137.9426,69.471346 c 3.0143,4.526561 6.3445,8.8294 9.6068,13.177018 2.4331,3.297545 4.7115,6.706646 6.9685,10.126125 0.9567,1.50455 1.8104,3.089488 2.4989,4.735777 0.3334,0.816519 0.7278,1.654629 1.2922,2.341102 0.3678,0.527402 0.6535,1.233362 1.136,1.674632 0.7352,1.75361 1.9043,3.33541 2.9853,4.89326 1.5736,2.26502 3.1771,4.50754 4.5884,6.87894 2.4028,6.25759 10.2887,8.71698 16.6876,9.67086 3.5759,0.50185 7.1431,1.06343 10.7112,1.61735 0.1893,0.0404 0.3786,0.0808 0.5679,0.12125 0,0 -11.9712,-8.96837 -11.9712,-8.96837 v 0 c -0.1647,-0.0118 -0.3295,-0.0236 -0.4942,-0.0354 -3.4856,-0.36132 -6.9666,-0.81187 -10.4033,-1.50465 -6.5843,-1.58659 -1.6846,-0.6126 9.7903,6.47028 0.1545,0.0953 -0.3681,0.0356 -0.5444,-0.008 -0.5115,-0.12557 -0.4766,-0.98121 -0.7715,-1.29967 -1.3345,-2.51741 -3.2292,-4.696 -4.7698,-7.08422 -0.5099,-0.79786 -1.1008,-1.54394 -1.5808,-2.36012 -0.3962,-0.67359 -0.6146,-1.4578 -1.1646,-2.04225 -0.071,-0.69624 -0.5761,-1.45007 -1.0722,-1.91585 -0.3179,-0.79788 -0.9827,-1.45702 -1.4296,-2.18808 -0.6988,-1.76717 -1.617,-3.44157 -2.5591,-5.089011 -2.3652,-3.539877 -4.9812,-6.916077 -7.4138,-10.409707 -3.1201,-4.162661 -6.4017,-8.240392 -9.043,-12.732235 z" /><path
       style="fill:#000000"
       id="path7"
       d="m 1195.0683,122.35096 c -0.3657,-4.75119 -0.3105,-9.52499 -0.2377,-14.28618 0.059,-3.72405 0.1258,-7.44245 0.4205,-11.156284 0.6173,-5.426577 2.1061,-10.734441 3.7834,-15.920921 0.7311,-2.270194 1.5241,-4.520365 2.1245,-6.829503 0.334,-1.812129 1.0592,-3.513114 1.601,-5.264737 0.168,-0.398272 0.3507,-0.789676 0.539,-1.178605 0,0 -13.0561,-7.371081 -13.0561,-7.371081 v 0 c -0.2018,0.471762 -0.4117,0.939956 -0.6077,1.414199 -0.4224,1.79245 -1.0561,3.525734 -1.4755,5.318724 -0.706,2.304666 -1.2417,4.645359 -1.8133,6.986612 -1.3937,5.359579 -2.8996,10.704156 -3.9281,16.147247 -0.442,3.764861 -0.6688,7.525417 -0.4194,11.316229 0.071,4.68008 0.1389,9.37477 -0.2377,14.04401 z" /><path
       style="fill:#000000"
       id="path8"
       d="m 1190.5643,60.312789 c 0.1789,4.255765 0.2043,8.495172 0.677,12.732136 0.8518,7.274843 2.8473,14.332779 4.707,21.39517 1.5172,5.552731 2.9136,11.137075 4.4379,16.687805 1.4271,4.48409 2.9713,8.92716 4.3851,13.41628 1.0509,3.4576 2.3746,6.82167 3.603,10.21767 0.5905,1.64903 1.3089,3.24094 2.1018,4.80012 0.9528,1.69116 1.8517,3.4086 2.849,5.07487 0.8076,1.31703 0.4139,0.68158 1.1799,1.90702 0,0 13.5556,5.94822 13.5556,5.94822 v 0 c -0.8157,-1.20321 -0.4048,-0.58367 -1.231,-1.85978 -0.9582,-1.63924 -1.9106,-3.27675 -2.743,-4.9833 -0.9123,-1.50264 -1.6377,-3.10424 -2.4009,-4.68743 -1.2852,-3.4139 -2.7333,-6.76867 -3.8363,-10.24923 -1.4181,-4.49571 -2.9681,-8.94251 -4.4845,-13.40528 -1.5544,-5.62004 -3.1767,-11.22076 -4.7675,-16.83046 -1.8648,-6.954375 -3.8905,-13.919467 -4.6343,-21.104858 -0.3396,-4.089852 -0.4019,-8.182133 -0.092,-12.278662 z" /><path
       style="fill:#000000"
       id="path9"
       d="m 1224.5386,65.100772 c 2.8182,3.094043 5.5763,6.242407 8.2612,9.452653 1.5665,1.788507 2.7937,3.843363 4.3014,5.675085 0.2369,0.472962 0.7364,0.605047 1.099,0.920905 0.5382,0.468848 0.8566,1.1223 1.2293,1.712728 1.9196,3.474766 3.8274,6.955721 5.7598,10.42339 1.2565,2.31425 2.8745,4.394372 4.3382,6.575026 4.3832,6.473571 0.071,1.662861 14.7598,10.139471 4.4304,-5.87324 8.195,-12.24037 12.1419,-18.442872 7.8212,-12.530915 16.0322,-24.805674 24.2698,-37.063958 2.7898,-4.082592 5.7122,-8.100005 7.8725,-12.563645 0,0 -12.8724,-7.238088 -12.8724,-7.238088 v 0 c -1.754,4.561304 -4.1777,8.811344 -6.6849,12.995322 -7.4849,12.701171 -15.3048,25.222113 -23.7158,37.332373 -4.5198,6.195462 -3.6199,5.140373 -8.018,10.568292 -0.5629,0.694752 -3.7617,4.828466 -4.8357,5.458966 -0.089,0.052 -0.012,-0.20519 -0.019,-0.30778 4.2185,2.46601 8.437,4.93201 12.6556,7.39802 -0.1848,-0.10367 -0.5441,-0.28913 -0.6807,-0.44186 -0.5127,-0.57339 -0.7628,-1.38503 -1.2865,-1.95289 -1.636,-2.09439 -3.1044,-4.33947 -4.6122,-6.5278 -2.0085,-3.374586 -3.9449,-6.801341 -5.6316,-10.348396 -0.3093,-0.630478 -0.6796,-1.791685 -1.0969,-2.377628 -0.2075,-0.291472 -0.6332,-0.284154 -0.8626,-0.552535 -1.9551,-1.565835 -3.1217,-3.891396 -4.7913,-5.731725 -2.6228,-3.08714 -5.289,-6.136623 -7.855,-9.271158 z" /><path
       style="fill:#000000"
       id="path10"
       d="m 1249.985,103.59456 c 0.2513,4.1271 0.247,8.26491 0.2591,12.39808 -0.1123,4.5953 -0.01,9.15089 0.8071,13.67846 0.4313,2.51142 1.5063,4.80413 2.4731,7.13523 1.1249,2.72394 1.8305,5.59287 2.8137,8.36771 0.5977,1.74047 1.4358,3.38626 2.0234,5.12971 0.2267,0.57678 0.3051,1.18056 0.3974,1.78678 0.181,1.23719 0.4015,2.46617 0.5512,3.71007 0,0 13.3439,6.60855 13.3439,6.60855 v 0 c -0.1284,-1.17814 -0.2415,-2.3744 -0.4941,-3.52965 0.061,-0.746 -0.056,-1.51446 -0.2793,-2.22584 -0.5982,-1.81878 -1.47,-3.51193 -2.192,-5.28188 -1.1273,-2.72367 -1.8601,-5.58191 -2.772,-8.38029 -0.9217,-2.31912 -2.048,-4.54913 -2.7247,-6.96041 -0.2786,-1.18229 -0.5943,-2.4317 -0.7834,-3.63029 -0.5166,-3.27502 -0.3803,-6.59024 -0.3754,-9.8919 0.012,-4.04506 0,-8.09544 0.2591,-12.13404 z" /><path
       style="fill:#000000"
       id="path11"
       d="m 1170.099,203.94244 c -2.3995,0.0895 -4.8013,0.0789 -7.2019,0.069 -2.2742,-0.0175 -4.5485,-0.0126 -6.8227,-0.0251 -1.6398,0.10813 -3.022,0.77677 -4.2896,1.78077 -2.7587,2.30932 -4.8935,5.22097 -6.9697,8.12975 -2.7817,3.72278 -4.879,7.84131 -6.3181,12.24746 -1.1927,3.97597 -1.2774,8.11875 -1.0132,12.22541 0.2383,4.16387 1.8278,7.89697 3.7246,11.53738 1.875,3.45807 4.2922,6.54503 7.2143,9.16568 6.5877,4.44073 14.1416,10.46753 22.5872,10.75759 0.8473,0.0291 1.6946,-0.0577 2.5419,-0.0865 4.6121,-0.78491 9.0246,-2.51534 13.0133,-4.94326 1.7383,-1.19672 2.9563,-2.87878 3.7099,-4.82844 0,0 -13.0611,-7.21435 -13.0611,-7.21435 v 0 c -0.5024,1.68378 -1.5197,3.07978 -2.9487,4.11422 -3.7303,2.38661 -7.8961,4.07045 -12.3445,4.42228 -2.4569,-0.0846 -4.6783,-0.32027 -7.0096,-1.16667 -0.671,-0.24363 -2.5729,-1.22498 -1.9668,-0.84773 2.9378,1.82856 15.4678,9.08189 8.9564,5.24883 -1.0257,-0.82569 -1.9199,-1.48865 -2.8308,-2.44302 -1.781,-1.86606 -3.2378,-4.04875 -4.604,-6.22339 -1.9028,-3.47572 -3.6904,-7.00498 -4.0502,-11.02472 -0.3366,-3.92432 -0.1794,-7.87262 0.8255,-11.70182 1.3017,-4.2928 3.1662,-8.34694 5.9375,-11.90976 2.1055,-2.72433 4.2848,-5.47695 7.1395,-7.46054 1.1691,-0.67398 2.365,-1.11285 3.7392,-1.07303 2.2512,-0.0126 4.5024,-0.007 6.7536,-0.0251 2.464,-0.0104 4.9288,-0.0174 7.3917,0.069 z" /><path
       style="fill:#000000"
       id="path12"
       d="m 1196.4603,251.61655 c 6.0434,-0.32981 12.0998,-0.30764 18.1502,-0.30191 3.1281,0.0762 6.2569,0.007 9.383,-0.10664 1.5092,-0.055 2.9789,-0.07 4.4597,-0.36087 1.3791,-0.30236 1.7235,-1.72023 2.3977,-2.78975 0.7136,-1.13201 1.4933,-2.22092 2.2383,-3.33254 3.5622,-4.83507 6.5519,-10.00346 8.8154,-15.56134 1.5812,-4.15481 2.6671,-8.34617 2.2809,-12.80361 -0.6787,-3.44507 -3.1836,-5.96999 -5.7215,-8.21285 -6.5987,-4.74659 -13.4601,-9.52643 -21.1785,-12.19795 -2.4835,-0.73535 -5.0702,-0.7512 -7.6351,-0.79166 -2.3696,0.2149 -4.7255,0.78431 -6.8775,1.80788 -1.5933,1.05676 -3.1816,2.12273 -4.7933,3.1556 -2.4893,1.69829 -4.9252,3.48089 -7.3316,5.29561 -1.8805,1.47581 -3.7747,2.9622 -5.2379,4.86671 -1.2408,1.87645 -2.259,3.91704 -3.1584,5.97966 -0.7042,1.67474 -1.0402,3.44804 -1.1703,5.24964 -0.083,1.49387 -0.045,2.99034 -0.065,4.48545 -0.017,1.10453 0,2.20884 0.01,3.31338 -0.029,1.19044 -0.026,2.36079 0.2469,3.52452 0.364,1.41601 1.12,2.72365 2.0186,3.86646 1.185,1.36408 2.6628,2.42132 4.055,3.55842 4.71,4.08804 9.6483,8.1149 15.8873,8.45795 1.146,-0.25555 1.1837,0.4039 1.9685,0.78805 5.8828,1.24734 -17.1578,-9.11683 -11.9611,-7.19262 0,0 13.6602,6.27157 13.6602,6.27157 v 0 c -0.3582,-5.49263 -9.2648,-5.14771 -13.3931,-8.51256 -0.6934,-0.42727 -1.5101,-0.0878 -2.2779,-0.28916 -0.409,-0.0757 -0.6011,-0.0895 -0.9942,-0.25547 -0.1544,-0.0652 -0.5883,-0.32126 -0.4434,-0.23702 22.833,13.27694 15.3895,9.41641 11.3655,6.52495 -1.3789,-1.11686 -2.8176,-2.16669 -4.1409,-3.34502 -0.9633,-0.92387 -1.6863,-1.95054 -2.2576,-3.1602 -0.2671,-1.07941 -0.5814,-2.07937 -0.4202,-3.21889 0.01,-1.10948 0.013,-2.21862 -0.021,-3.32775 -0.037,-1.4718 -0.036,-2.94502 -0.01,-4.41698 0.069,-1.65027 0.242,-3.29833 0.8387,-4.85434 0.7993,-1.9776 1.8236,-3.86579 3.0208,-5.63132 1.3477,-1.80951 3.1688,-3.17969 4.8982,-4.60541 2.3654,-1.8234 4.7686,-3.62037 7.3524,-5.12518 1.5795,-0.97555 3.105,-2.04056 4.7186,-2.95283 2.0424,-0.84228 4.2049,-1.37063 6.4288,-1.32223 2.4701,0.0768 4.9538,0.25354 7.2842,1.15305 0.9104,0.37877 3.5328,1.74571 2.6842,1.2434 -3.65,-2.16064 -7.3345,-4.2626 -11.0018,-6.39389 0.514,0.31273 1.0325,0.61817 1.5419,0.93821 0.4943,0.31048 0.9828,0.6301 1.4689,0.95314 0.4578,0.30419 0.9084,0.61896 1.3626,0.92844 2.4936,1.93308 5.0294,4.17756 6.1428,7.20808 0.8031,4.26446 -0.1832,8.27482 -1.5931,12.32266 -0.8413,2.12965 -1.2106,3.2119 -2.2575,5.26209 -1.805,3.53475 -4.0903,6.79261 -6.5332,9.91005 -0.8395,1.08125 -1.6949,2.15005 -2.5306,3.23428 -0.3794,0.49238 -0.674,1.05411 -1.104,1.50303 -0.1773,0.18512 -0.6187,0.004 -0.7324,0.23453 -4.2659,0.7457 -8.6469,0.69472 -12.9591,0.77122 -6.3276,0.006 -12.6596,0.0111 -18.9812,-0.30191 z" /><path
       style="fill:#000000"
       id="path13"
       d="m 1242.6491,196.76041 c 0.1246,2.07604 0.022,4.15584 0.064,6.23307 0.3705,5.08844 1.0899,10.14084 1.5909,15.21648 0.3222,3.13613 0.2971,6.30076 0.7833,9.41908 0.5846,2.14437 0.5998,4.37858 0.7632,6.58639 0.2301,2.90458 0.3337,5.81664 0.4195,8.72831 0,0 13.0132,6.55054 13.0132,6.55054 v 0 c -0.1988,-2.92337 -0.4166,-5.8465 -0.5107,-8.77569 -0.068,-2.78735 -0.069,-1.3426 -0.01,-3.79991 0.016,-0.66521 0.097,-1.33179 0.05,-1.99558 -0.015,-0.21588 -0.2171,-0.65908 -0.2909,-0.83944 -0.9971,-3.087 -1.0101,-6.35217 -1.4714,-9.54167 -0.5218,-4.93304 -1.1368,-9.8661 -1.1585,-14.83338 0.042,-2.0555 -0.062,-4.11369 0.064,-6.16791 z" /><path
       style="fill:#000000"
       id="path14"
       d="m 1244.3815,204.51991 c 3.4925,2.86158 6.7666,5.98469 9.8346,9.29477 2.059,2.31989 3.8774,4.85318 5.309,7.60629 2.6263,5.43112 -9.3037,-0.43705 13.9819,6.49441 0.4796,0.14275 0.1125,-0.99446 0.1572,-1.49282 0.045,-0.50457 0.3267,-4.2288 0.3499,-4.53356 0.3167,-5.57985 1.3044,-11.07102 2.6093,-16.49471 0.6778,-2.08206 0.8182,-4.28907 1.3268,-6.4039 -0.1697,0.35337 0.2867,-0.72639 0.2432,-0.5353 -1.2725,5.58997 -9.4467,-4.42963 -13.0569,-6.38541 -0.1482,-0.0803 0.2807,0.1959 0.3839,0.32919 0.2292,0.29608 0.4027,0.63135 0.6041,0.94703 3.0259,4.51115 5.0262,9.5514 6.9176,14.61113 2.4945,6.98966 4.6661,14.08438 6.7819,21.19551 1.3587,4.32387 2.543,8.70928 3.3648,13.1681 0.2501,1.51755 0.4016,3.04695 0.4852,4.58171 0,0 13.3209,6.63709 13.3209,6.63709 v 0 c -0.1998,-1.61899 -0.4065,-3.23849 -0.711,-4.84183 -0.832,-4.59501 -2.1537,-9.0798 -3.6549,-13.49896 -2.299,-7.11189 -4.5019,-14.25467 -6.9164,-21.32904 -0.7889,-2.26822 -1.4875,-4.56897 -2.3455,-6.81195 -1.0198,-2.66572 -2.3878,-5.18826 -3.7103,-7.71024 -0.1592,-0.28847 -0.3467,-0.56299 -0.4775,-0.8654 -0.087,-0.20088 0.016,-0.52042 -0.1708,-0.63394 -3.097,-1.87912 -12.1088,-12.35042 -14.2091,-5.94713 -0.5058,2.17088 -0.3308,4.49221 -0.9408,6.65797 -0.966,5.54212 -2.0091,11.07396 -2.6024,16.67307 -0.3378,2.83554 -0.177,1.76639 -0.6001,4.34201 -0.07,0.42735 -0.577,1.04211 -0.2159,1.28115 4.2069,2.78476 8.8371,4.8703 13.2373,7.33833 0.09,0.0502 -0.2294,-0.003 -0.2973,-0.0804 -0.1493,-0.16928 -0.2042,-0.4026 -0.3063,-0.60391 -1.5747,-2.89664 -3.4309,-5.62874 -5.5888,-8.12675 -2.9269,-3.25921 -6.0988,-6.26546 -9.2739,-9.2804 z" /><path
       style="fill:#000000"
       id="path15"
       d="m 1291.0777,191.71897 c 0.2183,4.01967 0.2177,8.04972 0.2278,12.07459 0.1251,4.79637 0.8127,9.57515 1.9099,14.24271 0.4648,1.79469 0.9754,3.57376 1.6252,5.30973 0.8732,2.18146 1.6438,4.41053 2.2499,6.68149 0,0 13.3896,6.36846 13.3896,6.36846 v 0 c -0.6657,-2.28007 -1.4288,-4.52666 -2.1651,-6.7833 -0.6621,-1.75755 -1.2683,-3.53671 -1.9236,-5.29751 -1.3981,-4.52256 -2.2436,-9.24355 -2.2578,-13.98536 0.01,-3.94737 0.01,-7.90057 0.2279,-11.84239 z" /><path
       style="fill:#000000"
       id="path16"
       d="m 1327.235,192.57329 c -2.6376,-1.00627 -5.387,-1.65054 -8.1246,-2.33359 -1.7451,-0.36777 -3.4732,-0.83838 -5.2513,-1.01244 -0.964,-0.0501 -1.6181,0.67301 -2.0251,1.46031 -0.2506,1.21576 -0.6555,2.37655 -1.0506,3.5562 -0.7306,1.848 -1.3832,3.72347 -1.8173,5.66415 -0.3351,1.90615 -0.2329,3.85767 -0.2392,5.78488 -0.024,2.32854 0.01,4.63996 0.2754,6.95392 0.3675,1.82109 0.7114,3.65225 1.1572,5.45699 0.515,2.25615 1.3142,4.42206 2.1083,6.59004 0.8712,2.40463 2.0566,4.66379 3.5866,6.70974 4.4048,4.81979 10.9989,9.22767 16.947,10.63566 0.9092,0.14689 1.518,0.41355 2.2485,-0.23178 1.4773,-1.33067 3.1198,-2.45945 4.7581,-3.58196 1.7053,-0.94793 3.3146,-1.93835 4.3751,-3.60264 0.6521,-1.11485 0.4717,-2.1842 0.2098,-3.37207 -0.034,-0.55959 -0.3183,-1.16035 -0.2035,-1.72194 0,0 -13.6376,-6.45472 -13.6376,-6.45472 v 0 c 0.3216,0.0616 0.2556,1.39347 0.4001,1.64534 0.064,0.3897 0.105,0.71107 0.2078,1.08995 0.057,0.20946 0.2362,0.38001 0.2638,0.5953 0.019,0.14661 -0.1392,0.59468 -0.1784,0.71929 -0.824,1.49879 -2.4794,2.2458 -3.8291,3.19503 -1.5816,1.09911 -3.1846,2.25604 -4.8876,3.13855 -0.047,-0.37981 -1.1895,-0.36402 -1.489,-0.63179 -4.6792,-2.60717 1.7625,0.97843 11.6663,6.77391 0.2398,0.14032 -0.5085,-0.2272 -0.7467,-0.37028 -0.9296,-0.55845 -1.7684,-1.28701 -2.5208,-2.06093 -1.7037,-1.79571 -2.883,-3.9544 -3.8072,-6.24369 -0.7646,-2.11082 -1.5869,-4.19821 -2.1013,-6.38896 -0.3885,-1.78028 -0.7672,-3.56424 -1.2249,-5.32915 -0.3337,-2.2609 -0.576,-4.50869 -0.414,-6.8016 0,-1.82859 0.013,-3.6643 0.2173,-5.48351 0.3014,-1.90353 0.8467,-3.74718 1.6278,-5.51197 0.4053,-1.07727 1.0928,-2.15901 1.1928,-3.30841 0.055,-0.19617 0.6933,0.0685 0.9509,0.0787 1.6383,0.23393 3.2606,0.58413 4.87,0.96503 2.8125,0.72143 5.5935,1.52257 8.2933,2.60189 z" /><path
       style="fill:#000000"
       id="path17"
       d="m 1462.7143,102.03369 c 0.1817,3.72966 0.8746,7.41264 1.5563,11.07716 0.5925,3.06348 1.4652,6.0583 2.2761,9.06772 0.4143,1.90223 0.8117,3.78456 1.3676,5.653 1.7151,5.2942 2.955,10.71715 3.8104,16.21181 0.07,0.51966 0.1389,1.03932 0.2083,1.55899 0,0 13.1491,6.42358 13.1491,6.42358 v 0 c -0.1116,-0.54671 -0.2233,-1.09343 -0.3349,-1.64014 -1.1317,-5.45407 -2.3713,-10.88176 -3.7132,-16.28826 -0.4114,-1.84956 -0.6051,-3.7335 -1.1036,-5.55976 -0.9021,-3.03038 -2.0102,-5.99968 -2.6552,-9.10439 -0.6711,-3.4839 -1.4447,-7.04327 -1.2305,-10.60754 z" /><path
       style="fill:#000000"
       id="path18"
       d="m 1508.9537,97.085945 c 0.2325,3.831595 0.2018,7.674645 0.1811,11.511645 -0.1428,3.80117 0.3408,7.57636 0.7828,11.34155 0.2668,2.24612 0.4119,4.50578 0.4519,6.767 -0.1102,1.01546 0.2713,1.83804 0.7254,2.72129 0.9506,2.16352 1.8041,4.38189 2.6492,6.59251 0.3009,0.82783 0.5587,1.67008 0.7923,2.51903 0,0 13.5604,6.40338 13.5604,6.40338 v 0 c -0.3088,-0.90332 -0.6319,-1.80163 -0.9631,-2.69695 -0.8259,-2.22378 -1.9103,-4.35783 -2.4309,-6.68621 -0.2275,-0.4334 -0.4153,-0.8144 -0.6038,-1.25262 -0.071,-0.16525 -0.2948,-0.23641 -0.356,-0.40555 -0.055,-0.15209 -0.025,-0.3225 -0.038,-0.48374 -0.1881,-2.34136 -0.4568,-4.6752 -0.7037,-7.011 -0.474,-3.7271 -1.0422,-7.45402 -0.9449,-11.2248 -0.02,-3.77536 -0.056,-7.55753 0.1811,-11.32712 z" /><path
       style="fill:#000000"
       id="path19"
       d="m 1558.9522,149.06058 c 5.8112,1.081 11.0824,3.95803 16.1252,6.91489 -17.1174,-10.19066 -7.1927,-4.02466 -3.633,-1.21844 1.3293,1.04786 2.5487,2.15581 3.7119,3.37995 0.4483,0.19511 0.5014,0.78591 0.8677,1.05742 0.073,0.0539 0.5755,-0.32903 0.1556,-0.41838 -0.2712,-0.0577 -0.5416,0.11889 -0.8114,0.18271 -0.5564,0.13161 -1.1115,0.26904 -1.6672,0.40357 -3.9757,0.86375 -8.1169,0.90303 -12.0587,1.91604 -0.2335,0.2597 -0.5985,0.4451 -0.7006,0.77911 -0.644,2.1062 1.9167,3.64372 3.202,4.76205 1.9516,1.69808 3.9305,3.36449 5.8906,5.05267 5.7234,4.91838 10.9259,10.40089 15.4938,16.40327 0.3206,0.46372 1.2888,1.69028 1.4559,2.41784 0.079,0.34566 -0.6165,0.29126 -1.381,0.3873 -4.1524,0.5217 -1.6807,0.29704 -6.7887,0.5388 -4.6425,0.0155 -9.2811,-0.16969 -13.9019,-0.6203 -2.0402,-0.19896 -4.0609,-0.6313 -6.1095,-0.70173 -0.5052,-0.0174 -1.0059,0.10128 -1.5089,0.15192 -0.2005,0.55591 -0.7243,1.08964 -0.6016,1.66773 0.3222,1.51747 3.3232,3.37917 4.1517,3.96552 4.1348,2.92666 8.4356,5.63465 12.6746,8.40585 3.5575,2.42144 7.1377,4.80999 10.6194,7.34048 0.9653,0.70159 2.8125,1.80056 3.4618,2.97807 -0.1443,-0.0374 -0.284,-0.11891 -0.4329,-0.11234 -1.0919,0.0482 -2.1674,0.29656 -3.2578,0.37207 -1.8338,0.12699 -3.6678,0.0957 -5.5022,0.20832 -3.167,0.36984 -3.2683,2.05468 -2.8294,4.76834 0.1075,0.62175 0.3691,1.72164 0.208,2.37576 -0.7589,3.0809 -7.1344,3.76583 -9.338,4.23789 -9.3509,1.1695 -18.7999,0.001 -27.5845,-3.41722 -1.3208,-0.51403 -2.5857,-1.16176 -3.8786,-1.74263 -11.3047,-6.33831 13.1837,8.18786 5.6012,3.10466 0,0 -13.5713,-5.31647 -13.5713,-5.31647 v 0 c 6.0101,4.05393 12.2714,7.78344 18.8608,10.8125 1.2611,0.5027 2.4997,1.06588 3.7833,1.50809 9.0076,3.1034 18.5675,3.91028 28.0147,2.88075 3.6434,-0.64942 9.6532,-0.99055 11.1908,-5.2936 0.3462,-0.96886 0.1358,-1.69803 -5e-4,-2.64753 -0.049,-0.30007 -0.2243,-1.43054 -0.3144,-1.80292 -0.029,-0.1204 -0.1333,-0.22643 -0.1248,-0.35001 0.038,-0.55399 1.7705,-0.4345 1.9016,-0.57992 2.3099,-0.17058 7.4861,-0.0574 9.3209,-1.14035 0.514,-0.30335 0.8452,-0.84289 1.2678,-1.26433 0,-0.45891 0.2016,-0.96622 0,-1.37673 -0.4399,-0.88024 -3.2569,-2.72757 -3.7116,-3.05005 -3.6572,-2.59378 -7.4118,-5.04125 -11.1048,-7.5832 -2.771,-1.82281 -5.864,-3.8444 -8.6204,-5.70687 -1.1681,-0.7892 -2.3336,-1.58225 -3.4866,-2.39337 -0.7389,-0.51987 -2.7361,-2.22923 -3.9699,-2.5176 -0.2402,-0.0562 -0.4752,0.13285 -0.7128,0.19928 2.2282,-0.26489 4.5124,0.0888 6.7401,0.22676 4.6611,0.28859 9.3278,0.45659 13.9976,0.51722 1.941,-0.033 10.09,0.67072 10.3294,-2.84394 0.06,-0.88147 -1.2534,-2.42729 -1.6144,-2.9357 -4.8373,-6.01619 -10.0938,-11.68289 -15.8482,-16.83816 -1.8247,-1.62539 -3.6639,-3.23459 -5.4843,-4.86473 -0.094,-0.0844 -2.4322,-2.30749 -2.937,-2.52769 -0.5936,-0.25899 -0.9261,0.33084 -0.6736,-0.0632 3.872,-1.05855 7.9106,-1.30048 11.8541,-1.98326 1.0477,-0.21156 4.471,-0.59023 4.0638,-2.53657 -0.1115,-0.53293 -0.8863,-0.78915 -0.9821,-1.30519 -6.6822,-7.31014 -16.3634,-11.47137 -24.4954,-16.60762 -5.4284,-3.04152 -11.0709,-5.94226 -17.253,-7.06819 z" /><path
       style="fill:#000000"
       id="path20"
       d="m 1425.2106,148.68273 c -1.4011,4.45571 -2.1664,9.08259 -3.0085,13.66771 -1.4896,9.46424 -4.3032,18.62494 -7.4325,27.65521 -1.8373,4.88175 -3.5309,9.82813 -5.6405,14.60185 -1.642,3.42879 -3.9247,6.48558 -5.8048,9.77558 -1.6831,5.74559 -0.8743,1.92584 12.8044,9.05098 0.4296,0.22376 0.8518,-0.46135 1.2794,-0.68896 1.5692,-0.8354 3.1548,-1.60481 4.7739,-2.33824 5.8898,-2.62898 7.9309,1.50443 -10.1501,-7.39631 -0.1503,-0.074 0.2084,0.30708 0.1747,0.47115 -0.162,0.78858 -1.5296,3.83874 -1.7056,4.2487 -1.2011,2.85046 -2.5605,5.6299 -3.7582,8.48186 -0.5176,1.23255 -1.3133,2.84434 -1.2518,4.27177 0.024,0.5535 0.3193,1.061 0.479,1.5915 4.9887,2.38049 9.6719,5.55229 14.966,7.14146 1.3133,0.3942 2.5656,-0.97004 3.8305,-1.49923 6.0235,-2.51996 11.8827,-5.44162 17.7856,-8.22707 0.045,-0.0185 3.9556,-1.85173 4.8244,-1.63832 0.3188,0.0783 0.6488,1.06694 0.3561,0.91821 -4.318,-2.19445 -8.1905,-5.25592 -12.6432,-7.16253 -0.496,-0.21238 -0.523,0.94434 -0.8063,1.40351 -0.361,0.58506 -0.7506,1.15198 -1.1259,1.72797 -4.3443,6.54681 -0.7501,5.6673 11.6099,11.37649 0.8161,0.37698 1.6159,-0.78862 2.4179,-1.19484 7.8536,-3.97806 -1.0619,0.43855 8.0009,-4.01648 4.288,-2.14918 8.6651,-4.11453 13.1075,-5.92166 0.7854,-0.31947 4.508,-1.8332 5.6366,-2.05927 0.5305,-0.10625 1.082,-0.007 1.6229,-0.011 0.306,0.20691 1.2419,0.79804 0.9179,0.62073 -4.0419,-2.2119 -7.9931,-4.59055 -12.0755,-6.72668 -0.285,-0.14913 0.4198,0.48745 0.6249,0.73522 0.3049,0.36831 0.4913,0.87318 0.905,1.11293 4.741,2.74758 9.4137,5.68971 14.4714,7.79827 0.9975,0.41583 2.1427,-0.28348 3.214,-0.42522 7.6773,-1.37739 15.0775,-4.03695 22.7568,-5.3697 0.4684,0.0647 0.9724,0.004 1.4051,0.19421 0.2592,0.11401 0.7821,0.79787 0.5351,0.65953 -4.1919,-2.34802 -8.2426,-4.94131 -12.4192,-7.31629 -0.08,-0.0457 0.043,0.1828 0.037,0.27512 -0.013,0.20291 -0.2605,0.4875 -0.093,0.60284 4.197,2.89121 8.5964,5.47717 12.8946,8.21575 1.565,-0.96184 3.2872,-1.67293 4.9651,-2.43319 0,0 -12.3702,-8.18005 -12.3702,-8.18005 v 0 c -1.0089,0.49518 -2.7472,1.52724 -3.8701,1.53241 -0.1789,8.2e-4 -0.3136,-0.17227 -0.4704,-0.2584 4.071,2.63316 8.1055,5.32363 12.213,7.89949 0.093,0.0583 -0.1272,-0.20151 -0.1105,-0.30991 0.049,-0.31558 0.5536,-0.71852 0.2983,-0.91023 -8.4406,-6.3376 -8.4725,-9.3142 -14.867,-8.18116 -7.3665,2.13733 -14.7133,4.55867 -22.3903,5.30474 -1.0772,-0.0554 -4.0415,-0.87831 -3.2315,-0.16604 3.1462,2.7668 7.0783,4.48507 10.6442,6.68478 0.3462,0.21361 -0.7285,-0.40656 -0.9823,-0.72449 -0.2383,-0.29842 -0.1216,-0.84784 -0.4407,-1.05751 -12.4622,-8.18656 -8.2534,-7.93901 -14.5179,-8.01537 -2.4198,0.65983 -4.5772,1.76925 -6.8475,2.83542 -4.3086,2.02339 -8.6057,4.07132 -12.9279,6.06554 -1.8477,0.79854 -6.3771,2.8617 -8.5209,3.42192 -5.1272,1.33987 -13.3812,-5.17457 9.234,7.94714 0.8338,0.48381 -1.2226,-4.64207 1.1251,-2.66428 0.4044,-0.57122 0.8081,-1.14295 1.2132,-1.71367 0.3845,-0.54169 1.6208,-1.14925 1.1557,-1.62355 -10.5719,-10.78101 -8.951,-11.15308 -17.0495,-6.86986 -4.2476,2.23325 -8.5116,4.43685 -12.9602,6.25274 -1.5574,0.63571 -3.1195,1.27255 -4.7294,1.76043 -1.3132,0.39799 -4.8447,-0.20517 -4.0191,0.89091 2.4993,3.31807 6.7623,4.82653 10.1434,7.2398 -0.3322,-0.27041 -0.8364,-0.41396 -0.9967,-0.81122 -0.4593,-1.13836 0.4149,-3.14446 0.7441,-4.0269 1.0734,-2.87747 2.4494,-5.63095 3.781,-8.3934 0.1864,-0.35183 3.2575,-5.91944 2.9308,-6.15311 -11.0378,-7.89559 -9.5233,-9.37867 -15.8561,-6.2857 -0.5668,0.26574 -2.6873,1.2688 -3.2506,1.49644 -0.5043,0.20383 -1.0045,0.44204 -1.5391,0.54237 -0.3108,0.0583 -1.204,-0.25797 -0.9454,-0.0761 12.3565,8.69151 13.3098,12.43241 11.8734,7.38522 1.5196,-3.48552 3.8393,-6.55822 5.6235,-9.90622 0.3094,-0.58962 0.667,-1.15638 0.9283,-1.76885 0.2495,-0.58492 0.8542,-2.9768 0.9798,-3.42729 0.9357,-3.35505 1.9796,-6.67878 3.0398,-9.99615 2.9852,-9.09483 5.9782,-18.21173 7.8937,-27.60632 0.9465,-4.35712 1.8204,-8.79423 3.576,-12.91358 z" /><path
       style="fill:#000000"
       id="path21"
       d="m 1503.4922,69.359187 c 8.474,-2.173912 17.093,-3.477104 25.7771,-4.438388 7.7494,-0.6507 15.5287,-0.02281 22.8089,2.856277 1.4597,0.577292 5.5635,2.885783 4.2537,2.020585 -2.6021,-1.718832 -5.4332,-3.062801 -8.1499,-4.594202 3.6322,2.266873 6.7768,5.150025 9.5783,8.363875 0,0 13.4822,5.703775 13.4822,5.703775 v 0 c -2.9511,-3.475849 -6.3626,-6.535839 -10.1382,-9.099676 -4.294,-2.462357 -13.2779,-8.437499 -19.7817,-10.706256 -7.3424,-2.561335 -15.1033,-2.881293 -22.7879,-2.170984 -4.3786,0.447386 -8.4233,0.822266 -12.7797,1.414976 -4.8246,0.656389 -9.6038,1.636773 -14.4476,2.15955 z" /><path
       style="fill:#000000"
       id="path22"
       d="m 1474.411,64.788152 c -2.9137,-2.38344 -5.9381,-4.619569 -9.0527,-6.73242 -5.9011,-3.74157 -12.0251,-7.173488 -18.1107,-10.575945 -1.7087,-0.955349 -3.7244,-1.577993 -5.5525,-2.262595 -3.1961,-1.149977 -6.4778,-1.923265 -9.8371,-2.388856 -1.541,-0.01107 -3.2864,-0.634344 -4.81,-0.127388 -0.3236,0.10765 -0.6121,0.300771 -0.9181,0.451157 -1.4234,0.915702 -2.7841,1.955419 -3.8021,3.316237 -0.3123,0.471532 -0.1729,0.24738 -0.4229,0.669456 0,0 13.0481,7.46228 13.0481,7.46228 v 0 c 0.1422,-0.327225 0.058,-0.151809 0.2602,-0.522409 0.7863,-1.16126 1.9558,-2.050192 3.233,-2.610902 1.712,-0.322943 3.4738,0.02394 5.1897,0.184822 3.2495,0.508885 6.4177,1.367045 9.4946,2.537004 1.3239,0.528963 2.2933,0.894336 3.5849,1.497756 0.6079,0.284006 2.3784,1.240566 1.8023,0.896539 -19.8691,-11.865784 -10.9822,-6.333583 -6.5785,-3.773274 2.9998,1.940096 5.9363,4.019774 8.5969,6.410426 z" /><path
       style="fill:#000000"
       id="path23"
       d="m 1498.8538,170.81828 c 2.4604,-3.1521 5.5853,-5.59466 8.9423,-7.71459 3.6384,-2.11782 7.6658,-3.42986 11.7637,-4.31252 2.0598,-0.45025 4.1483,-0.0934 6.0676,0.71707 1.5715,0.69108 3.2667,0.94397 4.9232,1.34595 1.115,0.16938 2.1771,0.68299 3.0778,1.35922 -4.2083,-2.50034 -8.4267,-4.98389 -12.625,-7.50103 -0.09,-0.0538 0.2392,0.0193 0.2946,0.10804 0.2156,0.34522 0.1405,1.03131 0.1533,1.40049 0.01,2.50653 -0.6531,4.93058 -1.4622,7.28065 -0.7337,2.38117 -1.7469,4.58228 -3.0728,6.68205 -1.5975,2.49494 -3.7618,4.52738 -5.9544,6.48884 -1.0757,0.84754 -2.0618,1.77106 -2.8857,2.86328 -1.2278,1.72555 -2.014,3.69363 -2.8312,5.63405 -0.3734,0.88516 -0.7949,1.74898 -1.2425,2.59871 -0.049,0.0934 -0.3889,1.06406 -0.5519,0.75748 4.3907,2.19646 8.7944,4.36693 13.172,6.58939 0.1221,0.062 -0.2922,-0.0162 -0.3975,-0.10385 -0.2124,-0.1769 -0.3522,-0.42687 -0.5114,-0.65292 -0.773,-1.09813 -1.4173,-2.29867 -2.0982,-3.45365 -1.4367,-2.53746 -2.7394,-5.14669 -4.0612,-7.74479 -0.8394,-1.53584 -1.6659,-3.07336 -2.6067,-4.54844 -0.2934,-0.4515 -0.6221,-0.95029 -0.7522,-1.48006 -0.1207,-0.92289 -0.095,-1.86282 -0.1139,-2.7926 -0.01,-1.23527 0.045,-2.47009 0.038,-3.70517 -0.7375,-5.60666 -6.4057,-3.9791 -13.7303,-7.5541 0,0 12.9327,7.67515 12.9327,7.67515 v 0 c -4.4073,-2.34477 -8.8147,-4.68954 -13.222,-7.03432 0.2087,0.0905 0.3779,0.20403 0.5176,0.3911 0.5269,0.82112 0.026,2.49453 0.1942,3.45893 -0.029,0.9582 -0.053,1.91639 -0.097,2.87378 0.013,0.77084 0.1943,1.45805 0.5377,2.16217 0.9969,1.48339 2.0208,2.9261 2.8671,4.51047 1.414,2.585 2.6999,5.23975 4.1141,7.82553 0.7189,1.28867 1.7052,2.76134 2.2268,4.14201 0.072,0.19102 -0.047,0.50073 0.1323,0.59811 4.4575,2.41841 9.0579,4.56352 13.5869,6.84528 0.9447,-1.20032 1.2133,-2.8184 1.9465,-4.14718 0.7395,-1.83251 1.5188,-3.65595 2.802,-5.1844 0.7977,-0.98453 1.657,-1.91391 2.5737,-2.78976 2.1638,-2.15379 4.4106,-4.25623 6.142,-6.79106 0.3676,-0.55826 1.0535,-1.5697 1.3693,-2.16711 0.8111,-1.53443 1.1692,-3.25174 1.8022,-4.85658 0.8841,-2.47243 1.6439,-4.9761 1.9376,-7.5958 0.2218,-6.98868 1.2213,-2.62084 -12.8213,-10.23975 -1.0343,-0.4091 -2.0932,-0.71183 -3.1868,-0.9231 -1.6352,-0.40822 -3.2667,-0.79896 -4.8419,-1.41384 -2.1587,-0.49529 -4.2708,-0.67533 -6.4173,0.0468 -4.0898,1.18594 -8.1324,2.64766 -11.7925,4.8564 -3.4561,2.243 -6.5785,4.88088 -9.603,7.67383 z" /><path
       style="fill:#000000"
       id="path24"
       d="m 1572.8754,97.338086 c 2.322,1.349375 4.6409,2.704624 6.8712,4.201604 3.3397,2.50356 6.2522,5.52004 8.8764,8.75154 3.2116,3.99518 5.1594,8.75537 6.7622,13.57425 1.6319,5.44566 2.8273,11.008 4.162,16.53055 1.9133,7.82226 3.4771,15.72082 4.9598,23.63381 1.5282,8.31574 2.1246,16.76545 2.6815,25.19095 0.4971,8.2578 1.1069,16.50895 1.4983,24.77279 0.2047,6.11473 0.5952,12.22067 0.8475,18.33344 0.1805,5.31758 0.1815,10.6397 0.1425,15.9596 -0.026,4.32317 -0.025,8.64643 -0.025,12.96966 -0.044,2.41508 -0.088,4.8312 -0.2088,7.24394 0.01,1.09717 -0.4724,2.12901 -0.7944,3.16306 -0.8238,2.89938 -2.1128,5.62977 -3.209,8.4286 -1.1563,2.50327 -2.1187,5.13028 -3.4717,7.53813 -0.1092,0.15986 -0.1657,0.37323 -0.3275,0.47957 -0.064,0.0422 -0.2444,-0.18319 -0.1759,-0.14861 4.294,2.1667 8.5443,4.42039 12.8579,6.54777 0.2794,0.13779 -0.5496,-0.32447 -0.7397,-0.57134 -0.8655,-1.12452 -1.8284,-3.30243 -2.3973,-4.46903 -2.4582,-5.4265 -4.5668,-11.00651 -6.4091,-16.67003 -2.3591,-6.79455 -2.5696,-4.58353 -14.7568,-9.36354 -0.1531,-0.06 -1.323,1.92483 -1.3452,1.96102 -0.6387,0.68024 -0.8052,2.11265 -1.6692,2.60798 -0.7484,0.42909 -2.7382,-1.21157 -3.0908,-1.43224 3.3192,1.84088 6.5281,3.89669 9.9577,5.52265 1.0703,0.50741 -1.9073,-1.40592 -2.833,-2.14489 -3.7668,-3.00701 -7.2169,-6.38382 -10.6823,-9.72597 -5.0011,-4.88631 -9.8221,-6.96357 -17.0295,-10.35475 -0.414,-0.19481 -0.9138,0.1915 -1.3028,0.43236 -0.88,0.54484 -1.3318,1.45127 -1.8658,2.27944 -0.6787,1.18742 -0.9549,2.53668 -1.4439,3.79647 -0.078,0.20121 -0.1758,0.75347 -0.2975,0.57517 -0.1601,-0.2347 -0.1442,-0.96436 0.1135,-0.84477 4.2423,1.96849 8.2419,4.42265 12.3629,6.63397 -0.2365,-0.55458 -0.4902,-1.10214 -0.7095,-1.66376 -1.0387,-2.66 -1.9559,-5.35087 -3.1556,-7.94855 -1.1639,-2.52031 -1.5779,-3.14992 -2.9226,-5.5465 -1.9264,-3.41986 -4.4379,-6.42779 -6.843,-9.50684 -0.3261,-0.42824 -0.6219,-0.87752 -0.9105,-1.33127 0,0 -13.7197,-6.07467 -13.7197,-6.07467 v 0 c 0.3148,0.54224 0.6545,1.0685 1.0341,1.5685 2.4513,3.21573 5.4672,6.00162 7.4622,9.56802 2.7588,4.62529 5.1313,9.47694 6.2849,14.77603 4.3965,2.81774 8.6102,5.94354 13.1895,8.45322 0.3279,0.17968 0.5871,-0.47902 0.7995,-0.78668 0.7664,-1.11001 0.5092,-3.12955 1.4626,-4.20546 0.3169,-0.432 0.6463,-1.11769 1.2691,-1.24448 0.2754,-0.0561 1.0766,0.22822 0.8398,0.0768 -3.7091,-2.37193 -7.5451,-4.53941 -11.3313,-6.78606 -0.5571,-0.33051 1.1283,0.64414 1.643,1.03732 0.683,0.52182 1.293,1.13297 1.9395,1.69945 2.6291,2.44558 5.2125,4.94835 7.8683,7.36434 0.4798,0.43649 4.7819,4.23586 5.5005,4.68941 4.8185,3.04118 9.7871,5.83777 14.6807,8.75665 1.3747,0.51713 2.0207,1.08323 3.4487,0.6269 1.4947,-0.4776 1.93,-2.268 2.7304,-3.40467 0.1796,-0.26142 0.3307,-0.54484 0.5387,-0.78425 0.1409,-0.16218 0.6807,-0.29591 0.4981,-0.40905 -4.1175,-2.55077 -8.4905,-4.66706 -12.6629,-7.12698 -0.1729,-0.10196 0.4385,-0.10003 0.6021,0.0163 0.3383,0.24062 1.0919,1.94805 1.1609,2.09016 2.2177,5.62497 4.4373,11.24915 6.6224,16.88691 0.8742,2.15219 1.031,2.4908 1.7792,4.48378 0.131,0.34898 0.056,0.86555 0.3786,1.05222 5.3259,3.08138 11.5443,11.50492 14.5098,5.92914 1.1926,-2.54651 2.0386,-5.25956 3.2825,-7.78868 1.1804,-2.78054 2.442,-5.52799 3.4791,-8.36755 0.4394,-1.14443 1.1088,-2.31795 1.1091,-3.55906 -0.1168,-2.48258 -0.1608,-4.96818 -0.2022,-7.45293 0,-4.33278 0.017,-8.66569 -0.021,-12.99837 -0.068,-5.35962 -0.1191,-10.71961 -0.2682,-16.07784 -0.1975,-6.16618 -0.7461,-12.3063 -1.0586,-18.46623 -0.4914,-8.29299 -1.2321,-16.56792 -1.6626,-24.86494 -0.4488,-8.47118 -1.1227,-16.95979 -2.555,-25.32681 -1.5186,-7.8727 -2.9385,-15.76471 -4.7315,-23.58175 -1.1984,-5.52562 -2.3112,-11.07599 -3.8507,-16.52031 -1.5538,-4.93487 -3.4755,-9.85312 -6.5753,-14.03941 -2.4836,-3.3305 -5.2937,-6.3715 -8.4784,-9.05115 -2.079,-1.53729 -4.2869,-2.86223 -6.5106,-4.17744 z" /><path
       style="fill:#000000"
       id="path25"
       d="m 1433.394,233.53357 c 0.3168,5.0915 0.3058,10.19691 0.3456,15.29616 -0.01,4.34229 0.1191,8.69479 -0.299,13.02447 -0.1731,1.79174 -0.4629,3.51597 -0.7368,5.29185 -0.5339,3.70631 -1.6976,7.17368 -3.6627,10.35144 -0.9373,1.66629 -2.378,2.79575 -3.8239,3.97145 -1.5443,1.32329 -3.0618,2.68111 -4.7073,3.87822 -1.5288,0.87766 -3.3947,2.20567 -5.2785,1.66275 -0.3123,-0.09 -0.5823,-0.28877 -0.8734,-0.43316 -5.1467,-3.03347 3.4906,2.06401 10.6266,6.02174 0.4314,0.23928 -0.8221,-0.54631 -1.2203,-0.83746 -1.5495,-1.13266 -2.9545,-2.40969 -4.3591,-3.71323 -2.1389,-2.10579 -4.3201,-4.18618 -6.2479,-6.49158 -0.4335,-0.58059 -0.9175,-1.1282 -1.2972,-1.74628 0,0 -13.6494,-6.20741 -13.6494,-6.20741 v 0 c 0.3068,0.81079 0.709,1.50281 1.3094,2.14367 1.9553,2.44789 4.2751,4.55136 6.4696,6.78184 5.7304,5.61818 12.2637,10.61262 20.1221,13.06018 2.7525,0.22669 4.5906,-0.84633 6.8158,-2.35685 1.6904,-1.21606 3.3172,-2.51965 4.9221,-3.84644 1.5607,-1.28314 2.8523,-2.78399 3.8719,-4.54088 1.9754,-3.41437 3.2447,-7.06111 3.6804,-11.0045 0.7743,-6.1764 1.1269,-12.36458 0.9302,-18.59356 0.039,-4.98176 0.022,-9.97052 0.3456,-14.94401 z" /><path
       style="fill:#000000"
       id="path26"
       d="m 1406.342,277.8719 c -0.1585,-3.17883 -0.1176,-6.36242 -0.2571,-9.5419 -0.2491,-3.98402 -1.0561,-7.89123 -1.9473,-11.77184 -0.6427,-2.98279 -1.367,-5.95319 -1.8391,-8.96925 -0.4233,-2.97412 -0.4704,-5.98349 -0.5262,-8.98179 -0.1643,-4.8192 -0.7797,-9.60418 -1.3339,-14.38934 -0.7781,-6.66764 -1.727,-13.31177 -2.7185,-19.95053 -1.2279,-8.31777 -2.6554,-16.60328 -4.1155,-24.88279 -1.4212,-7.49188 -2.5422,-15.03504 -3.4329,-22.6071 -0.4674,-4.58411 -0.8519,-9.19198 -0.6065,-13.80299 0.1312,-2.46457 0.3213,-3.54603 0.6419,-5.97637 0.9584,-6.49593 3.0872,-12.73108 5.4358,-18.8361 2.1115,-4.97501 4.5189,-9.85232 7.7284,-14.22321 1.8316,-2.49447 2.6422,-3.22274 4.7314,-5.439173 3.1614,-2.840512 6.6884,-5.233557 10.6619,-6.781297 2.0613,-0.802914 3.0593,-0.992343 5.1534,-1.524106 2.3221,-0.459654 4.7009,-0.938805 7.0823,-0.798924 0,0 -12.161,-8.765555 -12.161,-8.765555 v 0 c -2.2875,0.318106 -4.5552,0.782952 -6.7688,1.447234 -2.0035,0.628241 -3.1832,0.944118 -5.1508,1.8011 -4.0419,1.760431 -7.6584,4.279891 -10.8379,7.32467 -2.0968,2.338447 -2.8876,3.091656 -4.7369,5.694739 -3.1912,4.491952 -5.65,9.446182 -7.8609,14.476302 -2.536,6.14267 -4.9693,12.37011 -5.8649,19.00185 -0.88,6.72516 -0.9089,13.46221 0.02,20.19601 0.8603,7.61973 1.9468,15.21408 3.4869,22.72934 1.4866,8.25136 2.9586,16.51016 4.0921,24.81867 0.9024,6.5693 1.6366,13.15672 2.4018,19.74277 0.4917,4.70378 1.0614,9.40669 1.167,14.14009 -0.012,3.03573 -0.094,6.08766 0.2898,9.10616 0.4837,3.08487 1.2454,6.10613 1.9363,9.14919 0.9624,3.79416 1.7775,7.62815 2.1043,11.53614 0.1364,3.09743 0.059,6.20098 -0.082,9.29771 z" /><path
       style="fill:#000000"
       id="path27"
       d="m 1745.3395,134.96047 c 3.7368,-0.15866 7.4784,-0.14283 11.2176,-0.11239 2.101,0.0125 4.2012,0.0756 6.3013,0.13214 0.4889,0.0175 0.9784,0.0314 1.4677,0.0221 0.4158,0.005 0.8314,0.005 1.2472,-0.004 0.9279,-0.0694 1.7809,0.34606 2.6808,0.56341 1.223,0.0891 2.4491,0.12108 3.6745,0.15524 0.9875,0.0805 1.3976,0.0654 2.2709,-0.4348 0.5468,-0.23139 1.1377,-0.32156 1.7296,-0.3104 0.7214,-0.0263 0.9145,0.20559 1.4853,-0.32943 0.1293,-0.0469 0.6392,-0.85222 0.6468,-0.79539 0.051,0.38071 -0.1957,0.16203 0,0.30366 0.046,0.0235 0.092,0.0471 0.1378,0.0706 0,0 -12.3105,-8.65827 -12.3105,-8.65827 v 0 c -0.1034,0.0467 -0.2067,0.0933 -0.3101,0.14 -0.2557,0.18327 -0.4371,0.60565 -0.7117,0.62658 -0.014,-0.37753 -0.902,-0.0538 -1.1934,-0.0478 -0.6743,0.15303 -1.3266,0.36529 -1.9575,0.6512 -0.5937,0.0949 -1.2496,-0.14014 -1.8627,-0.0444 -1.1745,-0.0326 -2.3673,-0.0783 -3.5022,-0.40871 -0.9768,-0.22627 -1.9282,-0.3907 -2.9383,-0.32036 -0.4195,-0.008 -0.8388,-0.01 -1.2583,-0.004 -0.469,-0.008 -0.9382,0.003 -1.4068,0.0221 -1.9788,0.0576 -3.9577,0.12135 -5.9376,0.13214 -3.8424,0.032 -7.6866,0.0391 -11.5269,-0.11239 z" /><path
       style="fill:#000000"
       id="path28"
       d="m 1798.1579,136.42765 c 3.3285,-0.11442 6.6602,-0.0986 9.9903,-0.12375 2.8877,-0.0147 5.7745,0.0619 8.6614,0.11306 1.9696,0.0142 3.939,-0.0252 5.9084,-0.043 1.8789,-0.0103 3.7578,0.0129 5.6356,0.0758 1.877,-0.0449 3.7534,-0.0719 5.6312,-0.0677 1.4595,0.0143 2.9185,0.0599 4.3782,0.0609 0.7603,0.008 1.522,-0.0163 2.2816,0.0227 0,0 -12.1659,-8.83906 -12.1659,-8.83906 v 0 c -0.7384,0.0442 -1.4799,0.0113 -2.2192,0.0227 -1.4038,9e-4 -2.8069,0.0461 -4.2106,0.0609 -1.9399,0.004 -3.8784,-0.0245 -5.8175,-0.0677 -1.8082,0.0667 -3.6176,0.0851 -5.427,0.0758 -2.0089,-0.0177 -4.0177,-0.0567 -6.0268,-0.043 -2.7831,0.0519 -5.5661,0.12955 -8.3502,0.11306 -3.4436,-0.0255 -6.8886,-0.0121 -10.3309,-0.12375 z" /><path
       style="fill:#000000"
       id="path30"
       d="m 1780.4746,159.1766 c 2.8085,-0.0944 5.6201,-0.0869 8.43,-0.093 2.3131,-0.004 4.6266,0.0229 6.9386,0.0971 0.9031,0.0279 1.8064,0.0155 2.7096,-0.004 1.4333,-0.0284 2.8666,0.003 4.3,-0.0104 0.9369,0.005 1.8772,-0.0198 2.8128,0.043 0,0 -12.1717,-8.84323 -12.1717,-8.84323 v 0 c -0.895,0.0737 -1.7977,0.0299 -2.6945,0.043 -1.4429,-0.0134 -2.8859,0.0176 -4.3288,-0.0105 -0.907,-0.0187 -1.8143,-0.033 -2.7213,-0.004 -2.2227,0.0783 -4.4473,0.10041 -6.6713,0.0971 -2.8953,-0.006 -5.7919,-0.001 -8.686,-0.093 z" /><path
       style="fill:#000000"
       id="path31"
       d="m 1770.8554,154.22955 c 0.4291,2.39133 1.1131,4.72514 1.8936,7.02257 0.7815,1.84087 1.0717,3.8349 1.7122,5.71648 1.8028,5.82187 -9.9773,-3.22181 13.7118,7.58467 0.1096,0.05 0.9457,-1.21537 1.0572,-1.35108 1.2128,-1.34286 2.4263,-2.69407 3.6974,-3.98167 0.8051,-0.71708 1.5955,-1.44491 2.3808,-2.18326 0.7235,-0.6829 1.4128,-1.39946 2.1214,-2.09744 0.4119,-0.61746 0.833,-1.16849 1.4798,-1.54317 0.1466,0.13025 0.3585,0.11154 0.5439,0.14159 0,0 -12.3018,-8.71056 -12.3018,-8.71056 v 0 c -0.3571,0.12069 -0.6956,0.26141 -0.9713,0.53185 -0.5739,0.52936 -1.0526,1.12775 -1.507,1.75948 -0.6937,0.69841 -1.409,1.37602 -2.1136,2.06331 -0.7846,0.75735 -1.6004,1.48132 -2.3105,2.31353 -1.2544,1.36924 -2.5356,2.70728 -3.8491,4.0209 -0.2026,0.24959 -0.3755,0.52693 -0.6093,0.74753 -0.076,0.0721 -0.3507,0.12661 -0.2596,0.17898 4.283,2.46173 8.6588,4.75808 12.9882,7.13712 -0.419,0.0512 -0.2219,0.1092 -0.5254,-0.32212 -0.1765,-0.42273 -0.4061,-0.82395 -0.5553,-1.25707 -0.5107,-1.48313 -0.7099,-3.07996 -1.3714,-4.5182 -0.779,-2.16216 -1.5386,-4.38778 -1.7732,-6.68329 z" /><path
       style="fill:#000000"
       id="path32"
       d="m 1809.8915,88.054339 c 1.6725,-5.026603 4.9141,-9.37228 7.8297,-13.738111 3.0626,-4.594245 6.4335,-8.973526 9.3544,-13.661811 1.7353,-3.348925 4.4698,-5.915835 7.037,-8.606461 2.4329,-2.211658 4.04,-5.069354 5.7896,-7.806316 2.1063,-2.859809 3.9519,-5.915976 6.2049,-8.665433 4.3606,-2.992328 0.7098,-0.356358 -12.8684,-6.932494 -0.163,-0.07896 0.2342,0.295554 0.2661,0.473894 0.089,0.501544 0.041,1.018702 0.091,1.525691 0.2922,2.955562 0.4177,3.186519 1.02,6.403881 0.3199,1.478908 0.6166,2.963038 0.9598,4.436724 0.7826,3.360802 1.7075,6.723411 2.5173,10.07718 1.1397,4.719373 2.1196,9.473754 3.1125,14.225384 1.2048,5.477459 1.7276,11.066778 2.666,16.588524 0.4912,2.244005 0.7191,4.52578 1.0141,6.798797 0.3171,1.165381 0.573,2.324754 0.6899,3.529907 0.01,0.197439 0.02,0.394878 0.03,0.592318 0,0 13.3444,6.709077 13.3444,6.709077 v 0 c -0.012,-0.208793 -0.024,-0.417589 -0.036,-0.626385 -0.062,-1.250824 -0.086,-2.569903 -0.6065,-3.728245 -0.7234,-2.218604 -0.5706,-4.68625 -1.3319,-6.9118 -1.2279,-5.636086 -2.0516,-11.352309 -3.3756,-16.969361 -1.0909,-4.782427 -2.1397,-9.57695 -3.2764,-14.348688 -0.9907,-4.159034 -1.4966,-5.75812 -2.3386,-9.915671 -0.288,-1.422023 -0.5082,-2.85694 -0.7623,-4.285411 -0.3127,-2.36074 -0.5832,-3.630922 -0.5675,-5.89768 0,-0.500152 0.069,-0.998574 0.1358,-1.494337 0.049,-0.368812 0.526,-0.899641 0.2101,-1.09629 -13.0094,-8.099062 -10.7771,-11.406417 -13.6761,-6.70363 -1.8869,3.017356 -3.6935,6.086994 -5.9197,8.876961 -1.8468,2.568222 -3.5322,5.271486 -5.7338,7.55997 -2.6347,2.766471 -5.4261,5.431707 -7.0892,8.942276 -2.7795,4.736336 -6.0458,9.167052 -9.0211,13.780165 -3.0258,4.504744 -6.2664,8.899358 -8.7758,13.722929 z" /><path
       style="fill:#000000"
       id="path33"
       d="m 1758.9397,80.722493 c -0.4814,-0.09463 -0.9698,-0.158588 -1.4442,-0.283893 -2.0421,-0.539468 -3.1144,-0.975763 -5.0958,-1.912006 -0.995,-0.470131 -3.8902,-2.057218 -2.9383,-1.505 11.5743,6.714907 11.6767,6.9629 6.6449,3.236351 -4.4627,-3.597656 -7.9666,-8.145057 -11.6021,-12.528807 -3.3711,-4.243307 -7.0486,-8.225758 -10.6672,-12.256019 -1.7131,-2.076931 -3.5079,-4.071564 -5.4953,-5.887882 -1.7966,-1.716028 -3.7932,-3.200381 -5.7198,-4.763335 -1.1325,-0.917972 -2.2834,-1.817319 -3.3777,-2.78131 -0.1702,-0.149924 -0.3004,-0.351476 -0.4967,-0.465091 -4.3911,-2.541453 -8.8331,-4.99394 -13.2496,-7.49091 -0.2361,0.272522 -0.5344,0.501667 -0.7081,0.817567 -0.6792,1.235048 -0.5226,2.976615 -0.5286,4.313327 -0.01,1.521042 0.034,3.423613 0.058,4.917813 0.064,6.935398 0.1509,13.871084 0.1763,20.806725 0.1927,5.96057 -0.3706,11.885156 -1.3445,17.755628 -0.5513,3.270631 -1.1702,6.529832 -1.7782,9.790551 -0.4226,1.927844 -1.0669,3.79626 -1.464,5.730355 -0.1571,0.748236 -0.2692,1.507264 -0.2873,2.272203 0,0.0887 0,0.17741 -0.01,0.26611 0,0 13.4014,6.82744 13.4014,6.82744 v 0 c 0,-0.085 0,-0.17002 -0.01,-0.25503 0,-0.70436 -0.024,-1.40985 0.078,-2.11011 0.2706,-1.97421 0.8035,-3.89338 1.2349,-5.836136 0.5872,-3.301046 1.1927,-6.601947 1.6215,-9.927961 0.7912,-6.026694 1.1725,-12.09231 0.995,-18.174911 0.01,-6.877717 0.05,-13.756327 0.1383,-20.633404 0.065,-2.123067 0.097,-4.254757 0.2882,-6.371797 0.033,-0.367829 0.097,-0.732442 0.1318,-1.100094 0.01,-0.09413 0.082,-0.331315 2e-4,-0.283683 -0.112,0.06533 -0.092,0.242587 -0.1377,0.363881 -4.1477,-2.414711 -8.2955,-4.829421 -12.4432,-7.244132 0.1964,0.140527 0.4053,0.264987 0.5891,0.421581 1.1354,0.967168 2.2092,2.017808 3.4357,2.879133 1.8927,1.580582 3.8761,3.044417 5.7398,4.659158 1.9713,1.941928 4.1373,3.701596 5.8334,5.918145 3.7279,3.985841 7.4694,7.970616 10.8523,12.258287 3.6973,4.441287 7.1815,9.103256 11.6061,12.871362 6.8592,5.473537 2.8804,2.499579 17.5201,10.823551 3.2052,1.822445 6.8243,3.180905 10.4868,3.630088 z" /><path
       style="fill:#000000"
       id="path34"
       d="m 2018.8911,131.30021 c 3.8645,-0.17166 7.735,-0.14836 11.6025,-0.14909 4.1501,-0.1655 8.2595,0.34672 12.2661,1.39255 1.4505,0.2544 2.605,1.18573 3.9506,1.69209 0.1731,0.002 0.3221,0.15823 0.4963,0.16484 4.6919,0.17808 -7.9895,-4.94037 -12.089,-7.22925 0,0 13.909,5.71982 13.909,5.71982 v 0 c -5.6481,-3.21772 -9.2752,-5.51562 -14.0911,-7.95723 -1.2321,-0.59577 -2.4951,-1.08443 -3.863,-1.29094 -4.0328,-0.79417 -8.1441,-1.04191 -12.2511,-0.9722 -4.0043,-7.6e-4 -8.0111,0.0161 -12.0128,-0.14909 z" /><path
       style="fill:#000000"
       id="path35"
       d="m 2070.3967,133.4856 c 5.8373,-0.25788 11.6817,-0.26409 17.5235,-0.26464 4.7387,0.20911 9.7,-0.34225 14.3447,0.86885 0.6798,0.056 1.098,0.61444 1.6588,0.88413 0.6923,0.33289 1.5168,0.5419 2.2302,0.84252 2.2861,0.7371 4.6032,1.33592 6.9491,1.85752 4.6619,2.62578 10.4965,6.11131 -11.2381,-6.47791 0,0 14.0027,5.49185 14.0027,5.49185 v 0 c -4.7555,-2.76995 -9.1033,-6.90221 -14.5893,-8.00113 -2.3058,-0.49743 -4.5753,-1.15733 -6.7604,-2.05294 -1.3333,-0.55858 -2.5905,-1.31427 -4.0568,-1.44094 -4.6049,-0.42809 -9.2368,-0.15799 -13.8526,-0.19042 -6.0848,-5.7e-4 -12.1713,-0.018 -18.252,-0.26464 z" /><path
       style="fill:#000000"
       id="path36"
       d="m 2058.5821,154.03379 c 2.0899,-0.16012 4.136,-0.0956 6.1607,0.45307 3.8851,3.60638 0.9201,0.80237 -12.1789,-6.83864 -0.085,-0.0499 0.1965,0.0244 0.295,0.0332 0.067,0.006 0.1683,-0.0469 0.2031,0.0114 0.1761,0.2952 -0.1144,0.68065 -0.2221,1.00709 -1.278,2.71841 -2.1903,5.57083 -3.2012,8.39212 -1.089,2.74311 -1.5687,5.64679 -2.1804,8.51629 -0.479,1.28694 -0.2158,2.86292 -0.8573,4.09047 -0.035,0.0412 -0.1029,0.17738 -0.1045,0.12348 0,-0.11624 -0.01,-0.38602 0.098,-0.33479 4.417,2.16749 8.7365,4.52842 13.096,6.80934 0.1429,0.0748 -0.3347,-0.0725 -0.445,-0.19026 -0.4007,-0.42785 -0.7737,-1.55019 -0.9536,-2.00155 -1.2974,-3.92467 -2.4705,-7.89023 -3.6814,-11.843 -0.7151,-2.18485 -1.2781,-4.41146 -1.7807,-6.65278 -0.076,-0.93053 2.7506,-2.59765 3.4711,-3.06485 0.8449,-0.47309 1.6873,-0.91665 2.2887,-1.68877 0,0 -12.9467,-7.64583 -12.9467,-7.64583 v 0 c -0.3447,0.65947 -1.2689,0.9019 -1.7739,1.38151 -1.7264,1.20082 -3.9468,2.34151 -4.4981,4.51285 0.486,2.38398 1.4761,4.65411 2.1429,6.98771 1.2895,3.86723 2.3567,7.80049 3.4719,11.71941 0.097,0.44718 0.1937,0.89435 0.2905,1.34153 0.098,0.29831 0.2187,0.59022 0.2948,0.89492 0.06,0.24122 -0.1025,0.6134 0.1131,0.73727 6.2247,3.57702 11.085,11.40961 13.9792,6.30716 0.629,-1.42767 0.4435,-3.02414 0.8085,-4.52885 0.5197,-2.82897 0.9326,-5.69138 1.9334,-8.40387 0.9982,-2.79549 1.9514,-5.60607 3.4225,-8.20013 0.2232,-0.47836 0.5167,-1.05414 0.6642,-1.56846 0.017,-0.0604 0.2984,-1.09468 0.039,-1.25358 -12.3949,-7.59872 -8.1512,-7.09867 -13.6925,-7.65521 -2.0997,-0.25051 -4.2091,-0.11355 -6.318,-0.21134 z" /><path
       style="fill:#000000"
       id="path37"
       d="m 2095.1475,90.525554 c -0.4798,-6.41704 0.069,-12.855658 0.4848,-19.261334 0.4128,-5.350535 1.0675,-10.739581 2.9645,-15.785557 1.1119,-2.568054 2.5636,-5.016523 4.4478,-7.093674 1.2887,-1.040053 2.0305,-2.485785 2.939,-3.829718 1.4671,-2.262536 3.1935,-4.349825 5.1499,-6.203224 0.1447,-0.123113 1.0809,-1.003663 1.4382,-1.053619 0.1485,-0.02076 0.5254,0.289276 0.3929,0.219008 -4.1734,-2.214133 -8.2989,-4.520583 -12.5159,-6.650646 -0.3339,-0.168654 0.6097,0.451316 0.8346,0.750201 0.3666,0.487067 0.6131,1.053817 0.9196,1.580726 3.537,7.736227 6.0363,15.881806 8.3659,24.045689 1.8542,6.615993 3.7458,13.222122 5.5341,19.856375 0.318,1.421224 0.842,2.810048 0.9724,4.267874 -0.036,1.010691 0.3202,1.948584 0.5496,2.918479 0.4387,1.350994 0.831,2.715013 1.1793,4.091833 0,0 13.41,6.436738 13.41,6.436738 v 0 c -0.3217,-1.390854 -0.7685,-2.748077 -1.0806,-4.140297 -0.1963,-0.502935 -0.2258,-0.980944 -0.3708,-1.495064 -0.063,-0.221778 -0.2438,-0.401243 -0.292,-0.626575 -0.034,-0.156115 6e-4,-0.319298 9e-4,-0.478947 -0.094,-1.677128 -0.5676,-3.211821 -1.2221,-4.764342 -2.3178,-6.685247 -4.4682,-13.428139 -6.4102,-20.232604 -2.2317,-8.023432 -4.612,-15.996735 -7.3585,-23.860519 -0.2256,-0.556262 -0.4574,-1.110028 -0.6766,-1.668785 -0.1607,-0.409384 -0.088,-1.005586 -0.4631,-1.235387 -9.8546,-6.039481 -10.6839,-10.808895 -15.7599,-5.65199 -1.9141,2.015736 -3.7641,4.113063 -5.3845,6.374364 -0.9071,1.289203 -1.7443,2.606918 -2.8868,3.714264 -1.7821,2.368712 -3.2834,4.955343 -4.3843,7.711236 -1.821,5.258743 -2.4638,10.814216 -2.7725,16.352063 -0.3421,6.32719 -0.7654,12.650525 -1.2429,18.968771 z" /><path
       style="fill:#000000"
       id="path38"
       d="m 2046.7539,100.98318 c -0.3883,-5.69351 -0.3697,-11.405571 -0.3674,-17.109364 0.052,-6.373454 0.079,-12.746938 -0.309,-19.110834 -0.2912,-3.539223 -0.9982,-7.039911 -1.9872,-10.447584 -0.3905,-1.656753 -1.0431,-3.188024 -1.9673,-4.610611 -1.3265,-1.936968 -2.3113,-4.076147 -3.4244,-6.136676 -1.0658,-2.160452 -2.1984,-4.286957 -3.2758,-6.441425 -0.4281,-1.085479 -1.2309,-1.979898 -1.6142,-3.078948 -3.3484,-6.05932 3.9566,0.839464 -14.1766,-8.646198 -2.228,2.82617 -3.992,5.982818 -5.8651,9.046569 -3.4608,5.728057 -6.2628,11.804796 -8.9717,17.912763 -2.0561,4.947119 -4.0358,9.924991 -5.8619,14.961539 -1.3395,3.593466 -2.331,7.307715 -3.4102,10.985956 -0.7043,2.280984 -1.5489,4.524212 -2.1444,6.837751 -0.1106,0.762962 -0.523,1.403127 -0.8744,2.069738 -0.4696,0.659477 -0.988,1.310358 -1.3226,2.051176 -0.159,0.432867 -0.088,0.20193 -0.2042,0.695193 0,0 13.2741,7.044832 13.2741,7.044832 v 0 c 0.013,-0.276548 0,-0.141836 0.049,-0.40439 0.2178,-0.721313 0.8085,-1.298386 1.1996,-1.923929 0.4451,-0.779684 0.9622,-1.558893 1.0234,-2.482234 0.3951,-2.353451 1.0803,-4.642802 1.7819,-6.920178 1.0222,-3.671972 2.1091,-7.333066 3.3158,-10.948018 1.6665,-5.071015 3.4551,-10.101869 5.4822,-15.041848 2.6221,-6.06405 5.4182,-12.079026 8.9837,-17.656771 1.3498,-2.052842 2.695,-4.086984 4.2284,-6.009147 0.1698,-0.212909 1.1953,-1.691877 1.6879,-1.67047 -4.3002,-2.382785 -8.6132,-4.742508 -12.9005,-7.148354 -0.1535,-0.08612 0.3834,-0.02679 0.5215,0.08228 0.27,0.213288 0.2519,0.804818 0.4936,1.046112 0.4527,0.500239 0.087,0.01329 0.3815,0.768 0.2259,0.578766 0.6084,1.079524 0.9562,1.584376 0.1643,0.238553 0.3178,0.484412 0.4767,0.726619 1.0556,2.203842 2.344,4.291498 3.3309,6.531162 1.1075,2.053568 2.0949,4.167076 3.2529,6.19118 0.8813,1.35939 1.8436,2.670977 2.2142,4.286279 1.1605,3.36802 2.1308,6.813642 2.576,10.358463 0.5689,6.356026 0.565,12.726046 0.5309,19.103621 0,5.578762 0.031,11.16722 -0.3674,16.734954 z" /><path
       style="fill:#000000"
       id="path39"
       d="m 1167.1011,568.7839 c 0.4399,6.91653 0.4804,13.85279 0.5799,20.78059 0.2861,13.62659 0.3255,27.25453 0.2515,40.88344 -0.012,8.19596 -0.075,16.40477 -0.863,24.56993 -0.4002,4.14893 -0.7149,6.02249 -1.2984,10.09304 -0.9184,5.53994 -2.1426,11.02257 -3.3364,16.50793 -2.5472,7.76284 10.1138,10.21877 16.5696,10.75043 10.3898,0.42816 20.8003,0.2722 31.1977,0.25693 11.9723,0.0121 23.9437,0.14884 35.9151,0.2783 5.1182,0.15713 10.233,0.45553 15.3335,0.90977 0.3187,-0.0731 0.6859,-0.035 0.9561,-0.2192 1.6883,-1.15124 3.2086,-6.75084 3.6926,-8.13843 4.5092,-12.92716 0.3033,-1.12753 5.6507,-15.97698 6.6401,-19.93043 14.6926,-39.34985 21.6481,-59.16654 1.151,-3.27932 2.2223,-6.58609 3.3334,-9.87913 2.8937,-9.43907 5.5456,-19.08226 6.2262,-28.97829 0.2485,-3.61261 0.091,-5.47132 -0.046,-8.98396 -0.376,-3.45126 -0.3061,-7.25255 -1.8552,-10.45547 -4.49,-2.60938 -8.8681,-5.42151 -13.4699,-7.82814 -0.419,-0.2191 -0.9451,0.0286 -1.4177,0.0423 -0.7383,0.0215 -1.4766,0.0413 -2.2149,0.0634 -4.4787,0.13393 -8.8436,0.54541 -13.2958,1.07443 -14.725,2.27182 -29.3548,5.11382 -44.0198,7.74029 -6.9778,1.20322 -13.9716,2.39412 -21.0344,2.96832 -4.3341,0.0804 -8.6391,0.4103 -12.9411,0.94026 -5.271,0.56822 -10.5019,1.49035 -15.6712,2.65937 -3.4294,0.7706 -6.798,1.77107 -10.1972,2.65758 -0.6552,0.15935 -1.3208,0.26238 -1.9884,0.35088 0,0 12.2794,8.56165 12.2794,8.56165 v 0 c 0.6511,-0.17192 1.3015,-0.34755 1.9428,-0.55419 3.2273,-1.08675 6.4764,-2.08709 9.8115,-2.80051 5.0961,-1.13114 10.233,-2.12444 15.4331,-2.63325 2.5665,-0.25094 3.1861,-0.35179 5.7271,-0.44596 2.5214,-0.0934 5.0578,0.0828 7.5657,-0.2663 6.6407,-1.11156 13.2137,-2.59146 19.8073,-3.94499 14.6449,-2.99411 29.3472,-5.86027 44.2229,-7.4429 4.6978,-0.33423 9.304,-0.60926 14.0111,-0.34366 6.726,0.3795 9.7748,4.23043 -8.2735,-6.62927 0.1854,0.12533 0.4054,0.2107 0.5562,0.37599 0.492,0.5391 0.7653,1.41599 0.9791,2.06276 0.8188,2.47573 1.3299,5.0377 1.6273,7.62691 0.3226,3.34069 0.6236,5.60303 0.5802,9.0291 -0.1264,9.97129 -2.3045,19.7933 -4.8677,29.37896 -0.9896,3.34689 -1.9171,6.71281 -2.9689,10.04067 -6.3162,19.98332 -14.1673,39.45714 -22.2446,58.77927 -3.0665,7.10215 -3.6514,8.71884 -6.8543,15.25543 -0.3589,0.73235 -2.3078,4.71026 -3.3062,5.95607 -0.3555,0.44356 -0.7946,0.35686 -1.2757,0.37928 -4.8664,-0.10743 -9.7319,-0.28762 -14.6002,-0.27211 -11.7469,0.14258 -23.4943,0.2869 -35.2422,0.20079 -10.7683,-0.13494 -21.5867,-0.0968 -32.3006,-1.29778 -0.7304,-0.14237 -1.4713,-0.23869 -2.1912,-0.42711 -0.4666,-0.12215 -1.7641,-0.76104 -1.3573,-0.50171 3.9391,2.51147 8.0563,4.73745 11.9793,7.274 0.1608,0.10396 -0.4342,0.2471 -0.5644,0.10674 -0.375,-0.4042 0.7046,-1.31778 0.144,-1.64779 0.6333,-5.70292 1.6192,-11.3579 2.4198,-17.03825 0.5378,-4.32527 0.7709,-5.85295 1.1376,-10.26726 0.6862,-8.25948 0.6485,-16.54927 0.5701,-24.83054 -0.073,-13.54347 -0.038,-27.08603 0.2515,-40.62713 0.098,-6.73067 0.1307,-13.47108 0.58,-20.1896 z" /><path
       style="fill:#000000"
       id="path40"
       d="m 1212.458,480.77269 c -2.3316,4.38843 -4.3579,8.93604 -6.5372,13.40225 -3.8295,7.42795 -7.6327,14.86709 -11.314,22.36979 -2.8814,6.24383 -5.5777,12.56811 -8.4416,18.81992 -1.1963,2.5938 -2.2916,5.22715 -3.1503,7.95126 -0.749,2.52425 -1.7358,4.93851 -3.0453,7.22131 -0.5626,1.2085 -1.4576,2.16198 -2.2381,3.21417 -0.9688,1.41973 -2.2292,2.59964 -3.3074,3.92832 -0.5433,0.70833 -0.2917,0.37174 -0.7576,1.00772 0,0 12.9033,7.57329 12.9033,7.57329 v 0 c 0.3737,-0.60412 0.1677,-0.28656 0.6235,-0.94894 1.0707,-1.35968 2.3099,-2.57491 3.4016,-3.91819 0.8539,-1.09868 1.6265,-2.21781 2.1743,-3.51172 1.2367,-2.40921 2.3487,-4.87231 3.2198,-7.44049 0.8761,-2.69272 1.6114,-5.43196 2.6568,-8.06804 2.5419,-6.37798 5.2379,-12.69868 8.1088,-18.9354 3.5696,-7.54618 7.2408,-15.0414 11.2811,-22.34992 2.291,-4.27311 4.4869,-8.66171 7.2553,-12.64526 z" /><path
       style="fill:#000000"
       id="path41"
       d="m 1223.0239,491.48489 c 5.1352,0.20408 9.7634,2.71732 14.1336,5.18887 -2.8567,-1.60052 -5.5966,-3.43001 -8.57,-4.80156 -1.2746,-0.58796 2.3215,1.58112 3.4367,2.43367 4.9056,3.7505 9.1146,8.1387 13.1841,12.75593 4.3061,4.93806 7.8747,10.43491 11.4729,15.89094 2.5416,3.83185 4.8078,7.83056 6.9908,11.87383 1.2565,2.23532 2.3631,4.5493 3.5054,6.84371 0.3063,0.45783 0.4434,1.02084 0.7196,1.49248 0.085,0.14497 0.5208,0.69148 0.6604,0.77317 4.3874,2.56919 8.8228,5.05543 13.2342,7.58315 5.1,1.64352 0.4965,0.19512 -12.1838,-7.82089 0,0 13.2227,7.14811 13.2227,7.14811 v 0 c -12.5256,-8.57759 -8.0515,-6.0472 -12.7407,-8.68658 4.144,2.39417 8.3087,4.75281 12.432,7.18251 0.1354,0.0798 -0.3088,-0.0667 -0.4548,-0.12477 -0.7095,-0.28218 -1.0053,-0.79229 -1.3436,-1.46036 -1.3069,-2.30523 -2.4278,-4.70999 -3.7722,-6.99535 -2.3367,-4.0534 -4.5322,-8.19461 -7.1623,-12.07042 -3.7268,-5.5846 -7.4643,-11.1827 -11.8687,-16.26668 -4.0498,-4.63635 -8.2006,-9.13059 -13.0024,-13.01258 -5.8606,-4.73803 -11.6515,-7.39752 -18.6698,-11.53385 -4.7788,-2.54821 -9.7632,-4.96798 -15.2855,-5.15645 z" /><path
       style="fill:#000000"
       id="path42"
       d="m 1194.9775,626.73746 c 0.2246,4.27548 0.2336,8.56001 0.2837,12.84035 0.027,6.39929 0.07,12.79859 0.071,19.19796 -0.02,4.11222 -0.1182,8.22428 -0.3055,12.3323 -0.021,1.15247 -0.1072,2.30407 -0.075,3.4567 0.1824,2.00462 -0.076,3.95909 -0.6817,5.8705 -0.1241,0.23968 -0.2481,0.47936 -0.3721,0.71904 0,0 12.9027,7.33569 12.9027,7.33569 v 0 c 0.1482,-0.31354 0.2963,-0.62707 0.4445,-0.9406 0.6188,-2.00591 1.061,-4.08134 1.0419,-6.18998 0.034,-1.17784 -0.057,-2.35498 -0.075,-3.53272 -0.1835,-4.21201 -0.2846,-8.42765 -0.3055,-12.64362 3e-4,-6.37538 0.044,-12.7507 0.071,-19.126 0.05,-4.1839 0.055,-8.37247 0.2837,-12.55121 z" /><path
       style="fill:#000000"
       id="path43"
       d="m 1207.5413,637.47686 c 5.814,-0.25713 11.6353,-0.29498 17.4541,-0.33059 6.0305,-0.0647 12.0578,0.14476 18.0862,0.23773 1.7648,0.0916 3.5089,0.0102 5.2579,-0.22351 0.2887,-0.0386 0.6027,-0.25164 0.8649,-0.12479 0.2404,0.1163 0.2388,0.47771 0.3582,0.71656 -4.0623,-2.3015 -7.9744,-4.89102 -12.1869,-6.9045 -0.3855,-0.18428 0.2817,0.81383 0.3321,1.23816 0.079,0.66835 0.08,1.34584 0.055,2.0184 -0.108,2.82297 -0.7026,5.62849 -1.1963,8.39974 -1.0743,5.37496 -2.0842,10.75369 -2.8178,16.1865 -0.3753,2.56547 -0.4057,5.16529 -0.6792,7.73915 -0.603,3.19265 -1.2343,6.38032 -1.8008,9.58077 -0.3945,2.317 -0.7528,4.63987 -1.1233,6.96077 0,0 12.8514,6.75778 12.8514,6.75778 v 0 c 0.2326,-2.33275 0.4815,-4.66527 0.9207,-6.97061 0.6503,-3.17696 1.549,-6.28074 2.3243,-9.41959 0.339,-2.61968 -0.068,-5.30977 0.3281,-7.93566 0.4782,-5.46118 1.425,-10.84814 2.5156,-16.21857 0.7139,-3.47485 1.6117,-7.04555 1.8109,-10.60147 0.029,-0.50877 0.3576,-1.21353 -0.043,-1.5281 -4.0739,-3.19684 -8.6081,-5.75889 -12.9122,-8.63833 -2.2271,0.14563 -4.439,0.53939 -6.686,0.37453 -5.8102,0.0936 -11.6193,0.30795 -17.4317,0.23773 -6.1222,-0.0368 -12.2462,-0.084 -18.3642,-0.33059 z" /><path
       style="fill:#000000"
       id="path44"
       d="m 1571.9516,460.71409 c -7.3978,0.3496 -14.8077,0.36702 -22.2121,0.4354 -10.273,0.14507 -20.6631,-0.068 -30.8047,1.86643 -1.7024,0.32472 -3.3752,0.78901 -5.0628,1.18352 -5.1152,1.63784 -10.3097,3.80241 -13.9634,7.92072 -1.9427,2.18963 -2.2924,3.36691 -3.5632,5.9762 -2.5205,7.62086 -2.5007,15.70598 -0.2157,23.39514 0.5394,1.81535 1.2946,3.55951 1.9419,5.33926 3.2971,7.70389 8.3894,14.35083 14.2631,20.26795 3.6998,3.72722 5.9598,5.47255 9.9735,8.84643 1.7323,1.27779 3.4204,2.61768 5.1968,3.83338 1.8062,1.23608 3.6478,2.4249 5.5443,3.51743 8.8861,5.11918 14.268,8.7188 22.8491,11.92736 4.9073,1.83492 6.4045,2.04762 11.4332,3.2784 7.8637,1.55634 16.0636,1.92421 23.6648,-1.01467 1.1539,-0.44615 2.2428,-1.04487 3.3642,-1.56731 0.9724,-0.64204 2.012,-1.19231 2.917,-1.92613 3.7563,-3.04552 6.5957,-7.45983 8.5985,-11.80703 0.5365,-1.1647 0.9541,-2.38065 1.4312,-3.57098 2.6266,-7.11777 3.6919,-14.61149 4.4152,-22.12008 0.5713,-6.97177 0.4565,-13.96414 -0.1657,-20.92438 -0.4446,-6.59885 -2.8727,-11.90592 -6.2449,-17.46428 -3.2084,-4.75911 -6.9652,-9.14482 -11.4026,-12.79155 -5.1885,-3.65749 -10.9814,-6.57937 -16.4333,-9.68423 -0.7315,-0.41661 -1.2542,-0.57731 -2.0744,-0.53937 -0.9322,-0.004 -1.3877,2.57983 -0.8187,1.3959 2.8475,-4.98564 0.1657,-0.82767 13.2399,6.71065 0,0 -13.6027,-6.42481 -13.6027,-6.42481 v 0 c 13.233,8.02881 10.0729,12.02174 13.4808,7.18592 0.065,-0.13281 0.1426,-0.25998 0.1942,-0.39842 0.4138,-1.10998 -0.6345,0.076 -0.6493,0.42623 0,0.0613 0.1052,0.0631 0.1578,0.0946 4.4042,2.07492 10.777,6.21972 -9.9408,-5.86584 -1.0047,-0.58611 4.4381,2.47881 3.0241,1.7413 4.754,3.43892 8.4546,7.65732 11.8482,12.42839 3.345,5.16398 6.0367,10.68973 6.6044,16.90997 0.7243,6.88773 0.7937,13.78661 0.2834,20.69787 -0.537,7.40826 -1.5459,14.78733 -4.1318,21.79773 -0.4609,1.14366 -0.8627,2.31297 -1.3827,3.43097 -2.4456,5.25741 -5.97,10.01722 -11.0547,12.94465 -2.8195,1.29808 -3.7185,1.87627 -6.8162,2.60444 -6.3297,1.48789 -12.8453,0.89865 -19.1461,-0.40688 -4.9364,-1.26853 -6.3789,-1.48593 -11.188,-3.35391 -1.9362,-0.75204 -5.3653,-4.53011 -5.7153,-2.48274 -0.3688,2.15731 5.9632,1.38333 5.5363,3.5299 -0.8459,4.25313 -10.301,-10.92039 -10.8371,-7.19722 -3.838,-3.16489 -6.4588,-5.18297 -10.0059,-8.67835 -5.8118,-5.72703 -10.8815,-12.18305 -14.2162,-19.67253 -0.6446,-1.7166 -1.3952,-3.39707 -1.9339,-5.14979 -2.2511,-7.32367 -2.3354,-15.06929 0.2712,-22.29713 1.1752,-2.38057 1.5406,-3.52664 3.3052,-5.52909 3.4426,-3.90655 8.3027,-6.03677 13.1463,-7.60226 1.6261,-0.39375 3.2372,-0.856 4.8784,-1.18124 10.0857,-1.99861 20.4443,-1.76584 30.6699,-1.70817 7.8041,0.0703 15.6124,0.0995 23.4107,0.43539 z" /><path
       style="fill:#000000"
       id="path45"
       d="m 1503.9323,449.36289 c -4.3642,-2.52722 -10.6658,-6.05626 9.6764,5.54246 0.3601,0.2053 -0.7097,-0.42835 -1.0617,-0.64724 -0.9552,-0.59397 -0.8491,-0.53574 -1.7389,-1.14969 -1.6614,-0.97505 -2.9148,-2.43914 -4.2988,-3.7455 -0.1596,-0.1447 -0.3192,-0.2894 -0.4788,-0.43411 0,0 -13.8326,-5.5912 -13.8326,-5.5912 v 0 c 0.1795,0.14073 0.359,0.28147 0.5385,0.42221 1.5079,1.24122 2.7182,2.772 4.2735,3.94384 6.018,3.9416 12.0028,8.20465 18.7502,10.76607 z" /><path
       style="fill:#000000"
       id="path46"
       d="m 1471.8748,463.6792 c -5.5794,-0.384 -11.1242,-1.20667 -16.6445,-2.08997 -2.095,-0.17841 -4.1556,-1.00836 -6.275,-1.00186 -0.4347,10e-4 -0.8602,0.12643 -1.2904,0.18964 0,0 12.032,8.57154 12.032,8.57154 v 0 c 2.3328,-0.0593 4.6119,0.49468 6.919,0.77664 5.736,0.81555 11.4664,1.71152 17.2356,2.25563 z" /><path
       style="fill:#000000"
       id="path47"
       d="m 1475.2721,514.98433 c -3.0009,0.12945 -6.0064,0.1144 -9.0094,0.10126 0,0 11.8249,8.59135 11.8249,8.59135 v 0 c 3.0961,-0.0137 6.1941,-0.0229 9.2883,0.10126 z" /><path
       style="fill:#000000"
       id="path48"
       d="m 1508.9304,537.78577 c 0.3604,5.10843 0.3462,10.2344 0.3795,15.35271 0,5.13873 -0.04,10.27829 -0.2344,15.41372 0,0 13.0402,6.64432 13.0402,6.64432 v 0 c -0.1897,-5.21522 -0.2372,-10.43423 -0.2344,-15.65263 0.033,-4.9892 0.01,-9.98738 0.3795,-14.96595 z" /><path
       style="fill:#000000"
       id="path49"
       d="m 1567.6642,568.23769 c 0.2881,4.48158 0.2448,8.97773 0.1645,13.46544 -0.017,0.56499 -0.035,1.12998 -0.052,1.69497 0,0 13.0129,6.63041 13.0129,6.63041 v 0 c -0.017,-0.58279 -0.035,-1.16557 -0.052,-1.74836 -0.078,-4.43163 -0.1312,-8.87276 0.1645,-13.2978 z" /><path
       style="fill:#000000"
       id="path50"
       d="m 1594.1255,555.67363 c 0.3583,1.00317 0.5769,2.04544 0.7993,3.08436 0,0 13.3019,6.45106 13.3019,6.45106 v 0 c -0.1938,-1.0462 -0.3971,-2.09015 -0.6172,-3.13118 z" /><path
       style="fill:#000000"
       id="path51"
       d="m 1608.8922,459.85249 c 0.7058,-0.80487 1.315,-1.7871 2.1608,-2.46224 0.449,-0.35838 0.9782,-0.60271 1.4683,-0.90256 2.1673,-1.45994 4.3993,-2.8231 6.639,-4.16882 0,0 -12.3962,-7.96942 -12.3962,-7.96942 v 0 c -2.1573,1.47275 -4.3656,2.86771 -6.669,4.10353 -1.5784,0.94258 -2.7487,2.21378 -3.967,3.5777 z" /><path
       style="fill:#000000"
       id="path52"
       d="m 1558.8667,455.27624 c -0.6401,-1.73638 -0.9658,-3.55814 -1.5665,-5.30824 -0.516,-1.34716 -1.0606,-2.68459 -1.528,-4.04965 0,0 -13.5527,-6.3216 -13.5527,-6.3216 v 0 c 0.5269,1.37954 1.0608,2.75186 1.5864,4.13031 0.769,1.65602 1.1578,3.41133 1.5265,5.19297 z" /><path
       style="fill:#000000"
       id="path53"
       d="m 1788.4669,466.55823 c 7.1102,-0.56846 14.1789,-1.63455 21.2533,-2.54186 11.4427,-1.59485 22.9714,-2.45123 34.5193,-2.64336 8.3854,-0.0397 16.8714,0.87536 24.7248,3.98043 1.3188,0.52143 2.5788,1.18079 3.8682,1.77118 9.4931,5.54609 -2.81,-1.69193 -5.235,-2.6909 -1.0963,-0.45158 1.8699,1.46279 2.7378,2.2705 2.7103,2.5225 4.3602,4.94936 6.25,8.08093 4.0862,7.62216 4.8311,15.93481 5.1363,24.42234 -0.223,9.35075 -2.1559,18.62776 -5.3457,27.41294 -0.6443,1.77449 -1.4115,3.50194 -2.1172,5.2529 -3.2916,7.96609 -8.5889,14.66287 -14.2469,21.04781 -4.3755,5.14897 -9.6133,9.35494 -15.1008,13.2429 -6.8912,4.56271 -14.2707,8.32204 -21.8147,11.6707 -5.5386,2.52029 -11.2558,4.6121 -16.9544,6.73439 -5.9623,2.24579 -12.0079,4.18464 -18.2184,5.60736 -0.7681,0.15337 -1.5363,0.30673 -2.3045,0.46009 0,0 11.8603,8.21694 11.8603,8.21694 v 0 c 0.7348,-0.18958 1.4696,-0.37916 2.2043,-0.56874 6.1526,-1.69746 12.2575,-3.53868 18.2399,-5.77459 5.7234,-2.0784 11.4209,-4.24538 16.905,-6.90516 7.4725,-3.6021 14.8077,-7.52206 21.8164,-11.96616 5.6393,-3.90763 11.1869,-8.00981 15.504,-13.41573 5.4577,-6.71371 10.643,-13.67588 13.8233,-21.80877 0.7075,-1.78266 1.4687,-3.54492 2.1225,-5.34799 3.2233,-8.89008 5.3126,-18.2439 5.7935,-27.69546 -0.092,-8.4593 -0.6317,-17.12522 -4.4204,-24.8494 -0.5584,-1.01243 -1.0516,-2.06365 -1.6751,-3.0373 -1.049,-1.63785 -3.0753,-4.13582 -4.4439,-5.50564 -5.9959,-6.00101 -14.0437,-9.36128 -21.3823,-13.45271 -1.2959,-0.53692 -2.5663,-1.13983 -3.8875,-1.61077 -7.9281,-2.82578 -16.4096,-3.55687 -24.7695,-3.44438 -11.5702,0.3472 -23.1063,1.30656 -34.5926,2.74707 -7.4153,0.80096 -14.8799,1.88889 -22.3537,1.54657 z" /><path
       style="fill:#000000"
       id="path54"
       d="m 1788.4669,469.49259 c 2.7533,-0.21356 5.4941,0.004 8.0893,1.01151 0.7723,0.29975 1.5058,0.691 2.2587,1.03649 7.131,4.32327 -3.3636,-2.0879 -7.2085,-3.79412 -1.0018,-0.44456 1.7111,1.37169 2.5286,2.10163 2.7168,2.42558 5.045,5.10882 7.3292,7.93317 4.523,6.01451 7.4289,12.9682 9.9478,20.00114 2.1482,6.23001 3.7872,12.60742 4.8856,19.10107 0.9685,6.97416 1.1189,14.01524 0.6955,21.03379 -0.2243,5.14931 -1.4877,10.15447 -3.1565,15.00577 -1.6412,4.01068 -3.7834,7.78919 -5.9891,11.51056 -1.8365,3.11931 -4.316,5.7637 -6.4938,8.62952 -1.1319,1.661 -2.153,3.37277 -3.4197,4.94009 -1.1064,1.48333 -2.6792,2.50387 -3.9518,3.81301 -0.9639,1.00804 -1.695,2.20479 -2.529,3.31717 -0.3787,0.68612 -0.9051,1.27 -1.3588,1.90938 0,0 12.9034,7.59777 12.9034,7.59777 v 0 c 0.4429,-0.64703 1.0204,-1.19717 1.3586,-1.91097 0.7026,-1.08844 1.3886,-2.21309 2.322,-3.12099 1.3662,-1.28227 2.7421,-2.56062 3.9366,-4.00993 1.2992,-1.57951 2.4275,-3.2508 3.4185,-5.04195 2.0504,-3.00212 4.4727,-5.74373 6.3545,-8.86514 2.2506,-3.81181 4.4025,-7.69146 6.0533,-11.80806 1.7338,-4.9868 3.0036,-10.15825 3.1502,-15.46127 0.3402,-7.12844 0.164,-14.26291 -0.7018,-21.35387 -0.1532,-1.20875 -0.2626,-2.42386 -0.4596,-3.62624 -0.877,-5.35153 -2.6425,-10.53856 -4.25,-15.69847 -2.5632,-7.13837 -5.4788,-14.21154 -9.8625,-20.45332 -2.1899,-2.90275 -4.4444,-5.614 -7.082,-8.12852 -0.7946,-0.75742 -1.5338,-1.59744 -2.4539,-2.19616 -4.812,-3.13142 -9.778,-6.02004 -14.7038,-8.96925 -0.8223,-0.49235 -1.6913,-0.90222 -2.537,-1.35332 -0.8054,-0.30982 -1.5935,-0.669 -2.4162,-0.92945 -2.8456,-0.90086 -5.809,-0.94898 -8.7615,-1.01492 z" /><path
       style="fill:#000000"
       id="path55"
       d="m 2005.5821,576.7597 c 0.4999,7.54031 0.5883,15.10309 0.6784,22.65731 0,9.92109 -0.047,19.84334 -0.2337,29.76285 -0.095,3.53104 -0.1832,7.06296 -0.3762,10.59027 0,0 13.17,6.7105 13.17,6.7105 v 0 c -0.1895,-3.65537 -0.2816,-7.31483 -0.3762,-10.97365 -0.1842,-9.99894 -0.238,-20.00052 -0.2337,-30.001 0.088,-7.32361 0.1663,-14.65742 0.6784,-21.96599 z" /><path
       style="fill:#000000"
       id="path56"
       d="m 2060.6013,585.56277 c 0.3409,5.26196 0.3402,10.53936 0.3907,15.81004 -0.058,7.47171 0.1724,14.93568 0.7939,22.38162 0.3601,3.83178 0.7479,7.66248 0.9255,11.50813 0.019,1.0558 -0.01,2.08532 0.2881,3.10362 0.4636,1.19892 0.8591,2.42202 1.2236,3.65407 0,0 13.4054,6.34157 13.4054,6.34157 v 0 c -0.3778,-1.22276 -0.7699,-2.44279 -1.0965,-3.67982 -0.1175,-0.25549 -0.2935,-0.4889 -0.3637,-0.7612 -0.1668,-0.64699 0.031,-1.40565 -0.2016,-2.04743 -0.4901,-3.94308 -1.0279,-7.88006 -1.5193,-11.82307 -0.8377,-7.40623 -1.1794,-14.84118 -0.9297,-22.29533 0.05,-5.13784 0.042,-10.28343 0.3906,-15.41191 z" /><path
       style="fill:#000000"
       id="path57"
       d="m 1971.8253,663.96314 c 1.1096,5.86554 4.6646,10.84221 8.1523,15.53407 5.2212,6.40534 11.3705,12.04655 18.3012,16.56151 1.485,0.96738 3.0351,1.83093 4.5526,2.74639 5.4509,3.02391 10.8243,6.19191 16.3527,9.07174 1.6751,0.87261 3.4725,1.48929 5.2333,2.17276 6.8476,2.65799 13.875,4.64351 21.0094,6.35093 4.8302,0.95489 9.7039,2.07252 14.6594,1.92763 2.8509,-0.0834 3.3233,-0.26446 6.1379,-0.74153 1.0752,-0.2962 2.1725,-0.52171 3.2257,-0.88861 8.1398,-2.83559 15.9819,-8.86905 22.8959,-13.8884 9.3089,-6.89111 16.9342,-15.59804 23.9775,-24.71006 4.7026,-6.42394 9.0177,-13.14274 12.9343,-20.07403 0.713,-1.26337 1.3487,-2.56555 2.0698,-3.82391 0,0 -12.9249,-7.30756 -12.9249,-7.30756 v 0 c -0.4933,1.35475 -0.989,2.7096 -1.5937,4.02014 -3.3668,7.14196 -7.5491,13.84727 -12.1893,20.23166 -6.7768,9.11969 -14.2319,17.81662 -23.4666,24.55516 -8.1071,5.80962 -16.5646,11.76976 -26.5422,13.71327 -2.6504,0.35743 -3.3135,0.53486 -5.981,0.54814 -4.7468,0.0236 -9.4353,-0.9576 -14.0712,-1.85383 -7.0407,-1.67329 -13.9553,-3.63798 -20.6679,-6.37639 -1.775,-0.72413 -6.4749,-3.79952 -5.266,-2.31167 1.6927,2.08338 4.5603,2.83302 6.8405,4.24954 -1.5234,-0.88356 -3.0793,-1.71349 -4.5703,-2.65068 -6.8738,-4.32051 -12.9887,-9.77263 -18.1581,-16.02439 -3.2431,-4.2786 -6.5796,-8.8389 -7.5809,-14.23971 z" /></g><g
     inkscape:groupmode="layer"
     id="layer3"
     inkscape:label="Marks"
     inkscape:highlight-color="#089c27"
     style="display:inline"><path
       style="display:inline;fill:none;stroke:#000000;stroke-width:1.3352;stroke-linecap:butt;stroke-linejoin:miter;stroke-dasharray:5.34077, 5.34077;stroke-dashoffset:0.934639;stroke-opacity:1;marker-mid:url(#Scissors)"
       d="M 272.8294,408 H 408.28278 675.12421 784.3182"
       id="path54109"
       inkscape:label="Cut Mark"
       sodipodi:nodetypes="cccc" /><g
       id="g129"
       inkscape:label="Folds"
       transform="matrix(1.5013973,0.05967002,-0.0789879,1.5024136,-25.988918,118.3645)"><path
         style="opacity:1;vector-effect:non-scaling-stroke;fill:none;fill-rule:evenodd;stroke:#000000;stroke-width:1;stroke-linecap:round;stroke-dasharray:none;stroke-opacity:1;-inkscape-stroke:hairline;paint-order:stroke markers fill"
         d="m 43.753767,-190.12013 c 6.548217,5.52608 10.017886,34.22876 7.05402,42.81107 12.300731,1.43483 25.078467,-0.0509 38.656749,2.16135 8.932188,10.65153 18.566844,18.85475 27.920614,28.03694 8.18373,-10.0206 17.02353,-17.71558 25.55505,-26.50337 12.77469,-4.16465 23.0104,0.93139 37.13,-5.64656 1.56655,-15.86661 2.10663,-32.78709 6.50106,-45.75054 -8.45108,-5.18777 -12.35428,-14.07759 -16.23115,-22.98881 l -34.42711,1.28887 c -7.61202,-8.65765 -15.65734,-16.62351 -23.96225,-24.17497 -6.77682,9.08778 -13.554099,18.19472 -20.359879,28.49635 l -33.713905,1.38955 c -5.358033,7.49485 -1.514721,21.53505 -14.123199,20.88012 z"
         id="path122"
         sodipodi:nodetypes="ccccccccccccc" /><path
         style="opacity:1;vector-effect:non-scaling-stroke;fill:none;fill-rule:evenodd;stroke:#000000;stroke-width:1;stroke-linecap:round;stroke-dasharray:none;stroke-opacity:1;-inkscape-stroke:hairline;paint-order:stroke markers fill"
         d="m 91.590871,-212.3898 -2.921587,21.30733 c 0.840265,15.39335 1.670547,30.78527 0.795252,45.93476"
         id="path123"
         sodipodi:nodetypes="ccc" /><path
         style="opacity:1;vector-effect:non-scaling-stroke;fill:none;fill-rule:evenodd;stroke:#000000;stroke-width:1;stroke-linecap:round;stroke-dasharray:none;stroke-opacity:1;-inkscape-stroke:hairline;paint-order:stroke markers fill"
         d="m 43.753767,-190.12013 44.915517,-0.96234 28.456176,-33.69283 c 9.52725,10.40236 17.44576,21.828 25.32135,33.28094 l 44.12445,-3.51688"
         id="path124"
         sodipodi:nodetypes="ccccc" /><path
         style="opacity:1;vector-effect:non-scaling-stroke;fill:none;fill-rule:evenodd;stroke:#000000;stroke-width:1;stroke-linecap:round;stroke-dasharray:none;stroke-opacity:1;-inkscape-stroke:hairline;paint-order:stroke markers fill"
         d="m 111.95075,-240.88615 c 0,0 5.17471,16.11085 5.17471,16.11085"
         id="path125" /><path
         style="opacity:1;vector-effect:non-scaling-stroke;fill:none;fill-rule:evenodd;stroke:#000000;stroke-width:1;stroke-linecap:round;stroke-dasharray:none;stroke-opacity:1;-inkscape-stroke:hairline;paint-order:stroke markers fill"
         d="m 88.669284,-191.08247 c 9.17469,4.31627 27.905046,14.35603 30.937006,20.76522 0,0 24.17801,-21.96884 22.84052,-21.17711"
         id="path126"
         sodipodi:nodetypes="ccc" /><path
         style="opacity:1;vector-effect:non-scaling-stroke;fill:none;fill-rule:evenodd;stroke:#000000;stroke-width:1;stroke-linecap:round;stroke-dasharray:none;stroke-opacity:1;-inkscape-stroke:hairline;paint-order:stroke markers fill"
         d="m 120.50396,-171.71238 -2.22114,53.20648"
         id="path127" /><path
         style="opacity:1;vector-effect:non-scaling-stroke;fill:none;fill-rule:evenodd;stroke:#000000;stroke-width:1;stroke-linecap:round;stroke-dasharray:none;stroke-opacity:1;-inkscape-stroke:hairline;paint-order:stroke markers fill"
         d="m 135.913,-216.71118 c 3.0848,9.17458 4.82611,17.17849 6.5871,25.19957 0.86264,19.70331 -0.3509,32.43266 0.4401,47.89747"
         id="path128"
         sodipodi:nodetypes="ccc" /><text
         xml:space="preserve"
         style="font-weight:bold;font-size:19.7626px;line-height:1;font-family:'Liberation Sans';-inkscape-font-specification:'Liberation Sans Bold';text-decoration-color:#000000;letter-spacing:0px;word-spacing:0px;opacity:1;vector-effect:non-scaling-stroke;fill:none;fill-rule:evenodd;stroke:#000000;stroke-width:0.653606;stroke-linecap:round;stroke-dasharray:none;stroke-opacity:1;-inkscape-stroke:hairline;paint-order:stroke markers fill"
         x="155.19339"
         y="-127.29407"
         id="text128"
         transform="rotate(-42.868592)"><tspan
           sodipodi:role="line"
           id="tspan128"
           x="155.19339"
           y="-127.29407"
           style="letter-spacing:0px;fill:#241f31;stroke:none;stroke-width:0.653606">Folds</tspan></text><text
         xml:space="preserve"
         style="font-weight:bold;font-size:19.7626px;line-height:1;font-family:'Liberation Sans';-inkscape-font-specification:'Liberation Sans Bold';text-decoration-color:#000000;letter-spacing:0px;word-spacing:0px;display:inline;vector-effect:non-scaling-stroke;fill:#5e5c64;fill-rule:evenodd;stroke:#000000;stroke-width:0.653606;stroke-linecap:round;stroke-dasharray:none;stroke-opacity:1;-inkscape-stroke:hairline;paint-order:stroke markers fill"
         x="157.10443"
         y="-163.51903"
         id="text128-9"><tspan
           sodipodi:role="line"
           id="tspan128-4"
           x="157.10443"
           y="-163.51903"
           style="letter-spacing:0px;fill:#5e5c64;stroke:none;stroke-width:0.653606">1</tspan></text><text
         xml:space="preserve"
         style="font-weight:bold;font-size:19.7626px;line-height:1;font-family:'Liberation Sans';-inkscape-font-specification:'Liberation Sans Bold';text-decoration-color:#000000;letter-spacing:0px;word-spacing:0px;display:inline;vector-effect:non-scaling-stroke;fill:#5e5c64;fill-rule:evenodd;stroke:#000000;stroke-width:0.653606;stroke-linecap:round;stroke-dasharray:none;stroke-opacity:1;-inkscape-stroke:hairline;paint-order:stroke markers fill"
         x="61.755192"
         y="-162.40356"
         id="text128-9-3"><tspan
           sodipodi:role="line"
           id="tspan128-4-8"
           x="61.755192"
           y="-162.40356"
           style="letter-spacing:0px;fill:#5e5c64;stroke:none;stroke-width:0.653606">6</tspan></text><text
         xml:space="preserve"
         style="font-weight:bold;font-size:19.7626px;line-height:1;font-family:'Liberation Sans';-inkscape-font-specification:'Liberation Sans Bold';text-decoration-color:#000000;letter-spacing:0px;word-spacing:0px;display:inline;vector-effect:non-scaling-stroke;fill:#5e5c64;fill-rule:evenodd;stroke:#000000;stroke-width:0.653606;stroke-linecap:round;stroke-dasharray:none;stroke-opacity:1;-inkscape-stroke:hairline;paint-order:stroke markers fill"
         x="-162.23645"
         y="212.3898"
         id="text128-9-9"
         transform="scale(-1)"><tspan
           sodipodi:role="line"
           id="tspan128-4-3"
           x="-162.23645"
           y="212.3898"
           style="letter-spacing:0px;fill:#5e5c64;stroke:none;stroke-width:0.653606">2</tspan></text><text
         xml:space="preserve"
         style="font-weight:bold;font-size:19.7626px;line-height:1;font-family:'Liberation Sans';-inkscape-font-specification:'Liberation Sans Bold';text-decoration-color:#000000;letter-spacing:0px;word-spacing:0px;display:inline;vector-effect:non-scaling-stroke;fill:#5e5c64;fill-rule:evenodd;stroke:#000000;stroke-width:0.653606;stroke-linecap:round;stroke-dasharray:none;stroke-opacity:1;-inkscape-stroke:hairline;paint-order:stroke markers fill"
         x="-76.733917"
         y="207.69502"
         id="text128-9-9-8"
         transform="scale(-1)"><tspan
           sodipodi:role="line"
           id="tspan128-4-3-5"
           x="-76.733917"
           y="207.69502"
           style="letter-spacing:0px;fill:#5e5c64;stroke:none;stroke-width:0.653606">5</tspan></text></g></g><metadata
     id="metadata10"><rdf:RDF><cc:Work
         rdf:about=""><dc:title>US Letter Zine Template</dc:title><dc:date>2023-10-20</dc:date><dc:creator><cc:Agent><dc:title>Martin Owens</dc:title></cc:Agent></dc:creator><dc:rights><cc:Agent><dc:title>Public Domain</dc:title></cc:Agent></dc:rights><dc:publisher><cc:Agent><dc:title>Inkscape</dc:title></cc:Agent></dc:publisher><dc:language>English</dc:language></cc:Work></rdf:RDF></metadata></svg>
